<svg width="64" height="64" viewBox="0 0 64 64" fill="none" xmlns="http://www.w3.org/2000/svg">
<circle cx="30.75" cy="18.25" r="17.75" fill="white"/>
<path d="M41 18.5C41 24.0228 36.5228 28.5 31 28.5C25.4772 28.5 21 24.0228 21 18.5C21 12.9772 25.4772 8.5 31 8.5C36.5228 8.5 41 12.9772 41 18.5Z" fill="white"/>
<path d="M31 8.5C29.0222 8.5 27.0888 9.08649 25.4443 10.1853C23.7998 11.2841 22.5181 12.8461 21.7612 14.6733C21.0043 16.5006 20.8063 18.5111 21.1922 20.4509C21.578 22.3907 22.5304 24.1725 23.9289 25.571C25.3275 26.9696 27.1093 27.922 29.0491 28.3079C30.9889 28.6937 32.9996 28.4956 34.8268 27.7388C36.6541 26.9819 38.2159 25.7002 39.3147 24.0557C40.4135 22.4112 41 20.4778 41 18.5C41 15.8478 39.9464 13.3043 38.0711 11.429C36.1957 9.55359 33.6522 8.5 31 8.5ZM31 24.5C30.7033 24.5 30.4133 24.4121 30.1667 24.2473C29.92 24.0825 29.7277 23.8481 29.6142 23.574C29.5007 23.2999 29.471 22.9985 29.5288 22.7075C29.5867 22.4165 29.7296 22.1492 29.9394 21.9395C30.1491 21.7297 30.4164 21.5867 30.7074 21.5288C30.9983 21.4709 31.2999 21.5007 31.574 21.6143C31.8481 21.7278 32.0824 21.9201 32.2472 22.1667C32.412 22.4134 32.5 22.7033 32.5 23C32.5 23.3978 32.342 23.7795 32.0607 24.0608C31.7794 24.3421 31.3978 24.5 31 24.5ZM32.58 19.4001C32.4424 19.4654 32.3088 19.5388 32.18 19.6201C32.0824 19.8995 31.8888 20.1351 31.6338 20.2852C31.3787 20.4352 31.0787 20.4899 30.7871 20.4395C30.4955 20.3891 30.2312 20.2367 30.0413 20.0098C29.8514 19.7828 29.7482 19.4959 29.75 19.1999C29.75 18.0599 30.75 17.5599 31.42 17.1999C32.36 16.7099 32.75 16.43 32.75 15.72C32.75 15.01 31.95 14.47 31 14.47C30.05 14.47 29.25 15.05 29.25 15.72C29.25 16.0515 29.1183 16.3696 28.8839 16.604C28.6495 16.8384 28.3315 16.97 28 16.97C27.6685 16.97 27.3505 16.8384 27.1161 16.604C26.8817 16.3696 26.75 16.0515 26.75 15.72C26.8738 14.6798 27.3748 13.7212 28.1581 13.0256C28.9413 12.3301 29.9525 11.946 31 11.946C32.0475 11.946 33.0587 12.3301 33.8419 13.0256C34.6252 13.7212 35.1262 14.6798 35.25 15.72C35.2177 16.5284 34.9469 17.3093 34.4718 17.9641C33.9967 18.6189 33.3385 19.1186 32.58 19.4001Z" fill="#004DA5"/>
<g clip-path="url(#clip0_14807_161059)">
<path d="M39.6688 34.3187L34.8535 36.2581L37.9301 43.8556L42.7403 41.9162L39.6688 34.3187Z" fill="#D5DADD"/>
<path d="M38.1049 43.2508C37.8603 43.3516 37.6656 43.5448 37.5633 43.7883C37.461 44.0318 37.4593 44.3057 37.5588 44.5504L44.7441 62.1996C45.0432 62.9142 45.6139 63.4816 46.3313 63.7776C47.0487 64.0736 47.8544 64.0741 48.5722 63.7791L49.1435 63.5442C49.5046 63.4005 49.8333 63.1863 50.1103 62.9142C50.3874 62.6421 50.6072 62.3176 50.7569 61.9597C51.0526 61.2424 51.0526 60.4377 50.7569 59.7204L43.5716 42.0912C43.5221 41.9687 43.4487 41.8572 43.3558 41.7632C43.2629 41.6691 43.1522 41.5944 43.0301 41.5433C42.908 41.4922 42.777 41.4657 42.6446 41.4653C42.5122 41.465 42.3811 41.4909 42.2588 41.5414L38.1049 43.2508Z" fill="#F58B00"/>
<path d="M34.6826 35.8582L35.1837 37.0528C35.1837 37.0528 37.689 38.1674 40.3347 35.8382L39.533 33.9238L37.3232 34.9935L34.6826 35.8582Z" fill="#00144A"/>
<path d="M31.0297 36.8779C26.7515 36.8884 22.6021 35.4181 19.2891 32.7179C15.9761 30.0176 13.7046 26.2546 12.862 22.0704C12.0195 17.8863 12.658 13.5401 14.6687 9.77307C16.6793 6.00603 19.9377 3.05139 23.8881 1.41297C27.8385 -0.225455 32.2363 -0.446193 36.3317 0.788393C40.427 2.02298 43.9662 4.63643 46.3458 8.18311C48.7254 11.7298 49.798 15.9901 49.3807 20.2374C48.9634 24.4848 47.0821 28.4563 44.0575 31.4747C40.6041 34.9264 35.9185 36.8698 31.0297 36.8779ZM31.0297 1.53445C27.1024 1.52757 23.2942 2.87965 20.2544 5.3602C17.2146 7.84076 15.1312 11.2962 14.3596 15.1376C13.5879 18.9789 14.1757 22.9683 16.0227 26.4257C17.8697 29.8831 20.8616 32.5945 24.4884 34.0977C28.1152 35.6008 32.1523 35.8027 35.9116 34.6689C39.6709 33.535 42.9196 31.1357 45.1039 27.8799C47.2883 24.624 48.273 20.7133 47.8904 16.8142C47.5077 12.9152 45.7812 9.26919 43.0053 6.49782C41.4345 4.92543 39.5682 3.67763 37.5132 2.82593C35.4583 1.97422 33.255 1.53535 31.0297 1.53445Z" fill="#00144A"/>
</g>
<defs>
<clipPath id="clip0_14807_161059">
<rect width="38.4785" height="64" fill="white" transform="translate(12.5)"/>
</clipPath>
</defs>
</svg>
