<svg width="64" height="64" viewBox="0 0 64 64" fill="none" xmlns="http://www.w3.org/2000/svg">
<path d="M15.2919 3.4142L6.9909 53.4864C6.6227 55.7074 8.1233 57.8066 10.3426 58.1751L45.1417 63.9529C47.361 64.3214 49.4585 62.8196 49.8267 60.5987L58.1277 10.5265C58.4959 8.30547 56.9953 6.20629 54.776 5.83781L19.9769 0.0599365C17.7576 -0.308543 15.6601 1.19322 15.2919 3.4142Z" fill="#8396A8"/>
<path d="M44.366 2.43562H10.5831C8.33344 2.43562 6.50977 4.2607 6.50977 6.51205V55.2407C6.50977 57.492 8.33344 59.3171 10.5831 59.3171H44.366C46.6156 59.3171 48.4393 57.492 48.4393 55.2407V6.51205C48.4393 4.2607 46.6156 2.43562 44.366 2.43562Z" fill="#2F3235"/>
<path d="M44.3654 59.8266H10.5825C9.36712 59.8266 8.20155 59.3435 7.34217 58.4834C6.48279 57.6234 6 56.4569 6 55.2406V6.51202C6 5.29575 6.48279 4.12928 7.34217 3.26924C8.20155 2.40921 9.36712 1.92604 10.5825 1.92604H44.3654C45.5807 1.92604 46.7463 2.40921 47.6057 3.26924C48.4651 4.12928 48.9478 5.29575 48.9478 6.51202V55.2406C48.9478 56.4569 48.4651 57.6234 47.6057 58.4834C46.7463 59.3435 45.5807 59.8266 44.3654 59.8266ZM10.5825 2.94515C9.63719 2.94515 8.73064 3.32094 8.06223 3.98986C7.39383 4.65878 7.01832 5.56603 7.01832 6.51202V55.2406C7.01832 56.1866 7.39383 57.0939 8.06223 57.7628C8.73064 58.4317 9.63719 58.8075 10.5825 58.8075H44.3654C45.3107 58.8075 46.2172 58.4317 46.8856 57.7628C47.554 57.0939 47.9295 56.1866 47.9295 55.2406V6.51202C47.9295 5.56603 47.554 4.65878 46.8856 3.98986C46.2172 3.32094 45.3107 2.94515 44.3654 2.94515H10.5825Z" fill="#8396A8"/>
<path d="M27.6833 42.0101C33.2966 42.0101 37.847 37.4596 37.847 31.8464C37.847 26.2331 33.2966 21.6826 27.6833 21.6826C22.07 21.6826 17.5195 26.2331 17.5195 31.8464C17.5195 37.4596 22.07 42.0101 27.6833 42.0101Z" fill="#5581AE"/>
<path d="M28.6015 30.4063C28.5971 30.5025 28.613 30.5986 28.6481 30.6884C28.6832 30.7782 28.7369 30.8598 28.8055 30.9279C28.8742 30.996 28.9565 31.0491 29.047 31.084C29.1376 31.1188 29.2345 31.1345 29.3316 31.1301H32.6452C32.742 31.1346 32.8387 31.1188 32.929 31.084C33.0193 31.0491 33.1013 30.9958 33.1695 30.9277C33.2378 30.8595 33.291 30.7778 33.3255 30.688C33.3601 30.5982 33.3752 30.5023 33.37 30.4063V27.0695C33.3752 26.9735 33.3601 26.8775 33.3255 26.7877C33.291 26.6979 33.2378 26.6163 33.1695 26.5481C33.1013 26.4799 33.0193 26.4266 32.929 26.3918C32.8387 26.3569 32.742 26.3412 32.6452 26.3456C32.5482 26.3412 32.4513 26.357 32.3607 26.3918C32.2701 26.4266 32.1879 26.4798 32.1192 26.5479C32.0505 26.616 31.9969 26.6975 31.9617 26.7874C31.9266 26.8772 31.9108 26.9733 31.9152 27.0695V28.2759C31.372 27.6708 30.7062 27.1861 29.9612 26.8535C29.2162 26.5209 28.4089 26.3478 27.5919 26.3456C26.0585 26.347 24.5883 26.9516 23.504 28.0266C22.4197 29.1017 21.81 30.5594 21.8086 32.0798C21.81 33.6002 22.4197 35.058 23.504 36.133C24.5883 37.2081 26.0585 37.8127 27.5919 37.8141C28.9062 37.8079 30.1799 37.3627 31.2076 36.5505C32.2353 35.7383 32.957 34.6064 33.2561 33.3376C33.2756 33.2395 33.2751 33.1386 33.2547 33.0407C33.2342 32.9429 33.1942 32.8501 33.1371 32.7677C33.0845 32.6903 33.0165 32.6244 32.9372 32.5741C32.858 32.5238 32.7692 32.4901 32.6763 32.4751C32.5774 32.4558 32.4756 32.4563 32.3769 32.4766C32.2782 32.4969 32.1846 32.5365 32.1016 32.5932C32.0241 32.6447 31.9579 32.7114 31.9072 32.789C31.8565 32.8667 31.8221 32.9537 31.8064 33.0449C31.5932 33.9931 31.0585 34.8401 30.2915 35.4446C29.5245 36.049 28.5717 36.3744 27.5919 36.3664C26.4453 36.365 25.3459 35.9131 24.5346 35.1097C23.7233 34.3062 23.2662 33.2167 23.2635 32.0798C23.2648 30.942 23.7213 29.8512 24.5327 29.0467C25.3442 28.2421 26.4444 27.7895 27.5919 27.7882C28.2994 27.7871 28.996 27.96 29.6195 28.2915C30.243 28.623 30.7738 29.1027 31.1644 29.6876H29.2746C29.1822 29.6888 29.0909 29.7086 29.0063 29.7458C28.9218 29.783 28.8458 29.8369 28.7829 29.9041C28.7199 29.9713 28.6714 30.0504 28.6403 30.1367C28.6091 30.2231 28.5959 30.3148 28.6015 30.4063Z" fill="#EAECEE"/>
</svg>
