<svg width="64" height="64" viewBox="0 0 64 64" fill="none" xmlns="http://www.w3.org/2000/svg">
<path d="M15.2919 3.41415L6.9909 53.4864C6.6227 55.7073 8.1233 57.8065 10.3426 58.175L45.1417 63.9529C47.361 64.3214 49.4585 62.8196 49.8267 60.5986L58.1277 10.5264C58.4959 8.30541 56.9953 6.20623 54.776 5.83775L19.9769 0.059883C17.7576 -0.308596 15.6601 1.19316 15.2919 3.41415Z" fill="#8396A8"/>
<path d="M44.365 2.43555H10.5821C8.33247 2.43555 6.50879 4.26063 6.50879 6.51198V55.2406C6.50879 57.492 8.33247 59.317 10.5821 59.317H44.365C46.6146 59.317 48.4383 57.492 48.4383 55.2406V6.51198C48.4383 4.26063 46.6146 2.43555 44.365 2.43555Z" fill="#2F3235"/>
<path d="M44.3654 59.8264H10.5825C9.36712 59.8264 8.20155 59.3432 7.34217 58.4832C6.48279 57.6231 6 56.4567 6 55.2404V6.51177C6 5.29549 6.48279 4.12902 7.34217 3.26899C8.20155 2.40895 9.36712 1.92578 10.5825 1.92578H44.3654C45.5807 1.92578 46.7463 2.40895 47.6057 3.26899C48.4651 4.12902 48.9478 5.29549 48.9478 6.51177V55.2404C48.9478 56.4567 48.4651 57.6231 47.6057 58.4832C46.7463 59.3432 45.5807 59.8264 44.3654 59.8264ZM10.5825 2.94489C9.63719 2.94489 8.73064 3.32068 8.06223 3.9896C7.39383 4.65852 7.01832 5.56577 7.01832 6.51177V55.2404C7.01832 56.1864 7.39383 57.0936 8.06223 57.7626C8.73064 58.4315 9.63719 58.8073 10.5825 58.8073H44.3654C45.3107 58.8073 46.2172 58.4315 46.8856 57.7626C47.554 57.0936 47.9295 56.1864 47.9295 55.2404V6.51177C47.9295 5.56577 47.554 4.65852 46.8856 3.9896C46.2172 3.32068 45.3107 2.94489 44.3654 2.94489H10.5825Z" fill="#8396A8"/>
<path d="M27.6833 42.0091C33.2966 42.0091 37.847 37.4587 37.847 31.8454C37.847 26.2321 33.2966 21.6816 27.6833 21.6816C22.07 21.6816 17.5195 26.2321 17.5195 31.8454C17.5195 37.4587 22.07 42.0091 27.6833 42.0091Z" fill="#5581AE"/>
<path d="M28.6015 30.4052C28.5971 30.5014 28.613 30.5975 28.6481 30.6873C28.6832 30.7771 28.7369 30.8586 28.8055 30.9267C28.8742 30.9948 28.9565 31.048 29.047 31.0828C29.1376 31.1177 29.2345 31.1334 29.3316 31.129H32.6452C32.742 31.1334 32.8387 31.1177 32.929 31.0828C33.0193 31.048 33.1013 30.9947 33.1695 30.9265C33.2378 30.8583 33.291 30.7767 33.3255 30.6869C33.3601 30.5971 33.3752 30.5011 33.37 30.4052V27.0683C33.3752 26.9724 33.3601 26.8764 33.3255 26.7866C33.291 26.6968 33.2378 26.6152 33.1695 26.547C33.1013 26.4788 33.0193 26.4255 32.929 26.3906C32.8387 26.3558 32.742 26.34 32.6452 26.3445C32.5482 26.3401 32.4513 26.3558 32.3607 26.3907C32.2701 26.4255 32.1879 26.4787 32.1192 26.5468C32.0505 26.6149 31.9969 26.6964 31.9617 26.7862C31.9266 26.876 31.9108 26.9721 31.9152 27.0683V28.2747C31.372 27.6696 30.7062 27.185 29.9612 26.8524C29.2162 26.5198 28.4089 26.3467 27.5919 26.3445C26.0585 26.3458 24.5883 26.9504 23.504 28.0255C22.4197 29.1006 21.81 30.5583 21.8086 32.0787C21.81 33.5991 22.4197 35.0568 23.504 36.1319C24.5883 37.207 26.0585 37.8116 27.5919 37.8129C28.9062 37.8067 30.1799 37.3616 31.2076 36.5494C32.2353 35.7372 32.957 34.6053 33.2561 33.3364C33.2756 33.2384 33.2751 33.1375 33.2547 33.0396C33.2342 32.9417 33.1942 32.8489 33.1371 32.7666C33.0845 32.6892 33.0165 32.6233 32.9372 32.573C32.858 32.5226 32.7692 32.4889 32.6763 32.474C32.5774 32.4547 32.4756 32.4552 32.3769 32.4755C32.2782 32.4957 32.1846 32.5354 32.1016 32.592C32.0241 32.6436 31.9579 32.7102 31.9072 32.7879C31.8565 32.8655 31.8221 32.9526 31.8064 33.0438C31.5932 33.992 31.0585 34.839 30.2915 35.4434C29.5245 36.0479 28.5717 36.3733 27.5919 36.3652C26.4453 36.3639 25.3459 35.912 24.5346 35.1085C23.7233 34.3051 23.2662 33.2156 23.2635 32.0787C23.2648 30.9409 23.7213 29.8501 24.5327 29.0455C25.3442 28.241 26.4444 27.7884 27.5919 27.787C28.2994 27.7859 28.996 27.9589 29.6195 28.2904C30.243 28.6219 30.7738 29.1016 31.1644 29.6865H29.2746C29.1822 29.6877 29.0909 29.7075 29.0063 29.7447C28.9218 29.7819 28.8458 29.8357 28.7829 29.9029C28.7199 29.9701 28.6714 30.0493 28.6403 30.1356C28.6091 30.2219 28.5959 30.3136 28.6015 30.4052Z" fill="#EAECEE"/>
</svg>
