<svg width="48" height="48" viewBox="0 0 48 48" fill="none" xmlns="http://www.w3.org/2000/svg">
<path fill-rule="evenodd" clip-rule="evenodd" d="M41.4458 4.72464L44.4099 29.8012C44.4938 30.5535 44.3026 31.3108 43.8716 31.9331L35.9495 43.5559C35.6969 43.9257 35.3681 44.2371 34.9851 44.4692C34.6021 44.7014 34.1738 44.8488 33.7291 44.9017L7.6893 47.9791C7.57173 47.9926 7.45351 47.9997 7.33516 48.0004C6.5698 47.9988 5.83153 47.7168 5.25992 47.2079C4.6883 46.6989 4.32295 45.9981 4.23291 45.2381L0.0222164 9.62238C-0.0266976 9.21443 0.00534225 8.80085 0.116522 8.40531C0.227702 8.00977 0.41583 7.64006 0.670123 7.31734C0.924415 6.99462 1.23987 6.72524 1.59844 6.52464C1.957 6.32403 2.35163 6.19613 2.7597 6.14828L37.9717 1.98715C38.3796 1.93872 38.793 1.9711 39.1883 2.08247C39.5837 2.19384 39.9532 2.38201 40.2758 2.63623C40.5984 2.89044 40.8678 3.20571 41.0686 3.56404C41.2693 3.92238 41.3975 4.31675 41.4458 4.72464ZM0.706727 9.30561C0.701502 9.06691 0.731688 8.82832 0.796678 8.59768C0.883048 8.29117 1.02918 8.00477 1.22666 7.75496C1.42415 7.50514 1.66907 7.29684 1.94737 7.14205C2.22566 6.98726 2.53183 6.88902 2.84823 6.85301L38.0602 2.68834C38.1566 2.67715 38.2536 2.67124 38.3506 2.67064C38.9406 2.67145 39.51 2.88791 39.9516 3.27925C40.3931 3.67059 40.6764 4.20982 40.7481 4.79547L43.7123 29.872C43.7427 30.1408 43.727 30.4123 43.6663 30.675C43.7243 30.4168 43.7389 30.1503 43.709 29.8864L40.7449 4.80988C40.6732 4.22423 40.3899 3.68498 39.9483 3.29364C39.5067 2.9023 38.9374 2.68586 38.3473 2.68505C38.2503 2.68565 38.1533 2.69156 38.0569 2.70275L2.84851 6.86742C2.5321 6.90343 2.22594 7.00166 1.94764 7.15646C1.66935 7.31125 1.42442 7.51953 1.22694 7.76935C1.02945 8.01916 0.88332 8.30558 0.79695 8.61209C0.733267 8.83809 0.703001 9.07172 0.706727 9.30561ZM34.6462 32.4354C34.6356 32.4795 34.6298 32.5248 34.6289 32.5708L34.4306 43.1949C34.4293 43.3133 34.462 43.4296 34.5247 43.5301C34.5855 43.6273 34.6721 43.7057 34.7747 43.7567C34.7791 43.7535 34.7836 43.7504 34.788 43.7472C34.681 43.6964 34.5908 43.6161 34.528 43.5157C34.4652 43.4152 34.4326 43.299 34.4338 43.1805L34.6322 32.5564C34.6329 32.5154 34.6377 32.4749 34.6462 32.4354ZM21.9338 7.26967C21.5272 6.96604 21.0407 6.78806 20.5342 6.75764C19.8246 6.73666 19.1358 6.99833 18.6191 7.48511C18.1025 7.97189 17.8003 8.64392 17.779 9.35346C17.7792 9.86088 17.9279 10.3572 18.2068 10.7811C18.4857 11.205 18.8826 11.5379 19.3485 11.739C19.8144 11.94 20.329 12.0003 20.8287 11.9124C21.3285 11.8245 21.7915 11.5922 22.1609 11.2443C22.5302 10.8963 22.7896 10.4479 22.9071 9.95422C23.0246 9.46059 22.995 8.94338 22.8221 8.46634C22.6491 7.9893 22.3403 7.57331 21.9338 7.26967Z" fill="#8396A8"/>
<path d="M35.7514 42.2349C36.1549 42.185 36.5395 42.0353 36.8705 41.7993C36.7638 41.7482 36.6738 41.6678 36.6111 41.5674C36.5484 41.4671 36.5155 41.351 36.5164 41.2327L36.7147 30.6085C36.7174 30.4577 36.7738 30.3128 36.8738 30.1999C36.9738 30.087 37.1107 30.0134 37.2601 29.9923L45.3451 28.8591C45.4654 28.8398 45.5888 28.8571 45.6992 28.9087C45.7987 28.5906 45.8301 28.2551 45.7913 27.9241L42.8271 2.8476C42.7554 2.26195 42.4721 1.72272 42.0306 1.33138C41.589 0.940042 41.0196 0.723583 40.4296 0.722772C40.3329 0.717491 40.2359 0.717491 40.1392 0.722772L4.93077 4.8839C4.61441 4.9208 4.30841 5.01973 4.03032 5.17503C3.75223 5.33033 3.5075 5.53894 3.31013 5.78894C3.11277 6.03893 2.96664 6.3254 2.88013 6.63194C2.79361 6.93848 2.76841 7.25907 2.80594 7.57536L7.02018 43.1946C7.05709 43.5106 7.15591 43.8163 7.31099 44.0941C7.46606 44.372 7.67435 44.6165 7.92396 44.8139C8.17357 45.0112 8.4596 45.1574 8.76573 45.2441C9.07186 45.3309 9.39208 45.3565 9.7081 45.3194L35.7514 42.2349ZM22.62 4.79536C23.1265 4.82578 23.613 5.00379 24.0196 5.30742C24.4261 5.61105 24.7349 6.02703 24.9079 6.50407C25.0808 6.9811 25.1104 7.49834 24.9929 7.99197C24.8754 8.4856 24.616 8.93405 24.2467 9.28201C23.8773 9.62997 23.4142 9.86224 22.9145 9.95015C22.4147 10.0381 21.9002 9.97777 21.4343 9.77673C20.9684 9.5757 20.5715 9.24268 20.2926 8.81878C20.0137 8.39488 19.865 7.89863 19.8648 7.39121C19.887 6.68198 20.1895 6.0105 20.7059 5.52392C21.2224 5.03733 21.9107 4.77533 22.62 4.79536Z" fill="#2F3235"/>
<path d="M46.4959 27.8393L43.5318 2.76272C43.4342 1.93871 43.0134 1.18716 42.362 0.67319C41.7106 0.159221 40.8818 -0.0751129 40.0577 0.0216949L4.84566 4.20407C4.43758 4.25192 4.04296 4.37982 3.68439 4.58043C3.32583 4.78103 3.01037 5.05042 2.75608 5.37313C2.50178 5.69585 2.31366 6.06556 2.20248 6.4611C2.0913 6.85664 2.05924 7.27022 2.10815 7.67817L6.31886 43.2939C6.40898 44.0545 6.77484 44.7558 7.34719 45.2648C7.91955 45.7739 8.65869 46.0554 9.42467 46.0562C9.54301 46.0555 9.66123 46.0484 9.7788 46.0349L35.8186 42.9574C36.2633 42.9046 36.6916 42.7572 37.0746 42.525C37.4576 42.2929 37.7864 41.9815 38.0391 41.6117L45.9611 29.9889C46.3951 29.3613 46.5852 28.597 46.4959 27.8393ZM7.02005 43.1947L2.80936 7.57902C2.77182 7.26273 2.79702 6.94213 2.88354 6.63559C2.97006 6.32906 3.11618 6.04259 3.31355 5.79259C3.51091 5.5426 3.75565 5.33398 4.03373 5.17869C4.31182 5.02339 4.61782 4.92445 4.93419 4.88755L40.1426 0.726427C40.2394 0.721146 40.3363 0.721146 40.433 0.726427C41.0231 0.727237 41.5924 0.943675 42.034 1.33502C42.4756 1.72636 42.7588 2.26561 42.8305 2.85126L45.7912 27.9313C45.83 28.2623 45.7986 28.5978 45.6991 28.9159C45.5887 28.8643 45.4653 28.847 45.3449 28.8663L37.26 29.9995C37.1106 30.0206 36.9737 30.0942 36.8737 30.2071C36.7737 30.32 36.7173 30.4649 36.7146 30.6157L36.5163 41.2399C36.5154 41.3582 36.5483 41.4743 36.611 41.5747C36.6737 41.675 36.7637 41.7554 36.8704 41.8065C36.5394 42.0425 36.1548 42.1922 35.7513 42.2421L9.70797 45.3195C9.39195 45.3566 9.07173 45.331 8.76561 45.2443C8.45948 45.1575 8.17344 45.0113 7.92383 44.814C7.67423 44.6166 7.46593 44.3721 7.31086 44.0943C7.15579 43.8164 7.05696 43.5107 7.02005 43.1947ZM45.267 29.5852L37.2245 40.9955L37.4193 30.6866L45.267 29.5852Z" fill="#8396A8"/>
<path d="M37.2344 40.9956L45.2733 29.5817L37.4291 30.6866L37.2344 40.9956Z" fill="#B9C1C6"/>
<path d="M22.6204 9.98363C24.1421 9.98363 25.3756 8.82144 25.3756 7.3878C25.3756 5.95416 24.1421 4.79196 22.6204 4.79196C21.0988 4.79196 19.8652 5.95416 19.8652 7.3878C19.8652 8.82144 21.0988 9.98363 22.6204 9.98363Z" fill="#2F3235"/>
<path d="M34.9041 15.7342L13.6619 17.9556C12.8001 18.0457 12.1746 18.8173 12.2647 19.6791L12.3524 20.5173C12.4425 21.3791 13.2141 22.0046 14.0759 21.9145L35.3181 19.6931C36.1799 19.603 36.8054 18.8313 36.7153 17.9696L36.6276 17.1313C36.5375 16.2696 35.7659 15.6441 34.9041 15.7342Z" fill="#354A5F"/>
<path d="M27.7916 23.5611L14.2875 24.9733C13.5872 25.0465 13.0789 25.6736 13.1521 26.3739L13.3009 27.7968C13.3742 28.4971 14.0012 29.0054 14.7015 28.9322L28.2056 27.52C28.9058 27.4468 29.4142 26.8197 29.3409 26.1194L29.1921 24.6965C29.1189 23.9962 28.4918 23.4879 27.7916 23.5611Z" fill="#354A5F"/>
<path d="M32.9633 17.6616C32.8312 17.5256 32.6732 17.4175 32.4986 17.3437C32.3241 17.2699 32.1364 17.2318 31.9469 17.2318C31.7573 17.2318 31.5697 17.2699 31.3951 17.3437C31.2205 17.4175 31.0625 17.5256 30.9305 17.6616L21.0146 27.5775L17.6503 24.2132C17.5166 24.0797 17.3579 23.9739 17.1833 23.9018C17.0087 23.8296 16.8216 23.7926 16.6327 23.7927C16.4438 23.7929 16.2567 23.8303 16.0822 23.9027C15.9078 23.9752 15.7493 24.0813 15.6158 24.215C15.4823 24.3487 15.3765 24.5074 15.3043 24.682C15.2322 24.8566 15.1951 25.0437 15.1953 25.2326C15.1955 25.4215 15.2328 25.6086 15.3053 25.7831C15.3777 25.9575 15.4839 26.116 15.6176 26.2495L19.9983 30.6373C20.1303 30.7733 20.2883 30.8814 20.4629 30.9552C20.6374 31.0291 20.8251 31.0671 21.0146 31.0671C21.2042 31.0671 21.3918 31.0291 21.5664 30.9552C21.741 30.8814 21.899 30.7733 22.031 30.6373L32.9774 19.6909C33.1134 19.5588 33.2216 19.4008 33.2954 19.2262C33.3692 19.0517 33.4073 18.864 33.4073 18.6745C33.4073 18.4849 33.3692 18.2973 33.2954 18.1227C33.2216 17.9481 33.1134 17.7901 32.9774 17.6581L32.9633 17.6616Z" fill="#D5DADD"/>
</svg>
