<svg width="49" height="49" viewBox="0 0 49 49" fill="none" xmlns="http://www.w3.org/2000/svg">
<path fill-rule="evenodd" clip-rule="evenodd" d="M41.9458 5.22476L44.9099 30.3013C44.9938 31.0537 44.8026 31.8109 44.3716 32.4332L36.4495 44.0561C36.1969 44.4258 35.8681 44.7373 35.4851 44.9694C35.1021 45.2015 34.6738 45.3489 34.2291 45.4018L8.1893 48.4792C8.07173 48.4927 7.95351 48.4998 7.83516 48.5005C7.06979 48.4989 6.33153 48.2169 5.75992 47.708C5.1883 47.199 4.82295 46.4983 4.73291 45.7382L0.522216 10.1225C0.473302 9.71455 0.505342 9.30097 0.616522 8.90543C0.727702 8.50989 0.91583 8.14018 1.17012 7.81746C1.42442 7.49475 1.73987 7.22537 2.09844 7.02476C2.457 6.82415 2.85163 6.69626 3.2597 6.6484L38.4717 2.48727C38.8796 2.43884 39.293 2.47123 39.6883 2.5826C40.0837 2.69396 40.4532 2.88214 40.7758 3.13635C41.0984 3.39056 41.3678 3.70583 41.5686 4.06417C41.7693 4.4225 41.8975 4.81687 41.9458 5.22476ZM1.20627 9.77716C1.20397 9.54801 1.23428 9.31924 1.29668 9.0978C1.38305 8.79129 1.52918 8.5049 1.72666 8.25508C1.92415 8.00526 2.16907 7.79696 2.44737 7.64217C2.72566 7.48738 3.03183 7.38915 3.34823 7.35313L38.5602 3.18846C38.6566 3.17727 38.7536 3.17136 38.8506 3.17076C39.4406 3.17157 40.01 3.38803 40.4516 3.77937C40.8931 4.17071 41.1764 4.70994 41.2481 5.29559L44.2123 30.3721C44.244 30.6517 44.2257 30.9343 44.1587 31.2068C44.2229 30.9387 44.24 30.6611 44.2088 30.3864L41.2447 5.30986C41.173 4.72421 40.8897 4.18496 40.4481 3.79362C40.0066 3.40227 39.4372 3.18584 38.8472 3.18503C38.7501 3.18563 38.6532 3.19154 38.5568 3.20273L3.34834 7.3674C3.03193 7.40341 2.72576 7.50164 2.44747 7.65643C2.16918 7.81122 1.92425 8.01951 1.72676 8.26932C1.52928 8.51914 1.38315 8.80556 1.29678 9.11207C1.23568 9.32891 1.20534 9.55279 1.20627 9.77716ZM35.1481 32.9271C35.1362 32.9738 35.1296 33.0219 35.1287 33.0707L34.9304 43.6949C34.9291 43.8133 34.9618 43.9296 35.0246 44.03C35.0854 44.1274 35.172 44.2058 35.2747 44.2568C35.2791 44.2536 35.2836 44.2505 35.288 44.2473C35.181 44.1965 35.0908 44.1162 35.028 44.0158C34.9652 43.9154 34.9326 43.7991 34.9338 43.6807L35.1322 33.0565C35.133 33.0127 35.1384 32.9693 35.1481 32.9271ZM22.4336 7.76965C22.027 7.46602 21.5405 7.28804 21.034 7.25762C20.3245 7.23664 19.6356 7.49831 19.1189 7.98509C18.6023 8.47187 18.3001 9.1439 18.2788 9.85344C18.279 10.3609 18.4278 10.8571 18.7067 11.281C18.9856 11.7049 19.3824 12.0379 19.8483 12.239C20.3142 12.44 20.8288 12.5003 21.3285 12.4124C21.8283 12.3245 22.2914 12.0922 22.6607 11.7442C23.03 11.3963 23.2894 10.9478 23.4069 10.4542C23.5244 9.96057 23.4949 9.44335 23.3219 8.96632C23.1489 8.48928 22.8401 8.07328 22.4336 7.76965Z" fill="#D5DADD"/>
<path d="M36.2505 42.735C36.6539 42.6851 37.0386 42.5354 37.3695 42.2994C37.2628 42.2483 37.1728 42.1679 37.1101 42.0675C37.0474 41.9672 37.0146 41.8511 37.0154 41.7327L37.2137 31.1086C37.2165 30.9578 37.2729 30.8129 37.3728 30.7C37.4728 30.587 37.6097 30.5134 37.7591 30.4924L45.8441 29.3591C45.9644 29.3399 46.0878 29.3571 46.1982 29.4087C46.2977 29.0907 46.3291 28.7552 46.2903 28.4242L43.3262 3.34766C43.2545 2.76202 42.9711 2.22278 42.5296 1.83144C42.088 1.4401 41.5187 1.22364 40.9286 1.22283C40.8319 1.21755 40.735 1.21755 40.6382 1.22283L5.4298 5.38396C5.11343 5.42086 4.80743 5.51979 4.52934 5.67509C4.25125 5.83039 4.00652 6.039 3.80916 6.289C3.61179 6.53899 3.46567 6.82546 3.37915 7.132C3.29263 7.43854 3.26743 7.75913 3.30497 8.07543L7.5192 43.6947C7.55611 44.0107 7.65494 44.3164 7.81001 44.5942C7.96508 44.872 8.17338 45.1166 8.42299 45.3139C8.6726 45.5112 8.95863 45.6575 9.26476 45.7442C9.57088 45.831 9.8911 45.8565 10.2071 45.8195L36.2505 42.735ZM23.119 5.29543C23.6255 5.32584 24.1121 5.50385 24.5186 5.80748C24.9252 6.11111 25.234 6.52709 25.4069 7.00413C25.5799 7.48116 25.6094 7.9984 25.4919 8.49203C25.3744 8.98566 25.115 9.43411 24.7457 9.78207C24.3764 10.13 23.9133 10.3623 23.4135 10.4502C22.9138 10.5381 22.3992 10.4778 21.9333 10.2768C21.4674 10.0758 21.0706 9.74275 20.7917 9.31884C20.5128 8.89494 20.364 8.39869 20.3638 7.89127C20.386 7.18204 20.6885 6.51056 21.205 6.02398C21.7214 5.53739 22.4097 5.27539 23.119 5.29543Z" fill="white"/>
<path d="M46.9949 28.3392L44.0308 3.26263C43.9332 2.43862 43.5124 1.68707 42.861 1.1731C42.2096 0.659129 41.3808 0.424796 40.5567 0.521603L5.34468 4.70398C4.93661 4.75183 4.54198 4.87973 4.18342 5.08034C3.82485 5.28094 3.50939 5.55032 3.2551 5.87304C3.00081 6.19576 2.81268 6.56547 2.7015 6.96101C2.59032 7.35654 2.55826 7.77013 2.60717 8.17808L6.81789 43.7938C6.908 44.5544 7.27386 45.2557 7.84622 45.7647C8.41857 46.2738 9.15771 46.5553 9.92369 46.5561C10.042 46.5554 10.1603 46.5483 10.2778 46.5348L36.3176 43.4574C36.7623 43.4045 37.1906 43.2571 37.5736 43.0249C37.9566 42.7928 38.2854 42.4814 38.5381 42.1116L46.4602 30.4888C46.8941 29.8612 47.0843 29.0969 46.9949 28.3392ZM7.51907 43.6946L3.30838 8.07893C3.27085 7.76263 3.29605 7.44204 3.38256 7.1355C3.46908 6.82897 3.61521 6.5425 3.81257 6.2925C4.00994 6.0425 4.25467 5.83389 4.53276 5.67859C4.81085 5.5233 5.11684 5.42436 5.43321 5.38746L40.6417 1.22634C40.7384 1.22105 40.8353 1.22105 40.9321 1.22634C41.5221 1.22715 42.0915 1.44358 42.533 1.83492C42.9746 2.22627 43.2579 2.76552 43.3296 3.35117L46.2902 28.4313C46.329 28.7623 46.2976 29.0977 46.1981 29.4158C46.0877 29.3642 45.9643 29.3469 45.844 29.3662L37.759 30.4994C37.6096 30.5205 37.4727 30.5941 37.3727 30.707C37.2728 30.8199 37.2163 30.9648 37.2136 31.1156L37.0153 41.7398C37.0145 41.8581 37.0473 41.9742 37.11 42.0746C37.1727 42.1749 37.2627 42.2553 37.3694 42.3064C37.0384 42.5424 36.6538 42.6921 36.2503 42.742L10.207 45.8195C9.89098 45.8565 9.57076 45.8309 9.26463 45.7442C8.9585 45.6574 8.67247 45.5112 8.42286 45.3139C8.17325 45.1166 7.96495 44.872 7.80988 44.5942C7.65481 44.3163 7.55599 44.0107 7.51907 43.6946ZM45.766 30.0851L37.7236 41.4954L37.9183 31.1865L45.766 30.0851Z" fill="#00144A"/>
<path d="M37.7354 41.4955L45.7743 30.0816L37.9301 31.1865L37.7354 41.4955Z" fill="white"/>
<path d="M23.1195 10.4837C24.6411 10.4837 25.8747 9.32147 25.8747 7.88783C25.8747 6.45419 24.6411 5.29199 23.1195 5.29199C21.5978 5.29199 20.3643 6.45419 20.3643 7.88783C20.3643 9.32147 21.5978 10.4837 23.1195 10.4837Z" fill="#F58B00"/>
<path d="M35.4032 16.2341L14.1609 18.4555C13.2992 18.5456 12.6736 19.3173 12.7638 20.179L12.8514 21.0173C12.9415 21.879 13.7132 22.5046 14.5749 22.4144L35.8172 20.193C36.6789 20.1029 37.3044 19.3313 37.2143 18.4695L37.1267 17.6313C37.0366 16.7695 36.2649 16.144 35.4032 16.2341Z" fill="#D5DADD"/>
<path d="M28.2915 24.061L14.7875 25.4732C14.0872 25.5464 13.5789 26.1735 13.6521 26.8738L13.8009 28.2968C13.8742 28.997 14.5012 29.5054 15.2015 29.4321L28.7056 28.0199C29.4058 27.9467 29.9142 27.3197 29.8409 26.6194L29.6921 25.1964C29.6189 24.4961 28.9918 23.9878 28.2915 24.061Z" fill="#D5DADD"/>
<path d="M33.4642 18.1616C33.3322 18.0256 33.1742 17.9175 32.9996 17.8437C32.825 17.7698 32.6374 17.7318 32.4479 17.7318C32.2583 17.7318 32.0707 17.7698 31.8961 17.8437C31.7215 17.9175 31.5635 18.0256 31.4315 18.1616L21.5156 28.0775L18.1513 24.7132C18.0176 24.5797 17.8589 24.4739 17.6843 24.4017C17.5097 24.3296 17.3226 24.2925 17.1337 24.2927C16.9447 24.2929 16.7577 24.3302 16.5832 24.4027C16.4087 24.4751 16.2502 24.5812 16.1168 24.7149C15.9833 24.8487 15.8775 25.0073 15.8053 25.1819C15.7332 25.3565 15.6961 25.5437 15.6963 25.7326C15.6965 25.9215 15.7338 26.1085 15.8063 26.283C15.8787 26.4575 15.9848 26.616 16.1185 26.7495L20.4992 31.1373C20.6313 31.2733 20.7893 31.3814 20.9638 31.4552C21.1384 31.529 21.326 31.5671 21.5156 31.5671C21.7052 31.5671 21.8928 31.529 22.0674 31.4552C22.242 31.3814 22.3999 31.2733 22.532 31.1373L33.4784 20.1908C33.6144 20.0588 33.7225 19.9008 33.7964 19.7262C33.8702 19.5516 33.9082 19.364 33.9082 19.1744C33.9082 18.9849 33.8702 18.7973 33.7964 18.6227C33.7225 18.4481 33.6144 18.2901 33.4784 18.1581L33.4642 18.1616Z" fill="#F58B00"/>
<path d="M25.1208 6.92182C25.2145 6.78447 24.9682 6.45338 24.5707 6.18231C24.1732 5.91125 23.775 5.80286 23.6813 5.94021C23.5876 6.07756 23.834 6.40865 24.2315 6.67972C24.629 6.95078 25.0272 7.05918 25.1208 6.92182Z" fill="white"/>
</svg>
