<svg width="112" height="113" viewBox="0 0 112 113" fill="none" xmlns="http://www.w3.org/2000/svg">
<path d="M60.053 4.375C58.0861 4.375 56.1997 5.15641 54.8089 6.54732C53.4181 7.93823 52.6367 9.82471 52.6367 11.7918V22.0763H67.4693V11.8C67.4704 10.8253 67.2794 9.85999 66.9071 8.95919C66.5349 8.0584 65.9888 7.23982 65.3 6.55024C64.6112 5.86066 63.7933 5.31359 62.893 4.94035C61.9927 4.56711 61.0276 4.375 60.053 4.375Z" fill="#CC7400"/>
<path d="M98.7502 53.4079V86.9152H20.8301V53.4079C20.8301 43.0744 24.9348 33.1641 32.2412 25.8572C39.5476 18.5502 49.4573 14.4453 59.7901 14.4453C70.1229 14.4453 80.0326 18.5502 87.339 25.8572C94.6454 33.1641 98.7502 43.0744 98.7502 53.4079Z" fill="#F58B00"/>
<path d="M60.054 109.858C65.324 109.858 69.5962 105.585 69.5962 100.315C69.5962 95.0444 65.324 90.772 60.054 90.772C54.7839 90.772 50.5117 95.0444 50.5117 100.315C50.5117 105.585 54.7839 109.858 60.054 109.858Z" fill="#F58B00"/>
<path d="M107.493 90.7718C105.152 90.2856 98.7496 86.9151 98.7496 86.9151H20.8295C20.8295 86.9151 14.4268 90.2856 12.0865 90.7718C9.74627 91.258 7.5791 92.7908 7.5791 95.2796C7.5791 96.4751 8.05398 97.6216 8.89929 98.467C9.74459 99.3124 10.8911 99.7873 12.0865 99.7873H107.493C108.688 99.7873 109.834 99.3124 110.68 98.467C111.525 97.6216 112 96.4751 112 95.2796C112.025 92.7908 109.923 91.291 107.493 90.7718Z" fill="#CC7400"/>
<path opacity="0.5" d="M55.9668 14.3959C46.3311 15.3571 37.3941 19.8819 30.8895 27.0926C24.385 34.3032 20.7767 43.6855 20.7646 53.4194V87.1789H93.5477V53.6104C93.5462 43.4567 89.6303 33.6986 82.6225 26.3862C75.6146 19.0738 66.0604 14.7761 55.9668 14.3959Z" fill="#CC7400"/>
<rect y="9.42761" width="42.1053" height="25.2632" rx="4.83158" fill="#D1EFFF"/>
<path d="M26.4177 33.4971C25.9657 32.9756 26.3361 32.1644 27.0262 32.1644H35.4048C35.8495 32.1644 36.2101 32.525 36.2101 32.9697V42.6373C36.2101 43.3827 35.2845 43.728 34.7963 43.1647L26.4177 33.4971Z" fill="#D1EFFF"/>
<ellipse cx="12.6318" cy="22.0592" rx="2.52632" ry="2.52632" fill="#9EDDFF"/>
<ellipse cx="29.4736" cy="22.0592" rx="2.52632" ry="2.52632" fill="#9EDDFF"/>
<ellipse cx="21.0527" cy="22.0592" rx="2.52632" ry="2.52632" fill="#9EDDFF"/>
</svg>
