<svg width="112" height="113" viewBox="0 0 112 113" fill="none" xmlns="http://www.w3.org/2000/svg">
<path d="M60.053 4.375C58.0861 4.375 56.1997 5.15641 54.8089 6.54732C53.4181 7.93823 52.6367 9.82471 52.6367 11.7918V22.0763H67.4693V11.8C67.4704 10.8253 67.2794 9.85999 66.9071 8.95919C66.5349 8.0584 65.9888 7.23982 65.3 6.55024C64.6112 5.86066 63.7933 5.31359 62.893 4.94035C61.9927 4.56711 61.0276 4.375 60.053 4.375Z" fill="#CC7400"/>
<path d="M98.7502 53.4079V86.9152H20.8301V53.4079C20.8301 43.0744 24.9348 33.1641 32.2412 25.8572C39.5476 18.5502 49.4573 14.4453 59.7901 14.4453C70.1229 14.4453 80.0326 18.5502 87.339 25.8572C94.6454 33.1641 98.7502 43.0744 98.7502 53.4079Z" fill="#F58B00"/>
<path d="M60.054 109.858C65.324 109.858 69.5962 105.585 69.5962 100.315C69.5962 95.0444 65.324 90.772 60.054 90.772C54.7839 90.772 50.5117 95.0444 50.5117 100.315C50.5117 105.585 54.7839 109.858 60.054 109.858Z" fill="#F58B00"/>
<path d="M107.493 90.7718C105.153 90.2856 98.7505 86.9151 98.7505 86.9151H20.8305C20.8305 86.9151 14.4277 90.2856 12.0875 90.7718C9.74725 91.258 7.58008 92.7908 7.58008 95.2796C7.58008 96.4751 8.05496 97.6216 8.90026 98.467C9.74557 99.3124 10.892 99.7873 12.0875 99.7873H107.493C108.689 99.7873 109.835 99.3124 110.681 98.467C111.526 97.6216 112.001 96.4751 112.001 95.2796C112.026 92.7908 109.924 91.291 107.493 90.7718Z" fill="#CC7400"/>
<path opacity="0.5" d="M55.9678 14.3959C46.3321 15.3571 37.3951 19.8819 30.8905 27.0926C24.386 34.3032 20.7777 43.6855 20.7656 53.4194V87.1789H93.5487V53.6104C93.5472 43.4567 89.6312 33.6986 82.6234 26.3862C75.6156 19.0738 66.0614 14.7761 55.9678 14.3959Z" fill="#CC7400"/>
<rect y="9.42761" width="42.1053" height="25.2632" rx="6" fill="#5B738B"/>
<path d="M30.1858 37.8438C28.2598 35.6215 29.8384 32.1644 32.7792 32.1644C34.6746 32.1644 36.211 33.7009 36.211 35.5962C36.211 38.7731 32.2664 40.2446 30.1858 37.8438Z" fill="#5B738B"/>
<ellipse cx="12.6318" cy="22.0592" rx="2.52632" ry="2.52632" fill="#A9B4BE"/>
<ellipse cx="29.4736" cy="22.0592" rx="2.52632" ry="2.52632" fill="#A9B4BE"/>
<ellipse cx="21.0537" cy="22.0592" rx="2.52632" ry="2.52632" fill="#A9B4BE"/>
</svg>
