<svg width="160" height="160" viewBox="0 0 160 160" fill="none" xmlns="http://www.w3.org/2000/svg">
<ellipse opacity="0.5" cx="67.043" cy="53.913" rx="32.1739" ry="32.1739" fill="#223548"/>
<path d="M84.4349 53.913C84.4349 63.518 76.6486 71.3043 67.0436 71.3043C57.4387 71.3043 49.6523 63.518 49.6523 53.913C49.6523 44.3081 57.4387 36.5217 67.0436 36.5217C76.6486 36.5217 84.4349 44.3081 84.4349 53.913Z" fill="#EAECEE"/>
<path d="M67.0436 36.5217C63.604 36.5217 60.2415 37.5417 57.3816 39.4527C54.5216 41.3637 52.2925 44.0801 50.9762 47.258C49.6599 50.4358 49.3155 53.9324 49.9865 57.3059C50.6576 60.6795 52.3139 63.7783 54.7461 66.2105C57.1784 68.6427 60.2772 70.2991 63.6508 70.9702C67.0244 71.6412 70.5212 71.2967 73.699 69.9804C76.8769 68.6641 79.593 66.435 81.504 63.575C83.4149 60.7151 84.4349 57.3527 84.4349 53.913C84.4349 49.3006 82.6026 44.8771 79.3411 41.6156C76.0796 38.3541 71.6561 36.5217 67.0436 36.5217ZM67.0436 64.3478C66.5277 64.3478 66.0233 64.195 65.5943 63.9083C65.1653 63.6217 64.831 63.214 64.6335 62.7373C64.4361 62.2606 64.3844 61.7365 64.4851 61.2304C64.5858 60.7244 64.8342 60.2595 65.199 59.8947C65.5639 59.5298 66.0287 59.2812 66.5347 59.1805C67.0407 59.0799 67.5653 59.1317 68.042 59.3291C68.5186 59.5266 68.9261 59.861 69.2127 60.29C69.4994 60.719 69.6523 61.2232 69.6523 61.7391C69.6523 62.431 69.3775 63.0947 68.8883 63.584C68.399 64.0732 67.7355 64.3478 67.0436 64.3478ZM69.7915 55.4785C69.5521 55.5919 69.3198 55.7196 69.0958 55.8611C68.9261 56.3469 68.5894 56.7567 68.1458 57.0176C67.7022 57.2786 67.1805 57.3736 66.6734 57.286C66.1663 57.1983 65.7067 56.9334 65.3764 56.5387C65.0462 56.144 64.8666 55.645 64.8697 55.1303C64.8697 53.1477 66.6089 52.2782 67.7741 51.6521C69.4089 50.7999 70.0871 50.313 70.0871 49.0782C70.0871 47.8434 68.6958 46.9043 67.0436 46.9043C65.3915 46.9043 64.0002 47.913 64.0002 49.0782C64.0002 49.6547 63.7711 50.208 63.3634 50.6156C62.9557 51.0233 62.4028 51.2521 61.8262 51.2521C61.2497 51.2521 60.6967 51.0233 60.2891 50.6156C59.8814 50.208 59.6523 49.6547 59.6523 49.0782C59.8677 47.2692 60.739 45.6021 62.1012 44.3924C63.4634 43.1827 65.2219 42.5148 67.0436 42.5148C68.8654 42.5148 70.624 43.1827 71.9862 44.3924C73.3484 45.6021 74.2196 47.2692 74.4349 49.0782C74.3787 50.4841 73.9079 51.8422 73.0816 52.981C72.2553 54.1199 71.1106 54.9889 69.7915 55.4785Z" fill="#5581AE"/>
<g clip-path="url(#clip0_18011_39866)">
<path d="M83.1535 82.9611L74.4414 86.4699L80.0077 100.216L88.7107 96.707L83.1535 82.9611Z" fill="#B9C1C6"/>
<path d="M80.3261 99.1217C79.8835 99.304 79.5312 99.6536 79.3461 100.094C79.1609 100.535 79.158 101.03 79.3379 101.473L92.338 133.405C92.8793 134.698 93.9118 135.725 95.2098 136.26C96.5078 136.796 97.9655 136.797 99.2642 136.263L100.298 135.838C100.951 135.578 101.546 135.19 102.047 134.698C102.548 134.206 102.946 133.619 103.217 132.971C103.752 131.673 103.752 130.217 103.217 128.92L90.2167 97.0236C90.1271 96.802 89.9944 96.6003 89.8263 96.4301C89.6581 96.26 89.4578 96.1248 89.237 96.0323C89.0161 95.9398 88.7791 95.8918 88.5396 95.8912C88.3001 95.8906 88.0628 95.9374 87.8415 96.0288L80.3261 99.1217Z" fill="#F58B00"/>
<path d="M74.1348 85.7465L75.0413 87.9078C75.0413 87.9078 79.5742 89.9245 84.3608 85.7103L82.9103 82.2467L78.9124 84.182L74.1348 85.7465Z" fill="#5581AE"/>
<path d="M67.5252 87.5914C59.7847 87.6103 52.2774 84.9502 46.2833 80.0648C40.2891 75.1793 36.1795 68.3709 34.655 60.8007C33.1306 53.2305 34.2858 45.3671 37.9237 38.5516C41.5615 31.736 47.4567 26.3903 54.6041 23.4259C61.7514 20.4616 69.7082 20.0622 77.1178 22.2959C84.5273 24.5296 90.9306 29.258 95.2359 35.6749C99.5412 42.0918 101.482 49.7997 100.727 57.4844C99.9719 65.169 96.5681 72.3545 91.0959 77.8155C84.8477 84.0606 76.3702 87.5767 67.5252 87.5914ZM67.5252 23.6457C60.4196 23.6333 53.5296 26.0796 48.0297 30.5675C42.5299 35.0555 38.7606 41.3074 37.3645 48.2573C35.9684 55.2073 37.0318 62.4252 40.3735 68.6806C43.7153 74.936 49.1284 79.8416 55.6902 82.5612C62.252 85.2808 69.5562 85.646 76.3577 83.5946C83.1593 81.5433 89.0371 77.2022 92.9891 71.3116C96.9412 65.4209 98.7229 58.3453 98.0305 51.2909C97.3381 44.2364 94.2145 37.6399 89.1921 32.6258C86.3502 29.7809 82.9735 27.5233 79.2555 25.9824C75.5375 24.4414 71.5513 23.6474 67.5252 23.6457Z" fill="#8396A8"/>
</g>
<path d="M97.224 160C112.917 160 125.639 158.115 125.639 155.79C125.639 153.465 112.917 151.581 97.224 151.581C81.5306 151.581 68.8086 153.465 68.8086 155.79C68.8086 158.115 81.5306 160 97.224 160Z" fill="#8396A8" fill-opacity="0.2"/>
<path d="M124.277 30.1394C124.071 29.8932 123.803 29.7069 123.5 29.6003C123.198 29.4937 122.872 29.4706 122.557 29.5335L115.033 30.8349C113.789 31.0496 113.297 32.1934 113.466 33.1687C113.52 33.5704 113.703 33.9436 113.988 34.2321C114.273 34.5207 114.643 34.7091 115.044 34.769C115.239 34.7921 115.436 34.7857 115.628 34.7499L123.152 33.4486C123.483 33.3982 123.795 33.2593 124.054 33.0465C124.312 32.8337 124.509 32.5548 124.622 32.2395C124.748 31.8891 124.783 31.5122 124.722 31.1447C124.662 30.7771 124.509 30.4311 124.277 30.1394Z" fill="#A9B4BE"/>
<path d="M95.68 0.0881389C95.4626 0.0141277 95.2322 -0.0137423 95.0034 0.0063086C94.7746 0.0263595 94.5525 0.0938894 94.3513 0.204589C94.15 0.315289 93.9741 0.466726 93.8347 0.649231C93.6953 0.831736 93.5955 1.0413 93.5417 1.26454L91.4685 8.40719C91.3948 8.66426 91.3731 8.93343 91.4047 9.19898C91.4362 9.46453 91.5203 9.72114 91.652 9.95383C91.7838 10.1865 91.9607 10.3906 92.1722 10.5542C92.3837 10.7178 92.6258 10.8377 92.8841 10.9067C92.9899 10.9382 93.098 10.9609 93.2075 10.9746C93.6111 11.0313 94.0214 10.9347 94.3574 10.7039C94.6934 10.473 94.9306 10.1247 95.0225 9.7276L97.0929 2.58766C97.167 2.33077 97.1891 2.06169 97.158 1.79615C97.1268 1.53062 97.043 1.27397 96.9114 1.04122C96.7799 0.808464 96.6032 0.60429 96.3917 0.440641C96.1803 0.276991 95.9383 0.157152 95.68 0.0881389Z" fill="#A9B4BE"/>
<path d="M114.168 9.76022C113.917 9.74397 113.666 9.77896 113.43 9.86304C113.193 9.94713 112.977 10.0785 112.793 10.2493L104.468 17.8239C104.096 18.1657 103.871 18.6379 103.84 19.1417C103.808 19.6455 103.973 20.1419 104.299 20.5272C104.603 20.8833 105.03 21.1121 105.495 21.1684C105.763 21.2003 106.034 21.1742 106.291 21.0917C106.548 21.0091 106.784 20.8722 106.984 20.6902L115.309 13.1156C115.683 12.7721 115.909 12.2972 115.94 11.7905C115.971 11.2839 115.804 10.785 115.475 10.3987C115.311 10.2097 115.111 10.0558 114.886 9.94608C114.662 9.83637 114.417 9.77315 114.168 9.76022Z" fill="#A9B4BE"/>
<defs>
<clipPath id="clip0_18011_39866">
<rect width="69.6178" height="115.793" fill="white" transform="translate(34 20.8695)"/>
</clipPath>
</defs>
</svg>
