<svg width="92" height="92" viewBox="0 0 92 92" fill="none" xmlns="http://www.w3.org/2000/svg">
<g clip-path="url(#clip0_14807_160877)">
<path opacity="0.5" d="M44.4318 52.1211C58.3981 52.1211 69.721 40.6248 69.721 26.4198C69.721 12.2147 58.3981 0.711304 44.4318 0.711304C30.4655 0.711304 19.1426 12.2076 19.1426 26.4198C19.1426 40.632 30.4655 52.1211 44.4318 52.1211Z" fill="#EBF8FF"/>
<path d="M54.4224 3.70751L44.9722 0.711304L29.126 47.6807L38.5833 50.6769L54.4224 3.70751Z" fill="white"/>
<path d="M42.2712 52.121L58.4199 5.06542L55.4812 4.13135L39.3252 51.1869L42.2712 52.121Z" fill="white"/>
<path d="M57.0235 49.3331L50.1016 52.121L54.5241 63.0424L61.4389 60.2546L57.0235 49.3331Z" fill="#D5DADD"/>
<path d="M54.7754 62.1731C54.4238 62.318 54.1439 62.5957 53.9968 62.9457C53.8497 63.2957 53.8474 63.6895 53.9903 64.0412L64.3192 89.412C64.7492 90.4393 65.5696 91.2549 66.6009 91.6804C67.6321 92.1059 68.7903 92.1066 69.8222 91.6825L70.6433 91.3448C71.1624 91.1382 71.6349 90.8303 72.0332 90.4392C72.4314 90.0481 72.7474 89.5816 72.9626 89.0671C73.3877 88.036 73.3877 86.8792 72.9626 85.8482L62.6337 60.5061C62.5626 60.3301 62.4571 60.1698 62.3235 60.0346C62.1899 59.8994 62.0308 59.792 61.8553 59.7185C61.6799 59.645 61.4915 59.6069 61.3012 59.6064C61.1109 59.606 60.9224 59.6431 60.7466 59.7158L54.7754 62.1731Z" fill="#F58B00"/>
<path d="M49.8564 51.5462L50.5767 53.2634C50.5767 53.2634 54.1782 54.8657 57.9813 51.5174L56.8288 48.7655L53.6524 50.3031L49.8564 51.5462Z" fill="#00144A"/>
<path d="M44.6053 53.012C38.4553 53.027 32.4905 50.9135 27.7281 47.0319C22.9656 43.1503 19.7004 37.7409 18.4892 31.7262C17.278 25.7115 18.1958 19.4639 21.0862 14.0488C23.9765 8.63367 28.6604 4.38637 34.3391 2.03114C40.0178 -0.324092 46.3397 -0.641403 52.2268 1.13331C58.1138 2.90803 63.2014 6.66487 66.622 11.7632C70.0427 16.8616 71.5846 22.9857 70.9847 29.0913C70.3849 35.1969 67.6805 40.9059 63.3327 45.2448C58.3684 50.2067 51.6328 53.0003 44.6053 53.012ZM44.6053 2.20577C38.9597 2.19588 33.4854 4.13949 29.1157 7.70529C24.7459 11.2711 21.7512 16.2383 20.6419 21.7602C19.5327 27.2822 20.3776 33.0169 23.0327 37.987C25.6877 42.957 29.9886 46.8546 35.2021 49.0154C40.4156 51.1762 46.2189 51.4664 51.6229 49.8365C57.0269 48.2066 61.6969 44.7576 64.8369 40.0773C67.9769 35.3971 69.3925 29.7753 68.8424 24.1704C68.2923 18.5655 65.8105 13.3245 61.8201 9.34062C59.5621 7.0803 56.8793 5.28659 53.9253 4.06227C50.9712 2.83795 47.8041 2.20707 44.6053 2.20577Z" fill="#00144A"/>
</g>
<defs>
<clipPath id="clip0_14807_160877">
<rect width="55.3129" height="92" fill="white" transform="translate(17.9688)"/>
</clipPath>
</defs>
</svg>
