<svg width="112" height="112" viewBox="0 0 112 112" fill="none" xmlns="http://www.w3.org/2000/svg">
<path d="M86.6888 97.2868V10.4412C86.7118 8.83146 86.0999 7.2771 84.985 6.11277C83.87 4.94844 82.3411 4.26723 80.7275 4.21582H25.5114C23.7699 4.21582 22.0455 4.55786 20.4365 5.22241C18.8276 5.88695 17.3656 6.86101 16.1342 8.08893C14.9028 9.31685 13.9259 10.7746 13.2595 12.379C12.593 13.9833 12.25 15.7029 12.25 17.4394V98.7764C12.2537 102.282 13.6521 105.644 16.1383 108.123C18.6245 110.602 21.9954 111.996 25.5114 112H99.7106V111.902C96.1219 111.478 92.8137 109.756 90.4135 107.063C88.0133 104.369 86.6879 100.89 86.6888 97.2868Z" fill="#8396A8"/>
<path d="M86.6888 93.0709V6.22535C86.7118 4.61564 86.0999 3.06128 84.985 1.89695C83.87 0.732616 82.3411 0.0514118 80.7275 0H25.5114C23.7699 0 22.0455 0.342038 20.4365 1.00658C18.8276 1.67113 17.3656 2.64519 16.1342 3.87311C14.9028 5.10103 13.9259 6.55877 13.2595 8.16313C12.593 9.76749 12.25 11.487 12.25 13.2236V94.5605C12.2537 98.0665 13.6521 101.428 16.1383 103.907C18.6245 106.386 21.9954 107.78 25.5114 107.784H99.7106V107.686C96.1219 107.262 92.8137 105.541 90.4135 102.847C88.0133 100.153 86.6879 96.6744 86.6888 93.0709Z" fill="#2F3235"/>
<path fill-rule="evenodd" clip-rule="evenodd" d="M85.1955 6.21469L85.1956 6.20403C85.213 4.98711 84.7505 3.81125 83.9064 2.92977C83.0673 2.05348 81.9176 1.53781 80.702 1.49333H25.5114C23.9654 1.49333 22.4347 1.79698 21.0066 2.38682C19.5785 2.97666 18.2812 3.8411 17.1886 4.93056C16.0961 6.02001 15.2296 7.31313 14.6386 8.736C14.0475 10.1589 13.7433 11.6838 13.7433 13.2236V94.5597C13.7468 97.6685 14.9869 100.65 17.1928 102.849C19.399 105.049 22.3911 106.287 25.513 106.291H92.0399C91.043 105.585 90.1223 104.765 89.2986 103.84C86.655 100.873 85.1946 97.0413 85.1955 93.0709C85.1955 93.0708 85.1955 93.0711 85.1955 93.0709V6.21469ZM86.6888 93.0709C86.6879 96.6744 88.0133 100.153 90.4135 102.847C91.7002 104.291 93.2479 105.456 94.9598 106.291C96.4412 107.014 98.0457 107.489 99.7106 107.686V107.784H25.5114C21.9954 107.78 18.6245 106.386 16.1383 103.907C13.6521 101.428 12.2537 98.0665 12.25 94.5605V13.2236C12.25 11.487 12.593 9.76749 13.2595 8.16313C13.9259 6.55877 14.9028 5.10103 16.1342 3.87311C17.3656 2.64519 18.8276 1.67113 20.4365 1.00658C22.0455 0.342038 23.7699 0 25.5114 0H80.7275C82.3411 0.0514118 83.87 0.732616 84.985 1.89695C86.0999 3.06128 86.7118 4.61564 86.6888 6.22535V93.0709Z" fill="#8396A8"/>
<path d="M49.4693 23.4258H26.0891C24.478 23.4258 23.1719 24.7281 23.1719 26.3347V26.3487C23.1719 27.9553 24.478 29.2576 26.0891 29.2576H49.4693C51.0804 29.2576 52.3865 27.9553 52.3865 26.3487V26.3347C52.3865 24.7281 51.0804 23.4258 49.4693 23.4258Z" fill="#F58B00"/>
</svg>
