<svg width="160" height="160" viewBox="0 0 160 160" fill="none" xmlns="http://www.w3.org/2000/svg">
<g clip-path="url(#clip0_14807_160876)">
<path opacity="0.5" d="M65.3041 75.4406C85.5191 75.4406 101.908 58.8009 101.908 38.2403C101.908 17.6797 85.5191 1.02954 65.3041 1.02954C45.0891 1.02954 28.7002 17.6693 28.7002 38.2403C28.7002 58.8113 45.0891 75.4406 65.3041 75.4406Z" fill="#EBF8FF"/>
<path d="M79.7637 5.36629L66.0855 1.02954L43.1494 69.0135L56.8381 73.3503L79.7637 5.36629Z" fill="white"/>
<path d="M62.1761 75.4406L85.5501 7.33185L81.2965 5.97986L57.9121 74.0886L62.1761 75.4406Z" fill="white"/>
<path d="M83.5277 71.4054L73.5088 75.4405L79.91 91.2484L89.9185 87.2132L83.5277 71.4054Z" fill="#D5DADD"/>
<path d="M80.2745 89.99C79.7655 90.1997 79.3604 90.6017 79.1475 91.1083C78.9346 91.6149 78.9312 92.1849 79.1381 92.694L94.0883 129.416C94.7107 130.903 95.8981 132.083 97.3908 132.699C98.8834 133.315 100.56 133.316 102.053 132.702L103.242 132.213C103.993 131.914 104.677 131.469 105.254 130.903C105.83 130.337 106.287 129.661 106.599 128.917C107.214 127.424 107.214 125.75 106.599 124.258L91.6487 87.5772C91.5457 87.3224 91.3931 87.0904 91.1997 86.8947C91.0063 86.6991 90.776 86.5436 90.522 86.4372C90.2681 86.3308 89.9955 86.2757 89.72 86.275C89.4446 86.2744 89.1717 86.3281 88.9172 86.4332L80.2745 89.99Z" fill="#F58B00"/>
<path d="M73.1543 74.6085L74.1968 77.0941C74.1968 77.0941 79.4096 79.4132 84.9143 74.5669L83.2462 70.5837L78.6485 72.8093L73.1543 74.6085Z" fill="#00144A"/>
<path d="M65.554 76.7302C56.6525 76.7519 48.019 73.6928 41.1257 68.0746C34.2325 62.4563 29.5064 54.6267 27.7533 45.9209C26.0002 37.2151 27.3287 28.1723 31.5122 20.3344C35.6957 12.4965 42.4752 6.34889 50.6947 2.9399C58.9141 -0.469095 68.0645 -0.928374 76.5854 1.64037C85.1064 4.20912 92.4702 9.64681 97.4213 17.0262C102.372 24.4056 104.604 33.2698 103.736 42.1071C102.868 50.9445 98.9533 59.2077 92.6603 65.4879C85.4749 72.6698 75.7257 76.7133 65.554 76.7302ZM65.554 3.19266C57.3825 3.17835 49.459 5.99155 43.1342 11.1527C36.8094 16.3139 32.4747 23.5035 30.8692 31.496C29.2636 39.4885 30.4866 47.7891 34.3296 54.9828C38.1726 62.1764 44.3977 67.8179 51.9437 70.9454C59.4898 74.073 67.8897 74.493 75.7114 72.1339C83.5332 69.7748 90.2926 64.7826 94.8375 58.0084C99.3824 51.2341 101.431 43.0971 100.635 34.9846C99.8388 26.872 96.2466 19.286 90.4709 13.5197C87.2027 10.2481 83.3196 7.65188 79.0439 5.87978C74.7682 4.10768 70.184 3.19454 65.554 3.19266Z" fill="#00144A"/>
</g>
<path d="M99.708 160C117.755 160 132.386 157.832 132.386 155.159C132.386 152.485 117.755 150.318 99.708 150.318C81.6606 150.318 67.0303 152.485 67.0303 155.159C67.0303 157.832 81.6606 160 99.708 160Z" fill="#D5DADD"/>
<defs>
<clipPath id="clip0_14807_160876">
<rect width="80.0605" height="133.162" fill="white" transform="translate(27)"/>
</clipPath>
</defs>
</svg>
