<svg width="320" height="240" viewBox="0 0 320 240" fill="none" xmlns="http://www.w3.org/2000/svg">
<path fill-rule="evenodd" clip-rule="evenodd" d="M257.28 59.8267C257.28 38.9356 240.344 22 219.453 22H37.8267C16.9356 22 0 38.9356 0 59.8267V59.84C0 80.7311 16.9356 97.6667 37.8267 97.6667H166.73C166.443 99.2901 166.293 100.961 166.293 102.666C166.293 118.432 179.074 131.213 194.84 131.213H291.453C307.219 131.213 320 118.432 320 102.666C320 86.9006 307.219 74.1198 291.453 74.1198H254.492C256.289 69.7136 257.28 64.8925 257.28 59.84V59.8267ZM5.41341 153.28C5.41341 137.514 18.1942 124.733 33.9601 124.733H130.573C146.268 124.733 159.005 137.399 159.119 153.067H165.747C181.512 153.067 194.293 165.848 194.293 181.613C194.293 197.379 181.512 210.16 165.747 210.16H69.1333C53.4385 210.16 40.7021 197.494 40.5874 181.827H33.9601C18.1942 181.827 5.41341 169.046 5.41341 153.28Z" fill="#D6D6D6" fill-opacity="0.45" style="mix-blend-mode:color-burn"/>
<path fill-rule="evenodd" clip-rule="evenodd" d="M257.28 59.8267C257.28 38.9356 240.344 22 219.453 22H37.8267C16.9356 22 0 38.9356 0 59.8267V59.84C0 80.7311 16.9356 97.6667 37.8267 97.6667H166.73C166.443 99.2901 166.293 100.961 166.293 102.666C166.293 118.432 179.074 131.213 194.84 131.213H291.453C307.219 131.213 320 118.432 320 102.666C320 86.9006 307.219 74.1198 291.453 74.1198H254.492C256.289 69.7136 257.28 64.8925 257.28 59.84V59.8267ZM5.41341 153.28C5.41341 137.514 18.1942 124.733 33.9601 124.733H130.573C146.268 124.733 159.005 137.399 159.119 153.067H165.747C181.512 153.067 194.293 165.848 194.293 181.613C194.293 197.379 181.512 210.16 165.747 210.16H69.1333C53.4385 210.16 40.7021 197.494 40.5874 181.827H33.9601C18.1942 181.827 5.41341 169.046 5.41341 153.28Z" fill="black" fill-opacity="0.08" style="mix-blend-mode:luminosity"/>
<path fill-rule="evenodd" clip-rule="evenodd" d="M263.924 71.635L274.36 159.926C274.656 162.574 273.982 165.241 272.465 167.432L244.573 208.354C243.683 209.656 242.525 210.752 241.177 211.569C239.828 212.387 238.321 212.906 236.755 213.092L145.073 223.927C144.659 223.974 144.243 223.999 143.826 224.002C141.131 223.996 138.532 223.004 136.519 221.212C134.507 219.42 133.22 216.952 132.903 214.276L118.078 88.8791C117.906 87.4428 118.019 85.9867 118.41 84.594C118.802 83.2014 119.464 81.8997 120.359 80.7635C121.255 79.6272 122.365 78.6788 123.628 77.9725C124.89 77.2662 126.28 76.8159 127.716 76.6474L251.692 61.9967C253.128 61.8262 254.584 61.9402 255.976 62.3324C257.368 62.7245 258.669 63.387 259.805 64.282C260.941 65.1771 261.889 66.2871 262.596 67.5487C263.303 68.8104 263.754 70.1989 263.924 71.635ZM120.487 87.6629C120.479 86.8562 120.585 86.0509 120.805 85.2713C121.109 84.1922 121.624 83.1838 122.319 82.3043C123.014 81.4247 123.877 80.6913 124.856 80.1463C125.836 79.6013 126.914 79.2554 128.028 79.1287L252.004 64.4655C252.343 64.4261 252.685 64.4053 253.026 64.4032C255.104 64.406 257.108 65.1682 258.663 66.546C260.218 67.9239 261.215 69.8224 261.468 71.8844L271.904 160.175C272.015 161.153 271.952 162.141 271.72 163.094C271.942 162.156 272.001 161.186 271.892 160.226L261.455 71.9351C261.203 69.8732 260.206 67.9745 258.651 66.5967C257.096 65.2188 255.092 64.4568 253.014 64.4539C252.672 64.4561 252.331 64.4769 251.992 64.5163L128.029 79.1794C126.915 79.3062 125.837 79.6521 124.857 80.197C123.877 80.742 123.015 81.4754 122.319 82.3549C121.624 83.2345 121.109 84.2429 120.805 85.3221C120.59 86.0853 120.483 86.8732 120.487 87.6629ZM239.989 169.176C239.948 169.339 239.925 169.507 239.922 169.677L239.224 207.083C239.219 207.5 239.334 207.909 239.555 208.263C239.77 208.605 240.074 208.881 240.436 209.061C240.451 209.049 240.467 209.038 240.483 209.027C240.106 208.848 239.788 208.565 239.568 208.212C239.347 207.858 239.232 207.449 239.236 207.032L239.934 169.626C239.937 169.474 239.956 169.323 239.989 169.176ZM195.225 80.5957C193.793 79.5266 192.08 78.9 190.297 78.7929C187.799 78.719 185.373 79.6403 183.554 81.3542C181.735 83.0681 180.671 85.4342 180.596 87.9323C180.597 89.7189 181.121 91.4662 182.103 92.9587C183.085 94.4512 184.482 95.6236 186.122 96.3314C187.763 97.0392 189.574 97.2515 191.334 96.942C193.093 96.6324 194.724 95.8147 196.024 94.5896C197.325 93.3644 198.238 91.7855 198.652 90.0475C199.065 88.3095 198.961 86.4885 198.352 84.8089C197.743 83.1294 196.656 81.6647 195.225 80.5957Z" fill="#8396A8"/>
<path d="M243.875 203.703C245.295 203.527 246.649 203 247.815 202.169C247.439 201.989 247.122 201.706 246.901 201.353C246.68 200.999 246.565 200.591 246.568 200.174L247.266 162.768C247.276 162.237 247.474 161.727 247.826 161.329C248.178 160.932 248.66 160.673 249.186 160.599L277.652 156.609C278.076 156.541 278.51 156.602 278.899 156.783C279.249 155.663 279.36 154.482 279.223 153.317L268.787 65.0264C268.535 62.9644 267.537 61.0659 265.982 59.688C264.428 58.3102 262.423 57.548 260.346 57.5452C260.005 57.5266 259.664 57.5266 259.323 57.5452L135.36 72.1959C134.246 72.3258 133.169 72.6741 132.19 73.2209C131.21 73.7677 130.349 74.5021 129.654 75.3823C128.959 76.2625 128.445 77.2711 128.14 78.3504C127.835 79.4297 127.747 80.5584 127.879 81.6721L142.716 207.082C142.846 208.194 143.194 209.271 143.74 210.249C144.286 211.227 145.02 212.088 145.898 212.783C146.777 213.478 147.784 213.992 148.862 214.298C149.94 214.603 151.067 214.693 152.18 214.563L243.875 203.703ZM197.641 71.8841C199.424 71.9912 201.137 72.618 202.569 73.687C204 74.756 205.087 76.2206 205.696 77.9002C206.305 79.5798 206.409 81.4009 205.995 83.1389C205.582 84.8769 204.668 86.4558 203.368 87.6809C202.068 88.906 200.437 89.7238 198.678 90.0333C196.918 90.3428 195.107 90.1306 193.466 89.4227C191.826 88.7149 190.429 87.5424 189.447 86.0499C188.465 84.5575 187.941 82.8102 187.94 81.0237C188.018 78.5266 189.083 76.1624 190.902 74.4492C192.72 72.7361 195.144 71.8136 197.641 71.8841Z" fill="#2F3235"/>
<path d="M281.704 153.017L271.268 64.727C270.924 61.8258 269.443 59.1797 267.149 57.3701C264.856 55.5605 261.938 54.7354 259.036 55.0763L135.06 69.8018C133.624 69.9702 132.234 70.4205 130.972 71.1269C129.709 71.8332 128.599 72.7816 127.703 73.9178C126.808 75.0541 126.146 76.3558 125.754 77.7484C125.363 79.141 125.25 80.5972 125.422 82.0335L140.247 207.431C140.564 210.109 141.853 212.578 143.868 214.37C145.883 216.162 148.485 217.154 151.182 217.156C151.599 217.154 152.015 217.129 152.429 217.081L244.111 206.246C245.677 206.06 247.185 205.541 248.533 204.724C249.881 203.906 251.039 202.81 251.929 201.508L279.821 160.586C281.349 158.376 282.019 155.685 281.704 153.017ZM142.716 207.081L127.891 81.6844C127.759 80.5708 127.847 79.442 128.152 78.3628C128.457 77.2835 128.971 76.2749 129.666 75.3947C130.361 74.5145 131.223 73.78 132.202 73.2332C133.181 72.6864 134.258 72.3381 135.372 72.2082L259.335 57.5575C259.676 57.5389 260.017 57.5389 260.358 57.5575C262.435 57.5604 264.44 58.3224 265.994 59.7003C267.549 61.0781 268.546 62.9767 268.799 65.0387L279.223 153.342C279.359 154.507 279.249 155.688 278.899 156.808C278.51 156.626 278.075 156.566 277.652 156.633L249.186 160.623C248.66 160.697 248.178 160.957 247.826 161.354C247.474 161.752 247.275 162.262 247.266 162.793L246.567 200.199C246.564 200.615 246.68 201.024 246.901 201.378C247.122 201.731 247.438 202.014 247.814 202.194C246.649 203.025 245.295 203.552 243.874 203.727L152.18 214.563C151.067 214.693 149.94 214.603 148.862 214.298C147.784 213.992 146.777 213.477 145.898 212.783C145.019 212.088 144.286 211.227 143.74 210.249C143.194 209.27 142.846 208.194 142.716 207.081ZM277.377 159.165L249.061 199.339L249.747 163.042L277.377 159.165Z" fill="#8396A8"/>
<path d="M249.099 199.339L277.402 159.152L249.784 163.043L249.099 199.339Z" fill="#B9C1C6"/>
<path d="M197.64 90.1511C202.998 90.1511 207.341 86.0592 207.341 81.0116C207.341 75.964 202.998 71.8721 197.64 71.8721C192.283 71.8721 187.939 75.964 187.939 81.0116C187.939 86.0592 192.283 90.1511 197.64 90.1511Z" fill="#354A5F"/>
<path d="M240.891 110.397L166.1 118.218C163.066 118.536 160.864 121.253 161.181 124.287L161.49 127.238C161.807 130.272 164.524 132.474 167.558 132.157L242.348 124.336C245.382 124.019 247.585 121.302 247.267 118.268L246.959 115.316C246.642 112.282 243.925 110.08 240.891 110.397Z" fill="#354A5F"/>
<path d="M215.853 137.955L168.307 142.927C165.842 143.185 164.052 145.392 164.31 147.858L164.834 152.868C165.091 155.334 167.299 157.123 169.765 156.865L217.31 151.893C219.776 151.636 221.566 149.428 221.308 146.962L220.784 141.952C220.526 139.487 218.318 137.697 215.853 137.955Z" fill="#354A5F"/>
<path d="M234.062 117.183C233.597 116.704 233.041 116.324 232.426 116.064C231.811 115.804 231.151 115.67 230.483 115.67C229.816 115.67 229.155 115.804 228.541 116.064C227.926 116.324 227.37 116.704 226.905 117.183L191.993 152.095L180.148 140.25C179.677 139.78 179.118 139.408 178.503 139.154C177.889 138.9 177.23 138.769 176.565 138.77C175.899 138.77 175.241 138.902 174.627 139.157C174.012 139.412 173.454 139.786 172.984 140.257C172.514 140.727 172.142 141.286 171.888 141.901C171.634 142.515 171.503 143.174 171.504 143.839C171.504 144.505 171.636 145.163 171.891 145.777C172.146 146.392 172.52 146.95 172.991 147.42L188.414 162.868C188.879 163.347 189.435 163.728 190.05 163.988C190.665 164.248 191.325 164.382 191.993 164.382C192.66 164.382 193.321 164.248 193.935 163.988C194.55 163.728 195.106 163.347 195.571 162.868L234.112 124.328C234.591 123.863 234.971 123.307 235.231 122.692C235.491 122.077 235.625 121.417 235.625 120.749C235.625 120.082 235.491 119.421 235.231 118.807C234.971 118.192 234.591 117.636 234.112 117.171L234.062 117.183Z" fill="#D5DADD"/>
<path d="M310.275 60.325C309.979 59.971 309.593 59.7033 309.158 59.5501C308.723 59.3968 308.255 59.3637 307.803 59.4541L296.987 61.3248C295.198 61.6334 294.491 63.2776 294.734 64.6797C294.812 65.2571 295.075 65.7935 295.484 66.2083C295.894 66.6231 296.427 66.8939 297.003 66.98C297.283 67.0133 297.566 67.0041 297.843 66.9527L308.658 65.0819C309.134 65.0096 309.582 64.8099 309.954 64.504C310.326 64.198 310.608 63.7972 310.771 63.344C310.952 62.8402 311.002 62.2984 310.915 61.7701C310.828 61.2418 310.608 60.7444 310.275 60.325Z" fill="#A9B4BE"/>
<path d="M269.166 17.1267C268.853 17.0203 268.522 16.9802 268.193 17.0091C267.864 17.0379 267.545 17.135 267.256 17.2941C266.967 17.4532 266.714 17.6709 266.513 17.9333C266.313 18.1956 266.17 18.4969 266.092 18.8178L263.112 29.0853C263.006 29.4549 262.975 29.8418 263.02 30.2235C263.065 30.6053 263.186 30.9741 263.376 31.3086C263.565 31.6431 263.819 31.9365 264.124 32.1717C264.428 32.4069 264.776 32.5792 265.147 32.6784C265.299 32.7236 265.454 32.7563 265.612 32.7761C266.192 32.8575 266.782 32.7186 267.265 32.3868C267.748 32.055 268.089 31.5543 268.221 30.9834L271.197 20.7198C271.304 20.3505 271.335 19.9637 271.291 19.582C271.246 19.2003 271.125 18.8313 270.936 18.4967C270.747 18.1622 270.493 17.8687 270.189 17.6334C269.885 17.3982 269.537 17.2259 269.166 17.1267Z" fill="#A9B4BE"/>
<path d="M295.741 31.03C295.381 31.0066 295.021 31.0569 294.681 31.1778C294.341 31.2987 294.029 31.4876 293.765 31.733L281.798 42.6215C281.264 43.1129 280.94 43.7916 280.895 44.5158C280.85 45.24 281.087 45.9537 281.555 46.5075C281.992 47.0194 282.606 47.3483 283.274 47.4292C283.659 47.4752 284.05 47.4376 284.419 47.3189C284.789 47.2003 285.128 47.0035 285.414 46.7418L297.382 35.8533C297.919 35.3596 298.244 34.6769 298.289 33.9486C298.333 33.2203 298.093 32.5031 297.62 31.9478C297.385 31.6762 297.097 31.4549 296.774 31.2972C296.452 31.1394 296.1 31.0486 295.741 31.03Z" fill="#A9B4BE"/>
</svg>
