<svg width="320" height="240" viewBox="0 0 320 240" fill="none" xmlns="http://www.w3.org/2000/svg">
<path fill-rule="evenodd" clip-rule="evenodd" d="M257.28 59.8267C257.28 38.9356 240.344 22 219.453 22H37.8267C16.9356 22 0 38.9356 0 59.8267V59.84C0 80.7311 16.9356 97.6667 37.8267 97.6667H166.73C166.443 99.2901 166.293 100.961 166.293 102.666C166.293 118.432 179.074 131.213 194.84 131.213H291.453C307.219 131.213 320 118.432 320 102.666C320 86.9006 307.219 74.1198 291.453 74.1198H254.492C256.289 69.7136 257.28 64.8925 257.28 59.84V59.8267ZM5.41341 153.28C5.41341 137.514 18.1942 124.733 33.9601 124.733H130.573C146.268 124.733 159.005 137.399 159.119 153.067H165.747C181.512 153.067 194.293 165.848 194.293 181.613C194.293 197.379 181.512 210.16 165.747 210.16H69.1333C53.4385 210.16 40.7021 197.494 40.5874 181.827H33.9601C18.1942 181.827 5.41341 169.046 5.41341 153.28Z" fill="#EBF8FF"/>
<path fill-rule="evenodd" clip-rule="evenodd" d="M263.924 71.6346L274.36 159.925C274.656 162.574 273.982 165.24 272.465 167.431L244.573 208.353C243.683 209.655 242.525 210.752 241.177 211.569C239.828 212.386 238.321 212.905 236.755 213.091L145.073 223.927C144.659 223.974 144.243 223.999 143.826 224.001C141.131 223.996 138.532 223.003 136.519 221.211C134.507 219.419 133.22 216.952 132.903 214.276L118.078 88.8788C117.906 87.4425 118.019 85.9863 118.41 84.5937C118.802 83.201 119.464 81.8994 120.359 80.7631C121.255 79.6269 122.365 78.6784 123.628 77.9721C124.89 77.2658 126.28 76.8155 127.716 76.647L251.692 61.9964C253.128 61.8258 254.584 61.9399 255.976 62.332C257.368 62.7241 258.669 63.3866 259.805 64.2817C260.941 65.1767 261.889 66.2867 262.596 67.5484C263.303 68.81 263.754 70.1985 263.924 71.6346ZM120.487 87.6625C120.479 86.8558 120.585 86.0505 120.805 85.271C121.109 84.1918 121.624 83.1835 122.319 82.3039C123.014 81.4243 123.877 80.6909 124.856 80.1459C125.836 79.6009 126.914 79.2551 128.028 79.1283L252.004 64.4651C252.343 64.4258 252.685 64.405 253.026 64.4028C255.104 64.4057 257.108 65.1678 258.663 66.5456C260.218 67.9235 261.215 69.822 261.468 71.884L271.904 160.174C272.015 161.152 271.952 162.14 271.72 163.094C271.942 162.156 272.001 161.186 271.892 160.225L261.455 71.9348C261.203 69.8728 260.206 67.9742 258.651 66.5963C257.096 65.2185 255.092 64.4564 253.014 64.4536C252.672 64.4557 252.331 64.4765 251.992 64.5159L128.029 79.179C126.915 79.3058 125.837 79.6517 124.857 80.1967C123.877 80.7417 123.015 81.475 122.319 82.3546C121.624 83.2341 121.109 84.2426 120.805 85.3217C120.59 86.0849 120.483 86.8728 120.487 87.6625ZM239.989 169.175C239.948 169.338 239.925 169.506 239.922 169.676L239.224 207.082C239.219 207.499 239.334 207.909 239.555 208.262C239.77 208.605 240.074 208.881 240.436 209.06C240.451 209.049 240.467 209.038 240.483 209.027C240.106 208.848 239.788 208.565 239.568 208.212C239.347 207.858 239.232 207.449 239.236 207.032L239.934 169.626C239.937 169.473 239.956 169.322 239.989 169.175ZM195.225 80.5953C193.793 79.5263 192.08 78.8996 190.297 78.7925C187.799 78.7187 185.373 79.6399 183.554 81.3538C181.735 83.0677 180.671 85.4338 180.596 87.932C180.597 89.7185 181.121 91.4658 182.103 92.9583C183.085 94.4508 184.482 95.6232 186.122 96.331C187.763 97.0388 189.574 97.2511 191.334 96.9416C193.093 96.6321 194.724 95.8143 196.024 94.5892C197.325 93.3641 198.238 91.7852 198.652 90.0472C199.065 88.3092 198.961 86.4881 198.352 84.8086C197.743 83.129 196.656 81.6643 195.225 80.5953Z" fill="#D5DADD"/>
<path d="M243.875 203.702C245.295 203.527 246.649 203 247.815 202.169C247.439 201.989 247.122 201.706 246.901 201.352C246.68 200.999 246.565 200.59 246.568 200.174L247.266 162.768C247.276 162.237 247.474 161.727 247.826 161.329C248.178 160.931 248.66 160.672 249.186 160.598L277.652 156.608C278.076 156.54 278.51 156.601 278.899 156.783C279.249 155.663 279.36 154.482 279.223 153.316L268.787 65.026C268.535 62.964 267.537 61.0655 265.982 59.6876C264.428 58.3098 262.423 57.5477 260.346 57.5448C260.005 57.5262 259.664 57.5262 259.323 57.5448L135.36 72.1955C134.246 72.3254 133.169 72.6737 132.19 73.2205C131.21 73.7673 130.349 74.5018 129.654 75.382C128.959 76.2622 128.445 77.2708 128.14 78.3501C127.835 79.4293 127.747 80.5581 127.879 81.6717L142.716 207.081C142.846 208.194 143.194 209.27 143.74 210.248C144.286 211.227 145.02 212.088 145.898 212.782C146.777 213.477 147.784 213.992 148.862 214.297C149.94 214.603 151.067 214.693 152.18 214.562L243.875 203.702ZM197.641 71.8838C199.424 71.9909 201.137 72.6176 202.569 73.6866C204 74.7557 205.087 76.2203 205.696 77.8998C206.305 79.5794 206.409 81.4005 205.995 83.1385C205.582 84.8765 204.668 86.4554 203.368 87.6805C202.068 88.9056 200.437 89.7234 198.678 90.0329C196.918 90.3425 195.107 90.1302 193.466 89.4224C191.826 88.7145 190.429 87.5421 189.447 86.0496C188.465 84.5571 187.941 82.8099 187.94 81.0233C188.018 78.5262 189.083 76.1621 190.902 74.4489C192.72 72.7357 195.144 71.8132 197.641 71.8838Z" fill="white"/>
<path d="M281.704 153.018L271.268 64.7271C270.924 61.8259 269.443 59.1798 267.149 57.3702C264.856 55.5606 261.938 54.7356 259.036 55.0764L135.06 69.8019C133.624 69.9704 132.234 70.4207 130.972 71.127C129.709 71.8333 128.599 72.7817 127.703 73.918C126.808 75.0542 126.146 76.3559 125.754 77.7485C125.363 79.1411 125.25 80.5973 125.422 82.0336L140.247 207.431C140.564 210.109 141.853 212.578 143.868 214.37C145.883 216.162 148.485 217.154 151.182 217.156C151.599 217.154 152.015 217.129 152.429 217.081L244.111 206.246C245.677 206.06 247.185 205.541 248.533 204.724C249.881 203.907 251.039 202.81 251.929 201.508L279.821 160.586C281.349 158.377 282.019 155.685 281.704 153.018ZM142.716 207.082L127.891 81.6845C127.759 80.5709 127.847 79.4422 128.152 78.3629C128.457 77.2836 128.971 76.275 129.666 75.3948C130.361 74.5146 131.223 73.7801 132.202 73.2333C133.181 72.6866 134.258 72.3382 135.372 72.2083L259.335 57.5577C259.676 57.5391 260.017 57.5391 260.358 57.5577C262.435 57.5605 264.44 58.3226 265.994 59.7004C267.549 61.0782 268.546 62.9769 268.799 65.0388L279.223 153.342C279.359 154.507 279.249 155.688 278.899 156.808C278.51 156.626 278.075 156.566 277.652 156.634L249.186 160.624C248.66 160.698 248.178 160.957 247.826 161.354C247.474 161.752 247.275 162.262 247.266 162.793L246.567 200.199C246.564 200.616 246.68 201.024 246.901 201.378C247.122 201.731 247.438 202.014 247.814 202.194C246.649 203.025 245.295 203.552 243.874 203.728L152.18 214.563C151.067 214.693 149.94 214.603 148.862 214.298C147.784 213.992 146.777 213.477 145.898 212.783C145.019 212.088 144.286 211.227 143.74 210.249C143.194 209.271 142.846 208.194 142.716 207.082ZM277.377 159.165L249.061 199.339L249.747 163.042L277.377 159.165Z" fill="#00144A"/>
<path d="M249.099 199.339L277.402 159.152L249.784 163.042L249.099 199.339Z" fill="white"/>
<path d="M197.64 90.1507C202.998 90.1507 207.341 86.0588 207.341 81.0112C207.341 75.9636 202.998 71.8717 197.64 71.8717C192.283 71.8717 187.939 75.9636 187.939 81.0112C187.939 86.0588 192.283 90.1507 197.64 90.1507Z" fill="#F58B00"/>
<path d="M240.891 110.397L166.1 118.219C163.066 118.536 160.864 121.253 161.181 124.287L161.49 127.238C161.807 130.272 164.524 132.475 167.558 132.157L242.348 124.336C245.382 124.019 247.585 121.302 247.267 118.268L246.959 115.317C246.642 112.283 243.925 110.08 240.891 110.397Z" fill="#D5DADD"/>
<path d="M215.853 137.955L168.307 142.927C165.842 143.185 164.052 145.392 164.31 147.858L164.834 152.868C165.091 155.334 167.299 157.123 169.765 156.866L217.31 151.893C219.776 151.636 221.566 149.428 221.308 146.962L220.784 141.952C220.526 139.487 218.318 137.697 215.853 137.955Z" fill="#D5DADD"/>
<path d="M234.062 117.184C233.597 116.705 233.041 116.324 232.426 116.064C231.811 115.804 231.151 115.67 230.483 115.67C229.816 115.67 229.155 115.804 228.541 116.064C227.926 116.324 227.37 116.705 226.905 117.184L191.993 152.096L180.148 140.251C179.677 139.781 179.118 139.408 178.503 139.154C177.889 138.9 177.23 138.77 176.565 138.77C175.899 138.771 175.241 138.902 174.627 139.158C174.012 139.413 173.454 139.786 172.984 140.257C172.514 140.728 172.142 141.286 171.888 141.901C171.634 142.516 171.503 143.175 171.504 143.84C171.504 144.505 171.636 145.164 171.891 145.778C172.146 146.392 172.52 146.95 172.991 147.42L188.414 162.869C188.879 163.348 189.435 163.728 190.05 163.988C190.665 164.248 191.325 164.382 191.993 164.382C192.66 164.382 193.321 164.248 193.935 163.988C194.55 163.728 195.106 163.348 195.571 162.869L234.112 124.328C234.591 123.863 234.971 123.307 235.231 122.692C235.491 122.078 235.625 121.417 235.625 120.75C235.625 120.082 235.491 119.422 235.231 118.807C234.971 118.192 234.591 117.636 234.112 117.171L234.062 117.184Z" fill="#F58B00"/>
<path d="M204.687 77.6099C205.017 77.1263 204.149 75.9606 202.75 75.0062C201.35 74.0519 199.948 73.6702 199.619 74.1538C199.289 74.6374 200.156 75.8031 201.556 76.7575C202.955 77.7119 204.357 78.0935 204.687 77.6099Z" fill="white"/>
<path d="M310.275 60.3254C309.979 59.9715 309.593 59.7038 309.158 59.5505C308.723 59.3972 308.255 59.3641 307.803 59.4545L296.987 61.3253C295.198 61.6338 294.491 63.278 294.734 64.6801C294.812 65.2575 295.075 65.7939 295.484 66.2087C295.894 66.6236 296.427 66.8944 297.003 66.9804C297.283 67.0137 297.566 67.0045 297.843 66.9531L308.658 65.0824C309.134 65.01 309.582 64.8103 309.954 64.5044C310.326 64.1985 310.608 63.7976 310.771 63.3444C310.952 62.8406 311.002 62.2989 310.915 61.7705C310.828 61.2422 310.608 60.7448 310.275 60.3254Z" fill="#A9B4BE"/>
<path d="M269.166 17.1267C268.853 17.0203 268.522 16.9802 268.193 17.0091C267.864 17.0379 267.545 17.135 267.256 17.2941C266.967 17.4532 266.714 17.6709 266.513 17.9333C266.313 18.1956 266.17 18.4969 266.092 18.8178L263.112 29.0853C263.006 29.4549 262.975 29.8418 263.02 30.2235C263.065 30.6053 263.186 30.9741 263.376 31.3086C263.565 31.6431 263.819 31.9365 264.124 32.1717C264.428 32.4069 264.776 32.5792 265.147 32.6784C265.299 32.7236 265.454 32.7563 265.612 32.7761C266.192 32.8575 266.782 32.7186 267.265 32.3868C267.748 32.055 268.089 31.5543 268.221 30.9834L271.197 20.7198C271.304 20.3505 271.335 19.9637 271.291 19.582C271.246 19.2003 271.125 18.8313 270.936 18.4967C270.747 18.1622 270.493 17.8687 270.189 17.6334C269.885 17.3982 269.537 17.2259 269.166 17.1267Z" fill="#A9B4BE"/>
<path d="M295.741 31.0303C295.381 31.0069 295.021 31.0572 294.681 31.1781C294.341 31.299 294.029 31.4879 293.765 31.7333L281.798 42.6218C281.264 43.1132 280.94 43.7919 280.895 44.5161C280.85 45.2403 281.087 45.954 281.555 46.5078C281.992 47.0197 282.606 47.3486 283.274 47.4295C283.659 47.4755 284.05 47.4379 284.419 47.3192C284.789 47.2006 285.128 47.0038 285.414 46.7421L297.382 35.8536C297.919 35.3599 298.244 34.6772 298.289 33.9489C298.333 33.2206 298.093 32.5034 297.62 31.9481C297.385 31.6765 297.097 31.4552 296.774 31.2975C296.452 31.1397 296.1 31.0489 295.741 31.0303Z" fill="#A9B4BE"/>
</svg>
