<svg width="160" height="160" viewBox="0 0 160 160" fill="none" xmlns="http://www.w3.org/2000/svg">
<path fill-rule="evenodd" clip-rule="evenodd" d="M113.283 36.423L120.24 95.2834C120.437 97.0492 119.988 98.8267 118.977 100.287L100.382 127.569C99.7887 128.437 99.0168 129.168 98.1179 129.713C97.2189 130.257 96.2137 130.603 95.1698 130.728L34.0485 137.951C33.7726 137.983 33.4951 137.999 33.2173 138.001C31.4208 137.997 29.6879 137.335 28.3462 136.141C27.0045 134.946 26.1469 133.301 25.9356 131.517L16.0521 47.9191C15.9373 46.9616 16.0125 45.9908 16.2735 45.0624C16.5345 44.1339 16.976 43.2662 17.5729 42.5087C18.1698 41.7512 18.9103 41.1189 19.7519 40.648C20.5935 40.1771 21.5198 39.8769 22.4776 39.7646L105.128 29.9975C106.085 29.8838 107.056 29.9598 107.984 30.2212C108.912 30.4827 109.779 30.9243 110.536 31.521C111.294 32.1177 111.926 32.8577 112.397 33.6988C112.868 34.5399 113.169 35.4656 113.283 36.423ZM17.6578 47.1083C17.6524 46.5705 17.7235 46.0336 17.87 45.5139C18.0727 44.7945 18.4157 44.1222 18.8793 43.5358C19.3428 42.9495 19.9177 42.4605 20.5709 42.0972C21.2241 41.7339 21.9428 41.5033 22.6854 41.4188L105.336 31.6433C105.562 31.6171 105.79 31.6032 106.018 31.6018C107.402 31.6037 108.739 32.1118 109.775 33.0303C110.812 33.9489 111.477 35.2146 111.645 36.5893L118.603 95.4496C118.677 96.1024 118.635 96.7621 118.479 97.3985C118.628 96.7725 118.667 96.1246 118.594 95.4833L111.637 36.623C111.469 35.2484 110.804 33.9826 109.767 33.064C108.731 32.1455 107.394 31.6375 106.009 31.6356C105.782 31.637 105.554 31.6508 105.328 31.6771L22.6857 41.4525C21.943 41.5371 21.2244 41.7676 20.5712 42.131C19.9179 42.4943 19.343 42.9832 18.8795 43.5695C18.416 44.1559 18.073 44.8282 17.8702 45.5477C17.7268 46.0565 17.6556 46.5818 17.6578 47.1083ZM97.3263 101.45C97.2988 101.558 97.2836 101.67 97.2814 101.784L96.8159 126.721C96.8129 126.999 96.8896 127.272 97.037 127.508C97.1797 127.736 97.3829 127.921 97.6238 128.04C97.6343 128.033 97.6448 128.025 97.6552 128.018C97.4041 127.899 97.1923 127.71 97.045 127.474C96.8977 127.239 96.821 126.966 96.824 126.688L97.2895 101.75C97.2914 101.648 97.3039 101.548 97.3263 101.45ZM67.4831 42.3967C66.5288 41.684 65.3868 41.2662 64.198 41.1948C62.5325 41.1456 60.9156 41.7598 59.7029 42.9024C58.4902 44.045 57.7808 45.6224 57.7309 47.2878C57.7314 48.4789 58.0805 49.6437 58.7352 50.6387C59.3898 51.6337 60.3213 52.4153 61.4149 52.8872C62.5084 53.3591 63.7162 53.5006 64.8893 53.2942C66.0623 53.0879 67.1492 52.5427 68.0161 51.726C68.883 50.9092 69.4919 49.8566 69.7677 48.6979C70.0435 47.5393 69.9741 46.3253 69.5682 45.2056C69.1622 44.0858 68.4374 43.1094 67.4831 42.3967Z" fill="#8396A8"/>
<path d="M99.917 124.468C100.864 124.351 101.767 124 102.544 123.446C102.293 123.326 102.082 123.137 101.935 122.901C101.788 122.666 101.711 122.393 101.713 122.116L102.178 97.1784C102.184 96.8244 102.317 96.4844 102.551 96.2193C102.786 95.9542 103.108 95.7814 103.458 95.732L122.435 93.0721C122.718 93.0268 123.007 93.0674 123.267 93.1884C123.5 92.4419 123.574 91.6545 123.483 90.8776L116.525 32.0173C116.357 30.6426 115.692 29.3769 114.656 28.4584C113.619 27.5398 112.283 27.0317 110.898 27.0298C110.671 27.0174 110.443 27.0174 110.216 27.0298L27.574 36.7969C26.8314 36.8835 26.1131 37.1157 25.4604 37.4803C24.8076 37.8448 24.2332 38.3344 23.7699 38.9212C23.3067 39.508 22.9637 40.1804 22.7606 40.9C22.5575 41.6195 22.4984 42.372 22.5865 43.1144L32.4783 126.721C32.5649 127.463 32.7969 128.18 33.1608 128.832C33.5248 129.484 34.0138 130.058 34.5996 130.522C35.1855 130.985 35.8569 131.328 36.5755 131.532C37.294 131.735 38.0456 131.795 38.7874 131.708L99.917 124.468ZM69.0946 36.5891C70.2834 36.6605 71.4254 37.0783 72.3797 37.791C73.334 38.5037 74.0588 39.4801 74.4648 40.5998C74.8707 41.7195 74.9401 42.9336 74.6643 44.0923C74.3885 45.2509 73.7796 46.3035 72.9127 47.1203C72.0458 47.937 70.9588 48.4822 69.7858 48.6885C68.6128 48.8949 67.405 48.7534 66.3115 48.2815C65.2179 47.8096 64.2863 47.028 63.6317 46.033C62.9771 45.038 62.628 43.8732 62.6275 42.6821C62.6796 41.0174 63.3896 39.4413 64.6018 38.2992C65.814 37.1571 67.4297 36.5421 69.0946 36.5891Z" fill="#2F3235"/>
<path d="M125.137 90.6783L118.179 31.818C117.95 29.8839 116.963 28.1198 115.433 26.9134C113.904 25.707 111.959 25.157 110.025 25.3842L27.3742 35.2012C26.4163 35.3135 25.4901 35.6137 24.6484 36.0846C23.8068 36.5554 23.0663 37.1877 22.4695 37.9452C21.8726 38.7027 21.431 39.5705 21.17 40.4989C20.9091 41.4273 20.8338 42.3981 20.9486 43.3557L30.8321 126.954C31.0436 128.739 31.9024 130.385 33.2458 131.58C34.5893 132.775 36.3242 133.436 38.1221 133.437C38.3999 133.436 38.6774 133.419 38.9534 133.388L100.075 126.164C101.119 126.04 102.124 125.694 103.023 125.149C103.922 124.604 104.694 123.873 105.287 123.005L123.881 95.724C124.9 94.2509 125.346 92.4569 125.137 90.6783ZM32.478 126.721L22.5945 43.1229C22.5064 42.3805 22.5656 41.628 22.7686 40.9085C22.9717 40.189 23.3147 39.5166 23.778 38.9298C24.2412 38.343 24.8157 37.8533 25.4684 37.4888C26.1211 37.1243 26.8394 36.8921 27.582 36.8055L110.224 27.0384C110.451 27.026 110.679 27.026 110.906 27.0384C112.291 27.0403 113.627 27.5483 114.664 28.4669C115.7 29.3854 116.365 30.6512 116.533 32.0258L123.483 90.8944C123.574 91.6714 123.5 92.4588 123.266 93.2053C123.007 93.0842 122.718 93.0437 122.435 93.0889L103.458 95.7489C103.107 95.7983 102.786 95.971 102.551 96.2361C102.317 96.5012 102.184 96.8413 102.178 97.1953L101.712 122.133C101.71 122.41 101.787 122.683 101.935 122.918C102.082 123.154 102.293 123.343 102.543 123.463C101.767 124.017 100.864 124.368 99.9167 124.485L38.7871 131.708C38.0453 131.795 37.2937 131.735 36.5752 131.532C35.8566 131.328 35.1852 130.985 34.5993 130.522C34.0135 130.059 33.5245 129.485 33.1605 128.832C32.7966 128.18 32.5646 127.463 32.478 126.721ZM122.252 94.7763L103.375 121.559L103.832 97.3615L122.252 94.7763Z" fill="#8396A8"/>
<path d="M103.398 121.559L122.268 94.7685L103.856 97.362L103.398 121.559Z" fill="#B9C1C6"/>
<path d="M69.094 48.7671C72.6657 48.7671 75.5611 46.0391 75.5611 42.6741C75.5611 39.309 72.6657 36.5811 69.094 36.5811C65.5224 36.5811 62.627 39.309 62.627 42.6741C62.627 46.0391 65.5224 48.7671 69.094 48.7671Z" fill="#354A5F"/>
<path d="M97.9271 62.2654L48.0667 67.4796C46.044 67.6911 44.5758 69.5023 44.7873 71.525L44.9931 73.4926C45.2046 75.5153 47.0158 76.9836 49.0385 76.772L98.8988 71.5579C100.922 71.3464 102.39 69.5352 102.178 67.5125L101.973 65.5448C101.761 63.5221 99.9498 62.0539 97.9271 62.2654Z" fill="#354A5F"/>
<path d="M81.2358 80.6369L49.5387 83.9516C47.895 84.1235 46.7019 85.5954 46.8737 87.2391L47.223 90.5791C47.3949 92.2228 48.8668 93.416 50.5105 93.2441L82.2075 89.9294C83.8513 89.7575 85.0444 88.2857 84.8725 86.6419L84.5232 83.3019C84.3513 81.6582 82.8795 80.465 81.2358 80.6369Z" fill="#354A5F"/>
<path d="M93.3753 66.7896C93.0654 66.4703 92.6945 66.2165 92.2847 66.0432C91.875 65.8699 91.4346 65.7806 90.9896 65.7806C90.5447 65.7806 90.1043 65.8699 89.6945 66.0432C89.2847 66.2165 88.9139 66.4703 88.604 66.7896L65.3292 90.0644L57.4324 82.1675C57.1185 81.8543 56.7461 81.6058 56.3362 81.4365C55.9264 81.2672 55.4872 81.1802 55.0438 81.1806C54.6003 81.181 54.1613 81.2687 53.7517 81.4387C53.3422 81.6088 52.9702 81.8579 52.6569 82.1717C52.3436 82.4855 52.0952 82.858 51.9258 83.2678C51.7565 83.6777 51.6695 84.1169 51.6699 84.5603C51.6703 85.0038 51.758 85.4428 51.9281 85.8523C52.0981 86.2619 52.3472 86.6339 52.661 86.9472L62.9435 97.2463C63.2534 97.5655 63.6243 97.8193 64.0341 97.9926C64.4438 98.1659 64.8842 98.2552 65.3292 98.2552C65.7741 98.2552 66.2145 98.1659 66.6243 97.9926C67.0341 97.8193 67.4049 97.5655 67.7148 97.2463L93.4086 71.5526C93.7278 71.2426 93.9816 70.8718 94.1549 70.462C94.3282 70.0522 94.4175 69.6118 94.4175 69.1669C94.4175 68.722 94.3282 68.2816 94.1549 67.8718C93.9816 67.462 93.7278 67.0912 93.4086 66.7812L93.3753 66.7896Z" fill="#D5DADD"/>
<path d="M144.183 28.8837C143.985 28.6477 143.728 28.4692 143.438 28.3671C143.148 28.2649 142.836 28.2428 142.534 28.3031L135.324 29.5502C134.132 29.7559 133.66 30.8521 133.822 31.7868C133.874 32.1717 134.05 32.5293 134.322 32.8059C134.595 33.0824 134.95 33.263 135.335 33.3203C135.521 33.3425 135.71 33.3364 135.894 33.3021L143.105 32.055C143.422 32.0067 143.721 31.8736 143.969 31.6696C144.217 31.4657 144.405 31.1985 144.513 30.8963C144.634 30.5605 144.667 30.1993 144.609 29.8471C144.551 29.4948 144.405 29.1632 144.183 28.8837Z" fill="#A9B4BE"/>
<path d="M116.777 0.0844665C116.568 0.013539 116.347 -0.0131697 116.128 0.00604575C115.909 0.0252612 115.696 0.0899774 115.503 0.196065C115.31 0.302152 115.142 0.44728 115.008 0.62218C114.875 0.797081 114.779 0.997914 114.727 1.21186L112.741 8.0569C112.67 8.30325 112.649 8.56121 112.679 8.81569C112.71 9.07018 112.79 9.3161 112.917 9.53909C113.043 9.76209 113.212 9.9577 113.415 10.1145C113.618 10.2713 113.85 10.3861 114.097 10.4523C114.199 10.4824 114.302 10.5042 114.407 10.5174C114.794 10.5717 115.187 10.4791 115.509 10.2579C115.831 10.0367 116.059 9.70286 116.147 9.32228L118.131 2.47984C118.202 2.23366 118.223 1.97579 118.193 1.72131C118.163 1.46684 118.083 1.22089 117.957 0.997832C117.831 0.774779 117.661 0.579112 117.459 0.422281C117.256 0.265449 117.024 0.150604 116.777 0.0844665Z" fill="#A9B4BE"/>
<path d="M134.493 9.35347C134.253 9.3379 134.012 9.37143 133.786 9.45201C133.559 9.53259 133.352 9.65853 133.175 9.82213L125.197 17.0812C124.841 17.4087 124.626 17.8612 124.595 18.344C124.565 18.8268 124.723 19.3026 125.036 19.6718C125.327 20.0131 125.736 20.2324 126.181 20.2863C126.438 20.3169 126.699 20.2919 126.945 20.2128C127.191 20.1337 127.417 20.0025 127.608 19.828L135.587 12.569C135.945 12.2399 136.162 11.7847 136.191 11.2992C136.221 10.8137 136.061 10.3356 135.745 9.96534C135.589 9.78427 135.397 9.63673 135.182 9.53159C134.966 9.42645 134.732 9.36587 134.493 9.35347Z" fill="#A9B4BE"/>
<path d="M72.3327 160C92.0308 160 107.999 158.06 107.999 155.667C107.999 153.273 92.0308 151.333 72.3327 151.333C52.6345 151.333 36.666 153.273 36.666 155.667C36.666 158.06 52.6345 160 72.3327 160Z" fill="#8396A8" fill-opacity="0.2"/>
</svg>
