<svg width="112" height="113" viewBox="0 0 112 113" fill="none" xmlns="http://www.w3.org/2000/svg">
<path d="M26.7618 5.9749L12.235 93.6012C11.5907 97.488 14.2168 101.162 18.1005 101.806L78.9989 111.918C82.8827 112.562 86.5534 109.934 87.1978 106.048L101.724 18.4213C102.369 14.5346 99.7427 10.861 95.859 10.2162L34.9606 0.104931C31.0768 -0.539907 27.4061 2.08816 26.7618 5.9749Z" fill="#F58B00"/>
<path d="M77.64 4.26233H18.5199C14.583 4.26233 11.3916 7.45622 11.3916 11.3961V96.6712C11.3916 100.611 14.583 103.805 18.5199 103.805H77.64C81.5768 103.805 84.7683 100.611 84.7683 96.6712V11.3961C84.7683 7.45622 81.5768 4.26233 77.64 4.26233Z" fill="white"/>
<path d="M77.6394 104.697H18.5193C16.3925 104.697 14.3527 103.851 12.8488 102.346C11.3449 100.841 10.5 98.7996 10.5 96.6711V11.396C10.5 9.26753 11.3449 7.22622 12.8488 5.72115C14.3527 4.21608 16.3925 3.37054 18.5193 3.37054H77.6394C79.7663 3.37054 81.806 4.21608 83.3099 5.72115C84.8138 7.22622 85.6587 9.26753 85.6587 11.396V96.6711C85.6587 98.7996 84.8138 100.841 83.3099 102.346C81.806 103.851 79.7663 104.697 77.6394 104.697ZM18.5193 5.15398C16.8651 5.15398 15.2786 5.81162 14.1089 6.98223C12.9392 8.15284 12.2821 9.74053 12.2821 11.396V96.6711C12.2821 98.3266 12.9392 99.9143 14.1089 101.085C15.2786 102.256 16.8651 102.913 18.5193 102.913H77.6394C79.2937 102.913 80.8801 102.256 82.0498 101.085C83.2195 99.9143 83.8767 98.3266 83.8767 96.6711V11.396C83.8767 9.74053 83.2195 8.15284 82.0498 6.98223C80.8801 5.81162 79.2937 5.15398 77.6394 5.15398H18.5193Z" fill="#00144A"/>
<path d="M66.2313 55.7312C66.2313 65.5545 58.268 73.5178 48.4447 73.5178C38.6215 73.5178 30.6582 65.5545 30.6582 55.7312C30.6582 45.908 38.6215 37.9447 48.4447 37.9447C58.268 37.9447 66.2313 45.908 66.2313 55.7312Z" fill="white"/>
<path d="M48.4447 37.9447C44.9269 37.9447 41.4881 38.9879 38.5631 40.9423C35.6381 42.8967 33.3584 45.6749 32.0121 48.9249C30.6659 52.175 30.3137 55.751 31 59.2013C31.6863 62.6515 33.3803 65.8207 35.8678 68.3082C38.3553 70.7957 41.5245 72.4897 44.9748 73.176C48.425 73.8623 52.0013 73.51 55.2514 72.1638C58.5014 70.8176 61.2793 68.5378 63.2337 65.6128C65.1881 62.6879 66.2313 59.2491 66.2313 55.7312C66.2313 51.014 64.3574 46.4899 61.0217 43.1543C57.6861 39.8187 53.162 37.9447 48.4447 37.9447ZM48.4447 66.4032C47.9171 66.4032 47.4013 66.2469 46.9625 65.9537C46.5238 65.6606 46.1818 65.2436 45.9799 64.7561C45.7779 64.2686 45.7251 63.7325 45.8281 63.215C45.931 62.6974 46.1851 62.222 46.5582 61.8488C46.9314 61.4757 47.4067 61.2214 47.9242 61.1184C48.4418 61.0155 48.9782 61.0685 49.4658 61.2704C49.9533 61.4724 50.37 61.8144 50.6631 62.2531C50.9563 62.6919 51.1127 63.2075 51.1127 63.7352C51.1127 64.4428 50.8316 65.1216 50.3313 65.622C49.831 66.1223 49.1523 66.4032 48.4447 66.4032ZM51.255 57.3323C51.0102 57.4483 50.7726 57.5789 50.5436 57.7235C50.37 58.2204 50.0256 58.6396 49.572 58.9064C49.1183 59.1733 48.5847 59.2705 48.0661 59.1809C47.5474 59.0912 47.0774 58.8203 46.7396 58.4166C46.4019 58.0129 46.2182 57.5025 46.2214 56.9762C46.2214 54.9485 48.0001 54.0592 49.1918 53.4189C50.8637 52.5474 51.5574 52.0494 51.5574 50.7865C51.5574 49.5237 50.1345 48.5632 48.4447 48.5632C46.755 48.5632 45.3321 49.5948 45.3321 50.7865C45.3321 51.3762 45.0978 51.942 44.6809 52.3589C44.2639 52.7759 43.6984 53.0099 43.1088 53.0099C42.5191 53.0099 41.9536 52.7759 41.5367 52.3589C41.1197 51.942 40.8855 51.3762 40.8855 50.7865C41.1057 48.9364 41.9968 47.2314 43.3899 45.9942C44.7831 44.7571 46.5816 44.074 48.4447 44.074C50.3079 44.074 52.1064 44.7571 53.4996 45.9942C54.8927 47.2314 55.7838 48.9364 56.004 50.7865C55.9465 52.2244 55.465 53.6134 54.6199 54.7781C53.7749 55.9428 52.6041 56.8315 51.255 57.3323Z" fill="#004DA5"/>
</svg>
