<svg width="320" height="240" viewBox="0 0 320 240" fill="none" xmlns="http://www.w3.org/2000/svg">
<path fill-rule="evenodd" clip-rule="evenodd" d="M257.28 59.66C257.28 38.769 240.344 21.8334 219.453 21.8334H37.8267C16.9356 21.8334 0 38.769 0 59.66V59.6734C0 80.5645 16.9356 97.5 37.8267 97.5H166.73C166.443 99.1234 166.293 100.794 166.293 102.5C166.293 118.266 179.074 131.047 194.84 131.047H291.453C307.219 131.047 320 118.266 320 102.5C320 86.7339 307.219 73.9532 291.453 73.9532H254.492C256.289 69.547 257.28 64.7259 257.28 59.6734V59.66ZM5.41341 153.113C5.41341 137.348 18.1942 124.567 33.9601 124.567H130.573C146.268 124.567 159.005 137.232 159.119 152.9H165.747C181.512 152.9 194.293 165.681 194.293 181.447C194.293 197.213 181.512 209.993 165.747 209.993H69.1333C53.4385 209.993 40.702 197.328 40.5874 181.66H33.9601C18.1942 181.66 5.41341 168.879 5.41341 153.113Z" fill="#8396A8" fill-opacity="0.2"/>
<ellipse opacity="0.5" cx="144" cy="84.5001" rx="61.3333" ry="61.3333" fill="#223548"/>
<path d="M177.334 84.5001C177.334 102.91 162.41 117.833 144 117.833C125.591 117.833 110.667 102.91 110.667 84.5001C110.667 66.0906 125.591 51.1667 144 51.1667C162.41 51.1667 177.334 66.0906 177.334 84.5001Z" fill="#EAECEE"/>
<path d="M144 51.1667C137.408 51.1667 130.963 53.1217 125.481 56.7844C120 60.4471 115.727 65.6537 113.204 71.7445C110.681 77.8354 110.021 84.5371 111.307 91.0032C112.594 97.4692 115.768 103.408 120.43 108.07C125.092 112.732 131.031 115.907 137.497 117.193C143.963 118.479 150.666 117.819 156.756 115.296C162.847 112.773 168.053 108.501 171.716 103.019C175.379 97.5373 177.334 91.0928 177.334 84.5001C177.334 75.6595 173.822 67.1811 167.571 60.9299C161.319 54.6787 152.841 51.1667 144 51.1667ZM144 104.5C143.011 104.5 142.045 104.207 141.222 103.658C140.4 103.108 139.759 102.327 139.381 101.413C139.003 100.5 138.904 99.495 139.096 98.5251C139.289 97.5552 139.766 96.6642 140.465 95.9649C141.164 95.2657 142.055 94.789 143.025 94.5961C143.995 94.4032 145 94.5025 145.914 94.8809C146.827 95.2594 147.608 95.9003 148.158 96.7226C148.707 97.5448 149 98.5112 149 99.5001C149 100.826 148.474 102.098 147.536 103.036C146.598 103.974 145.326 104.5 144 104.5ZM149.267 87.5006C148.808 87.7179 148.363 87.9627 147.934 88.2338C147.608 89.165 146.963 89.9505 146.113 90.4506C145.263 90.9507 144.263 91.1329 143.291 90.9649C142.319 90.7969 141.438 90.2891 140.805 89.5326C140.172 88.7761 139.828 87.8196 139.834 86.8332C139.834 83.0332 143.167 81.3666 145.4 80.1666C148.534 78.5332 149.834 77.6 149.834 75.2333C149.834 72.8666 147.167 71.0666 144 71.0666C140.834 71.0666 138.167 73 138.167 75.2333C138.167 76.3384 137.728 77.3987 136.947 78.1801C136.165 78.9615 135.105 79.4 134 79.4C132.895 79.4 131.835 78.9615 131.054 78.1801C130.273 77.3987 129.834 76.3384 129.834 75.2333C130.246 71.766 131.916 68.5707 134.527 66.2522C137.138 63.9337 140.509 62.6536 144 62.6536C147.492 62.6536 150.863 63.9337 153.473 66.2522C156.084 68.5707 157.754 71.766 158.167 75.2333C158.059 77.928 157.157 80.531 155.573 82.7138C153.989 84.8966 151.795 86.5621 149.267 87.5006Z" fill="#5581AE"/>
<g clip-path="url(#clip0_18011_40624)">
<path d="M173.592 138.374L157.24 144.96L167.688 170.76L184.023 164.174L173.592 138.374Z" fill="#B9C1C6"/>
<path d="M168.284 168.706C167.453 169.048 166.792 169.704 166.444 170.531C166.097 171.358 166.091 172.288 166.429 173.119L190.829 233.053C191.845 235.48 193.783 237.406 196.219 238.412C198.655 239.417 201.391 239.419 203.829 238.417L205.769 237.619C206.995 237.131 208.111 236.404 209.052 235.48C209.993 234.556 210.739 233.454 211.248 232.238C212.252 229.803 212.252 227.07 211.248 224.634L186.848 164.768C186.679 164.352 186.43 163.974 186.115 163.654C185.799 163.335 185.423 163.081 185.009 162.908C184.594 162.734 184.149 162.644 183.7 162.643C183.25 162.642 182.805 162.729 182.389 162.901L168.284 168.706Z" fill="#F58B00"/>
<path d="M156.66 143.602L158.362 147.659C158.362 147.659 166.869 151.444 175.854 143.534L173.131 137.033L165.627 140.665L156.66 143.602Z" fill="#5581AE"/>
<path d="M144.257 147.065C129.729 147.1 115.638 142.107 104.388 132.938C93.1372 123.768 85.4237 110.989 82.5625 96.7808C79.7012 82.5721 81.8695 67.8133 88.6974 55.0211C95.5253 42.2289 106.59 32.1954 120.005 26.6316C133.42 21.0678 148.354 20.3182 162.261 24.5106C176.168 28.7031 188.187 37.5779 196.268 49.6219C204.348 61.6658 207.991 76.1329 206.574 90.5563C205.157 104.98 198.768 118.466 188.497 128.716C176.77 140.438 160.858 147.037 144.257 147.065ZM144.257 27.0441C130.92 27.0207 117.988 31.6122 107.666 40.0357C97.3428 48.4593 90.2683 60.1935 87.6479 73.238C85.0275 86.2825 87.0235 99.8299 93.2956 111.571C99.5677 123.311 109.728 132.519 122.044 137.623C134.36 142.728 148.069 143.413 160.835 139.563C173.601 135.713 184.633 127.565 192.051 116.509C199.468 105.453 202.812 92.1722 201.513 78.9316C200.213 65.6911 194.35 53.31 184.924 43.8989C179.59 38.5593 173.252 34.322 166.274 31.4298C159.295 28.5375 151.814 27.0472 144.257 27.0441Z" fill="#8396A8"/>
</g>
<path d="M239.275 43.3255C238.979 42.9715 238.593 42.7038 238.158 42.5506C237.723 42.3973 237.255 42.3642 236.803 42.4546L225.987 44.3253C224.198 44.6339 223.491 46.2781 223.734 47.6802C223.812 48.2576 224.075 48.794 224.484 49.2088C224.894 49.6236 225.427 49.8944 226.003 49.9805C226.283 50.0138 226.566 50.0046 226.843 49.9531L237.658 48.0824C238.134 48.0101 238.582 47.8104 238.954 47.5045C239.326 47.1985 239.608 46.7977 239.771 46.3445C239.952 45.8407 240.002 45.2989 239.915 44.7706C239.828 44.2423 239.608 43.7448 239.275 43.3255Z" fill="#A9B4BE"/>
<path d="M198.166 0.1267C197.853 0.0203086 197.522 -0.0197545 197.193 0.00906862C196.864 0.0378918 196.545 0.134966 196.256 0.294097C195.967 0.453228 195.714 0.670919 195.513 0.93327C195.313 1.19562 195.17 1.49687 195.092 1.81778L192.112 12.0853C192.006 12.4549 191.975 12.8418 192.02 13.2235C192.065 13.6053 192.186 13.9741 192.376 14.3086C192.565 14.6431 192.819 14.9365 193.124 15.1717C193.428 15.4069 193.776 15.5792 194.147 15.6784C194.299 15.7236 194.454 15.7563 194.612 15.7761C195.192 15.8575 195.782 15.7186 196.265 15.3868C196.748 15.055 197.089 14.5543 197.221 13.9834L200.197 3.71976C200.304 3.35049 200.335 2.96368 200.291 2.58197C200.246 2.20026 200.125 1.83133 199.936 1.49675C199.747 1.16217 199.493 0.868668 199.189 0.633421C198.885 0.398174 198.537 0.225906 198.166 0.1267Z" fill="#A9B4BE"/>
<path d="M224.74 14.0303C224.38 14.007 224.02 14.0573 223.68 14.1782C223.34 14.299 223.028 14.4879 222.764 14.7333L210.797 25.6219C210.263 26.1132 209.939 26.792 209.894 27.5162C209.849 28.2404 210.086 28.954 210.554 29.5079C210.991 30.0197 211.605 30.3487 212.273 30.4296C212.658 30.4755 213.049 30.4379 213.418 30.3193C213.788 30.2007 214.127 30.0038 214.413 29.7422L226.381 18.8536C226.918 18.36 227.243 17.6772 227.288 16.9489C227.332 16.2206 227.092 15.5035 226.619 14.9481C226.384 14.6765 226.096 14.4552 225.773 14.2975C225.451 14.1398 225.099 14.0489 224.74 14.0303Z" fill="#A9B4BE"/>
<defs>
<clipPath id="clip0_18011_40624">
<rect width="130.667" height="217.333" fill="white" transform="translate(81.333 21.8334)"/>
</clipPath>
</defs>
</svg>
