<svg width="320" height="240" viewBox="0 0 320 240" fill="none" xmlns="http://www.w3.org/2000/svg">
<path fill-rule="evenodd" clip-rule="evenodd" d="M257.28 59.6597C257.28 38.7686 240.344 21.833 219.453 21.833H37.8267C16.9356 21.833 0 38.7686 0 59.6597V59.673C0 80.5641 16.9356 97.4997 37.8267 97.4997H166.73C166.443 99.1231 166.293 100.794 166.293 102.499C166.293 118.265 179.074 131.046 194.84 131.046H291.453C307.219 131.046 320 118.265 320 102.499C320 86.7336 307.219 73.9528 291.453 73.9528H254.492C256.289 69.5466 257.28 64.7255 257.28 59.673V59.6597ZM5.41341 153.113C5.41341 137.347 18.1942 124.566 33.9601 124.566H130.573C146.268 124.566 159.005 137.232 159.119 152.9H165.747C181.512 152.9 194.293 165.681 194.293 181.446C194.293 197.212 181.512 209.993 165.747 209.993H69.1333C53.4385 209.993 40.702 197.327 40.5874 181.66H33.9601C18.1942 181.66 5.41341 168.879 5.41341 153.113Z" fill="#D6D6D6" fill-opacity="0.45" style="mix-blend-mode:color-burn"/>
<path fill-rule="evenodd" clip-rule="evenodd" d="M257.28 59.6597C257.28 38.7686 240.344 21.833 219.453 21.833H37.8267C16.9356 21.833 0 38.7686 0 59.6597V59.673C0 80.5641 16.9356 97.4997 37.8267 97.4997H166.73C166.443 99.1231 166.293 100.794 166.293 102.499C166.293 118.265 179.074 131.046 194.84 131.046H291.453C307.219 131.046 320 118.265 320 102.499C320 86.7336 307.219 73.9528 291.453 73.9528H254.492C256.289 69.5466 257.28 64.7255 257.28 59.673V59.6597ZM5.41341 153.113C5.41341 137.347 18.1942 124.566 33.9601 124.566H130.573C146.268 124.566 159.005 137.232 159.119 152.9H165.747C181.512 152.9 194.293 165.681 194.293 181.446C194.293 197.212 181.512 209.993 165.747 209.993H69.1333C53.4385 209.993 40.702 197.327 40.5874 181.66H33.9601C18.1942 181.66 5.41341 168.879 5.41341 153.113Z" fill="black" fill-opacity="0.08" style="mix-blend-mode:luminosity"/>
<ellipse opacity="0.5" cx="144" cy="84.5003" rx="61.3333" ry="61.3333" fill="#223548"/>
<path d="M177.334 84.5003C177.334 102.91 162.41 117.834 144 117.834C125.591 117.834 110.667 102.91 110.667 84.5003C110.667 66.0908 125.591 51.167 144 51.167C162.41 51.167 177.334 66.0908 177.334 84.5003Z" fill="#EAECEE"/>
<path d="M144 51.167C137.408 51.167 130.963 53.122 125.481 56.7847C120 60.4474 115.727 65.6539 113.204 71.7448C110.681 77.8357 110.021 84.5374 111.307 91.0034C112.594 97.4694 115.768 103.409 120.43 108.07C125.092 112.732 131.031 115.907 137.497 117.193C143.963 118.479 150.666 117.819 156.756 115.296C162.847 112.773 168.053 108.501 171.716 103.019C175.379 97.5376 177.334 91.093 177.334 84.5003C177.334 75.6598 173.822 67.1814 167.571 60.9302C161.319 54.679 152.841 51.167 144 51.167ZM144 104.5C143.011 104.5 142.045 104.207 141.222 103.658C140.4 103.109 139.759 102.327 139.381 101.414C139.003 100.5 138.904 99.4953 139.096 98.5254C139.289 97.5555 139.766 96.6644 140.465 95.9652C141.164 95.2659 142.055 94.7893 143.025 94.5964C143.995 94.4034 145 94.5027 145.914 94.8812C146.827 95.2596 147.608 95.9006 148.158 96.7228C148.707 97.5451 149 98.5114 149 99.5003C149 100.826 148.474 102.099 147.536 103.036C146.598 103.974 145.326 104.5 144 104.5ZM149.267 87.5008C148.808 87.7182 148.363 87.963 147.934 88.234C147.608 89.1652 146.963 89.9507 146.113 90.4508C145.263 90.951 144.263 91.1332 143.291 90.9652C142.319 90.7972 141.438 90.2894 140.805 89.5329C140.172 88.7764 139.828 87.8199 139.834 86.8335C139.834 83.0335 143.167 81.3668 145.4 80.1668C148.534 78.5335 149.834 77.6002 149.834 75.2336C149.834 72.8669 147.167 71.0669 144 71.0669C140.834 71.0669 138.167 73.0002 138.167 75.2336C138.167 76.3386 137.728 77.3989 136.947 78.1803C136.165 78.9617 135.105 79.4002 134 79.4002C132.895 79.4002 131.835 78.9617 131.054 78.1803C130.273 77.3989 129.834 76.3386 129.834 75.2336C130.246 71.7663 131.916 68.571 134.527 66.2524C137.138 63.9339 140.509 62.6538 144 62.6538C147.492 62.6538 150.863 63.9339 153.473 66.2524C156.084 68.571 157.754 71.7663 158.167 75.2336C158.059 77.9282 157.157 80.5312 155.573 82.714C153.989 84.8968 151.795 86.5624 149.267 87.5008Z" fill="#5581AE"/>
<g clip-path="url(#clip0_1975_134218)">
<path d="M173.591 138.374L157.239 144.96L167.687 170.76L184.022 164.174L173.591 138.374Z" fill="#D5DADD"/>
<path d="M168.283 168.706C167.452 169.048 166.791 169.704 166.443 170.531C166.096 171.358 166.09 172.288 166.428 173.119L190.828 233.053C191.844 235.48 193.782 237.406 196.218 238.411C198.654 239.417 201.39 239.418 203.828 238.416L205.768 237.619C206.994 237.131 208.11 236.403 209.051 235.479C209.992 234.555 210.738 233.453 211.247 232.238C212.251 229.802 212.251 227.07 211.247 224.634L186.847 164.768C186.678 164.352 186.429 163.973 186.114 163.654C185.798 163.335 185.422 163.081 185.008 162.907C184.593 162.734 184.148 162.644 183.699 162.643C183.249 162.641 182.804 162.729 182.389 162.901L168.283 168.706Z" fill="#F58B00"/>
<path d="M156.661 143.602L158.363 147.659C158.363 147.659 166.87 151.444 175.855 143.534L173.132 137.033L165.628 140.666L156.661 143.602Z" fill="#5581AE"/>
<path d="M144.257 147.064C129.729 147.1 115.638 142.107 104.388 132.937C93.1372 123.768 85.4237 110.989 82.5625 96.7804C79.7012 82.5718 81.8695 67.8129 88.6974 55.0207C95.5253 42.2285 106.59 32.195 120.005 26.6312C133.42 21.0674 148.354 20.3178 162.261 24.5103C176.168 28.7027 188.187 37.5776 196.268 49.6215C204.348 61.6654 207.991 76.1326 206.574 90.556C205.157 104.979 198.768 118.466 188.497 128.716C176.77 140.437 160.858 147.037 144.257 147.064ZM144.257 27.0437C130.92 27.0204 117.988 31.6118 107.666 40.0354C97.3428 48.4589 90.2683 60.1931 87.6479 73.2376C85.0275 86.2822 87.0235 99.8295 93.2956 111.57C99.5677 123.311 109.728 132.519 122.044 137.623C134.36 142.727 148.069 143.413 160.835 139.563C173.601 135.712 184.633 127.565 192.051 116.508C199.468 105.452 202.812 92.1718 201.513 78.9313C200.213 65.6907 194.35 53.3096 184.924 43.8985C179.59 38.5589 173.252 34.3216 166.274 31.4294C159.295 28.5371 151.814 27.0468 144.257 27.0437Z" fill="#8396A8"/>
</g>
<path d="M239.275 43.325C238.979 42.971 238.593 42.7033 238.158 42.5501C237.723 42.3968 237.255 42.3637 236.803 42.4541L225.987 44.3248C224.198 44.6334 223.491 46.2776 223.734 47.6797C223.812 48.2571 224.075 48.7935 224.484 49.2083C224.894 49.6231 225.427 49.8939 226.003 49.98C226.283 50.0133 226.566 50.0041 226.843 49.9527L237.658 48.0819C238.134 48.0096 238.582 47.8099 238.954 47.504C239.326 47.198 239.608 46.7972 239.771 46.344C239.952 45.8402 240.002 45.2984 239.915 44.7701C239.828 44.2418 239.608 43.7444 239.275 43.325Z" fill="#A9B4BE"/>
<path d="M198.166 0.1267C197.853 0.0203086 197.522 -0.0197545 197.193 0.00906862C196.864 0.0378918 196.545 0.134966 196.256 0.294097C195.967 0.453228 195.714 0.670919 195.513 0.93327C195.313 1.19562 195.17 1.49687 195.092 1.81778L192.112 12.0853C192.006 12.4549 191.975 12.8418 192.02 13.2235C192.065 13.6053 192.186 13.9741 192.376 14.3086C192.565 14.6431 192.819 14.9365 193.124 15.1717C193.428 15.4069 193.776 15.5792 194.147 15.6784C194.299 15.7236 194.454 15.7563 194.612 15.7761C195.192 15.8575 195.782 15.7186 196.265 15.3868C196.748 15.055 197.089 14.5543 197.221 13.9834L200.197 3.71976C200.304 3.35049 200.335 2.96368 200.291 2.58197C200.246 2.20026 200.125 1.83133 199.936 1.49675C199.747 1.16217 199.493 0.868668 199.189 0.633421C198.885 0.398174 198.537 0.225906 198.166 0.1267Z" fill="#A9B4BE"/>
<path d="M224.741 14.03C224.381 14.0066 224.021 14.0569 223.681 14.1778C223.341 14.2987 223.029 14.4876 222.765 14.733L210.798 25.6215C210.264 26.1129 209.94 26.7916 209.895 27.5158C209.85 28.24 210.087 28.9537 210.555 29.5075C210.992 30.0194 211.606 30.3483 212.274 30.4292C212.659 30.4752 213.05 30.4376 213.419 30.3189C213.789 30.2003 214.128 30.0035 214.414 29.7418L226.382 18.8533C226.919 18.3596 227.244 17.6769 227.289 16.9486C227.333 16.2203 227.093 15.5031 226.62 14.9478C226.385 14.6762 226.097 14.4549 225.774 14.2972C225.452 14.1394 225.1 14.0486 224.741 14.03Z" fill="#A9B4BE"/>
<defs>
<clipPath id="clip0_1975_134218">
<rect width="130.667" height="217.333" fill="white" transform="translate(81.333 21.833)"/>
</clipPath>
</defs>
</svg>
