<svg width="64" height="64" viewBox="0 0 64 64" fill="none" xmlns="http://www.w3.org/2000/svg">
<path d="M22.5633 23.2441H31.9315C32.5782 23.2441 33.1025 22.7151 33.1025 22.0625C33.1025 21.4099 32.5782 20.8808 31.9315 20.8808H22.5633C21.9166 20.8808 21.3923 21.4099 21.3923 22.0625C21.3923 22.7151 21.9166 23.2441 22.5633 23.2441Z" fill="#F58B00"/>
<path d="M6.56394 59.0825C6.29733 59.084 6.03853 58.9918 5.83205 58.8216C2.70445 56.281 1.22117 53.3318 1.5432 50.2841C2.03112 45.5476 6.06136 42.6427 13.4729 41.658C18.884 40.9392 24.3342 41.077 29.6038 41.21C31.4384 41.2543 33.3413 41.3035 35.2052 41.3134C36.6689 41.3134 38.1327 41.3922 39.5379 41.4611C44.3391 41.6876 49.2964 41.9288 53.639 39.7624C55.1253 39.0082 56.4347 37.9418 57.479 36.6349C58.5234 35.3279 59.2787 33.8108 59.6941 32.1851C60.1888 30.4446 60.3141 28.6184 60.0619 26.8258C59.8096 25.0331 59.1856 23.3143 58.2304 21.7816L58.1035 21.5846C56.6397 19.3198 54.5904 18.3449 51.2725 18.3252C50.962 18.3252 50.6641 18.2007 50.4445 17.9791C50.2249 17.7575 50.1015 17.457 50.1015 17.1436C50.1015 16.8302 50.2249 16.5296 50.4445 16.308C50.6641 16.0864 50.962 15.9619 51.2725 15.9619C55.4297 15.9865 58.1425 17.3208 60.0552 20.2897L60.1869 20.4965C61.3219 22.3078 62.0662 24.3399 62.3714 26.4607C62.6766 28.5814 62.5357 30.7433 61.9581 32.8054C61.455 34.7525 60.5458 36.5688 59.2912 38.1328C58.0366 39.6969 56.4656 40.9725 54.6831 41.8746C49.8039 44.3069 44.5294 44.0558 39.4306 43.8096C38.0351 43.7456 36.586 43.6767 35.1954 43.6668C33.3071 43.6668 31.3993 43.6077 29.5501 43.5634C24.3683 43.4305 19.0109 43.2976 13.7852 43.9918C7.49587 44.8288 4.25605 46.9459 3.87547 50.5254C3.63638 52.7656 4.79276 54.9566 7.29094 56.9703C7.47998 57.1238 7.61711 57.3327 7.68339 57.5682C7.74967 57.8037 7.74185 58.0542 7.66097 58.285C7.58008 58.5158 7.43012 58.7155 7.23186 58.8567C7.03359 58.9978 6.79679 59.0732 6.55417 59.0727L6.56394 59.0825Z" fill="#5581AE"/>
<path d="M21.6994 33.8791H11.1602V0H21.6994C21.8531 -3.69971e-08 22.0054 0.0305591 22.1475 0.0899428C22.2895 0.149327 22.4186 0.236371 22.5274 0.346098C22.6361 0.455825 22.7224 0.586094 22.7812 0.72946C22.8401 0.872825 22.8704 1.02649 22.8704 1.18167C22.8704 1.33685 22.8401 1.49048 22.7812 1.63385C22.7224 1.77721 22.6361 1.90748 22.5274 2.01721C22.4186 2.12693 22.2895 2.21398 22.1475 2.27336C22.0054 2.33275 21.8531 2.36331 21.6994 2.36331H13.4827V31.5108H21.6798C21.9904 31.5108 22.2883 31.6353 22.5079 31.8569C22.7275 32.0785 22.8509 32.3791 22.8509 32.6925C22.8509 33.0059 22.7275 33.3064 22.5079 33.528C22.2883 33.7496 21.9904 33.8741 21.6798 33.8741L21.6994 33.8791Z" fill="#B9C1C6"/>
<path d="M22.5633 13.3965L31.9315 13.3965C32.5782 13.3965 33.1025 12.8674 33.1025 12.2148C33.1025 11.5622 32.5782 11.0332 31.9315 11.0332L22.5633 11.0332C21.9166 11.0332 21.3923 11.5622 21.3923 12.2148C21.3923 12.8674 21.9166 13.3965 22.5633 13.3965Z" fill="#F58B00"/>
<path d="M31.6826 29.5456V4.34182C31.6826 3.68921 31.1584 3.16016 30.5116 3.16016C29.8649 3.16016 29.3406 3.68921 29.3406 4.34182V29.5456C29.3406 30.1982 29.8649 30.7272 30.5116 30.7272C31.1584 30.7272 31.6826 30.1982 31.6826 29.5456Z" fill="#64EDD2"/>
<path d="M42.2705 27.9713H31.5361V6.30762H42.2705C45.1174 6.30762 47.8477 7.44883 49.8608 9.4802C51.8739 11.5116 53.0048 14.2667 53.0048 17.1395C53.0048 20.0122 51.8739 22.7674 49.8608 24.7987C47.8477 26.8301 45.1174 27.9713 42.2705 27.9713Z" fill="#64EDD2"/>
<path d="M53.0341 17.0897C53.0386 17.5691 53.0059 18.0481 52.9365 18.5224C52.5927 15.9223 51.3254 13.5364 49.3701 11.8078C47.4148 10.0792 44.9042 9.12532 42.3047 9.12333H31.5703V6.25781H42.3047C45.1507 6.25912 47.8798 7.40088 49.8918 9.43211C51.9039 11.4633 53.0341 14.2177 53.0341 17.0897Z" fill="#00A58A"/>
<path fill-rule="evenodd" clip-rule="evenodd" d="M8.56398 60.145C8.92583 59.6278 9.63841 59.5019 10.1556 59.8638C10.9119 60.393 11.2708 60.6387 11.6308 60.8851L11.6316 60.8857C11.9959 61.1351 12.3616 61.3854 13.127 61.9209C13.6441 62.2828 13.77 62.9954 13.4082 63.5125C13.0463 64.0297 12.3338 64.1556 11.8166 63.7937C11.0603 63.2645 10.7014 63.0188 10.3414 62.7724L10.3405 62.7718C9.97622 62.5224 9.61053 62.2721 8.84518 61.7366C8.32802 61.3747 8.20213 60.6621 8.56398 60.145Z" fill="#5581AE"/>
</svg>
