<svg width="64" height="64" viewBox="0 0 64 64" fill="none" xmlns="http://www.w3.org/2000/svg">
<path d="M22.5624 23.2438H31.9305C32.5773 23.2438 33.1016 22.7148 33.1016 22.0622C33.1016 21.4096 32.5773 20.8805 31.9305 20.8805H22.5624C21.9156 20.8805 21.3914 21.4096 21.3914 22.0622C21.3914 22.7148 21.9156 23.2438 22.5624 23.2438Z" fill="#F58B00"/>
<path d="M6.56394 59.0822C6.29733 59.0837 6.03853 58.9914 5.83205 58.8212C2.70445 56.2806 1.22117 53.3314 1.5432 50.2837C2.03112 45.5473 6.06136 42.6424 13.4729 41.6576C18.884 40.9388 24.3342 41.0767 29.6038 41.2096C31.4384 41.2539 33.3413 41.3031 35.2052 41.313C36.6689 41.313 38.1327 41.3918 39.5379 41.4607C44.3391 41.6872 49.2964 41.9285 53.639 39.7621C55.1253 39.0078 56.4347 37.9414 57.479 36.6345C58.5234 35.3276 59.2787 33.8104 59.6941 32.1847C60.1888 30.4442 60.3141 28.6181 60.0619 26.8254C59.8096 25.0328 59.1856 23.314 58.2304 21.7812L58.1035 21.5843C56.6397 19.3194 54.5904 18.3445 51.2725 18.3249C50.962 18.3249 50.6641 18.2004 50.4445 17.9788C50.2249 17.7572 50.1015 17.4566 50.1015 17.1432C50.1015 16.8298 50.2249 16.5292 50.4445 16.3076C50.6641 16.086 50.962 15.9615 51.2725 15.9615C55.4297 15.9862 58.1425 17.3205 60.0552 20.2894L60.1869 20.4962C61.3219 22.3074 62.0662 24.3396 62.3714 26.4603C62.6766 28.5811 62.5357 30.7429 61.9581 32.8051C61.455 34.7522 60.5458 36.5685 59.2912 38.1325C58.0366 39.6965 56.4656 40.9722 54.6831 41.8743C49.8039 44.3065 44.5294 44.0554 39.4306 43.8092C38.0351 43.7452 36.586 43.6763 35.1954 43.6665C33.3071 43.6665 31.3993 43.6074 29.5501 43.5631C24.3683 43.4301 19.0109 43.2972 13.7852 43.9914C7.49587 44.8284 4.25605 46.9456 3.87547 50.525C3.63638 52.7652 4.79276 54.9562 7.29094 56.97C7.47998 57.1234 7.61711 57.3323 7.68339 57.5678C7.74967 57.8033 7.74185 58.0538 7.66097 58.2846C7.58008 58.5154 7.43012 58.7152 7.23186 58.8563C7.03359 58.9974 6.79679 59.0729 6.55417 59.0723L6.56394 59.0822Z" fill="#00144A"/>
<path d="M21.6994 33.8791H11.1602V0H21.6994C21.8531 -3.69971e-08 22.0054 0.0305591 22.1475 0.0899428C22.2895 0.149327 22.4186 0.236371 22.5274 0.346098C22.6361 0.455825 22.7224 0.586094 22.7812 0.72946C22.8401 0.872825 22.8704 1.02649 22.8704 1.18167C22.8704 1.33685 22.8401 1.49048 22.7812 1.63385C22.7224 1.77721 22.6361 1.90748 22.5274 2.01721C22.4186 2.12693 22.2895 2.21398 22.1475 2.27336C22.0054 2.33275 21.8531 2.36331 21.6994 2.36331H13.4827V31.5108H21.6798C21.9904 31.5108 22.2883 31.6353 22.5079 31.8569C22.7275 32.0785 22.8509 32.3791 22.8509 32.6925C22.8509 33.0059 22.7275 33.3064 22.5079 33.528C22.2883 33.7496 21.9904 33.8741 21.6798 33.8741L21.6994 33.8791Z" fill="#A9B4BE"/>
<path d="M22.5624 13.3965L31.9305 13.3965C32.5773 13.3965 33.1016 12.8674 33.1016 12.2148C33.1016 11.5622 32.5773 11.0332 31.9305 11.0332L22.5624 11.0332C21.9156 11.0332 21.3914 11.5622 21.3914 12.2148C21.3914 12.8674 21.9156 13.3965 22.5624 13.3965Z" fill="#F58B00"/>
<path d="M31.6826 29.5461V4.34231C31.6826 3.6897 31.1584 3.16064 30.5116 3.16064C29.8649 3.16064 29.3406 3.6897 29.3406 4.34231V29.5461C29.3406 30.1987 29.8649 30.7277 30.5116 30.7277C31.1584 30.7277 31.6826 30.1987 31.6826 29.5461Z" fill="#64EDD2"/>
<path d="M42.2705 27.9712H31.5361V6.30756H42.2705C45.1174 6.30756 47.8477 7.44877 49.8608 9.48014C51.8739 11.5115 53.0048 14.2666 53.0048 17.1394C53.0048 20.0122 51.8739 22.7673 49.8608 24.7987C47.8477 26.83 45.1174 27.9712 42.2705 27.9712Z" fill="#64EDD2"/>
<path d="M53.0341 17.0897C53.0386 17.5691 53.0059 18.0481 52.9365 18.5224C52.5927 15.9223 51.3254 13.5364 49.3701 11.8078C47.4148 10.0792 44.9042 9.12532 42.3047 9.12333H31.5703V6.25781H42.3047C45.1507 6.25912 47.8798 7.40088 49.8918 9.43211C51.9039 11.4633 53.0341 14.2177 53.0341 17.0897Z" fill="#00A58A"/>
<path fill-rule="evenodd" clip-rule="evenodd" d="M8.56398 60.1447C8.92583 59.6276 9.63841 59.5017 10.1556 59.8635C10.9119 60.3927 11.2708 60.6384 11.6308 60.8849L11.6316 60.8854C11.9959 61.1348 12.3616 61.3852 13.127 61.9207C13.6441 62.2825 13.77 62.9951 13.4082 63.5123C13.0463 64.0294 12.3338 64.1553 11.8166 63.7935C11.0603 63.2643 10.7014 63.0186 10.3414 62.7721L10.3405 62.7716C9.97622 62.5222 9.61053 62.2718 8.84518 61.7363C8.32802 61.3745 8.20213 60.6619 8.56398 60.1447Z" fill="#00144A"/>
</svg>
