<svg width="320" height="240" viewBox="0 0 320 240" fill="none" xmlns="http://www.w3.org/2000/svg">
<path fill-rule="evenodd" clip-rule="evenodd" d="M257.28 63.8267C257.28 42.9356 240.344 26 219.453 26H37.8267C16.9356 26 0 42.9356 0 63.8267V63.84C0 84.7311 16.9356 101.667 37.8267 101.667H166.73C166.443 103.29 166.293 104.961 166.293 106.666C166.293 122.432 179.074 135.213 194.84 135.213H291.453C307.219 135.213 320 122.432 320 106.666C320 90.9006 307.219 78.1198 291.453 78.1198H254.492C256.289 73.7136 257.28 68.8925 257.28 63.84V63.8267ZM5.41341 157.28C5.41341 141.514 18.1942 128.733 33.9601 128.733H130.573C146.268 128.733 159.005 141.399 159.119 157.067H165.747C181.512 157.067 194.293 169.848 194.293 185.613C194.293 201.379 181.512 214.16 165.747 214.16H69.1333C53.4385 214.16 40.7021 201.494 40.5874 185.827H33.9601C18.1942 185.827 5.41341 173.046 5.41341 157.28Z" fill="#D6D6D6" fill-opacity="0.45" style="mix-blend-mode:color-burn"/>
<path fill-rule="evenodd" clip-rule="evenodd" d="M257.28 63.8267C257.28 42.9356 240.344 26 219.453 26H37.8267C16.9356 26 0 42.9356 0 63.8267V63.84C0 84.7311 16.9356 101.667 37.8267 101.667H166.73C166.443 103.29 166.293 104.961 166.293 106.666C166.293 122.432 179.074 135.213 194.84 135.213H291.453C307.219 135.213 320 122.432 320 106.666C320 90.9006 307.219 78.1198 291.453 78.1198H254.492C256.289 73.7136 257.28 68.8925 257.28 63.84V63.8267ZM5.41341 157.28C5.41341 141.514 18.1942 128.733 33.9601 128.733H130.573C146.268 128.733 159.005 141.399 159.119 157.067H165.747C181.512 157.067 194.293 169.848 194.293 185.613C194.293 201.379 181.512 214.16 165.747 214.16H69.1333C53.4385 214.16 40.7021 201.494 40.5874 185.827H33.9601C18.1942 185.827 5.41341 173.046 5.41341 157.28Z" fill="black" fill-opacity="0.08" style="mix-blend-mode:luminosity"/>
<path d="M155.084 36.667C151.97 36.667 148.983 37.9042 146.781 40.1065C144.579 42.3088 143.342 45.2957 143.342 48.4102V64.6941H166.827V48.4233C166.828 46.88 166.526 45.3516 165.937 43.9253C165.347 42.499 164.483 41.203 163.392 40.1111C162.301 39.0193 161.006 38.1531 159.581 37.5621C158.155 36.9712 156.627 36.667 155.084 36.667Z" fill="#CC7400"/>
<path d="M216.353 114.302V167.355H92.9795V114.302C92.9795 97.9408 99.4786 82.2495 111.047 70.6802C122.616 59.1109 138.306 52.6113 154.666 52.6113C171.027 52.6113 186.717 59.1109 198.285 70.6802C209.854 82.2495 216.353 97.9408 216.353 114.302Z" fill="#F58B00"/>
<path d="M155.084 203.681C163.428 203.681 170.193 196.916 170.193 188.571C170.193 180.227 163.428 173.462 155.084 173.462C146.74 173.462 139.976 180.227 139.976 188.571C139.976 196.916 146.74 203.681 155.084 203.681Z" fill="#F58B00"/>
<path d="M230.196 173.462C226.491 172.692 216.353 167.355 216.353 167.355H92.9798C92.9798 167.355 82.8421 172.692 79.1367 173.462C75.4314 174.232 72 176.659 72 180.599C72 182.492 72.7519 184.307 74.0903 185.646C75.4287 186.984 77.2439 187.736 79.1367 187.736H230.196C232.089 187.736 233.904 186.984 235.243 185.646C236.581 184.307 237.333 182.492 237.333 180.599C237.372 176.659 234.045 174.284 230.196 173.462Z" fill="#CC7400"/>
<path opacity="0.5" d="M148.614 52.5332C133.357 54.0552 119.207 61.2195 108.908 72.6363C98.6092 84.0532 92.896 98.9085 92.877 114.32V167.773H208.117V114.623C208.114 98.5462 201.914 83.0959 190.819 71.5179C179.723 59.9399 164.595 53.1352 148.614 52.5332Z" fill="#CC7400"/>
<rect x="60" y="44.667" width="66.6667" height="40" rx="6" fill="#5B738B"/>
<path d="M101.434 82.3219C100.873 81.6744 101.333 80.667 102.19 80.667H116.333C116.886 80.667 117.333 81.1147 117.333 81.667V97.9863C117.333 98.912 116.184 99.3407 115.578 98.6412L101.434 82.3219Z" fill="#5B738B"/>
<circle cx="80" cy="64.667" r="4" fill="#A9B4BE"/>
<ellipse cx="106.667" cy="64.667" rx="4" ry="4" fill="#A9B4BE"/>
<ellipse cx="93.333" cy="64.667" rx="4" ry="4" fill="#A9B4BE"/>
</svg>
