<svg width="64" height="64" viewBox="0 0 64 64" fill="none" xmlns="http://www.w3.org/2000/svg">
<path fill-rule="evenodd" clip-rule="evenodd" d="M55.261 6.29821L59.2132 39.7336C59.3251 40.7367 59.0702 41.7464 58.4955 42.5762L47.9327 58.0733C47.5959 58.5663 47.1574 58.9815 46.6468 59.291C46.1361 59.6005 45.5651 59.7971 44.9722 59.8676L10.2524 63.9709C10.0956 63.9888 9.93801 63.9983 9.78022 63.9992C8.75973 63.997 7.77537 63.6211 7.01322 62.9425C6.25107 62.2639 5.76393 61.3296 5.64388 60.3162L0.0296219 12.8285C-0.0355968 12.2846 0.00712299 11.7332 0.155363 11.2058C0.303603 10.6784 0.554441 10.1854 0.893497 9.75515C1.23255 9.32486 1.65317 8.96569 2.13125 8.69821C2.60934 8.43074 3.13551 8.26021 3.6796 8.1964L50.6289 2.64823C51.1727 2.58365 51.724 2.62684 52.2511 2.77533C52.7782 2.92382 53.2709 3.17472 53.7011 3.51366C54.1312 3.85261 54.4904 4.27298 54.7581 4.75076C55.0257 5.22854 55.1966 5.75436 55.261 6.29821ZM0.941689 12.3675C0.938669 12.0622 0.979091 11.7573 1.06224 11.4623C1.1774 11.0536 1.37224 10.6717 1.63555 10.3386C1.89886 10.0056 2.22543 9.72781 2.59649 9.52143C2.96755 9.31504 3.37578 9.18406 3.79765 9.13605L50.747 3.58315C50.8755 3.56823 51.0048 3.56035 51.1342 3.55955C51.9208 3.56063 52.68 3.84924 53.2688 4.37103C53.8575 4.89281 54.2353 5.61179 54.3309 6.39265L58.283 39.828C58.3245 40.1943 58.3018 40.5644 58.2163 40.9218C58.298 40.5705 58.3192 40.2072 58.2784 39.8476L54.3263 6.41221C54.2307 5.63134 53.8529 4.91234 53.2642 4.39055C52.6754 3.86877 51.9162 3.58018 51.1296 3.5791C51.0002 3.57991 50.8709 3.58779 50.7424 3.60271L3.79778 9.1556C3.37591 9.20362 2.96768 9.33459 2.59663 9.54098C2.22557 9.74737 1.899 10.0251 1.63568 10.3582C1.37237 10.6913 1.17753 11.0731 1.06237 11.4818C0.980998 11.7706 0.940546 12.0687 0.941689 12.3675ZM46.1962 43.2401C46.1812 43.3008 46.1728 43.3634 46.1716 43.4267L45.9072 57.5923C45.9055 57.7502 45.9491 57.9052 46.0328 58.0391C46.1138 58.1688 46.2291 58.2733 46.3658 58.3412C46.3719 58.3369 46.3779 58.3326 46.384 58.3282C46.2413 58.2606 46.121 58.1535 46.0373 58.0196C45.9537 57.8857 45.9101 57.7306 45.9118 57.5728L46.1762 43.4072C46.1773 43.3506 46.1841 43.2947 46.1962 43.2401ZM29.2448 9.69194C28.7027 9.2871 28.054 9.04978 27.3787 9.00922C26.4326 8.98126 25.5142 9.33014 24.8253 9.97919C24.1364 10.6282 23.7334 11.5243 23.7051 12.4703C23.7054 13.1469 23.9037 13.8086 24.2756 14.3738C24.6474 14.939 25.1766 15.383 25.7978 15.651C26.419 15.9191 27.105 15.9995 27.7714 15.8822C28.4377 15.765 29.0551 15.4553 29.5476 14.9914C30.04 14.5274 30.3859 13.9295 30.5426 13.2713C30.6992 12.6132 30.6598 11.9235 30.4292 11.2875C30.1986 10.6514 29.7869 10.0968 29.2448 9.69194Z" fill="#8396A8"/>
<path d="M47.6686 56.3128C48.2065 56.2463 48.7194 56.0467 49.1607 55.732C49.0184 55.6639 48.8984 55.5566 48.8148 55.4229C48.7312 55.2891 48.6874 55.1343 48.6885 54.9765L48.9529 40.811C48.9566 40.6099 49.0318 40.4167 49.1651 40.2661C49.2984 40.1155 49.481 40.0174 49.6801 39.9894L60.4601 38.4784C60.6205 38.4527 60.785 38.4757 60.9323 38.5445C61.0649 38.1204 61.1068 37.6731 61.055 37.2318L57.1029 3.7964C57.0073 3.01553 56.6295 2.29656 56.0408 1.77477C55.452 1.25298 54.6928 0.96437 53.9062 0.963289C53.7772 0.956247 53.6479 0.956247 53.519 0.963289L6.57437 6.51146C6.15254 6.56065 5.74454 6.69257 5.37376 6.89963C5.00297 7.1067 4.67666 7.38485 4.41351 7.71818C4.15036 8.0515 3.95552 8.43346 3.84017 8.84218C3.72481 9.2509 3.69121 9.67835 3.74126 10.1001L9.36024 57.5924C9.40946 58.0138 9.54122 58.4213 9.74798 58.7918C9.95474 59.1622 10.2325 59.4883 10.5653 59.7514C10.8981 60.0145 11.2795 60.2095 11.6876 60.3251C12.0958 60.4408 12.5228 60.4749 12.9441 60.4255L47.6686 56.3128ZM30.16 6.39341C30.8353 6.43397 31.484 6.67131 32.0261 7.07616C32.5682 7.481 32.9799 8.03563 33.2105 8.67168C33.4411 9.30773 33.4805 9.99738 33.3239 10.6556C33.1672 11.3137 32.8213 11.9117 32.3289 12.3756C31.8365 12.8396 31.219 13.1492 30.5527 13.2665C29.8863 13.3837 29.2003 13.3033 28.5791 13.0352C27.9579 12.7672 27.4287 12.3232 27.0568 11.758C26.685 11.1928 26.4867 10.5311 26.4864 9.85453C26.516 8.9089 26.9193 8.01359 27.6079 7.36482C28.2965 6.71604 29.2143 6.3667 30.16 6.39341Z" fill="#2F3235"/>
<path d="M61.9945 37.1186L58.0423 3.68322C57.9122 2.58454 57.3512 1.58247 56.4827 0.897179C55.6141 0.211887 54.509 -0.100557 53.4102 0.0285196L6.46087 5.60502C5.91678 5.66883 5.39061 5.83936 4.91253 6.10683C4.43444 6.37431 4.01383 6.73348 3.67477 7.16377C3.33571 7.59406 3.08488 8.08701 2.93664 8.61439C2.7884 9.14178 2.74565 9.69322 2.81087 10.2372L8.42515 57.7248C8.5453 58.739 9.03311 59.6739 9.79626 60.3527C10.5594 61.0314 11.5449 61.4068 12.5662 61.4078C12.724 61.4069 12.8816 61.3975 13.0384 61.3795L47.7581 57.2762C48.3511 57.2057 48.9221 57.0091 49.4328 56.6996C49.9434 56.3902 50.3819 55.9749 50.7188 55.4819L61.2815 39.9848C61.8601 39.148 62.1137 38.1289 61.9945 37.1186ZM9.36007 57.5925L3.74581 10.105C3.69577 9.68323 3.72936 9.25577 3.84472 8.84705C3.96008 8.43834 4.15491 8.05638 4.41806 7.72305C4.68122 7.38972 5.00753 7.11157 5.37831 6.90451C5.7491 6.69744 6.15709 6.56553 6.57892 6.51633L53.5235 0.968163C53.6525 0.961121 53.7818 0.961121 53.9107 0.968163C54.6974 0.969243 55.4566 1.25783 56.0453 1.77961C56.6341 2.3014 57.0118 3.02041 57.1074 3.80127L61.0549 37.2414C61.1066 37.6827 61.0648 38.13 60.9321 38.5541C60.7849 38.4853 60.6204 38.4623 60.4599 38.488L49.6799 39.999C49.4808 40.027 49.2982 40.1251 49.1649 40.2757C49.0316 40.4263 48.9564 40.6195 48.9528 40.8206L48.6884 54.9861C48.6872 55.1439 48.731 55.2987 48.8147 55.4325C48.8983 55.5662 49.0182 55.6735 49.1605 55.7416C48.7192 56.0563 48.2064 56.2559 47.6684 56.3224L12.944 60.4257C12.5226 60.475 12.0956 60.4409 11.6875 60.3253C11.2793 60.2096 10.8979 60.0146 10.5651 59.7516C10.2323 59.4885 9.95457 59.1624 9.74781 58.7919C9.54105 58.4215 9.40928 58.0139 9.36007 57.5925ZM60.356 39.4465L49.6327 54.6603L49.8924 40.915L60.356 39.4465Z" fill="#8396A8"/>
<path d="M49.6465 54.6599L60.3651 39.4414L49.9062 40.9146L49.6465 54.6599Z" fill="#B9C1C6"/>
<path d="M30.1599 13.3109C32.1888 13.3109 33.8335 11.7613 33.8335 9.84979C33.8335 7.93827 32.1888 6.38867 30.1599 6.38867C28.1311 6.38867 26.4863 7.93827 26.4863 9.84979C26.4863 11.7613 28.1311 13.3109 30.1599 13.3109Z" fill="#2F3235"/>
<path d="M46.5382 20.9788L18.2152 23.9406C17.0662 24.0608 16.2322 25.0896 16.3523 26.2386L16.4692 27.3563C16.5894 28.5053 17.6182 29.3394 18.7672 29.2192L47.0902 26.2573C48.2392 26.1372 49.0733 25.1083 48.9531 23.9593L48.8362 22.8416C48.7161 21.6926 47.6872 20.8586 46.5382 20.9788Z" fill="#354A5F"/>
<path d="M37.0564 31.4139L19.051 33.2968C18.1173 33.3945 17.4395 34.2306 17.5372 35.1643L17.7356 37.0616C17.8332 37.9953 18.6693 38.673 19.603 38.5754L37.6084 36.6925C38.5421 36.5948 39.2199 35.7588 39.1222 34.8251L38.9238 32.9278C38.8262 31.9941 37.9901 31.3163 37.0564 31.4139Z" fill="#354A5F"/>
<path d="M43.9523 23.5487C43.7763 23.3674 43.5656 23.2232 43.3328 23.1248C43.1 23.0263 42.8499 22.9756 42.5971 22.9756C42.3444 22.9756 42.0942 23.0263 41.8615 23.1248C41.6287 23.2232 41.418 23.3674 41.242 23.5487L28.0208 36.7699L23.5351 32.2841C23.3568 32.1061 23.1452 31.965 22.9124 31.8688C22.6796 31.7727 22.4301 31.7233 22.1782 31.7235C21.9263 31.7237 21.6769 31.7735 21.4443 31.8701C21.2116 31.9667 21.0003 32.1082 20.8224 32.2865C20.6444 32.4647 20.5033 32.6763 20.4071 32.9091C20.3109 33.1419 20.2615 33.3914 20.2617 33.6433C20.2619 33.8952 20.3118 34.1446 20.4084 34.3772C20.505 34.6099 20.6464 34.8212 20.8247 34.9992L26.6656 40.8495C26.8417 41.0309 27.0523 41.175 27.2851 41.2735C27.5179 41.3719 27.7681 41.4227 28.0208 41.4227C28.2735 41.4227 28.5237 41.3719 28.7565 41.2735C28.9893 41.175 29.1999 41.0309 29.376 40.8495L43.9712 26.2543C44.1526 26.0783 44.2967 25.8676 44.3952 25.6348C44.4936 25.402 44.5443 25.1519 44.5443 24.8991C44.5443 24.6464 44.4936 24.3962 44.3952 24.1635C44.2967 23.9307 44.1526 23.72 43.9712 23.544L43.9523 23.5487Z" fill="#D5DADD"/>
</svg>
