<svg width="64" height="64" viewBox="0 0 64 64" fill="none" xmlns="http://www.w3.org/2000/svg">
<path fill-rule="evenodd" clip-rule="evenodd" d="M55.261 6.29949L59.2132 39.7349C59.3251 40.738 59.0702 41.7477 58.4955 42.5774L47.9327 58.0746C47.5959 58.5676 47.1574 58.9828 46.6468 59.2923C46.1361 59.6018 45.5651 59.7984 44.9722 59.8689L10.2524 63.9721C10.0956 63.9901 9.93801 63.9996 9.78022 64.0005C8.75973 63.9983 7.77537 63.6224 7.01322 62.9438C6.25107 62.2652 5.76393 61.3308 5.64388 60.3174L0.0296219 12.8298C-0.0355968 12.2859 0.00712299 11.7344 0.155363 11.2071C0.303603 10.6797 0.554441 10.1867 0.893497 9.75644C1.23255 9.32615 1.65317 8.96697 2.13125 8.6995C2.60934 8.43202 3.13551 8.26149 3.6796 8.19768L50.6289 2.64951C51.1727 2.58493 51.724 2.62812 52.2511 2.77661C52.7782 2.9251 53.2709 3.176 53.7011 3.51495C54.1312 3.85389 54.4904 4.27426 54.7581 4.75204C55.0257 5.22982 55.1966 5.75565 55.261 6.29949ZM0.942302 12.4074C0.935342 12.0892 0.975591 11.771 1.06224 11.4636C1.1774 11.0549 1.37224 10.673 1.63555 10.3399C1.89886 10.0068 2.22543 9.72909 2.59649 9.52271C2.96755 9.31632 3.37578 9.18535 3.79765 9.13733L50.747 3.58443C50.8755 3.56951 51.0048 3.56164 51.1342 3.56083C51.9208 3.56191 52.68 3.85052 53.2688 4.37231C53.8575 4.8941 54.2353 5.61307 54.3309 6.39394L58.283 39.8293C58.3236 40.1876 58.3027 40.5495 58.2218 40.8995C58.2991 40.5555 58.3185 40.2002 58.2787 39.8486L54.3265 6.41317C54.2309 5.63231 53.8532 4.9133 53.2644 4.39151C52.6757 3.86973 51.9165 3.58114 51.1298 3.58006C51.0004 3.58087 50.8711 3.58875 50.7426 3.60367L3.79801 9.15656C3.37614 9.20458 2.96791 9.33555 2.59685 9.54194C2.2258 9.74833 1.89922 10.026 1.63591 10.3591C1.3726 10.6922 1.17776 11.0741 1.0626 11.4828C0.977697 11.7841 0.937342 12.0956 0.942302 12.4074ZM46.1949 43.2475C46.1808 43.3061 46.173 43.3665 46.1718 43.4277L45.9074 57.5932C45.9057 57.7511 45.9493 57.9062 46.033 58.0401C46.114 58.1698 46.2294 58.2743 46.3662 58.3422C46.3721 58.338 46.3781 58.3338 46.384 58.3295C46.2413 58.2619 46.121 58.1548 46.0373 58.0209C45.9537 57.887 45.9101 57.7319 45.9118 57.574L46.1762 43.4085C46.1772 43.354 46.1836 43.3001 46.1949 43.2475ZM29.245 9.6929C28.703 9.28806 28.0543 9.05074 27.3789 9.01019C26.4328 8.98222 25.5144 9.33111 24.8255 9.98015C24.1366 10.6292 23.7337 11.5252 23.7053 12.4713C23.7056 13.1478 23.9039 13.8095 24.2758 14.3747C24.6477 14.9399 25.1768 15.3839 25.798 15.652C26.4192 15.92 27.1053 16.0004 27.7716 15.8832C28.4379 15.766 29.0554 15.4563 29.5478 14.9924C30.0402 14.5284 30.3861 13.9305 30.5428 13.2723C30.6994 12.6141 30.66 11.9245 30.4294 11.2885C30.1988 10.6524 29.7871 10.0977 29.245 9.6929Z" fill="#D5DADD"/>
<path d="M47.6686 56.3132C48.2065 56.2467 48.7194 56.0471 49.1607 55.7324C49.0184 55.6643 48.8984 55.5571 48.8148 55.4233C48.7312 55.2895 48.6874 55.1347 48.6885 54.9769L48.9529 40.8114C48.9566 40.6103 49.0318 40.4171 49.1651 40.2665C49.2984 40.116 49.481 40.0178 49.6801 39.9898L60.4601 38.4788C60.6205 38.4531 60.785 38.4761 60.9323 38.5449C61.0649 38.1208 61.1068 37.6735 61.055 37.2322L57.1029 3.79682C57.0073 3.01596 56.6295 2.29699 56.0408 1.7752C55.452 1.25341 54.6928 0.964797 53.9062 0.963717C53.7772 0.956675 53.6479 0.956675 53.519 0.963717L6.57437 6.51189C6.15254 6.56108 5.74454 6.693 5.37376 6.90006C5.00297 7.10712 4.67666 7.38528 4.41351 7.7186C4.15036 8.05193 3.95552 8.43389 3.84017 8.84261C3.72481 9.25132 3.69121 9.67878 3.74126 10.1005L9.36024 57.5928C9.40946 58.0142 9.54122 58.4218 9.74798 58.7922C9.95474 59.1627 10.2325 59.4887 10.5653 59.7518C10.8981 60.0149 11.2795 60.2099 11.6876 60.3255C12.0958 60.4412 12.5228 60.4753 12.9441 60.4259L47.6686 56.3132ZM30.16 6.39384C30.8353 6.4344 31.484 6.67174 32.0261 7.07658C32.5682 7.48142 32.9799 8.03606 33.2105 8.67211C33.4411 9.30816 33.4805 9.9978 33.3239 10.656C33.1672 11.3142 32.8213 11.9121 32.3289 12.376C31.8365 12.84 31.219 13.1497 30.5527 13.2669C29.8863 13.3841 29.2003 13.3037 28.5791 13.0357C27.9579 12.7676 27.4287 12.3236 27.0568 11.7584C26.685 11.1932 26.4867 10.5315 26.4864 9.85496C26.516 8.90933 26.9193 8.01402 27.6079 7.36524C28.2965 6.71646 29.2143 6.36713 30.16 6.39384Z" fill="white"/>
<path d="M61.9945 37.119L58.0423 3.68365C57.9122 2.58497 57.3512 1.5829 56.4827 0.897606C55.6141 0.212315 54.509 -0.10013 53.4102 0.0289468L6.46087 5.60545C5.91678 5.66925 5.39061 5.83978 4.91253 6.10726C4.43444 6.37473 4.01383 6.73391 3.67477 7.1642C3.33571 7.59449 3.08488 8.08743 2.93664 8.61482C2.7884 9.1422 2.74565 9.69365 2.81087 10.2376L8.42515 57.7252C8.5453 58.7394 9.03311 59.6744 9.79626 60.3531C10.5594 61.0318 11.5449 61.4072 12.5662 61.4082C12.724 61.4074 12.8816 61.3979 13.0384 61.3799L47.7581 57.2766C48.3511 57.2061 48.9221 57.0096 49.4328 56.7001C49.9434 56.3906 50.3819 55.9754 50.7188 55.4823L61.2815 39.9852C61.8601 39.1485 62.1137 38.1294 61.9945 37.119ZM9.36007 57.593L3.74581 10.1054C3.69577 9.68366 3.72936 9.2562 3.84472 8.84748C3.96008 8.43876 4.15491 8.0568 4.41806 7.72348C4.68122 7.39015 5.00753 7.112 5.37831 6.90493C5.7491 6.69787 6.15709 6.56595 6.57892 6.51676L53.5235 0.96859C53.6525 0.961548 53.7818 0.961548 53.9107 0.96859C54.6974 0.96967 55.4566 1.25825 56.0453 1.78004C56.6341 2.30183 57.0118 3.02083 57.1074 3.8017L61.0549 37.2418C61.1066 37.6831 61.0648 38.1304 60.9321 38.5545C60.7849 38.4857 60.6204 38.4627 60.4599 38.4884L49.6799 39.9994C49.4808 40.0274 49.2982 40.1256 49.1649 40.2761C49.0316 40.4267 48.9564 40.6199 48.9528 40.821L48.6884 54.9865C48.6872 55.1443 48.731 55.2991 48.8147 55.4329C48.8983 55.5667 49.0182 55.6739 49.1605 55.742C48.7192 56.0567 48.2064 56.2563 47.6684 56.3228L12.944 60.4261C12.5226 60.4755 12.0956 60.4414 11.6875 60.3257C11.2793 60.21 10.8979 60.0151 10.5651 59.752C10.2323 59.4889 9.95457 59.1628 9.74781 58.7924C9.54105 58.4219 9.40928 58.0144 9.36007 57.593ZM60.356 39.4469L49.6327 54.6607L49.8924 40.9154L60.356 39.4469Z" fill="#00144A"/>
<path d="M49.6465 54.6607L60.3651 39.4422L49.9062 40.9154L49.6465 54.6607Z" fill="white"/>
<path d="M30.1599 13.3115C32.1888 13.3115 33.8335 11.7619 33.8335 9.8504C33.8335 7.93888 32.1888 6.38928 30.1599 6.38928C28.1311 6.38928 26.4863 7.93888 26.4863 9.8504C26.4863 11.7619 28.1311 13.3115 30.1599 13.3115Z" fill="#F58B00"/>
<path d="M46.5382 20.9789L18.2152 23.9408C17.0662 24.0609 16.2322 25.0898 16.3523 26.2388L16.4692 27.3565C16.5894 28.5055 17.6182 29.3395 18.7672 29.2193L47.0902 26.2575C48.2392 26.1373 49.0733 25.1085 48.9531 23.9595L48.8362 22.8418C48.7161 21.6928 47.6872 20.8587 46.5382 20.9789Z" fill="#D5DADD"/>
<path d="M37.0564 31.4148L19.051 33.2977C18.1173 33.3953 17.4395 34.2314 17.5372 35.1651L17.7356 37.0624C17.8332 37.9961 18.6693 38.6739 19.603 38.5763L37.6084 36.6933C38.5421 36.5957 39.2199 35.7596 39.1222 34.8259L38.9238 32.9286C38.8262 31.9949 37.9901 31.3171 37.0564 31.4148Z" fill="#D5DADD"/>
<path d="M43.9523 23.5489C43.7763 23.3675 43.5656 23.2234 43.3328 23.1249C43.1 23.0265 42.8499 22.9757 42.5971 22.9757C42.3444 22.9757 42.0942 23.0265 41.8615 23.1249C41.6287 23.2234 41.418 23.3675 41.242 23.5489L28.0208 36.77L23.5351 32.2843C23.3568 32.1063 23.1452 31.9652 22.9124 31.869C22.6796 31.7728 22.4301 31.7234 22.1782 31.7236C21.9263 31.7239 21.6769 31.7737 21.4443 31.8703C21.2116 31.9669 21.0003 32.1084 20.8224 32.2866C20.6444 32.4649 20.5033 32.6765 20.4071 32.9093C20.3109 33.1421 20.2615 33.3916 20.2617 33.6435C20.2619 33.8954 20.3118 34.1448 20.4084 34.3774C20.505 34.61 20.6464 34.8214 20.8247 34.9993L26.6656 40.8497C26.8417 41.031 27.0523 41.1752 27.2851 41.2736C27.5179 41.3721 27.7681 41.4228 28.0208 41.4228C28.2735 41.4228 28.5237 41.3721 28.7565 41.2736C28.9893 41.1752 29.1999 41.031 29.376 40.8497L43.9712 26.2545C44.1526 26.0784 44.2967 25.8678 44.3952 25.635C44.4936 25.4022 44.5443 25.152 44.5443 24.8993C44.5443 24.6466 44.4936 24.3964 44.3952 24.1636C44.2967 23.9308 44.1526 23.7202 43.9712 23.5441L43.9523 23.5489Z" fill="#F58B00"/>
<path d="M32.8281 8.56231C32.953 8.37917 32.6246 7.93772 32.0946 7.57629C31.5645 7.21487 31.0336 7.07036 30.9087 7.25349C30.7838 7.43663 31.1123 7.87808 31.6423 8.2395C32.1723 8.60092 32.7032 8.74545 32.8281 8.56231Z" fill="white"/>
</svg>
