<svg width="92" height="92" viewBox="0 0 92 92" fill="none" xmlns="http://www.w3.org/2000/svg">
<circle cx="44.2031" cy="26.2344" r="25.5156" fill="white"/>
<path d="M58.9375 26.5938C58.9375 34.5328 52.5016 40.9688 44.5625 40.9688C36.6234 40.9688 30.1875 34.5328 30.1875 26.5938C30.1875 18.6547 36.6234 12.2188 44.5625 12.2188C52.5016 12.2188 58.9375 18.6547 58.9375 26.5938Z" fill="white"/>
<path d="M44.5625 12.2188C41.7194 12.2188 38.9401 13.0618 36.5762 14.6414C34.2122 16.2209 32.3698 18.4662 31.2817 21.0929C30.1937 23.7196 29.9091 26.6097 30.4637 29.3982C31.0184 32.1867 32.3875 34.748 34.3978 36.7584C36.4082 38.7688 38.9696 40.1379 41.7581 40.6925C44.5466 41.2472 47.4369 40.9625 50.0636 39.8745C52.6903 38.7865 54.9353 36.944 56.5149 34.58C58.0944 32.2161 58.9375 29.4369 58.9375 26.5937C58.9375 22.7813 57.423 19.125 54.7272 16.4291C52.0313 13.7333 48.375 12.2188 44.5625 12.2188ZM44.5625 35.2187C44.136 35.2187 43.7192 35.0924 43.3646 34.8555C43.01 34.6186 42.7336 34.2816 42.5704 33.8876C42.4072 33.4936 42.3645 33.0603 42.4477 32.6421C42.5309 32.2238 42.7363 31.8395 43.0378 31.538C43.3394 31.2364 43.7236 31.0309 44.1418 30.9477C44.5601 30.8645 44.9937 30.9073 45.3877 31.0705C45.7817 31.2337 46.1184 31.5101 46.3554 31.8647C46.5923 32.2193 46.7187 32.636 46.7187 33.0625C46.7187 33.6344 46.4916 34.183 46.0872 34.5874C45.6828 34.9918 45.1344 35.2187 44.5625 35.2187ZM46.8338 27.8877C46.6359 27.9814 46.4439 28.087 46.2588 28.2039C46.1184 28.6055 45.8402 28.9442 45.4735 29.1599C45.1069 29.3756 44.6756 29.4542 44.2565 29.3817C43.8373 29.3093 43.4574 29.0903 43.1844 28.764C42.9114 28.4378 42.763 28.0253 42.7656 27.5999C42.7656 25.9612 44.2031 25.2424 45.1663 24.7249C46.5175 24.0206 47.0781 23.6181 47.0781 22.5975C47.0781 21.5768 45.9281 20.8006 44.5625 20.8006C43.1969 20.8006 42.0469 21.6343 42.0469 22.5975C42.0469 23.074 41.8575 23.5313 41.5206 23.8683C41.1836 24.2052 40.7266 24.3943 40.25 24.3943C39.7734 24.3943 39.3164 24.2052 38.9794 23.8683C38.6424 23.5313 38.4531 23.074 38.4531 22.5975C38.6311 21.1022 39.3513 19.7242 40.4772 18.7243C41.6032 17.7245 43.0567 17.1724 44.5625 17.1724C46.0683 17.1724 47.5219 17.7245 48.6478 18.7243C49.7737 19.7242 50.4939 21.1022 50.6719 22.5975C50.6254 23.7595 50.2362 24.8821 49.5532 25.8234C48.8703 26.7647 47.9241 27.483 46.8338 27.8877Z" fill="#004DA5"/>
<g clip-path="url(#clip0_14807_161057)">
<path d="M57.0235 49.3331L50.1016 52.121L54.5241 63.0424L61.4389 60.2546L57.0235 49.3331Z" fill="#D5DADD"/>
<path d="M54.7754 62.1731C54.4238 62.318 54.1439 62.5957 53.9968 62.9457C53.8497 63.2957 53.8474 63.6895 53.9903 64.0412L64.3192 89.412C64.7492 90.4393 65.5696 91.2549 66.6009 91.6804C67.6321 92.1059 68.7903 92.1066 69.8222 91.6825L70.6433 91.3448C71.1624 91.1382 71.6349 90.8303 72.0332 90.4392C72.4314 90.0481 72.7474 89.5816 72.9626 89.0671C73.3877 88.036 73.3877 86.8792 72.9626 85.8482L62.6337 60.5061C62.5626 60.3301 62.4571 60.1698 62.3235 60.0346C62.1899 59.8994 62.0308 59.792 61.8553 59.7185C61.6799 59.645 61.4915 59.6069 61.3012 59.6064C61.1109 59.606 60.9224 59.6431 60.7466 59.7158L54.7754 62.1731Z" fill="#F58B00"/>
<path d="M49.8564 51.5462L50.5767 53.2634C50.5767 53.2634 54.1782 54.8657 57.9813 51.5174L56.8288 48.7655L53.6524 50.3031L49.8564 51.5462Z" fill="#00144A"/>
<path d="M44.6053 53.012C38.4553 53.027 32.4905 50.9135 27.7281 47.0319C22.9656 43.1503 19.7004 37.7409 18.4892 31.7262C17.278 25.7115 18.1958 19.4639 21.0862 14.0488C23.9765 8.63367 28.6604 4.38637 34.3391 2.03114C40.0178 -0.324092 46.3397 -0.641403 52.2268 1.13331C58.1138 2.90803 63.2014 6.66487 66.622 11.7632C70.0427 16.8616 71.5846 22.9857 70.9847 29.0913C70.3849 35.1969 67.6805 40.9059 63.3327 45.2448C58.3684 50.2067 51.6328 53.0003 44.6053 53.012ZM44.6053 2.20577C38.9597 2.19588 33.4854 4.13949 29.1157 7.70529C24.7459 11.2711 21.7512 16.2383 20.6419 21.7602C19.5327 27.2822 20.3776 33.0169 23.0327 37.987C25.6877 42.957 29.9886 46.8546 35.2021 49.0154C40.4156 51.1762 46.2189 51.4664 51.6229 49.8365C57.0269 48.2066 61.6969 44.7576 64.8369 40.0773C67.9769 35.3971 69.3925 29.7753 68.8424 24.1704C68.2923 18.5655 65.8105 13.3245 61.8201 9.34062C59.5621 7.0803 56.8793 5.28659 53.9253 4.06227C50.9712 2.83795 47.8041 2.20707 44.6053 2.20577Z" fill="#00144A"/>
</g>
<defs>
<clipPath id="clip0_14807_161057">
<rect width="55.3129" height="92" fill="white" transform="translate(17.9688)"/>
</clipPath>
</defs>
</svg>
