<svg width="320" height="240" viewBox="0 0 320 240" fill="none" xmlns="http://www.w3.org/2000/svg">
<path fill-rule="evenodd" clip-rule="evenodd" d="M257.28 79.8267C257.28 58.9356 240.344 42 219.453 42H37.8267C16.9356 42 0 58.9356 0 79.8267V79.84C0 100.731 16.9356 117.667 37.8267 117.667H166.73C166.443 119.29 166.293 120.961 166.293 122.666C166.293 138.432 179.074 151.213 194.84 151.213H291.453C307.219 151.213 320 138.432 320 122.666C320 106.901 307.219 94.1198 291.453 94.1198H254.492C256.289 89.7136 257.28 84.8925 257.28 79.84V79.8267ZM5.41341 173.28C5.41341 157.514 18.1942 144.733 33.9601 144.733H130.573C146.268 144.733 159.005 157.399 159.119 173.067H165.747C181.512 173.067 194.293 185.848 194.293 201.613C194.293 217.379 181.512 230.16 165.747 230.16H69.1333C53.4385 230.16 40.7021 217.494 40.5874 201.827H33.9601C18.1942 201.827 5.41341 189.046 5.41341 173.28Z" fill="#EBF8FF"/>
<path d="M156.434 117.795H183.758C185.645 117.795 187.174 116.252 187.174 114.348C187.174 112.445 185.645 110.902 183.758 110.902H156.434C154.548 110.902 153.019 112.445 153.019 114.348C153.019 116.252 154.548 117.795 156.434 117.795Z" fill="#F58B00"/>
<path d="M109.77 222.323C108.992 222.328 108.237 222.059 107.635 221.562C98.513 214.152 94.1867 205.55 95.126 196.661C96.5491 182.847 108.304 174.374 129.921 171.502C145.704 169.405 161.6 169.807 176.97 170.195C182.32 170.324 187.871 170.468 193.307 170.497C197.576 170.497 201.846 170.726 205.944 170.927C219.948 171.588 234.407 172.292 247.072 165.973C251.408 163.773 255.227 160.663 258.273 156.851C261.319 153.039 263.522 148.614 264.733 143.872C266.176 138.796 266.542 133.47 265.806 128.241C265.07 123.012 263.25 117.999 260.464 113.529L260.094 112.954C255.825 106.349 249.848 103.505 240.17 103.448C239.265 103.448 238.396 103.085 237.755 102.438C237.115 101.792 236.755 100.915 236.755 100.001C236.755 99.0871 237.115 98.2104 237.755 97.5641C238.396 96.9177 239.265 96.5546 240.17 96.5546C252.295 96.6264 260.208 100.518 265.787 109.178L266.171 109.781C269.481 115.063 271.652 120.991 272.542 127.176C273.432 133.362 273.021 139.667 271.337 145.682C269.869 151.361 267.217 156.658 263.558 161.22C259.899 165.782 255.317 169.503 250.118 172.134C235.887 179.228 220.503 178.495 205.631 177.777C201.561 177.591 197.334 177.39 193.279 177.361C187.771 177.361 182.207 177.189 176.813 177.059C161.699 176.672 146.074 176.284 130.832 178.309C112.488 180.75 103.038 186.925 101.928 197.365C101.231 203.899 104.604 210.289 111.89 216.163C112.442 216.61 112.842 217.22 113.035 217.907C113.228 218.594 113.205 219.324 112.97 219.997C112.734 220.671 112.296 221.253 111.718 221.665C111.14 222.076 110.449 222.296 109.741 222.295L109.77 222.323Z" fill="#00144A"/>
<path d="M153.915 148.814H123.176V50H153.915C154.364 50 154.808 50.0891 155.222 50.2623C155.637 50.4355 156.013 50.6894 156.33 51.0095C156.647 51.3295 156.899 51.7094 157.071 52.1276C157.242 52.5457 157.331 52.9939 157.331 53.4465C157.331 53.8991 157.242 54.3472 157.071 54.7654C156.899 55.1835 156.647 55.5635 156.33 55.8835C156.013 56.2036 155.637 56.4575 155.222 56.6307C154.808 56.8039 154.364 56.893 153.915 56.893H129.95V141.907H153.858C154.764 141.907 155.633 142.27 156.273 142.916C156.914 143.563 157.274 144.439 157.274 145.353C157.274 146.267 156.914 147.144 156.273 147.79C155.633 148.437 154.764 148.8 153.858 148.8L153.915 148.814Z" fill="#A9B4BE"/>
<path d="M156.434 89.0731H183.758C185.645 89.0731 187.174 87.53 187.174 85.6265C187.174 83.7231 185.645 82.1801 183.758 82.1801H156.434C154.548 82.1801 153.019 83.7231 153.019 85.6265C153.019 87.53 154.548 89.0731 156.434 89.0731Z" fill="#F58B00"/>
<path d="M183.032 136.177V62.6655C183.032 60.7621 181.503 59.219 179.617 59.219C177.73 59.219 176.201 60.7621 176.201 62.6655V136.177C176.201 138.08 177.73 139.623 179.617 139.623C181.503 139.623 183.032 138.08 183.032 136.177Z" fill="#64EDD2"/>
<path d="M213.914 131.583H182.605V68.3971H213.914C222.218 68.3971 230.181 71.7257 236.053 77.6505C241.924 83.5753 245.223 91.6111 245.223 99.9901C245.223 108.369 241.924 116.405 236.053 122.33C230.181 128.255 222.218 131.583 213.914 131.583Z" fill="#64EDD2"/>
<path d="M245.308 99.8449C245.321 101.243 245.226 102.64 245.023 104.024C244.021 96.44 240.324 89.4811 234.621 84.4394C228.918 79.3976 221.596 76.6156 214.014 76.6097H182.705V68.252H214.014C222.315 68.2558 230.275 71.5859 236.143 77.5103C242.011 83.4348 245.308 91.4684 245.308 99.8449Z" fill="#00A58A"/>
<path fill-rule="evenodd" clip-rule="evenodd" d="M115.602 225.423C116.658 223.914 118.736 223.547 120.245 224.602C122.451 226.146 123.497 226.863 124.547 227.581L124.55 227.583C125.612 228.31 126.679 229.041 128.911 230.602C130.42 231.658 130.787 233.736 129.731 235.245C128.676 236.753 126.598 237.12 125.089 236.065C122.883 234.521 121.836 233.805 120.787 233.086L120.784 233.084C119.722 232.357 118.655 231.627 116.423 230.065C114.914 229.009 114.547 226.931 115.602 225.423Z" fill="#00144A"/>
<path d="M234.592 3.09933L206.134 27.2668C206.08 27.3143 206.041 27.3753 206.019 27.4435C205.997 27.5116 205.994 27.5844 206.01 27.6541C206.026 27.7238 206.061 27.7879 206.11 27.8397C206.159 27.8915 206.222 27.9291 206.291 27.9485L220.53 31.7696C220.587 31.7847 220.64 31.8122 220.685 31.8502C220.729 31.8881 220.765 31.9356 220.789 31.9892C220.814 32.0427 220.826 32.1009 220.824 32.1597C220.823 32.2184 220.809 32.2761 220.783 32.3286L210.801 52.4227C210.758 52.5043 210.746 52.5982 210.765 52.6881C210.785 52.778 210.835 52.8583 210.907 52.9152C210.979 52.9721 211.069 53.0021 211.161 52.9999C211.253 52.9977 211.342 52.9636 211.411 52.9033L240.163 28.8041C240.218 28.7573 240.259 28.6966 240.281 28.6284C240.304 28.5602 240.308 28.4871 240.292 28.417C240.276 28.3469 240.241 28.2825 240.192 28.2305C240.142 28.1786 240.079 28.1412 240.01 28.1223L225.542 24.3353C225.485 24.3197 225.432 24.2917 225.387 24.2535C225.342 24.2152 225.306 24.1676 225.282 24.1139C225.258 24.0603 225.245 24.0019 225.246 23.943C225.247 23.884 225.26 23.826 225.286 23.7729L235.206 3.57656C235.249 3.49457 235.261 3.40037 235.241 3.3103C235.221 3.22022 235.17 3.13992 235.098 3.08329C235.025 3.02666 234.934 2.99727 234.842 3.0002C234.75 3.00313 234.661 3.03819 234.592 3.09933Z" fill="#F58B00"/>
</svg>
