<svg width="160" height="160" viewBox="0 0 160 160" fill="none" xmlns="http://www.w3.org/2000/svg">
<path d="M61.0669 78.6039H79.7765C81.0681 78.6039 82.1152 77.5473 82.1152 76.244C82.1152 74.9406 81.0681 73.8841 79.7765 73.8841H61.0669C59.7752 73.8841 58.7282 74.9406 58.7282 76.244C58.7282 77.5473 59.7752 78.6039 61.0669 78.6039Z" fill="#F58B00"/>
<path d="M29.1135 150.178C28.581 150.182 28.0641 149.997 27.6518 149.657C21.4055 144.583 18.4431 138.693 19.0863 132.607C20.0607 123.147 28.1097 117.346 42.9118 115.379C53.7186 113.943 64.6033 114.219 75.1274 114.484C78.7914 114.573 82.5919 114.671 86.3143 114.691C89.2377 114.691 92.1611 114.848 94.9675 114.986C104.556 115.438 114.457 115.92 123.129 111.593C126.098 110.087 128.713 107.957 130.799 105.347C132.884 102.737 134.393 99.7069 135.222 96.4602C136.21 92.9842 136.461 89.3371 135.957 85.7569C135.453 82.1767 134.207 78.744 132.299 75.6829L132.046 75.2896C129.122 70.7663 125.03 68.8193 118.403 68.78C117.783 68.78 117.188 68.5314 116.75 68.0888C116.311 67.6462 116.065 67.046 116.065 66.4201C116.065 65.7942 116.311 65.1939 116.75 64.7513C117.188 64.3088 117.783 64.0601 118.403 64.0601C126.706 64.1093 132.124 66.7741 135.944 72.7035L136.207 73.1164C138.473 76.7338 139.96 80.7923 140.569 85.0277C141.179 89.2632 140.898 93.5807 139.744 97.6992C138.739 101.588 136.923 105.215 134.418 108.339C131.912 111.462 128.775 114.01 125.215 115.812C115.47 120.669 104.936 120.168 94.7531 119.676C91.9661 119.548 89.072 119.411 86.2948 119.391C82.5236 119.391 78.7135 119.273 75.0203 119.185C64.6715 118.919 53.9719 118.654 43.5355 120.04C30.9747 121.712 24.5042 125.94 23.7442 133.089C23.2667 137.563 25.5761 141.938 30.5654 145.96C30.9429 146.267 31.2168 146.684 31.3492 147.154C31.4815 147.624 31.4659 148.125 31.3044 148.586C31.1428 149.047 30.8434 149.446 30.4474 149.727C30.0514 150.009 29.5785 150.16 29.0939 150.159L29.1135 150.178Z" fill="#5581AE"/>
<path d="M59.3414 99.8441H38.293V32.1825H59.3414C59.6485 32.1825 59.9525 32.2435 60.2363 32.3621C60.52 32.4807 60.7779 32.6546 60.995 32.8737C61.2122 33.0928 61.3845 33.353 61.502 33.6393C61.6195 33.9257 61.68 34.2326 61.68 34.5425C61.68 34.8524 61.6195 35.1592 61.502 35.4455C61.3845 35.7319 61.2122 35.992 60.995 36.2112C60.7779 36.4303 60.52 36.6041 60.2363 36.7227C59.9525 36.8413 59.6485 36.9024 59.3414 36.9024H42.9314V95.1144H59.3023C59.9226 95.1144 60.5175 95.363 60.9561 95.8056C61.3947 96.2481 61.6411 96.8484 61.6411 97.4743C61.6411 98.1002 61.3947 98.7005 60.9561 99.143C60.5175 99.5856 59.9226 99.8342 59.3023 99.8342L59.3414 99.8441Z" fill="#B9C1C6"/>
<path d="M61.0669 58.9372H79.7765C81.0681 58.9372 82.1152 57.8806 82.1152 56.5772C82.1152 55.2739 81.0681 54.2173 79.7765 54.2173H61.0669C59.7752 54.2173 58.7282 55.2739 58.7282 56.5772C58.7282 57.8806 59.7752 58.9372 61.0669 58.9372Z" fill="#F58B00"/>
<path d="M79.2793 91.1907V40.855C79.2793 39.5517 78.2323 38.4951 76.9406 38.4951C75.649 38.4951 74.6019 39.5517 74.6019 40.855V91.1907C74.6019 92.4941 75.649 93.5507 76.9406 93.5507C78.2323 93.5507 79.2793 92.4941 79.2793 91.1907Z" fill="#64EDD2"/>
<path d="M100.424 88.0453H78.9863V44.7797H100.424C106.11 44.7797 111.563 47.0588 115.583 51.1158C119.604 55.1727 121.863 60.6751 121.863 66.4125C121.863 72.1499 119.604 77.6523 115.583 81.7092C111.563 85.7661 106.11 88.0453 100.424 88.0453Z" fill="#64EDD2"/>
<path d="M121.921 66.3131C121.93 67.2705 121.865 68.2272 121.726 69.1745C121.04 63.9816 118.509 59.2166 114.604 55.7643C110.698 52.312 105.685 50.4071 100.493 50.4031H79.0547V44.6802H100.493C106.177 44.6828 111.627 46.9631 115.646 51.0198C119.664 55.0764 121.921 60.5774 121.921 66.3131Z" fill="#00A58A"/>
<path fill-rule="evenodd" clip-rule="evenodd" d="M33.1078 152.3C33.8305 151.268 35.2536 151.016 36.2865 151.739C37.797 152.796 38.5138 153.286 39.2327 153.779L39.2344 153.78C39.962 154.278 40.6923 154.778 42.2209 155.847C43.2537 156.57 43.5051 157.993 42.7825 159.026C42.0598 160.059 40.6367 160.31 39.6038 159.587C38.0933 158.531 37.3765 158.04 36.6575 157.548L36.6559 157.547C35.9283 157.049 35.198 156.549 33.6694 155.479C32.6366 154.756 32.3852 153.333 33.1078 152.3Z" fill="#5581AE"/>
<path d="M114.584 0.068018L95.0975 16.6163C95.0608 16.6489 95.0337 16.6907 95.0188 16.7373C95.0039 16.784 95.0018 16.8338 95.0128 16.8815C95.0238 16.9292 95.0474 16.9731 95.0812 17.0086C95.115 17.0441 95.1578 17.0698 95.2049 17.0831L104.955 19.6996C104.994 19.7099 105.03 19.7287 105.061 19.7547C105.092 19.7807 105.116 19.8132 105.133 19.8499C105.149 19.8866 105.157 19.9264 105.157 19.9666C105.156 20.0068 105.146 20.0464 105.128 20.0823L98.293 33.8414C98.264 33.8974 98.2555 33.9616 98.2688 34.0232C98.2821 34.0847 98.3164 34.1397 98.366 34.1787C98.4155 34.2177 98.477 34.2382 98.54 34.2367C98.6031 34.2352 98.6636 34.2118 98.7112 34.1705L118.399 17.669C118.436 17.6369 118.464 17.5954 118.479 17.5487C118.495 17.502 118.497 17.4519 118.487 17.4039C118.476 17.3559 118.452 17.3118 118.418 17.2762C118.384 17.2407 118.341 17.2151 118.293 17.2021L108.387 14.609C108.348 14.5983 108.312 14.5792 108.281 14.553C108.25 14.5268 108.226 14.4942 108.209 14.4575C108.192 14.4207 108.184 14.3807 108.184 14.3404C108.185 14.3 108.194 14.2603 108.212 14.2239L115.004 0.394788C115.033 0.338646 115.042 0.27415 115.028 0.21247C115.015 0.150791 114.98 0.0958109 114.93 0.0570345C114.88 0.0182581 114.818 -0.00187027 114.755 0.000136818C114.692 0.00214391 114.631 0.0261529 114.584 0.068018Z" fill="#F58B00"/>
</svg>
