<svg width="112" height="112" viewBox="0 0 112 112" fill="none" xmlns="http://www.w3.org/2000/svg">
<circle opacity="0.5" cx="53.8125" cy="31.9375" r="31.0625" fill="#223548"/>
<path d="M71.75 32.375C71.75 42.04 63.915 49.875 54.25 49.875C44.585 49.875 36.75 42.04 36.75 32.375C36.75 22.71 44.585 14.875 54.25 14.875C63.915 14.875 71.75 22.71 71.75 32.375Z" fill="#EAECEE"/>
<path d="M54.25 14.875C50.7888 14.875 47.4054 15.9014 44.5275 17.8243C41.6497 19.7472 39.4067 22.4806 38.0821 25.6783C36.7576 28.876 36.411 32.3945 37.0863 35.7891C37.7615 39.1838 39.4282 42.3019 41.8756 44.7493C44.3231 47.1967 47.4413 48.8635 50.8359 49.5387C54.2306 50.214 57.7493 49.8674 60.947 48.5428C64.1447 47.2183 66.8778 44.9753 68.8007 42.0974C70.7236 39.2195 71.75 35.8362 71.75 32.375C71.75 27.7337 69.9063 23.2826 66.6244 20.0007C63.3425 16.7188 58.8913 14.875 54.25 14.875ZM54.25 42.875C53.7308 42.875 53.2233 42.7212 52.7916 42.4328C52.36 42.1444 52.0235 41.7341 51.8248 41.2544C51.6262 40.7748 51.5742 40.2474 51.6755 39.7382C51.7767 39.229 52.0268 38.7612 52.3939 38.394C52.761 38.0269 53.2287 37.7767 53.7379 37.6754C54.2471 37.5741 54.7749 37.6263 55.2546 37.8249C55.7342 38.0236 56.1442 38.3601 56.4326 38.7918C56.7211 39.2235 56.875 39.7308 56.875 40.25C56.875 40.9462 56.5984 41.6141 56.1062 42.1064C55.6139 42.5987 54.9462 42.875 54.25 42.875ZM57.015 33.9503C56.7741 34.0644 56.5404 34.1929 56.315 34.3352C56.1442 34.8241 55.8054 35.2365 55.3591 35.499C54.9127 35.7616 54.3877 35.8572 53.8774 35.769C53.3671 35.6808 52.9047 35.4142 52.5724 35.0171C52.24 34.6199 52.0593 34.1178 52.0625 33.5999C52.0625 31.6049 53.8125 30.7299 54.985 30.0999C56.63 29.2424 57.3125 28.7524 57.3125 27.5099C57.3125 26.2674 55.9125 25.3224 54.25 25.3224C52.5875 25.3224 51.1875 26.3374 51.1875 27.5099C51.1875 28.0901 50.957 28.6468 50.5468 29.057C50.1365 29.4672 49.5802 29.6974 49 29.6974C48.4198 29.6974 47.8634 29.4672 47.4532 29.057C47.043 28.6468 46.8125 28.0901 46.8125 27.5099C47.0292 25.6896 47.9059 24.0121 49.2766 22.7949C50.6473 21.5776 52.4168 20.9056 54.25 20.9056C56.0832 20.9056 57.8527 21.5776 59.2234 22.7949C60.5941 24.0121 61.4708 25.6896 61.6875 27.5099C61.6309 28.9246 61.1571 30.2912 60.3257 31.4372C59.4942 32.5832 58.3424 33.4576 57.015 33.9503Z" fill="#5581AE"/>
<g clip-path="url(#clip0_18011_39880)">
<path d="M69.4189 60.0577L60.9922 63.4516L66.3762 76.7473L74.7941 73.3534L69.4189 60.0577Z" fill="#B9C1C6"/>
<path d="M66.6839 75.6889C66.2558 75.8653 65.9151 76.2034 65.736 76.6295C65.5569 77.0556 65.5541 77.535 65.7281 77.9632L78.3024 108.849C78.8259 110.1 79.8246 111.093 81.0801 111.611C82.3355 112.129 83.7455 112.13 85.0017 111.613L86.0013 111.202C86.6332 110.951 87.2085 110.576 87.6933 110.1C88.1781 109.624 88.5628 109.056 88.8248 108.429C89.3423 107.174 89.3423 105.766 88.8248 104.511L76.2505 73.6596C76.1639 73.4453 76.0355 73.2501 75.8729 73.0856C75.7102 72.921 75.5165 72.7902 75.3029 72.7007C75.0893 72.6113 74.86 72.5649 74.6284 72.5643C74.3967 72.5638 74.1672 72.609 73.9531 72.6974L66.6839 75.6889Z" fill="#F58B00"/>
<path d="M60.6953 62.7518L61.5722 64.8424C61.5722 64.8424 65.9565 66.793 70.5864 62.7169L69.1834 59.3667L65.3164 61.2386L60.6953 62.7518Z" fill="#5581AE"/>
<path d="M54.3021 64.5363C46.8151 64.5547 39.5537 61.9817 33.7559 57.2563C27.9581 52.5308 23.9831 45.9455 22.5086 38.6232C21.0341 31.301 22.1515 23.6952 25.6701 17.1029C29.1888 10.5106 34.8909 5.33993 41.8042 2.47269C48.7174 -0.394547 56.4136 -0.780838 63.5804 1.37969C70.7472 3.54021 76.9408 8.11376 81.1051 14.3204C85.2694 20.5271 87.1464 27.9826 86.4162 35.4155C85.6859 42.8484 82.3936 49.7985 77.1006 55.0807C71.0571 61.1212 62.8573 64.5221 54.3021 64.5363ZM54.3021 2.68529C47.4292 2.67325 40.7649 5.03938 35.4452 9.38035C30.1255 13.7213 26.4797 19.7684 25.1293 26.4907C23.7789 33.2131 24.8075 40.1945 28.0398 46.245C31.272 52.2955 36.5079 57.0404 42.8547 59.6709C49.2016 62.3014 56.2665 62.6547 62.8453 60.6705C69.424 58.6863 75.1093 54.4875 78.9319 48.7898C82.7545 43.0921 84.4778 36.2482 83.8081 29.4249C83.1384 22.6015 80.1171 16.2211 75.2592 11.3712C72.5104 8.6195 69.2443 6.43585 65.6481 4.94537C62.0519 3.45489 58.1963 2.68687 54.3021 2.68529Z" fill="#8396A8"/>
</g>
<defs>
<clipPath id="clip0_18011_39880">
<rect width="67.3374" height="112" fill="white" transform="translate(21.875)"/>
</clipPath>
</defs>
</svg>
