<svg width="92" height="93" viewBox="0 0 92 93" fill="none" xmlns="http://www.w3.org/2000/svg">
<path d="M21.9828 4.90792L10.0501 76.8867C9.52086 80.0794 11.678 83.097 14.8682 83.6266L64.8919 91.9323C68.0821 92.462 71.0974 90.3032 71.6267 87.1106L83.5593 15.1318C84.0886 11.9391 81.9315 8.92154 78.7413 8.39185L28.7176 0.0861655C25.5273 -0.443523 22.5121 1.71525 21.9828 4.90792Z" fill="#8396A8"/>
<path d="M63.7757 3.50121H15.2128C11.979 3.50121 9.35742 6.12476 9.35742 9.36107V79.4085C9.35742 82.6448 11.979 85.2683 15.2128 85.2683H63.7757C67.0096 85.2683 69.6311 82.6448 69.6311 79.4085V9.36107C69.6311 6.12476 67.0096 3.50121 63.7757 3.50121Z" fill="#2F3235"/>
<path d="M63.7752 86.0008H15.2123C13.4652 86.0008 11.7897 85.3062 10.5544 84.0699C9.31901 82.8336 8.625 81.1568 8.625 79.4084V9.36104C8.625 7.61264 9.31901 5.93585 10.5544 4.69954C11.7897 3.46323 13.4652 2.76868 15.2123 2.76868H63.7752C65.5223 2.76868 67.1978 3.46323 68.4332 4.69954C69.6685 5.93585 70.3625 7.61264 70.3625 9.36104V79.4084C70.3625 81.1568 69.6685 82.8336 68.4332 84.0699C67.1978 85.3062 65.5223 86.0008 63.7752 86.0008ZM15.2123 4.23365C13.8535 4.23365 12.5503 4.77385 11.5895 5.73542C10.6286 6.697 10.0888 8.00117 10.0888 9.36104V79.4084C10.0888 80.7683 10.6286 82.0725 11.5895 83.034C12.5503 83.9956 13.8535 84.5358 15.2123 84.5358H63.7752C65.1341 84.5358 66.4372 83.9956 67.3981 83.034C68.3589 82.0725 68.8987 80.7683 68.8987 79.4084V9.36104C68.8987 8.00117 68.3589 6.697 67.3981 5.73542C66.4372 4.77385 65.1341 4.23365 63.7752 4.23365H15.2123Z" fill="#8396A8"/>
<path d="M39.794 60.3895C47.8631 60.3895 54.4043 53.8482 54.4043 45.7791C54.4043 37.71 47.8631 31.1688 39.794 31.1688C31.7249 31.1688 25.1836 37.71 25.1836 45.7791C25.1836 53.8482 31.7249 60.3895 39.794 60.3895Z" fill="#5581AE"/>
<path d="M41.1145 43.7091C41.1081 43.8474 41.1309 43.9855 41.1814 44.1146C41.2319 44.2437 41.309 44.3609 41.4077 44.4588C41.5065 44.5567 41.6247 44.6331 41.7549 44.6832C41.8851 44.7333 42.0244 44.7559 42.1639 44.7496H46.9273C47.0664 44.7559 47.2054 44.7333 47.3352 44.6832C47.465 44.6331 47.5828 44.5565 47.681 44.4585C47.7792 44.3605 47.8556 44.2431 47.9052 44.114C47.9548 43.9849 47.9766 43.847 47.9692 43.7091V38.9124C47.9766 38.7744 47.9548 38.6364 47.9052 38.5074C47.8556 38.3783 47.7792 38.2609 47.681 38.1629C47.5828 38.0649 47.465 37.9883 47.3352 37.9382C47.2054 37.888 47.0664 37.8654 46.9273 37.8718C46.7878 37.8655 46.6484 37.8882 46.5182 37.9382C46.388 37.9883 46.2698 38.0647 46.1711 38.1626C46.0723 38.2605 45.9953 38.3777 45.9448 38.5068C45.8943 38.6359 45.8715 38.7741 45.8778 38.9124V40.6465C45.097 39.7767 44.1399 39.0801 43.069 38.6019C41.9981 38.1238 40.8376 37.875 39.6632 37.8718C37.4589 37.8738 35.3454 38.7429 33.7868 40.2883C32.2281 41.8337 31.3516 43.9292 31.3496 46.1147C31.3516 48.3003 32.2281 50.3958 33.7868 51.9413C35.3454 53.4867 37.4589 54.3558 39.6632 54.3577C41.5523 54.3488 43.3834 53.7089 44.8607 52.5414C46.338 51.3738 47.3754 49.7467 47.8055 47.9227C47.8334 47.7818 47.8328 47.6367 47.8034 47.4961C47.774 47.3554 47.7165 47.2219 47.6343 47.1036C47.5587 46.9924 47.4609 46.8976 47.347 46.8253C47.2331 46.7529 47.1054 46.7045 46.9719 46.683C46.8297 46.6552 46.6834 46.656 46.5415 46.6851C46.3996 46.7143 46.2651 46.7712 46.1457 46.8527C46.0343 46.9268 45.9393 47.0226 45.8664 47.1342C45.7934 47.2458 45.7441 47.371 45.7215 47.5021C45.415 48.8651 44.6463 50.0827 43.5438 50.9516C42.4412 51.8205 41.0715 52.2882 39.6632 52.2767C38.0148 52.2747 36.4344 51.6251 35.2682 50.4702C34.102 49.3152 33.4449 47.7491 33.441 46.1147C33.4429 44.4792 34.0991 42.9111 35.2656 41.7546C36.432 40.5981 38.0136 39.9474 39.6632 39.9455C40.6801 39.9439 41.6816 40.1925 42.5778 40.6691C43.4741 41.1456 44.2371 41.8351 44.7986 42.6759H42.082C41.9491 42.6777 41.8179 42.7062 41.6964 42.7596C41.5749 42.8131 41.4656 42.8905 41.3751 42.9871C41.2847 43.0837 41.215 43.1975 41.1701 43.3216C41.1253 43.4457 41.1064 43.5775 41.1145 43.7091Z" fill="#EAECEE"/>
</svg>
