<svg width="320" height="240" viewBox="0 0 320 240" fill="none" xmlns="http://www.w3.org/2000/svg">
<path fill-rule="evenodd" clip-rule="evenodd" d="M257.28 55.8267C257.28 34.9356 240.344 18 219.453 18H37.8267C16.9356 18 0 34.9356 0 55.8267V55.84C0 76.7311 16.9356 93.6667 37.8267 93.6667H166.73C166.443 95.2901 166.293 96.9608 166.293 98.6665C166.293 114.432 179.074 127.213 194.84 127.213H291.453C307.219 127.213 320 114.432 320 98.6665C320 82.9006 307.219 70.1198 291.453 70.1198H254.492C256.289 65.7136 257.28 60.8925 257.28 55.84V55.8267ZM5.41341 149.28C5.41341 133.514 18.1942 120.733 33.9601 120.733H130.573C146.268 120.733 159.005 133.399 159.119 149.067H165.747C181.512 149.067 194.293 161.848 194.293 177.613C194.293 193.379 181.512 206.16 165.747 206.16H69.1333C53.4385 206.16 40.7021 193.494 40.5874 177.827H33.9601C18.1942 177.827 5.41341 165.046 5.41341 149.28Z" fill="#EBF8FF"/>
<path d="M223.006 200.85V76.009C223.039 73.695 222.159 71.4607 220.557 69.7869C218.954 68.1132 216.756 67.134 214.436 67.0601H135.063C132.56 67.0601 130.081 67.5517 127.768 68.507C125.455 69.4623 123.354 70.8625 121.584 72.6277C119.813 74.3928 118.409 76.4883 117.451 78.7946C116.493 81.1008 116 83.5727 116 86.069V202.991C116.005 208.031 118.016 212.863 121.589 216.426C125.163 219.99 130.009 221.994 135.063 222H241.725V221.858C236.566 221.25 231.81 218.775 228.36 214.902C224.91 211.03 223.005 206.03 223.006 200.85Z" fill="#D5DADD"/>
<path d="M223.006 194.79V69.9489C223.039 67.635 222.159 65.4006 220.557 63.7269C218.954 62.0531 216.756 61.0739 214.436 61H135.063C132.56 61 130.081 61.4917 127.768 62.447C125.455 63.4023 123.354 64.8025 121.584 66.5676C119.813 68.3327 118.409 70.4282 117.451 72.7345C116.493 75.0408 116 77.5126 116 80.0089V196.931C116.005 201.971 118.016 206.803 121.589 210.366C125.163 213.93 130.009 215.934 135.063 215.94H241.725V215.798C236.566 215.19 231.81 212.715 228.36 208.842C224.91 204.97 223.005 199.97 223.006 194.79Z" fill="white"/>
<path fill-rule="evenodd" clip-rule="evenodd" d="M220.859 69.9336L220.859 69.9183C220.884 68.169 220.22 66.4787 219.006 65.2116C217.8 63.9519 216.147 63.2106 214.4 63.1467H135.063C132.841 63.1467 130.64 63.5832 128.588 64.4311C126.535 65.279 124.67 66.5216 123.099 68.0877C121.529 69.6538 120.283 71.5126 119.434 73.558C118.584 75.6034 118.147 77.7954 118.147 80.0089V196.93C118.152 201.399 119.934 205.684 123.105 208.846C126.277 212.009 130.578 213.788 135.066 213.793H230.698C229.265 212.779 227.941 211.599 226.757 210.27C222.957 206.005 220.858 200.497 220.859 194.79C220.859 194.789 220.859 194.79 220.859 194.79V69.9336ZM223.006 194.79C223.005 199.97 224.91 204.97 228.36 208.842C230.21 210.918 232.434 212.593 234.895 213.793C237.025 214.832 239.331 215.516 241.725 215.798V215.94H135.063C130.009 215.934 125.163 213.93 121.589 210.366C118.016 206.803 116.005 201.971 116 196.931V80.0089C116 77.5126 116.493 75.0408 117.451 72.7345C118.409 70.4282 119.813 68.3327 121.584 66.5676C123.354 64.8025 125.455 63.4023 127.768 62.447C130.081 61.4917 132.56 61 135.063 61H214.436C216.756 61.0739 218.954 62.0531 220.557 63.7269C222.159 65.4006 223.039 67.635 223.006 69.9489V194.79Z" fill="#00144A"/>
<path d="M169.503 94.6743H135.894C133.578 94.6743 131.7 96.5465 131.7 98.8559V98.8761C131.7 101.185 133.578 103.058 135.894 103.058H169.503C171.819 103.058 173.696 101.185 173.696 98.8761V98.8559C173.696 96.5465 171.819 94.6743 169.503 94.6743Z" fill="#F58B00"/>
<path d="M261.275 67.3255C260.979 66.9715 260.593 66.7038 260.158 66.5506C259.723 66.3973 259.255 66.3642 258.803 66.4546L247.987 68.3253C246.198 68.6339 245.491 70.2781 245.734 71.6802C245.812 72.2576 246.075 72.794 246.484 73.2088C246.894 73.6236 247.427 73.8944 248.003 73.9805C248.283 74.0138 248.566 74.0046 248.843 73.9531L259.658 72.0824C260.134 72.0101 260.582 71.8104 260.954 71.5045C261.326 71.1985 261.608 70.7977 261.771 70.3445C261.952 69.8407 262.002 69.2989 261.915 68.7706C261.828 68.2423 261.608 67.7448 261.275 67.3255Z" fill="#A9B4BE"/>
<path d="M220.166 24.1267C219.853 24.0203 219.522 23.9802 219.193 24.0091C218.864 24.0379 218.545 24.135 218.256 24.2941C217.967 24.4532 217.714 24.6709 217.513 24.9333C217.313 25.1956 217.17 25.4969 217.092 25.8178L214.112 36.0853C214.006 36.4549 213.975 36.8418 214.02 37.2235C214.065 37.6053 214.186 37.9741 214.376 38.3086C214.565 38.6431 214.819 38.9365 215.124 39.1717C215.428 39.4069 215.776 39.5792 216.147 39.6784C216.299 39.7236 216.454 39.7563 216.612 39.7761C217.192 39.8575 217.782 39.7186 218.265 39.3868C218.748 39.055 219.089 38.5543 219.221 37.9834L222.197 27.7198C222.304 27.3505 222.335 26.9637 222.291 26.582C222.246 26.2003 222.125 25.8313 221.936 25.4967C221.747 25.1622 221.493 24.8687 221.189 24.6334C220.885 24.3982 220.537 24.2259 220.166 24.1267Z" fill="#A9B4BE"/>
<path d="M246.741 38.0302C246.381 38.0069 246.021 38.0572 245.681 38.178C245.341 38.2989 245.029 38.4878 244.765 38.7332L232.798 49.6218C232.264 50.1131 231.94 50.7918 231.895 51.5161C231.85 52.2403 232.087 52.9539 232.555 53.5077C232.992 54.0196 233.606 54.3486 234.274 54.4294C234.659 54.4754 235.05 54.4378 235.419 54.3192C235.789 54.2006 236.128 54.0037 236.414 53.7421L248.382 42.8535C248.919 42.3599 249.244 41.6771 249.289 40.9488C249.333 40.2205 249.093 39.5033 248.62 38.948C248.385 38.6764 248.097 38.4551 247.774 38.2974C247.452 38.1397 247.1 38.0488 246.741 38.0302Z" fill="#A9B4BE"/>
</svg>
