<svg width="112" height="113" viewBox="0 0 112 113" fill="none" xmlns="http://www.w3.org/2000/svg">
<path d="M26.7618 5.97486L12.235 93.6012C11.5907 97.4879 14.2168 101.162 18.1005 101.806L78.9989 111.918C82.8827 112.562 86.5534 109.934 87.1978 106.048L101.724 18.4213C102.369 14.5346 99.7427 10.861 95.859 10.2162L34.9606 0.104901C31.0768 -0.539938 27.4061 2.08813 26.7618 5.97486Z" fill="#8396A8"/>
<path d="M77.639 4.26234H18.5189C14.5821 4.26234 11.3906 7.45623 11.3906 11.3961V96.6712C11.3906 100.611 14.5821 103.805 18.5189 103.805H77.639C81.5758 103.805 84.7673 100.611 84.7673 96.6712V11.3961C84.7673 7.45623 81.5758 4.26234 77.639 4.26234Z" fill="#2F3235"/>
<path d="M77.6394 104.697H18.5193C16.3925 104.697 14.3527 103.851 12.8488 102.346C11.3449 100.841 10.5 98.7996 10.5 96.6711V11.396C10.5 9.26756 11.3449 7.22625 12.8488 5.72118C14.3527 4.21611 16.3925 3.37057 18.5193 3.37057H77.6394C79.7663 3.37057 81.806 4.21611 83.3099 5.72118C84.8138 7.22625 85.6587 9.26756 85.6587 11.396V96.6711C85.6587 98.7996 84.8138 100.841 83.3099 102.346C81.806 103.851 79.7663 104.697 77.6394 104.697ZM18.5193 5.15401C16.8651 5.15401 15.2786 5.81165 14.1089 6.98226C12.9392 8.15287 12.2821 9.74056 12.2821 11.396V96.6711C12.2821 98.3266 12.9392 99.9143 14.1089 101.085C15.2786 102.256 16.8651 102.913 18.5193 102.913H77.6394C79.2937 102.913 80.8801 102.256 82.0498 101.085C83.2195 99.9143 83.8767 98.3266 83.8767 96.6711V11.396C83.8767 9.74056 83.2195 8.15287 82.0498 6.98226C80.8801 5.81165 79.2937 5.15401 77.6394 5.15401H18.5193Z" fill="#8396A8"/>
<path d="M48.4448 73.5177C58.268 73.5177 66.2313 65.5544 66.2313 55.7311C66.2313 45.9079 58.268 37.9446 48.4448 37.9446C38.6215 37.9446 30.6582 45.9079 30.6582 55.7311C30.6582 65.5544 38.6215 73.5177 48.4448 73.5177Z" fill="#5581AE"/>
<path d="M50.0517 53.211C50.044 53.3794 50.0717 53.5475 50.1332 53.7047C50.1947 53.8618 50.2885 54.0046 50.4087 54.1238C50.5289 54.243 50.6728 54.336 50.8313 54.397C50.9898 54.4579 51.1595 54.4854 51.3293 54.4777H57.1282C57.2976 54.4855 57.4667 54.458 57.6248 54.397C57.7828 54.3359 57.9262 54.2427 58.0457 54.1234C58.1652 54.0041 58.2583 53.8612 58.3187 53.704C58.3791 53.5469 58.4056 53.379 58.3966 53.211V47.3716C58.4056 47.2036 58.3791 47.0357 58.3187 46.8785C58.2583 46.7214 58.1652 46.5785 58.0457 46.4592C57.9262 46.3398 57.7828 46.2466 57.6248 46.1856C57.4667 46.1246 57.2976 46.0971 57.1282 46.1048C56.9583 46.0972 56.7887 46.1247 56.6302 46.1857C56.4717 46.2466 56.3278 46.3396 56.2076 46.4588C56.0874 46.578 55.9936 46.7207 55.9321 46.8779C55.8706 47.035 55.8428 47.2032 55.8506 47.3716V49.4827C54.9 48.4239 53.7348 47.5757 52.4311 46.9937C51.1275 46.4116 49.7146 46.1087 48.2849 46.1048C45.6014 46.1072 43.0285 47.1652 41.131 49.0466C39.2335 50.928 38.1665 53.479 38.1641 56.1397C38.1665 58.8004 39.2335 61.3515 41.131 63.2328C43.0285 65.1142 45.6014 66.1722 48.2849 66.1746C50.5848 66.1638 52.8139 65.3848 54.6124 63.9634C56.4108 62.5421 57.6737 60.5613 58.1973 58.3407C58.2313 58.1691 58.2305 57.9926 58.1947 57.8213C58.1589 57.65 58.0889 57.4876 57.9889 57.3435C57.8969 57.2081 57.7778 57.0928 57.6391 57.0047C57.5005 56.9166 57.345 56.8576 57.1825 56.8315C57.0094 56.7977 56.8313 56.7986 56.6585 56.834C56.4858 56.8695 56.322 56.9389 56.1767 57.0381C56.0411 57.1283 55.9254 57.2449 55.8366 57.3808C55.7479 57.5167 55.6878 57.6691 55.6602 57.8287C55.2871 59.4879 54.3514 60.9702 53.0091 62.028C51.6669 63.0858 49.9994 63.6552 48.2849 63.6412C46.2783 63.6388 44.3543 62.848 42.9345 61.442C41.5148 60.0359 40.7149 58.1293 40.7101 56.1397C40.7125 54.1485 41.5113 52.2396 42.9313 50.8317C44.3513 49.4237 46.2767 48.6317 48.2849 48.6293C49.523 48.6274 50.7421 48.93 51.8332 49.5102C52.9243 50.0903 53.8532 50.9297 54.5367 51.9533H51.2296C51.0678 51.9554 50.908 51.9901 50.7601 52.0552C50.6122 52.1203 50.4791 52.2145 50.369 52.3321C50.2589 52.4497 50.1741 52.5882 50.1195 52.7393C50.0649 52.8904 50.0419 53.0509 50.0517 53.211Z" fill="#EAECEE"/>
</svg>
