<svg width="64" height="65" viewBox="0 0 64 65" fill="none" xmlns="http://www.w3.org/2000/svg">
<path d="M34.316 2.5C33.192 2.5 32.1141 2.94652 31.3194 3.74133C30.5246 4.53613 30.0781 5.61412 30.0781 6.73814V12.615H38.5539V6.74286C38.5545 6.1859 38.4453 5.63428 38.2326 5.11954C38.02 4.6048 37.7079 4.13704 37.3143 3.74299C36.9207 3.34895 36.4533 3.03634 35.9389 2.82306C35.4244 2.60978 34.8729 2.5 34.316 2.5Z" fill="#CC7400"/>
<path d="M56.4301 30.5188V49.6658H11.9043V30.5188C11.9043 24.6139 14.2498 18.9509 18.4249 14.7755C22.6 10.6001 28.2627 8.25439 34.1672 8.25439C40.0716 8.25439 45.7343 10.6001 49.9094 14.7755C54.0845 18.9509 56.4301 24.6139 56.4301 30.5188Z" fill="#F58B00"/>
<path d="M34.318 62.7758C37.3294 62.7758 39.7707 60.3344 39.7707 57.3227C39.7707 54.3111 37.3294 51.8697 34.318 51.8697C31.3065 51.8697 28.8652 54.3111 28.8652 57.3227C28.8652 60.3344 31.3065 62.7758 34.318 62.7758Z" fill="#F58B00"/>
<path d="M61.4254 51.8696C60.0881 51.5918 56.4294 49.6658 56.4294 49.6658H11.9037C11.9037 49.6658 8.24497 51.5918 6.90769 51.8696C5.57041 52.1474 4.33203 53.0233 4.33203 54.4455C4.33203 55.1286 4.60339 55.7838 5.08642 56.2669C5.56946 56.7499 6.22458 57.0213 6.90769 57.0213H61.4254C62.1085 57.0213 62.7636 56.7499 63.2467 56.2669C63.7297 55.7838 64.0011 55.1286 64.0011 54.4455C64.0152 53.0233 62.8145 52.1663 61.4254 51.8696Z" fill="#CC7400"/>
<path opacity="0.5" d="M31.9827 8.2262C26.4766 8.77547 21.3697 11.3611 17.6528 15.4815C13.936 19.6018 11.8741 24.9632 11.8672 30.5253V49.8165H53.4575V30.6345C53.4567 24.8324 51.219 19.2564 47.2145 15.0778C43.21 10.8993 37.7505 8.44345 31.9827 8.2262Z" fill="#CC7400"/>
<rect y="5.38721" width="24.0601" height="14.4361" rx="6" fill="#5B738B"/>
<path d="M17.2482 21.625C16.1476 20.3551 17.0497 18.3796 18.7301 18.3796C19.8132 18.3796 20.6912 19.2576 20.6912 20.3407C20.6912 22.156 18.4371 22.9969 17.2482 21.625Z" fill="#5B738B"/>
<ellipse cx="7.21705" cy="12.6052" rx="1.44361" ry="1.44361" fill="#A9B4BE"/>
<ellipse cx="16.842" cy="12.6052" rx="1.44361" ry="1.44361" fill="#A9B4BE"/>
<ellipse cx="12.0295" cy="12.6052" rx="1.44361" ry="1.44361" fill="#A9B4BE"/>
</svg>
