<svg width="64" height="65" viewBox="0 0 64 65" fill="none" xmlns="http://www.w3.org/2000/svg">
<path d="M34.316 2.5C33.192 2.5 32.1141 2.94652 31.3194 3.74133C30.5246 4.53613 30.0781 5.61412 30.0781 6.73814V12.615H38.5539V6.74286C38.5545 6.1859 38.4453 5.63428 38.2326 5.11954C38.02 4.6048 37.7079 4.13704 37.3143 3.74299C36.9207 3.34895 36.4533 3.03634 35.9389 2.82306C35.4244 2.60978 34.8729 2.5 34.316 2.5Z" fill="#CC7400"/>
<path d="M56.4281 30.5188V49.6658H11.9023V30.5188C11.9023 24.6139 14.2479 18.9509 18.423 14.7755C22.5981 10.6001 28.2607 8.25439 34.1652 8.25439C40.0697 8.25439 45.7323 10.6001 49.9074 14.7755C54.0825 18.9509 56.4281 24.6139 56.4281 30.5188Z" fill="#F58B00"/>
<path d="M34.316 62.7758C37.3274 62.7758 39.7687 60.3344 39.7687 57.3227C39.7687 54.3111 37.3274 51.8697 34.316 51.8697C31.3045 51.8697 28.8633 54.3111 28.8633 57.3227C28.8633 60.3344 31.3045 62.7758 34.316 62.7758Z" fill="#F58B00"/>
<path d="M61.4244 51.8696C60.0871 51.5918 56.4285 49.6658 56.4285 49.6658H11.9027C11.9027 49.6658 8.244 51.5918 6.90672 51.8696C5.56944 52.1474 4.33105 53.0233 4.33105 54.4455C4.33105 55.1286 4.60241 55.7838 5.08545 56.2669C5.56848 56.7499 6.22361 57.0213 6.90672 57.0213H61.4244C62.1075 57.0213 62.7627 56.7499 63.2457 56.2669C63.7287 55.7838 64.0001 55.1286 64.0001 54.4455C64.0142 53.0233 62.8135 52.1663 61.4244 51.8696Z" fill="#CC7400"/>
<path opacity="0.5" d="M31.9807 8.2262C26.4746 8.77547 21.3678 11.3611 17.6509 15.4815C13.934 19.6018 11.8721 24.9632 11.8652 30.5253V49.8165H53.4555V30.6345C53.4547 24.8324 51.217 19.2564 47.2126 15.0778C43.2081 10.8993 37.7485 8.44345 31.9807 8.2262Z" fill="#CC7400"/>
<rect y="5.38721" width="24.0601" height="14.4361" rx="2.7609" fill="#D1EFFF"/>
<path d="M15.0955 19.1412C14.8373 18.8432 15.0489 18.3796 15.4433 18.3796H20.231C20.4852 18.3796 20.6912 18.5857 20.6912 18.8398V24.3641C20.6912 24.7901 20.1623 24.9874 19.8833 24.6655L15.0955 19.1412Z" fill="#D1EFFF"/>
<ellipse cx="7.21802" cy="12.6052" rx="1.44361" ry="1.44361" fill="#9EDDFF"/>
<ellipse cx="16.842" cy="12.6052" rx="1.44361" ry="1.44361" fill="#9EDDFF"/>
<ellipse cx="12.0295" cy="12.6052" rx="1.44361" ry="1.44361" fill="#9EDDFF"/>
</svg>
