<svg width="92" height="92" viewBox="0 0 92 92" fill="none" xmlns="http://www.w3.org/2000/svg">
<path fill-rule="evenodd" clip-rule="evenodd" d="M79.4378 9.05551L85.119 57.1189C85.2799 58.5609 84.9134 60.0123 84.0873 61.2051L68.9033 83.4822C68.4191 84.1909 67.7888 84.7878 67.0547 85.2327C66.3206 85.6776 65.4998 85.9602 64.6475 86.0615L14.7378 91.9599C14.5125 91.9858 14.2859 91.9994 14.0591 92.0007C12.5921 91.9976 11.1771 91.4572 10.0815 90.4817C8.98592 89.5061 8.28565 88.1631 8.11307 86.7063L0.0425815 18.4428C-0.0511704 17.661 0.0102393 16.8682 0.223334 16.1101C0.436429 15.352 0.797008 14.6434 1.2844 14.0249C1.7718 13.4063 2.37643 12.89 3.06368 12.5055C3.75093 12.121 4.50729 11.8759 5.28942 11.7842L72.7791 3.80867C73.5608 3.71583 74.3532 3.77791 75.111 3.99137C75.8687 4.20482 76.577 4.56549 77.1953 5.05272C77.8137 5.53996 78.33 6.14423 78.7147 6.83104C79.0995 7.51786 79.3452 8.27373 79.4378 9.05551ZM1.35456 17.8356C1.34456 17.3781 1.40241 16.9209 1.52697 16.4788C1.69251 15.8914 1.97259 15.3424 2.3511 14.8636C2.72961 14.3848 3.19906 13.9856 3.73246 13.6889C4.26585 13.3922 4.85268 13.2039 5.45912 13.1349L72.9488 5.15261C73.1335 5.13116 73.3193 5.11984 73.5053 5.11868C74.6362 5.12023 75.7275 5.53511 76.5738 6.28518C77.4202 7.03525 77.9632 8.06878 78.1006 9.19127L83.7819 57.2547C83.8402 57.7693 83.8102 58.2893 83.694 58.7923C83.805 58.2979 83.8328 57.7876 83.7756 57.2823L78.0943 9.21893C77.9569 8.09644 77.4139 7.06287 76.5676 6.3128C75.7213 5.56273 74.6299 5.14789 73.4991 5.14634C73.3131 5.1475 73.1272 5.15882 72.9425 5.18027L5.45964 13.1626C4.8532 13.2316 4.26638 13.4199 3.73298 13.7165C3.19958 14.0132 2.73014 14.4124 2.35163 14.8912C1.97312 15.3701 1.69303 15.919 1.52749 16.5065C1.40544 16.9396 1.34743 17.3874 1.35456 17.8356ZM66.4052 62.1682C66.3849 62.2526 66.3737 62.3394 66.372 62.4273L65.9919 82.7903C65.9895 83.0172 66.0521 83.2402 66.1724 83.4326C66.2889 83.619 66.4548 83.7693 66.6514 83.867C66.6599 83.8609 66.6685 83.8548 66.677 83.8487C66.4719 83.7514 66.299 83.5974 66.1787 83.405C66.0584 83.2125 65.9958 82.9896 65.9982 82.7627L66.3783 62.3997C66.3798 62.3214 66.3889 62.2439 66.4052 62.1682ZM42.0397 13.9335C41.2605 13.3516 40.328 13.0104 39.3572 12.9521C37.9972 12.9119 36.6769 13.4135 35.6866 14.3465C34.6964 15.2795 34.1172 16.5675 34.0764 17.9275C34.0768 18.9 34.3619 19.8512 34.8964 20.6637C35.431 21.4762 36.1916 22.1144 37.0846 22.4997C37.9776 22.885 38.9638 23.0006 39.9217 22.8321C40.8795 22.6636 41.7671 22.2184 42.475 21.5515C43.1828 20.8846 43.68 20.0251 43.9052 19.0789C44.1304 18.1328 44.0738 17.1415 43.7423 16.2272C43.4108 15.3128 42.8189 14.5155 42.0397 13.9335Z" fill="#8396A8"/>
<path d="M68.5236 80.9502C69.2969 80.8547 70.0341 80.5677 70.6685 80.1153C70.464 80.0174 70.2915 79.8633 70.1713 79.671C70.0511 79.4786 69.9881 79.2561 69.9897 79.0293L70.3699 58.6664C70.3751 58.3773 70.4832 58.0996 70.6748 57.8832C70.8664 57.6667 71.1289 57.5256 71.4151 57.4853L86.9114 55.3133C87.142 55.2763 87.3785 55.3094 87.5901 55.4083C87.7808 54.7987 87.841 54.1557 87.7666 53.5213L82.0854 5.45793C81.9479 4.33544 81.4049 3.30191 80.5586 2.55184C79.7122 1.80177 78.621 1.38689 77.4901 1.38534C77.3047 1.37522 77.1189 1.37522 76.9335 1.38534L9.45065 9.36083C8.84428 9.43155 8.25778 9.62118 7.72478 9.91883C7.19178 10.2165 6.7227 10.6163 6.34442 11.0955C5.96614 11.5746 5.68607 12.1237 5.52024 12.7112C5.35442 13.2988 5.30612 13.9132 5.37806 14.5195L13.4553 82.7897C13.5261 83.3954 13.7155 83.9813 14.0127 84.5138C14.3099 85.0463 14.7092 85.515 15.1876 85.8932C15.666 86.2714 16.2142 86.5517 16.801 86.718C17.3877 86.8842 18.0015 86.9332 18.6072 86.8623L68.5236 80.9502ZM43.355 9.19114C44.3258 9.24944 45.2583 9.59062 46.0375 10.1726C46.8168 10.7545 47.4086 11.5518 47.7401 12.4662C48.0716 13.3805 48.1283 14.3718 47.9031 15.318C47.6779 16.2641 47.1807 17.1236 46.4728 17.7905C45.7649 18.4575 44.8773 18.9026 43.9195 19.0711C42.9616 19.2396 41.9754 19.1241 41.0824 18.7388C40.1895 18.3534 39.4288 17.7152 38.8942 16.9027C38.3597 16.0902 38.0746 15.1391 38.0742 14.1665C38.1168 12.8072 38.6965 11.5202 39.6864 10.5875C40.6762 9.65491 41.9955 9.15275 43.355 9.19114Z" fill="#2F3235"/>
<path d="M89.1171 53.3586L83.4359 5.29521C83.2488 3.71586 82.4424 2.27538 81.1938 1.29027C79.9453 0.305168 78.3567 -0.143972 76.7772 0.0415767L9.28751 8.0578C8.50537 8.14952 7.74901 8.39465 7.06176 8.77915C6.37451 9.16364 5.76988 9.67996 5.28248 10.2985C4.79509 10.917 4.43451 11.6257 4.22141 12.3838C4.00832 13.1419 3.94687 13.9346 4.04062 14.7165L12.1112 82.9799C12.2839 84.4379 12.9851 85.7819 14.0821 86.7576C15.1791 87.7332 16.5958 88.2729 18.0639 88.2743C18.2908 88.2731 18.5174 88.2595 18.7427 88.2336L68.6523 82.3351C69.5047 82.2338 70.3255 81.9512 71.0596 81.5063C71.7936 81.0614 72.424 80.4645 72.9082 79.7558L88.0922 57.4787C88.924 56.2759 89.2884 54.8109 89.1171 53.3586ZM13.4551 82.7899L5.3846 14.5265C5.31266 13.9202 5.36096 13.3057 5.52679 12.7182C5.69261 12.1307 5.97268 11.5816 6.35097 11.1025C6.72925 10.6233 7.19832 10.2235 7.73132 9.92581C8.26433 9.62816 8.85082 9.43853 9.4572 9.36781L76.9401 1.39231C77.1255 1.38219 77.3113 1.38219 77.4967 1.39231C78.6275 1.39387 79.7188 1.80871 80.5652 2.55878C81.4115 3.30885 81.9545 4.34241 82.0919 5.46491L87.7664 53.5351C87.8407 54.1695 87.7806 54.8125 87.5899 55.4221C87.3783 55.3232 87.1418 55.2901 86.9111 55.327L71.4149 57.4991C71.1287 57.5394 70.8662 57.6805 70.6746 57.8969C70.483 58.1134 70.3749 58.3911 70.3696 58.6801L69.9895 79.0431C69.9879 79.2699 70.0509 79.4924 70.1711 79.6847C70.2913 79.8771 70.4637 80.0312 70.6683 80.1291C70.0339 80.5815 69.2966 80.8684 68.5234 80.964L18.6069 86.8624C18.0012 86.9334 17.3875 86.8844 16.8007 86.7182C16.214 86.5519 15.6658 86.2716 15.1874 85.8934C14.7089 85.5152 14.3097 85.0465 14.0125 84.514C13.7153 83.9815 13.5258 83.3956 13.4551 82.7899ZM86.7618 56.7049L71.3471 78.5748L71.7204 58.8159L86.7618 56.7049Z" fill="#8396A8"/>
<path d="M71.3672 78.5748L86.7752 56.6982L71.7405 58.8159L71.3672 78.5748Z" fill="#B9C1C6"/>
<path d="M43.355 19.1353C46.2715 19.1353 48.6358 16.9077 48.6358 14.1599C48.6358 11.4121 46.2715 9.18457 43.355 9.18457C40.4385 9.18457 38.0742 11.4121 38.0742 14.1599C38.0742 16.9077 40.4385 19.1353 43.355 19.1353Z" fill="#2F3235"/>
<path d="M66.9002 30.1572L26.1859 34.4149C24.5343 34.5876 23.3353 36.0665 23.5081 37.7182L23.6761 39.3249C23.8488 40.9766 25.3278 42.1755 26.9794 42.0028L67.6937 37.7451C69.3454 37.5724 70.5444 36.0934 70.3717 34.4417L70.2036 32.835C70.0309 31.1834 68.5519 29.9844 66.9002 30.1572Z" fill="#354A5F"/>
<path d="M53.2681 45.1587L27.3854 47.8654C26.0431 48.0058 25.0689 49.2077 25.2092 50.5499L25.4944 53.2772C25.6348 54.6194 26.8367 55.5937 28.1789 55.4534L54.0616 52.7467C55.4038 52.6063 56.3781 51.4045 56.2378 50.0622L55.9526 47.3349C55.8122 45.9927 54.6103 45.0184 53.2681 45.1587Z" fill="#354A5F"/>
<path d="M63.1822 33.8515C62.9291 33.5908 62.6263 33.3836 62.2917 33.2421C61.9571 33.1005 61.5974 33.0276 61.2341 33.0276C60.8708 33.0276 60.5112 33.1005 60.1766 33.2421C59.842 33.3836 59.5391 33.5908 59.2861 33.8515L40.2806 52.8569L33.8324 46.4086C33.5761 46.1528 33.272 45.95 32.9373 45.8117C32.6026 45.6734 32.244 45.6024 31.8819 45.6027C31.5198 45.603 31.1613 45.6746 30.8269 45.8135C30.4925 45.9524 30.1887 46.1558 29.9329 46.412C29.677 46.6683 29.4742 46.9724 29.3359 47.3071C29.1976 47.6417 29.1266 48.0004 29.127 48.3625C29.1273 48.7246 29.1989 49.0831 29.3377 49.4175C29.4766 49.7519 29.68 50.0557 29.9363 50.3115L38.3326 58.7214C38.5857 58.9821 38.8885 59.1893 39.2231 59.3309C39.5577 59.4724 39.9173 59.5453 40.2806 59.5453C40.644 59.5453 41.0036 59.4724 41.3382 59.3309C41.6728 59.1893 41.9756 58.9821 42.2287 58.7214L63.2094 37.7408C63.47 37.4877 63.6773 37.1849 63.8188 36.8503C63.9603 36.5157 64.0332 36.156 64.0332 35.7927C64.0332 35.4294 63.9603 35.0698 63.8188 34.7352C63.6773 34.4006 63.47 34.0977 63.2094 33.8447L63.1822 33.8515Z" fill="#D5DADD"/>
</svg>
