<svg width="64" height="64" viewBox="0 0 64 64" fill="none" xmlns="http://www.w3.org/2000/svg">
<g clip-path="url(#clip0_14807_160879)">
<path opacity="0.5" d="M30.9089 36.2582C40.6246 36.2582 48.5014 28.2608 48.5014 18.379C48.5014 8.49726 40.6246 0.494873 30.9089 0.494873C21.1932 0.494873 13.3164 8.49226 13.3164 18.379C13.3164 28.2658 21.1932 36.2582 30.9089 36.2582Z" fill="#EBF8FF"/>
<path d="M37.8592 2.57919L31.2852 0.494873L20.2617 33.1692L26.8407 35.2535L37.8592 2.57919Z" fill="white"/>
<path d="M29.4068 36.2581L40.6407 3.52381L38.5964 2.87402L27.3574 35.6083L29.4068 36.2581Z" fill="white"/>
<path d="M39.6688 34.3187L34.8535 36.2581L37.9301 43.8556L42.7403 41.9162L39.6688 34.3187Z" fill="#D5DADD"/>
<path d="M38.1049 43.2508C37.8603 43.3516 37.6656 43.5448 37.5633 43.7883C37.461 44.0318 37.4593 44.3057 37.5588 44.5504L44.7441 62.1996C45.0432 62.9142 45.6139 63.4816 46.3313 63.7776C47.0487 64.0736 47.8544 64.0741 48.5722 63.7791L49.1435 63.5442C49.5046 63.4005 49.8333 63.1863 50.1103 62.9142C50.3874 62.6421 50.6072 62.3176 50.7569 61.9597C51.0526 61.2424 51.0526 60.4377 50.7569 59.7204L43.5716 42.0912C43.5221 41.9687 43.4487 41.8572 43.3558 41.7632C43.2629 41.6691 43.1522 41.5944 43.0301 41.5433C42.908 41.4922 42.777 41.4657 42.6446 41.4653C42.5122 41.465 42.3811 41.4909 42.2588 41.5414L38.1049 43.2508Z" fill="#F58B00"/>
<path d="M34.6826 35.8582L35.1837 37.0528C35.1837 37.0528 37.689 38.1674 40.3347 35.8382L39.533 33.9238L37.3232 34.9935L34.6826 35.8582Z" fill="#00144A"/>
<path d="M31.0297 36.8779C26.7515 36.8884 22.6021 35.4181 19.2891 32.7179C15.9761 30.0176 13.7046 26.2546 12.862 22.0704C12.0195 17.8863 12.658 13.5401 14.6687 9.77307C16.6793 6.00603 19.9377 3.05139 23.8881 1.41297C27.8385 -0.225455 32.2363 -0.446193 36.3317 0.788393C40.427 2.02298 43.9662 4.63643 46.3458 8.18311C48.7254 11.7298 49.798 15.9901 49.3807 20.2374C48.9634 24.4848 47.0821 28.4563 44.0575 31.4747C40.6041 34.9264 35.9185 36.8698 31.0297 36.8779ZM31.0297 1.53445C27.1024 1.52757 23.2942 2.87965 20.2544 5.3602C17.2146 7.84076 15.1312 11.2962 14.3596 15.1376C13.5879 18.9789 14.1757 22.9683 16.0227 26.4257C17.8697 29.8831 20.8616 32.5945 24.4884 34.0977C28.1152 35.6008 32.1523 35.8027 35.9116 34.6689C39.6709 33.535 42.9196 31.1357 45.1039 27.8799C47.2883 24.624 48.273 20.7133 47.8904 16.8142C47.5077 12.9152 45.7812 9.26919 43.0053 6.49782C41.4345 4.92543 39.5682 3.67763 37.5132 2.82593C35.4583 1.97422 33.255 1.53535 31.0297 1.53445Z" fill="#00144A"/>
</g>
<defs>
<clipPath id="clip0_14807_160879">
<rect width="38.4785" height="64" fill="white" transform="translate(12.5)"/>
</clipPath>
</defs>
</svg>
