<svg width="320" height="240" viewBox="0 0 320 240" fill="none" xmlns="http://www.w3.org/2000/svg">
<path fill-rule="evenodd" clip-rule="evenodd" d="M257.28 68.8267C257.28 47.9356 240.344 31 219.453 31H37.8267C16.9356 31 0 47.9356 0 68.8267V68.84C0 89.7311 16.9356 106.667 37.8267 106.667H166.73C166.443 108.29 166.293 109.961 166.293 111.666C166.293 127.432 179.074 140.213 194.84 140.213H291.453C307.219 140.213 320 127.432 320 111.666C320 95.9006 307.219 83.1198 291.453 83.1198H254.492C256.289 78.7136 257.28 73.8925 257.28 68.84V68.8267ZM5.41341 162.28C5.41341 146.514 18.1942 133.733 33.9601 133.733H130.573C146.268 133.733 159.005 146.399 159.119 162.067H165.747C181.512 162.067 194.293 174.848 194.293 190.613C194.293 206.379 181.512 219.16 165.747 219.16H69.1333C53.4385 219.16 40.7021 206.494 40.5874 190.827H33.9601C18.1942 190.827 5.41341 178.046 5.41341 162.28Z" fill="#D6D6D6" fill-opacity="0.45" style="mix-blend-mode:color-burn"/>
<path fill-rule="evenodd" clip-rule="evenodd" d="M257.28 68.8267C257.28 47.9356 240.344 31 219.453 31H37.8267C16.9356 31 0 47.9356 0 68.8267V68.84C0 89.7311 16.9356 106.667 37.8267 106.667H166.73C166.443 108.29 166.293 109.961 166.293 111.666C166.293 127.432 179.074 140.213 194.84 140.213H291.453C307.219 140.213 320 127.432 320 111.666C320 95.9006 307.219 83.1198 291.453 83.1198H254.492C256.289 78.7136 257.28 73.8925 257.28 68.84V68.8267ZM5.41341 162.28C5.41341 146.514 18.1942 133.733 33.9601 133.733H130.573C146.268 133.733 159.005 146.399 159.119 162.067H165.747C181.512 162.067 194.293 174.848 194.293 190.613C194.293 206.379 181.512 219.16 165.747 219.16H69.1333C53.4385 219.16 40.7021 206.494 40.5874 190.827H33.9601C18.1942 190.827 5.41341 178.046 5.41341 162.28Z" fill="black" fill-opacity="0.08" style="mix-blend-mode:luminosity"/>
<path d="M143.428 46.0776L118.926 193.874C117.839 200.43 122.268 206.626 128.819 207.713L231.534 224.768C238.085 225.855 244.276 221.423 245.363 214.867L269.865 67.0706C270.952 60.5149 266.522 54.3189 259.972 53.2312L157.256 36.1769C150.706 35.0892 144.514 39.5219 143.428 46.0776Z" fill="#8396A8"/>
<path d="M229.242 43.1895H129.526C122.886 43.1895 117.503 48.5765 117.503 55.2217V199.053C117.503 205.698 122.886 211.085 129.526 211.085H229.242C235.882 211.085 241.265 205.698 241.265 199.053V55.2217C241.265 48.5765 235.882 43.1895 229.242 43.1895Z" fill="#2F3235"/>
<path d="M229.242 212.588H129.526C125.939 212.588 122.498 211.162 119.962 208.623C117.425 206.085 116 202.642 116 199.052V55.2209C116 51.6308 117.425 48.1878 119.962 45.6493C122.498 43.1107 125.939 41.6846 129.526 41.6846H229.242C232.829 41.6846 236.27 43.1107 238.806 45.6493C241.343 48.1878 242.768 51.6308 242.768 55.2209V199.052C242.768 202.642 241.343 206.085 238.806 208.623C236.27 211.162 232.829 212.588 229.242 212.588ZM129.526 44.6926C126.736 44.6926 124.06 45.8019 122.087 47.7763C120.114 49.7507 119.006 52.4286 119.006 55.2209V199.052C119.006 201.844 120.114 204.522 122.087 206.496C124.06 208.471 126.736 209.58 129.526 209.58H229.242C232.032 209.58 234.708 208.471 236.681 206.496C238.654 204.522 239.762 201.844 239.762 199.052V55.2209C239.762 52.4286 238.654 49.7507 236.681 47.7763C234.708 45.8019 232.032 44.6926 229.242 44.6926H129.526Z" fill="#8396A8"/>
<path d="M180 160C196.569 160 210 146.569 210 130C210 113.431 196.569 100 180 100C163.431 100 150 113.431 150 130C150 146.569 163.431 160 180 160Z" fill="#5581AE"/>
<path d="M182.711 125.75C182.698 126.034 182.744 126.317 182.848 126.582C182.952 126.847 183.11 127.088 183.313 127.289C183.516 127.49 183.758 127.647 184.026 127.75C184.293 127.853 184.579 127.899 184.866 127.886H194.646C194.932 127.899 195.217 127.853 195.484 127.75C195.751 127.647 195.992 127.49 196.194 127.289C196.396 127.087 196.552 126.846 196.654 126.581C196.756 126.316 196.801 126.033 196.786 125.75V115.9C196.801 115.617 196.756 115.334 196.654 115.069C196.552 114.804 196.396 114.563 196.194 114.362C195.992 114.16 195.751 114.003 195.484 113.9C195.217 113.797 194.932 113.751 194.646 113.764C194.36 113.751 194.074 113.797 193.806 113.9C193.539 114.003 193.296 114.16 193.094 114.361C192.891 114.562 192.733 114.803 192.629 115.068C192.525 115.333 192.478 115.616 192.491 115.9V119.461C190.888 117.675 188.923 116.245 186.724 115.263C184.525 114.281 182.142 113.77 179.731 113.764C175.205 113.768 170.865 115.552 167.664 118.726C164.464 121.899 162.664 126.202 162.66 130.689C162.664 135.177 164.464 139.48 167.664 142.653C170.865 145.826 175.205 147.611 179.731 147.615C183.61 147.597 187.37 146.283 190.403 143.885C193.436 141.488 195.567 138.147 196.45 134.402C196.507 134.112 196.506 133.815 196.445 133.526C196.385 133.237 196.267 132.963 196.098 132.72C195.943 132.491 195.742 132.297 195.508 132.148C195.274 132 195.012 131.9 194.738 131.856C194.446 131.799 194.146 131.801 193.854 131.86C193.563 131.92 193.287 132.037 193.042 132.205C192.813 132.357 192.618 132.553 192.468 132.783C192.318 133.012 192.217 133.269 192.17 133.538C191.541 136.337 189.963 138.837 187.699 140.621C185.435 142.405 182.622 143.366 179.731 143.342C176.346 143.338 173.101 142.004 170.706 139.633C168.312 137.261 166.962 134.045 166.954 130.689C166.958 127.331 168.306 124.111 170.701 121.737C173.096 119.362 176.343 118.026 179.731 118.022C181.819 118.019 183.875 118.529 185.715 119.508C187.556 120.486 189.123 121.902 190.275 123.628H184.697C184.424 123.632 184.155 123.69 183.906 123.8C183.656 123.91 183.432 124.069 183.246 124.267C183.06 124.466 182.917 124.699 182.825 124.954C182.733 125.209 182.694 125.48 182.711 125.75Z" fill="#EAECEE"/>
<path d="M312.275 59.325C311.979 58.971 311.593 58.7033 311.158 58.5501C310.723 58.3968 310.255 58.3637 309.803 58.4541L298.987 60.3248C297.198 60.6334 296.491 62.2776 296.734 63.6797C296.812 64.2571 297.075 64.7935 297.484 65.2083C297.894 65.6231 298.427 65.8939 299.003 65.98C299.283 66.0133 299.566 66.0041 299.843 65.9527L310.658 64.0819C311.134 64.0096 311.582 63.8099 311.954 63.504C312.326 63.198 312.608 62.7972 312.771 62.344C312.952 61.8402 313.002 61.2984 312.915 60.7701C312.828 60.2418 312.608 59.7444 312.275 59.325Z" fill="#A9B4BE"/>
<path d="M271.166 16.1267C270.853 16.0203 270.522 15.9802 270.193 16.0091C269.864 16.0379 269.545 16.135 269.256 16.2941C268.967 16.4532 268.714 16.6709 268.513 16.9333C268.313 17.1956 268.17 17.4969 268.092 17.8178L265.112 28.0853C265.006 28.4549 264.975 28.8418 265.02 29.2235C265.065 29.6053 265.186 29.9741 265.376 30.3086C265.565 30.6431 265.819 30.9365 266.124 31.1717C266.428 31.4069 266.776 31.5792 267.147 31.6784C267.299 31.7236 267.454 31.7563 267.612 31.7761C268.192 31.8575 268.782 31.7186 269.265 31.3868C269.748 31.055 270.089 30.5543 270.221 29.9834L273.197 19.7198C273.304 19.3505 273.335 18.9637 273.291 18.582C273.246 18.2003 273.125 17.8313 272.936 17.4967C272.747 17.1622 272.493 16.8687 272.189 16.6334C271.885 16.3982 271.537 16.2259 271.166 16.1267Z" fill="#A9B4BE"/>
<path d="M297.741 30.03C297.381 30.0066 297.021 30.0569 296.681 30.1778C296.341 30.2987 296.029 30.4876 295.765 30.733L283.798 41.6215C283.264 42.1129 282.94 42.7916 282.895 43.5158C282.85 44.24 283.087 44.9537 283.555 45.5075C283.992 46.0194 284.606 46.3483 285.274 46.4292C285.659 46.4752 286.05 46.4376 286.419 46.3189C286.789 46.2003 287.128 46.0035 287.414 45.7418L299.382 34.8533C299.919 34.3596 300.244 33.6769 300.289 32.9486C300.333 32.2203 300.093 31.5031 299.62 30.9478C299.385 30.6762 299.097 30.4549 298.774 30.2972C298.452 30.1394 298.1 30.0486 297.741 30.03Z" fill="#A9B4BE"/>
</svg>
