<svg width="320" height="240" viewBox="0 0 320 240" fill="none" xmlns="http://www.w3.org/2000/svg">
<path fill-rule="evenodd" clip-rule="evenodd" d="M257.28 68.8267C257.28 47.9356 240.344 31 219.453 31H37.8267C16.9356 31 0 47.9356 0 68.8267V68.84C0 89.7311 16.9356 106.667 37.8267 106.667H166.73C166.443 108.29 166.293 109.961 166.293 111.666C166.293 127.432 179.074 140.213 194.84 140.213H291.453C307.219 140.213 320 127.432 320 111.666C320 95.9006 307.219 83.1198 291.453 83.1198H254.492C256.289 78.7136 257.28 73.8925 257.28 68.84V68.8267ZM5.41341 162.28C5.41341 146.514 18.1942 133.733 33.9601 133.733H130.573C146.268 133.733 159.005 146.399 159.119 162.067H165.747C181.512 162.067 194.293 174.848 194.293 190.613C194.293 206.379 181.512 219.16 165.747 219.16H69.1333C53.4385 219.16 40.7021 206.494 40.5874 190.827H33.9601C18.1942 190.827 5.41341 178.046 5.41341 162.28Z" fill="#8396A8" fill-opacity="0.2"/>
<path d="M143.428 46.0776L118.926 193.874C117.839 200.43 122.268 206.626 128.819 207.714L231.534 224.768C238.085 225.856 244.276 221.423 245.363 214.867L269.865 67.0706C270.952 60.515 266.522 54.3189 259.972 53.2313L157.256 36.1769C150.706 35.0893 144.514 39.522 143.428 46.0776Z" fill="#8396A8"/>
<path d="M229.242 43.1892H129.526C122.886 43.1892 117.503 48.5762 117.503 55.2214V199.052C117.503 205.697 122.886 211.084 129.526 211.084H229.242C235.882 211.084 241.265 205.697 241.265 199.052V55.2214C241.265 48.5762 235.882 43.1892 229.242 43.1892Z" fill="#2F3235"/>
<path d="M229.242 212.588H129.526C125.939 212.588 122.498 211.162 119.962 208.624C117.425 206.085 116 202.642 116 199.052V55.2213C116 51.6313 117.425 48.1883 119.962 45.6497C122.498 43.1112 125.939 41.685 129.526 41.685H229.242C232.829 41.685 236.27 43.1112 238.806 45.6497C241.343 48.1883 242.768 51.6313 242.768 55.2213V199.052C242.768 202.642 241.343 206.085 238.806 208.624C236.27 211.162 232.829 212.588 229.242 212.588ZM129.526 44.6931C126.736 44.6931 124.06 45.8023 122.087 47.7767C120.114 49.7512 119.006 52.4291 119.006 55.2213V199.052C119.006 201.844 120.114 204.522 122.087 206.497C124.06 208.471 126.736 209.58 129.526 209.58H229.242C232.032 209.58 234.708 208.471 236.681 206.497C238.654 204.522 239.762 201.844 239.762 199.052V55.2213C239.762 52.4291 238.654 49.7512 236.681 47.7767C234.708 45.8023 232.032 44.6931 229.242 44.6931H129.526Z" fill="#8396A8"/>
<path d="M180 160C196.569 160 210 146.569 210 130C210 113.431 196.569 100 180 100C163.431 100 150 113.431 150 130C150 146.569 163.431 160 180 160Z" fill="#5581AE"/>
<path d="M182.711 125.749C182.698 126.033 182.744 126.317 182.848 126.582C182.952 126.847 183.11 127.088 183.313 127.289C183.516 127.49 183.758 127.647 184.026 127.75C184.293 127.852 184.579 127.899 184.866 127.886H194.646C194.932 127.899 195.217 127.853 195.484 127.75C195.751 127.647 195.992 127.49 196.194 127.288C196.396 127.087 196.552 126.846 196.654 126.581C196.756 126.316 196.801 126.033 196.786 125.749V115.9C196.801 115.617 196.756 115.334 196.654 115.069C196.552 114.804 196.396 114.563 196.194 114.361C195.992 114.16 195.751 114.003 195.484 113.9C195.217 113.797 194.932 113.751 194.646 113.764C194.36 113.751 194.074 113.797 193.806 113.9C193.539 114.003 193.296 114.16 193.094 114.361C192.891 114.562 192.733 114.802 192.629 115.067C192.525 115.333 192.478 115.616 192.491 115.9V119.461C190.888 117.675 188.923 116.245 186.724 115.263C184.525 114.281 182.142 113.77 179.731 113.764C175.205 113.768 170.865 115.552 167.664 118.725C164.464 121.899 162.664 126.201 162.66 130.689C162.664 135.177 164.464 139.48 167.664 142.653C170.865 145.826 175.205 147.611 179.731 147.615C183.61 147.596 187.37 146.283 190.403 143.885C193.436 141.488 195.567 138.147 196.45 134.402C196.507 134.112 196.506 133.814 196.445 133.525C196.385 133.237 196.267 132.963 196.098 132.72C195.943 132.491 195.742 132.297 195.508 132.148C195.274 132 195.012 131.9 194.738 131.856C194.446 131.799 194.146 131.8 193.854 131.86C193.563 131.92 193.287 132.037 193.042 132.204C192.813 132.357 192.618 132.553 192.468 132.782C192.318 133.012 192.217 133.269 192.17 133.538C191.541 136.336 189.963 138.837 187.699 140.621C185.435 142.405 182.622 143.365 179.731 143.342C176.346 143.338 173.101 142.004 170.706 139.632C168.312 137.261 166.962 134.045 166.954 130.689C166.958 127.331 168.306 124.111 170.701 121.736C173.096 119.361 176.343 118.026 179.731 118.022C181.819 118.018 183.875 118.529 185.715 119.507C187.556 120.486 189.123 121.902 190.275 123.628H184.697C184.424 123.632 184.155 123.69 183.906 123.8C183.656 123.91 183.432 124.069 183.246 124.267C183.06 124.465 182.917 124.699 182.825 124.954C182.733 125.209 182.694 125.479 182.711 125.749Z" fill="#EAECEE"/>
<path d="M312.275 59.3255C311.979 58.9715 311.593 58.7038 311.158 58.5505C310.723 58.3973 310.255 58.3641 309.803 58.4545L298.987 60.3253C297.198 60.6338 296.491 62.278 296.734 63.6801C296.812 64.2575 297.075 64.7939 297.484 65.2088C297.894 65.6236 298.427 65.8944 299.003 65.9804C299.283 66.0137 299.566 66.0045 299.843 65.9531L310.658 64.0824C311.134 64.01 311.582 63.8103 311.954 63.5044C312.326 63.1985 312.608 62.7977 312.771 62.3444C312.952 61.8406 313.002 61.2989 312.915 60.7705C312.828 60.2422 312.608 59.7448 312.275 59.3255Z" fill="#A9B4BE"/>
<path d="M271.166 16.1267C270.853 16.0203 270.522 15.9802 270.193 16.0091C269.864 16.0379 269.545 16.135 269.256 16.2941C268.967 16.4532 268.714 16.6709 268.513 16.9333C268.313 17.1956 268.17 17.4969 268.092 17.8178L265.112 28.0853C265.006 28.4549 264.975 28.8418 265.02 29.2235C265.065 29.6053 265.186 29.9741 265.376 30.3086C265.565 30.6431 265.819 30.9365 266.124 31.1717C266.428 31.4069 266.776 31.5792 267.147 31.6784C267.299 31.7236 267.454 31.7563 267.612 31.7761C268.192 31.8575 268.782 31.7186 269.265 31.3868C269.748 31.055 270.089 30.5543 270.221 29.9834L273.197 19.7198C273.304 19.3505 273.335 18.9637 273.291 18.582C273.246 18.2003 273.125 17.8313 272.936 17.4967C272.747 17.1622 272.493 16.8687 272.189 16.6334C271.885 16.3982 271.537 16.2259 271.166 16.1267Z" fill="#A9B4BE"/>
<path d="M297.74 30.0303C297.38 30.0069 297.02 30.0572 296.68 30.1781C296.34 30.299 296.028 30.4879 295.764 30.7333L283.797 41.6218C283.263 42.1132 282.939 42.7919 282.894 43.5161C282.849 44.2403 283.086 44.954 283.554 45.5078C283.991 46.0197 284.605 46.3486 285.273 46.4295C285.658 46.4755 286.049 46.4379 286.418 46.3192C286.788 46.2006 287.127 46.0038 287.413 45.7421L299.381 34.8536C299.918 34.3599 300.243 33.6772 300.288 32.9489C300.332 32.2206 300.092 31.5034 299.619 30.9481C299.384 30.6765 299.096 30.4552 298.773 30.2975C298.451 30.1397 298.099 30.0489 297.74 30.0303Z" fill="#A9B4BE"/>
</svg>
