<svg width="160" height="160" viewBox="0 0 160 160" fill="none" xmlns="http://www.w3.org/2000/svg">
<path d="M32.285 20.0517L15.9505 118.583C15.226 122.953 18.1789 127.084 22.5459 127.809L91.0229 139.179C95.39 139.904 99.5175 136.948 100.242 132.578L116.577 34.047C117.301 29.6766 114.348 25.5459 109.981 24.8208L41.5042 13.4512C37.1371 12.7261 33.0096 15.6812 32.285 20.0517Z" fill="#8396A8"/>
<path d="M89.4947 18.126H23.0173C18.5905 18.126 15.002 21.7174 15.002 26.1475V122.035C15.002 126.465 18.5905 130.056 23.0173 130.056H89.4947C93.9214 130.056 97.51 126.465 97.51 122.035V26.1475C97.51 21.7174 93.9214 18.126 89.4947 18.126Z" fill="#2F3235"/>
<path d="M89.4946 131.059H23.0173C20.6257 131.059 18.3322 130.108 16.6411 128.416C14.95 126.723 14 124.428 14 122.035V26.1475C14 23.7541 14.95 21.4588 16.6411 19.7664C18.3322 18.074 20.6257 17.1233 23.0173 17.1233H89.4946C91.8862 17.1233 94.1797 18.074 95.8708 19.7664C97.5619 21.4588 98.5119 23.7541 98.5119 26.1475V122.035C98.5119 124.428 97.5619 126.723 95.8708 128.416C94.1797 130.108 91.8862 131.059 89.4946 131.059ZM23.0173 19.1287C21.1572 19.1287 19.3733 19.8681 18.058 21.1844C16.7427 22.5007 16.0038 24.286 16.0038 26.1475V122.035C16.0038 123.896 16.7427 125.681 18.058 126.998C19.3733 128.314 21.1572 129.053 23.0173 129.053H89.4946C91.3547 129.053 93.1386 128.314 94.4539 126.998C95.7691 125.681 96.5081 123.896 96.5081 122.035V26.1475C96.5081 24.286 95.7691 22.5007 94.4539 21.1844C93.1386 19.8681 91.3547 19.1287 89.4946 19.1287H23.0173Z" fill="#8396A8"/>
<path d="M56.666 96C67.7117 96 76.666 87.0457 76.666 76C76.666 64.9543 67.7117 56 56.666 56C45.6203 56 36.666 64.9543 36.666 76C36.666 87.0457 45.6203 96 56.666 96Z" fill="#5581AE"/>
<path d="M58.4725 73.1663C58.4638 73.3556 58.495 73.5447 58.5641 73.7214C58.6332 73.8981 58.7388 74.0586 58.8739 74.1926C59.0091 74.3266 59.1709 74.4313 59.3491 74.4998C59.5274 74.5683 59.7181 74.5992 59.909 74.5906H66.4296C66.6201 74.5993 66.8103 74.5684 66.988 74.4998C67.1657 74.4312 67.3269 74.3264 67.4613 74.1922C67.5957 74.058 67.7003 73.8973 67.7683 73.7206C67.8362 73.5439 67.866 73.3551 67.8558 73.1663V66.6001C67.866 66.4113 67.8362 66.2224 67.7683 66.0457C67.7003 65.869 67.5957 65.7084 67.4613 65.5742C67.3269 65.44 67.1657 65.3352 66.988 65.2666C66.8103 65.198 66.6201 65.167 66.4296 65.1758C66.2386 65.1671 66.0479 65.1981 65.8697 65.2666C65.6914 65.3352 65.5296 65.4398 65.3944 65.5738C65.2593 65.7078 65.1538 65.8683 65.0846 66.045C65.0155 66.2217 64.9843 66.4108 64.993 66.6001V68.974C63.9241 67.7834 62.6139 66.8297 61.148 66.1752C59.6821 65.5207 58.0935 65.1801 56.4858 65.1758C53.4684 65.1784 50.5753 66.3681 48.4417 68.4836C46.308 70.5991 45.1082 73.4676 45.1055 76.4594C45.1082 79.4512 46.308 82.3197 48.4417 84.4353C50.5753 86.5508 53.4684 87.7404 56.4858 87.7431C59.0719 87.7309 61.5784 86.855 63.6007 85.2568C65.623 83.6585 67.043 81.4312 67.6317 78.9344C67.67 78.7414 67.6691 78.5429 67.6288 78.3503C67.5886 78.1577 67.5099 77.975 67.3974 77.8131C67.294 77.6608 67.1601 77.5311 67.0041 77.432C66.8482 77.333 66.6734 77.2667 66.4906 77.2373C66.296 77.1993 66.0957 77.2003 65.9015 77.2402C65.7073 77.2801 65.5231 77.3581 65.3597 77.4696C65.2072 77.571 65.0771 77.7021 64.9773 77.8549C64.8775 78.0078 64.8099 78.1791 64.7789 78.3585C64.3594 80.2243 63.3072 81.891 61.798 83.0805C60.2887 84.2699 58.4137 84.9102 56.4858 84.8944C54.2294 84.8918 52.0661 84.0025 50.4696 82.4215C48.8732 80.8405 47.9737 78.6966 47.9683 76.4594C47.971 74.2205 48.8693 72.074 50.466 70.4908C52.0627 68.9077 54.2277 68.017 56.4858 68.0144C57.878 68.0122 59.2488 68.3526 60.4757 69.0049C61.7026 69.6572 62.7471 70.6011 63.5156 71.752H59.797C59.615 71.7544 59.4354 71.7934 59.269 71.8666C59.1027 71.9399 58.9531 72.0458 58.8293 72.178C58.7055 72.3102 58.61 72.466 58.5487 72.6359C58.4874 72.8057 58.4614 72.9862 58.4725 73.1663Z" fill="#EAECEE"/>
<path d="M144.851 28.8837C144.653 28.6477 144.396 28.4692 144.106 28.3671C143.816 28.2649 143.504 28.2428 143.202 28.3031L135.992 29.5502C134.8 29.7559 134.328 30.8521 134.49 31.7868C134.542 32.1717 134.717 32.5293 134.99 32.8059C135.263 33.0824 135.618 33.263 136.003 33.3203C136.189 33.3425 136.378 33.3364 136.562 33.3021L143.773 32.055C144.09 32.0067 144.389 31.8736 144.637 31.6696C144.885 31.4657 145.073 31.1985 145.181 30.8963C145.302 30.5604 145.335 30.1993 145.277 29.8471C145.219 29.4948 145.073 29.1632 144.851 28.8837Z" fill="#A9B4BE"/>
<path d="M117.445 0.0844665C117.236 0.013539 117.015 -0.0131697 116.796 0.00604575C116.577 0.0252612 116.364 0.0899774 116.171 0.196065C115.978 0.302152 115.81 0.44728 115.676 0.62218C115.543 0.797081 115.447 0.997914 115.395 1.21186L113.409 8.0569C113.338 8.30325 113.317 8.56121 113.347 8.81569C113.378 9.07018 113.458 9.3161 113.585 9.53909C113.711 9.76209 113.88 9.9577 114.083 10.1145C114.286 10.2713 114.518 10.3861 114.765 10.4523C114.867 10.4824 114.97 10.5042 115.075 10.5174C115.462 10.5717 115.855 10.4791 116.177 10.2579C116.499 10.0367 116.727 9.70286 116.815 9.32228L118.799 2.47984C118.87 2.23366 118.891 1.97579 118.861 1.72131C118.831 1.46684 118.751 1.22089 118.625 0.997832C118.499 0.774779 118.329 0.579112 118.127 0.422281C117.924 0.265449 117.692 0.150604 117.445 0.0844665Z" fill="#A9B4BE"/>
<path d="M135.161 9.35348C134.921 9.33791 134.68 9.37144 134.454 9.45202C134.227 9.5326 134.02 9.65854 133.843 9.82214L125.865 17.0812C125.509 17.4087 125.293 17.8612 125.263 18.344C125.233 18.8268 125.391 19.3026 125.704 19.6718C125.995 20.0131 126.404 20.2324 126.849 20.2863C127.106 20.3169 127.367 20.2919 127.613 20.2128C127.859 20.1337 128.085 20.0025 128.276 19.828L136.255 12.569C136.613 12.2399 136.829 11.7847 136.859 11.2992C136.889 10.8137 136.729 10.3356 136.413 9.96535C136.257 9.78428 136.065 9.63674 135.85 9.53159C135.634 9.42645 135.4 9.36587 135.161 9.35348Z" fill="#A9B4BE"/>
<path d="M56.6667 160C75.8125 160 91.3333 158.209 91.3333 156C91.3333 153.791 75.8125 152 56.6667 152C37.5208 152 22 153.791 22 156C22 158.209 37.5208 160 56.6667 160Z" fill="#8396A8" fill-opacity="0.2"/>
</svg>
