<svg width="160" height="160" viewBox="0 0 160 160" fill="none" xmlns="http://www.w3.org/2000/svg">
<path d="M32.285 20.0517L15.9505 118.583C15.226 122.953 18.1789 127.084 22.5459 127.809L91.0229 139.179C95.39 139.904 99.5175 136.948 100.242 132.578L116.577 34.047C117.301 29.6766 114.348 25.5459 109.981 24.8208L41.5042 13.4512C37.1371 12.7261 33.0096 15.6812 32.285 20.0517Z" fill="#F58B00"/>
<path d="M89.4947 18.126H23.0173C18.5905 18.126 15.002 21.7174 15.002 26.1475V122.035C15.002 126.465 18.5905 130.056 23.0173 130.056H89.4947C93.9214 130.056 97.51 126.465 97.51 122.035V26.1475C97.51 21.7174 93.9214 18.126 89.4947 18.126Z" fill="white"/>
<path d="M89.4946 131.059H23.0173C20.6257 131.059 18.3322 130.108 16.6411 128.416C14.95 126.723 14 124.428 14 122.035V26.1475C14 23.7541 14.95 21.4588 16.6411 19.7664C18.3322 18.074 20.6257 17.1233 23.0173 17.1233H89.4946C91.8862 17.1233 94.1797 18.074 95.8708 19.7664C97.5619 21.4588 98.5119 23.7541 98.5119 26.1475V122.035C98.5119 124.428 97.5619 126.723 95.8708 128.416C94.1797 130.108 91.8862 131.059 89.4946 131.059ZM23.0173 19.1287C21.1572 19.1287 19.3733 19.8681 18.058 21.1844C16.7427 22.5007 16.0038 24.286 16.0038 26.1475V122.035C16.0038 123.896 16.7427 125.681 18.058 126.998C19.3733 128.314 21.1572 129.053 23.0173 129.053H89.4946C91.3547 129.053 93.1386 128.314 94.4539 126.998C95.7691 125.681 96.5081 123.896 96.5081 122.035V26.1475C96.5081 24.286 95.7691 22.5007 94.4539 21.1844C93.1386 19.8681 91.3547 19.1287 89.4946 19.1287H23.0173Z" fill="#00144A"/>
<path d="M56.667 96C67.7127 96 76.667 87.0457 76.667 76C76.667 64.9543 67.7127 56 56.667 56C45.6213 56 36.667 64.9543 36.667 76C36.667 87.0457 45.6213 96 56.667 96Z" fill="#004DA5"/>
<path d="M58.4744 73.1663C58.4657 73.3556 58.497 73.5447 58.5661 73.7214C58.6352 73.8981 58.7407 74.0586 58.8759 74.1926C59.0111 74.3266 59.1729 74.4313 59.3511 74.4998C59.5293 74.5683 59.72 74.5992 59.911 74.5906H66.4315C66.622 74.5993 66.8122 74.5684 66.9899 74.4998C67.1677 74.4312 67.3289 74.3264 67.4633 74.1922C67.5977 74.058 67.7023 73.8973 67.7702 73.7206C67.8382 73.5439 67.8679 73.3551 67.8578 73.1663V66.6001C67.8679 66.4113 67.8382 66.2224 67.7702 66.0457C67.7023 65.869 67.5977 65.7084 67.4633 65.5742C67.3289 65.44 67.1677 65.3352 66.9899 65.2666C66.8122 65.198 66.622 65.167 66.4315 65.1758C66.2406 65.1671 66.0498 65.1981 65.8716 65.2666C65.6934 65.3352 65.5316 65.4398 65.3964 65.5738C65.2612 65.7078 65.1557 65.8683 65.0866 66.045C65.0175 66.2217 64.9862 66.4108 64.9949 66.6001V68.974C63.926 67.7834 62.6159 66.8297 61.15 66.1752C59.6841 65.5207 58.0954 65.1801 56.4878 65.1758C53.4703 65.1784 50.5772 66.3681 48.4436 68.4836C46.31 70.5991 45.1101 73.4676 45.1074 76.4594C45.1101 79.4512 46.31 82.3197 48.4436 84.4353C50.5772 86.5508 53.4703 87.7404 56.4878 87.7431C59.0739 87.7309 61.5803 86.855 63.6026 85.2568C65.6249 83.6585 67.045 81.4312 67.6337 78.9344C67.672 78.7414 67.671 78.5429 67.6308 78.3503C67.5906 78.1577 67.5118 77.975 67.3994 77.8131C67.2959 77.6608 67.1621 77.5311 67.0061 77.432C66.8501 77.333 66.6754 77.2667 66.4926 77.2373C66.298 77.1993 66.0977 77.2003 65.9034 77.2402C65.7092 77.2801 65.5251 77.3581 65.3617 77.4696C65.2092 77.571 65.0791 77.7021 64.9793 77.8549C64.8794 78.0078 64.8119 78.1791 64.7809 78.3585C64.3613 80.2243 63.3092 81.891 61.7999 83.0805C60.2906 84.2699 58.4157 84.9102 56.4878 84.8944C54.2314 84.8918 52.068 84.0025 50.4716 82.4215C48.8751 80.8405 47.9756 78.6966 47.9703 76.4594C47.973 74.2205 48.8712 72.074 50.468 70.4908C52.0647 68.9077 54.2296 68.017 56.4878 68.0144C57.8799 68.0122 59.2507 68.3526 60.4776 69.0049C61.7045 69.6572 62.749 70.6011 63.5176 71.752H59.7989C59.617 71.7544 59.4373 71.7934 59.271 71.8666C59.1047 71.9399 58.9551 72.0458 58.8312 72.178C58.7074 72.3102 58.612 72.466 58.5507 72.6359C58.4893 72.8057 58.4634 72.9862 58.4744 73.1663Z" fill="white"/>
<path d="M144.85 28.8837C144.652 28.6477 144.395 28.4692 144.105 28.3671C143.815 28.2649 143.503 28.2428 143.201 28.3031L135.991 29.5502C134.799 29.7559 134.327 30.8521 134.489 31.7868C134.541 32.1717 134.717 32.5293 134.989 32.8059C135.262 33.0824 135.617 33.263 136.002 33.3203C136.188 33.3425 136.377 33.3364 136.561 33.3021L143.772 32.055C144.089 32.0067 144.388 31.8736 144.636 31.6696C144.884 31.4657 145.072 31.1985 145.18 30.8963C145.301 30.5604 145.334 30.1993 145.276 29.8471C145.218 29.4948 145.072 29.1632 144.85 28.8837Z" fill="#A9B4BE"/>
<path d="M117.444 0.0844665C117.235 0.013539 117.014 -0.0131697 116.795 0.00604575C116.576 0.0252612 116.363 0.0899774 116.17 0.196065C115.977 0.302152 115.809 0.44728 115.675 0.62218C115.542 0.797081 115.446 0.997914 115.394 1.21186L113.408 8.0569C113.337 8.30325 113.316 8.56121 113.346 8.81569C113.377 9.07018 113.457 9.3161 113.584 9.53909C113.71 9.76209 113.879 9.9577 114.082 10.1145C114.285 10.2713 114.517 10.3861 114.764 10.4523C114.866 10.4824 114.969 10.5042 115.074 10.5174C115.461 10.5717 115.854 10.4791 116.176 10.2579C116.498 10.0367 116.726 9.70286 116.814 9.32228L118.798 2.47984C118.869 2.23366 118.89 1.97579 118.86 1.72131C118.83 1.46684 118.75 1.22089 118.624 0.997832C118.498 0.774779 118.328 0.579112 118.126 0.422281C117.923 0.265449 117.691 0.150604 117.444 0.0844665Z" fill="#A9B4BE"/>
<path d="M135.161 9.35348C134.921 9.33791 134.68 9.37144 134.454 9.45202C134.227 9.5326 134.02 9.65854 133.843 9.82214L125.865 17.0812C125.509 17.4087 125.293 17.8612 125.263 18.344C125.233 18.8268 125.391 19.3026 125.704 19.6718C125.995 20.0131 126.404 20.2324 126.849 20.2863C127.106 20.3169 127.367 20.2919 127.613 20.2128C127.859 20.1337 128.085 20.0025 128.276 19.828L136.255 12.569C136.613 12.2399 136.829 11.7847 136.859 11.2992C136.889 10.8137 136.729 10.3356 136.413 9.96535C136.257 9.78428 136.065 9.63674 135.85 9.53159C135.634 9.42645 135.4 9.36587 135.161 9.35348Z" fill="#A9B4BE"/>
<path d="M56.6667 160C75.8125 160 91.3333 158.209 91.3333 156C91.3333 153.791 75.8125 152 56.6667 152C37.5208 152 22 153.791 22 156C22 158.209 37.5208 160 56.6667 160Z" fill="#D5DADD"/>
</svg>
