<svg width="49" height="50" viewBox="0 0 49 50" fill="none" xmlns="http://www.w3.org/2000/svg">
<path d="M10.8101 10.1017L5.41205 42.6632C5.17262 44.1075 6.14844 45.4725 7.59162 45.7122L30.2211 49.4694C31.6643 49.7091 33.0283 48.7325 33.2677 47.2882L38.6658 14.7268C38.9052 13.2825 37.9294 11.9174 36.4862 11.6778L13.8567 7.9205C12.4135 7.68088 11.0495 8.65745 10.8101 10.1017Z" fill="#F58B00"/>
<path d="M29.7152 9.46539H7.74648C6.28358 9.46539 5.09766 10.6522 5.09766 12.1163V43.804C5.09766 45.268 6.28358 46.4548 7.74648 46.4548H29.7152C31.1781 46.4548 32.364 45.268 32.364 43.804V12.1163C32.364 10.6522 31.1781 9.46539 29.7152 9.46539Z" fill="white"/>
<path d="M29.7152 46.7861H7.74653C6.9562 46.7861 6.19824 46.4719 5.6394 45.9127C5.08056 45.3534 4.7666 44.5948 4.7666 43.8039V12.1162C4.7666 11.3253 5.08056 10.5667 5.6394 10.0074C6.19824 9.44817 6.9562 9.13397 7.74653 9.13397H29.7152C30.5055 9.13397 31.2635 9.44817 31.8223 10.0074C32.3812 10.5667 32.6951 11.3253 32.6951 12.1162V43.8039C32.6951 44.5948 32.3812 45.3534 31.8223 45.9127C31.2635 46.4719 30.5055 46.7861 29.7152 46.7861ZM7.74653 9.79669C7.13183 9.79669 6.54231 10.0411 6.10765 10.4761C5.67299 10.911 5.42881 11.501 5.42881 12.1162V43.8039C5.42881 44.4191 5.67299 45.0091 6.10765 45.444C6.54231 45.879 7.13183 46.1234 7.74653 46.1234H29.7152C30.3299 46.1234 30.9194 45.879 31.3541 45.444C31.7887 45.0091 32.0329 44.4191 32.0329 43.8039V12.1162C32.0329 11.501 31.7887 10.911 31.3541 10.4761C30.9194 10.0411 30.3299 9.79669 29.7152 9.79669H7.74653Z" fill="#00144A"/>
<path d="M43.3329 9.8237C43.3329 14.4208 39.6063 18.1474 35.0092 18.1474C30.4122 18.1474 26.6855 14.4208 26.6855 9.8237C26.6855 5.22665 30.4122 1.5 35.0092 1.5C39.6063 1.5 43.3329 5.22665 43.3329 9.8237Z" fill="white"/>
<path fill-rule="evenodd" clip-rule="evenodd" d="M44.4432 9.82372C44.4432 15.0337 40.2197 19.2573 35.0097 19.2573C29.7997 19.2573 25.5762 15.0337 25.5762 9.82372C25.5762 4.61373 29.7997 0.390198 35.0097 0.390198C40.2197 0.390198 44.4432 4.61373 44.4432 9.82372ZM35.0097 18.1474C39.6068 18.1474 43.3334 14.4208 43.3334 9.82372C43.3334 5.22667 39.6068 1.50002 35.0097 1.50002C30.4126 1.50002 26.686 5.22667 26.686 9.82372C26.686 14.4208 30.4126 18.1474 35.0097 18.1474Z" fill="white"/>
<path d="M35.0092 1.5C33.363 1.5 31.7537 1.98818 30.3849 2.9028C29.016 3.81741 27.9492 5.11754 27.3192 6.6385C26.6892 8.15946 26.5243 9.83295 26.8455 11.4476C27.1667 13.0622 27.9594 14.5453 29.1235 15.7094C30.2876 16.8735 31.7707 17.6663 33.3854 17.9875C35 18.3086 36.6736 18.1438 38.1946 17.5138C39.7155 16.8838 41.0155 15.8169 41.9301 14.4481C42.8448 13.0792 43.3329 11.47 43.3329 9.8237C43.3329 7.61612 42.456 5.49897 40.895 3.93797C39.334 2.37698 37.2168 1.5 35.0092 1.5ZM35.0092 14.8179C34.7623 14.8179 34.5209 14.7448 34.3156 14.6076C34.1103 14.4704 33.9502 14.2753 33.8557 14.0471C33.7612 13.819 33.7365 13.5681 33.7847 13.3259C33.8329 13.0837 33.9518 12.8612 34.1264 12.6866C34.301 12.512 34.5235 12.393 34.7657 12.3448C35.0079 12.2966 35.2589 12.3214 35.4871 12.4159C35.7152 12.5104 35.9102 12.6705 36.0474 12.8758C36.1846 13.0811 36.2578 13.3224 36.2578 13.5694C36.2578 13.9005 36.1263 14.2182 35.8921 14.4523C35.658 14.6865 35.3404 14.8179 35.0092 14.8179ZM36.3244 10.573C36.2098 10.6272 36.0987 10.6884 35.9915 10.7561C35.9102 10.9886 35.7491 11.1847 35.5368 11.3096C35.3245 11.4345 35.0748 11.48 34.832 11.438C34.5893 11.3961 34.3694 11.2693 34.2113 11.0804C34.0532 10.8915 33.9673 10.6526 33.9688 10.4063C33.9688 9.45742 34.8012 9.04123 35.3588 8.74158C36.1413 8.33372 36.4659 8.10067 36.4659 7.50969C36.4659 6.9187 35.8 6.46922 35.0092 6.46922C34.2185 6.46922 33.5526 6.952 33.5526 7.50969C33.5526 7.78563 33.443 8.0504 33.2478 8.24553C33.0527 8.44065 32.7881 8.55015 32.5121 8.55015C32.2362 8.55015 31.9715 8.44065 31.7764 8.24553C31.5813 8.0504 31.4717 7.78563 31.4717 7.50969C31.5747 6.64387 31.9917 5.84597 32.6437 5.267C33.2957 4.68804 34.1373 4.36838 35.0092 4.36838C35.8812 4.36838 36.7228 4.68804 37.3748 5.267C38.0268 5.84597 38.4438 6.64387 38.5468 7.50969C38.5199 8.18257 38.2946 8.83257 37.8991 9.37764C37.5036 9.92271 36.9557 10.3386 36.3244 10.573Z" fill="#004DA5"/>
</svg>
