<svg width="48" height="50" viewBox="0 0 48 50" fill="none" xmlns="http://www.w3.org/2000/svg">
<path d="M10.3091 10.6008L4.91107 43.1622C4.67164 44.6065 5.64747 45.9716 7.09064 46.2112L29.7201 49.9685C31.1633 50.2081 32.5273 49.2315 32.7668 47.7873L38.1648 15.2258C38.4042 13.7815 37.4284 12.4165 35.9852 12.1768L13.3558 8.41955C11.9126 8.17993 10.5485 9.1565 10.3091 10.6008Z" fill="#8396A8"/>
<path d="M29.2152 9.96484H7.24648C5.78358 9.96484 4.59766 11.1517 4.59766 12.6157V44.3034C4.59766 45.7675 5.78358 46.9543 7.24648 46.9543H29.2152C30.6781 46.9543 31.864 45.7675 31.864 44.3034V12.6157C31.864 11.1517 30.6781 9.96484 29.2152 9.96484Z" fill="#2F3235"/>
<path d="M29.2152 47.2859H7.24653C6.4562 47.2859 5.69824 46.9717 5.1394 46.4125C4.58056 45.8532 4.2666 45.0947 4.2666 44.3037V12.616C4.2666 11.8251 4.58056 11.0665 5.1394 10.5073C5.69824 9.94799 6.4562 9.63379 7.24653 9.63379H29.2152C30.0055 9.63379 30.7635 9.94799 31.3223 10.5073C31.8812 11.0665 32.1951 11.8251 32.1951 12.616V44.3037C32.1951 45.0947 31.8812 45.8532 31.3223 46.4125C30.7635 46.9717 30.0055 47.2859 29.2152 47.2859ZM7.24653 10.2965C6.63183 10.2965 6.04231 10.5409 5.60765 10.9759C5.17299 11.4109 4.92881 12.0008 4.92881 12.616V44.3037C4.92881 44.9189 5.17299 45.5089 5.60765 45.9439C6.04231 46.3789 6.63183 46.6232 7.24653 46.6232H29.2152C29.8299 46.6232 30.4194 46.3789 30.8541 45.9439C31.2887 45.5089 31.5329 44.9189 31.5329 44.3037V12.616C31.5329 12.0008 31.2887 11.4109 30.8541 10.9759C30.4194 10.5409 29.8299 10.2965 29.2152 10.2965H7.24653Z" fill="#8396A8"/>
<path d="M42.8329 10.3237C42.8329 14.9208 39.1063 18.6474 34.5092 18.6474C29.9122 18.6474 26.1855 14.9208 26.1855 10.3237C26.1855 5.72665 29.9122 2 34.5092 2C39.1063 2 42.8329 5.72665 42.8329 10.3237Z" fill="#EAECEE"/>
<path fill-rule="evenodd" clip-rule="evenodd" d="M43.9432 10.3232C43.9432 15.5332 39.7197 19.7567 34.5097 19.7567C29.2997 19.7567 25.0762 15.5332 25.0762 10.3232C25.0762 5.11318 29.2997 0.889648 34.5097 0.889648C39.7197 0.889648 43.9432 5.11318 43.9432 10.3232ZM34.5097 18.6469C39.1068 18.6469 42.8334 14.9202 42.8334 10.3232C42.8334 5.72612 39.1068 1.99948 34.5097 1.99948C29.9126 1.99948 26.186 5.72612 26.186 10.3232C26.186 14.9202 29.9126 18.6469 34.5097 18.6469Z" fill="#EAECEE"/>
<path d="M34.5092 2C32.863 2 31.2537 2.48818 29.8849 3.4028C28.516 4.31741 27.4492 5.61754 26.8192 7.1385C26.1892 8.65946 26.0243 10.333 26.3455 11.9476C26.6667 13.5622 27.4594 15.0453 28.6235 16.2094C29.7876 17.3735 31.2707 18.1663 32.8854 18.4875C34.5 18.8086 36.1736 18.6438 37.6946 18.0138C39.2155 17.3838 40.5155 16.3169 41.4301 14.9481C42.3448 13.5792 42.8329 11.97 42.8329 10.3237C42.8329 8.11612 41.956 5.99897 40.395 4.43797C38.834 2.87698 36.7168 2 34.5092 2ZM34.5092 15.3179C34.2623 15.3179 34.0209 15.2448 33.8156 15.1076C33.6103 14.9704 33.4502 14.7753 33.3557 14.5471C33.2612 14.319 33.2365 14.0681 33.2847 13.8259C33.3329 13.5837 33.4518 13.3612 33.6264 13.1866C33.801 13.012 34.0235 12.893 34.2657 12.8448C34.5079 12.7966 34.7589 12.8214 34.9871 12.9159C35.2152 13.0104 35.4102 13.1705 35.5474 13.3758C35.6846 13.5811 35.7578 13.8224 35.7578 14.0694C35.7578 14.4005 35.6263 14.7182 35.3921 14.9523C35.158 15.1865 34.8404 15.3179 34.5092 15.3179ZM35.8244 11.073C35.7098 11.1272 35.5987 11.1884 35.4915 11.2561C35.4102 11.4886 35.2491 11.6847 35.0368 11.8096C34.8245 11.9345 34.5748 11.98 34.332 11.938C34.0893 11.8961 33.8694 11.7693 33.7113 11.5804C33.5532 11.3915 33.4673 11.1526 33.4688 10.9063C33.4688 9.95742 34.3012 9.54123 34.8588 9.24158C35.6413 8.83372 35.9659 8.60067 35.9659 8.00969C35.9659 7.4187 35.3 6.96922 34.5092 6.96922C33.7185 6.96922 33.0526 7.452 33.0526 8.00969C33.0526 8.28563 32.943 8.5504 32.7478 8.74553C32.5527 8.94065 32.2881 9.05015 32.0121 9.05015C31.7362 9.05015 31.4715 8.94065 31.2764 8.74553C31.0813 8.5504 30.9717 8.28563 30.9717 8.00969C31.0747 7.14387 31.4917 6.34597 32.1437 5.767C32.7957 5.18804 33.6373 4.86838 34.5092 4.86838C35.3812 4.86838 36.2228 5.18804 36.8748 5.767C37.5268 6.34597 37.9438 7.14387 38.0468 8.00969C38.0199 8.68257 37.7946 9.33257 37.3991 9.87764C37.0036 10.4227 36.4557 10.8386 35.8244 11.073Z" fill="#5581AE"/>
</svg>
