<svg width="48" height="50" viewBox="0 0 48 50" fill="none" xmlns="http://www.w3.org/2000/svg">
<path d="M10.3101 10.6017L4.91205 43.1632C4.67262 44.6075 5.64844 45.9725 7.09162 46.2122L29.7211 49.9694C31.1643 50.2091 32.5283 49.2325 32.7677 47.7882L38.1658 15.2268C38.4052 13.7825 37.4294 12.4174 35.9862 12.1778L13.3567 8.4205C11.9135 8.18088 10.5495 9.15745 10.3101 10.6017Z" fill="#8396A8"/>
<path d="M29.2171 9.96539H7.24843C5.78553 9.96539 4.59961 11.1522 4.59961 12.6163V44.304C4.59961 45.768 5.78553 46.9548 7.24843 46.9548H29.2171C30.68 46.9548 31.8659 45.768 31.8659 44.304V12.6163C31.8659 11.1522 30.68 9.96539 29.2171 9.96539Z" fill="#2F3235"/>
<path d="M29.2162 47.2861H7.24751C6.45718 47.2861 5.69922 46.9719 5.14038 46.4127C4.58153 45.8534 4.26758 45.0948 4.26758 44.3039V12.6162C4.26758 11.8253 4.58153 11.0667 5.14038 10.5074C5.69922 9.94817 6.45718 9.63397 7.24751 9.63397H29.2162C30.0065 9.63397 30.7645 9.94817 31.3233 10.5074C31.8822 11.0667 32.1961 11.8253 32.1961 12.6162V44.3039C32.1961 45.0948 31.8822 45.8534 31.3233 46.4127C30.7645 46.9719 30.0065 47.2861 29.2162 47.2861ZM7.24751 10.2967C6.63281 10.2967 6.04328 10.5411 5.60863 10.9761C5.17397 11.411 4.92978 12.001 4.92978 12.6162V44.3039C4.92978 44.9191 5.17397 45.5091 5.60863 45.944C6.04328 46.379 6.63281 46.6234 7.24751 46.6234H29.2162C29.8309 46.6234 30.4204 46.379 30.8551 45.944C31.2897 45.5091 31.5339 44.9191 31.5339 44.3039V12.6162C31.5339 12.001 31.2897 11.411 30.8551 10.9761C30.4204 10.5411 29.8309 10.2967 29.2162 10.2967H7.24751Z" fill="#8396A8"/>
<path d="M42.8329 10.3237C42.8329 14.9208 39.1063 18.6474 34.5092 18.6474C29.9122 18.6474 26.1855 14.9208 26.1855 10.3237C26.1855 5.72665 29.9122 2 34.5092 2C39.1063 2 42.8329 5.72665 42.8329 10.3237Z" fill="#EAECEE"/>
<path fill-rule="evenodd" clip-rule="evenodd" d="M43.9432 10.3237C43.9432 15.5337 39.7197 19.7573 34.5097 19.7573C29.2997 19.7573 25.0762 15.5337 25.0762 10.3237C25.0762 5.11373 29.2997 0.890198 34.5097 0.890198C39.7197 0.890198 43.9432 5.11373 43.9432 10.3237ZM34.5097 18.6474C39.1068 18.6474 42.8334 14.9208 42.8334 10.3237C42.8334 5.72667 39.1068 2.00002 34.5097 2.00002C29.9126 2.00002 26.186 5.72667 26.186 10.3237C26.186 14.9208 29.9126 18.6474 34.5097 18.6474Z" fill="#EAECEE"/>
<path d="M34.5092 2C32.863 2 31.2537 2.48818 29.8849 3.4028C28.516 4.31741 27.4492 5.61754 26.8192 7.1385C26.1892 8.65946 26.0243 10.333 26.3455 11.9476C26.6667 13.5622 27.4594 15.0453 28.6235 16.2094C29.7876 17.3735 31.2707 18.1663 32.8854 18.4875C34.5 18.8086 36.1736 18.6438 37.6946 18.0138C39.2155 17.3838 40.5155 16.3169 41.4301 14.9481C42.3448 13.5792 42.8329 11.97 42.8329 10.3237C42.8329 8.11612 41.956 5.99897 40.395 4.43797C38.834 2.87698 36.7168 2 34.5092 2ZM34.5092 15.3179C34.2623 15.3179 34.0209 15.2448 33.8156 15.1076C33.6103 14.9704 33.4502 14.7753 33.3557 14.5471C33.2612 14.319 33.2365 14.0681 33.2847 13.8259C33.3329 13.5837 33.4518 13.3612 33.6264 13.1866C33.801 13.012 34.0235 12.893 34.2657 12.8448C34.5079 12.7966 34.7589 12.8214 34.9871 12.9159C35.2152 13.0104 35.4102 13.1705 35.5474 13.3758C35.6846 13.5811 35.7578 13.8224 35.7578 14.0694C35.7578 14.4005 35.6263 14.7182 35.3921 14.9523C35.158 15.1865 34.8404 15.3179 34.5092 15.3179ZM35.8244 11.073C35.7098 11.1272 35.5987 11.1884 35.4915 11.2561C35.4102 11.4886 35.2491 11.6847 35.0368 11.8096C34.8245 11.9345 34.5748 11.98 34.332 11.938C34.0893 11.8961 33.8694 11.7693 33.7113 11.5804C33.5532 11.3915 33.4673 11.1526 33.4688 10.9063C33.4688 9.95742 34.3012 9.54123 34.8588 9.24158C35.6413 8.83372 35.9659 8.60067 35.9659 8.00969C35.9659 7.4187 35.3 6.96922 34.5092 6.96922C33.7185 6.96922 33.0526 7.452 33.0526 8.00969C33.0526 8.28563 32.943 8.5504 32.7478 8.74553C32.5527 8.94065 32.2881 9.05015 32.0121 9.05015C31.7362 9.05015 31.4715 8.94065 31.2764 8.74553C31.0813 8.5504 30.9717 8.28563 30.9717 8.00969C31.0747 7.14387 31.4917 6.34597 32.1437 5.767C32.7957 5.18804 33.6373 4.86838 34.5092 4.86838C35.3812 4.86838 36.2228 5.18804 36.8748 5.767C37.5268 6.34597 37.9438 7.14387 38.0468 8.00969C38.0199 8.68257 37.7946 9.33257 37.3991 9.87764C37.0036 10.4227 36.4557 10.8386 35.8244 11.073Z" fill="#5581AE"/>
</svg>
