<svg width="48" height="48" viewBox="0 0 48 48" fill="none" xmlns="http://www.w3.org/2000/svg">
<g clip-path="url(#clip0_18011_41148)">
<path opacity="0.5" d="M23.1826 27.1936C30.4694 27.1936 36.377 21.1955 36.377 13.7842C36.377 6.37288 30.4694 0.371094 23.1826 0.371094C15.8959 0.371094 9.98828 6.36914 9.98828 13.7842C9.98828 21.1993 15.8959 27.1936 23.1826 27.1936Z" fill="#223548"/>
<path d="M28.3934 1.93433L23.4629 0.371094L15.1953 24.8768L20.1296 26.4401L28.3934 1.93433Z" fill="#CEDBE8"/>
<path d="M22.0546 27.1936L30.4801 2.64286L28.9468 2.15552L20.5176 26.7063L22.0546 27.1936Z" fill="#CEDBE8"/>
<path d="M29.7521 25.739L26.1406 27.1935L28.448 32.8917L32.0557 31.4372L29.7521 25.739Z" fill="#B9C1C6"/>
<path d="M28.578 32.4381C28.3945 32.5137 28.2485 32.6586 28.1717 32.8412C28.095 33.0238 28.0938 33.2293 28.1684 33.4128L33.5573 46.6497C33.7817 47.1857 34.2097 47.6112 34.7478 47.8332C35.2858 48.0552 35.8901 48.0556 36.4285 47.8343L36.8569 47.6581C37.1277 47.5503 37.3742 47.3897 37.582 47.1857C37.7898 46.9816 37.9547 46.7382 38.0669 46.4698C38.2887 45.9318 38.2887 45.3283 38.0669 44.7903L32.678 31.5684C32.6408 31.4765 32.5858 31.3929 32.5161 31.3224C32.4464 31.2519 32.3634 31.1958 32.2718 31.1575C32.1803 31.1191 32.082 31.0992 31.9827 31.099C31.8835 31.0988 31.7851 31.1181 31.6934 31.156L28.578 32.4381Z" fill="#F58B00"/>
<path d="M26.0117 26.8936L26.3875 27.7896C26.3875 27.7896 28.2665 28.6256 30.2508 26.8787L29.6495 25.4429L27.9922 26.2451L26.0117 26.8936Z" fill="#5581AE"/>
<path d="M23.2723 27.6584C20.0636 27.6663 16.9516 26.5636 14.4668 24.5384C11.9821 22.5132 10.2785 19.6909 9.64653 16.5528C9.01461 13.4147 9.49348 10.1551 11.0015 7.3298C12.5095 4.50452 14.9533 2.28854 17.9161 1.05973C20.8789 -0.169092 24.1772 -0.334645 27.2487 0.591295C30.3202 1.51723 32.9746 3.47733 34.7593 6.13733C36.544 8.79734 37.3485 11.9925 37.0355 15.1781C36.7225 18.3636 35.3116 21.3422 33.0431 23.606C30.4531 26.1948 26.9388 27.6523 23.2723 27.6584ZM23.2723 1.15084C20.3268 1.14568 17.4707 2.15974 15.1908 4.02015C12.9109 5.88057 11.3484 8.47217 10.7697 11.3532C10.191 14.2342 10.6318 17.2262 12.017 19.8193C13.4023 22.4123 15.6462 24.4459 18.3663 25.5732C21.0864 26.7006 24.1142 26.852 26.9337 26.0017C29.7531 25.1513 32.1897 23.3518 33.828 20.9099C35.4662 18.468 36.2048 15.535 35.9178 12.6107C35.6307 9.68637 34.3359 6.95189 32.2539 4.87337C31.0759 3.69407 29.6761 2.75822 28.1349 2.11945C26.5937 1.48067 24.9413 1.15152 23.2723 1.15084Z" fill="#8396A8"/>
</g>
<defs>
<clipPath id="clip0_18011_41148">
<rect width="28.8589" height="48" fill="white" transform="translate(9.375)"/>
</clipPath>
</defs>
</svg>
