<svg width="49" height="49" viewBox="0 0 49 49" fill="none" xmlns="http://www.w3.org/2000/svg">
<g clip-path="url(#clip0_14807_160880)">
<path opacity="0.5" d="M23.9073 27.6936C31.194 27.6936 37.1016 21.6955 37.1016 14.2842C37.1016 6.87288 31.194 0.871094 23.9073 0.871094C16.6205 0.871094 10.7129 6.86913 10.7129 14.2842C10.7129 21.6993 16.6205 27.6936 23.9073 27.6936Z" fill="#EBF8FF"/>
<path d="M29.12 2.43433L24.1895 0.871094L15.9219 25.3768L20.8561 26.9401L29.12 2.43433Z" fill="white"/>
<path d="M22.7802 27.6936L31.2056 3.14286L29.6724 2.65552L21.2432 27.2062L22.7802 27.6936Z" fill="white"/>
<path d="M30.4767 26.239L26.8652 27.6935L29.1727 33.3917L32.7803 31.9372L30.4767 26.239Z" fill="#D5DADD"/>
<path d="M29.3036 32.9381C29.1201 33.0137 28.9741 33.1586 28.8973 33.3412C28.8206 33.5238 28.8194 33.7293 28.8939 33.9128L34.2829 47.1497C34.5073 47.6857 34.9353 48.1112 35.4734 48.3332C36.0114 48.5552 36.6157 48.5556 37.154 48.3343L37.5824 48.1581C37.8533 48.0503 38.0998 47.8897 38.3076 47.6857C38.5154 47.4816 38.6802 47.2382 38.7925 46.9698C39.0143 46.4318 39.0143 45.8283 38.7925 45.2903L33.4035 32.0684C33.3664 31.9765 33.3114 31.8929 33.2417 31.8224C33.172 31.7519 33.089 31.6958 32.9974 31.6575C32.9059 31.6191 32.8076 31.5992 32.7083 31.599C32.609 31.5988 32.5107 31.6181 32.4189 31.656L29.3036 32.9381Z" fill="#F58B00"/>
<path d="M26.7373 27.3936L27.1131 28.2896C27.1131 28.2896 28.9921 29.1256 30.9763 27.3787L30.3751 25.9429L28.7178 26.7451L26.7373 27.3936Z" fill="#00144A"/>
<path d="M23.9979 28.1584C20.7892 28.1663 17.6772 27.0636 15.1924 25.0384C12.7076 23.0132 11.004 20.1909 10.3721 17.0528C9.74019 13.9147 10.2191 10.6551 11.7271 7.8298C13.2351 5.00452 15.6788 2.78854 18.6417 1.55973C21.6045 0.330909 24.9028 0.165355 27.9743 1.09129C31.0458 2.01723 33.7002 3.97732 35.4849 6.63733C37.2696 9.29734 38.0741 12.4925 37.7611 15.6781C37.4481 18.8636 36.0371 21.8422 33.7687 24.106C31.1786 26.6948 27.6644 28.1523 23.9979 28.1584ZM23.9979 1.65084C21.0524 1.64568 18.1962 2.65974 15.9164 4.52015C13.6365 6.38057 12.074 8.97217 11.4953 11.8532C10.9165 14.7342 11.3574 17.7262 12.7426 20.3193C14.1279 22.9123 16.3718 24.9459 19.0919 26.0732C21.812 27.2006 24.8398 27.352 27.6593 26.5016C30.4787 25.6513 32.9153 23.8518 34.5535 21.4099C36.1918 18.968 36.9304 16.0349 36.6433 13.1107C36.3563 10.1864 35.0615 7.45189 32.9795 5.37337C31.8015 4.19407 30.4017 3.25822 28.8605 2.61945C27.3193 1.98067 25.6669 1.65152 23.9979 1.65084Z" fill="#00144A"/>
</g>
<defs>
<clipPath id="clip0_14807_160880">
<rect width="28.8589" height="48" fill="white" transform="translate(10.0996 0.5)"/>
</clipPath>
</defs>
</svg>
