<svg width="64" height="64" viewBox="0 0 64 64" fill="none" xmlns="http://www.w3.org/2000/svg">
<path d="M15.2919 3.41415L6.9909 53.4864C6.6227 55.7073 8.1233 57.8065 10.3426 58.175L45.1417 63.9529C47.361 64.3214 49.4585 62.8196 49.8267 60.5986L58.1277 10.5264C58.4959 8.30541 56.9953 6.20623 54.776 5.83775L19.9769 0.059883C17.7576 -0.308596 15.6601 1.19316 15.2919 3.41415Z" fill="#8396A8"/>
<path d="M44.365 2.43555H10.5821C8.33247 2.43555 6.50879 4.26063 6.50879 6.51198V55.2406C6.50879 57.492 8.33247 59.317 10.5821 59.317H44.365C46.6146 59.317 48.4383 57.492 48.4383 55.2406V6.51198C48.4383 4.26063 46.6146 2.43555 44.365 2.43555Z" fill="#2F3235"/>
<path d="M44.3654 59.8264H10.5825C9.36712 59.8264 8.20155 59.3432 7.34217 58.4832C6.48279 57.6231 6 56.4567 6 55.2404V6.51177C6 5.29549 6.48279 4.12902 7.34217 3.26899C8.20155 2.40895 9.36712 1.92578 10.5825 1.92578H44.3654C45.5807 1.92578 46.7463 2.40895 47.6057 3.26899C48.4651 4.12902 48.9478 5.29549 48.9478 6.51177V55.2404C48.9478 56.4567 48.4651 57.6231 47.6057 58.4832C46.7463 59.3432 45.5807 59.8264 44.3654 59.8264ZM10.5825 2.94489C9.63719 2.94489 8.73064 3.32068 8.06223 3.9896C7.39383 4.65852 7.01832 5.56577 7.01832 6.51177V55.2404C7.01832 56.1864 7.39383 57.0936 8.06223 57.7626C8.73064 58.4315 9.63719 58.8073 10.5825 58.8073H44.3654C45.3107 58.8073 46.2172 58.4315 46.8856 57.7626C47.554 57.0936 47.9295 56.1864 47.9295 55.2404V6.51177C47.9295 5.56577 47.554 4.65852 46.8856 3.9896C46.2172 3.32068 45.3107 2.94489 44.3654 2.94489H10.5825Z" fill="#8396A8"/>
<path d="M37.847 31.8454C37.847 37.4587 33.2965 42.0091 27.6833 42.0091C22.07 42.0091 17.5195 37.4587 17.5195 31.8454C17.5195 26.2321 22.07 21.6816 27.6833 21.6816C33.2965 21.6816 37.847 26.2321 37.847 31.8454Z" fill="#EAECEE"/>
<path d="M27.6833 21.6816C25.6731 21.6816 23.708 22.2777 22.0366 23.3945C20.3652 24.5113 19.0625 26.0989 18.2932 27.9561C17.5239 29.8132 17.3227 31.8567 17.7148 33.8283C18.107 35.7998 19.075 37.6108 20.4964 39.0322C21.9179 40.4536 23.7289 41.4217 25.7004 41.8138C27.672 42.206 29.7156 42.0047 31.5728 41.2354C33.43 40.4662 35.0173 39.1634 36.1341 37.492C37.2509 35.8206 37.847 33.8556 37.847 31.8454C37.847 29.1498 36.7762 26.5646 34.8701 24.6586C32.9641 22.7525 30.3789 21.6816 27.6833 21.6816ZM27.6833 37.9436C27.3817 37.9436 27.087 37.8543 26.8363 37.6868C26.5856 37.5193 26.3902 37.281 26.2748 37.0024C26.1594 36.7239 26.1292 36.4175 26.188 36.1218C26.2468 35.8261 26.392 35.5544 26.6053 35.3411C26.8185 35.1279 27.0901 34.9826 27.3858 34.9238C27.6816 34.865 27.9881 34.8952 28.2667 35.0106C28.5453 35.126 28.7834 35.3215 28.9509 35.5722C29.1184 35.8229 29.2078 36.1175 29.2078 36.4191C29.2078 36.8234 29.0472 37.2113 28.7613 37.4972C28.4754 37.7831 28.0876 37.9436 27.6833 37.9436ZM29.2892 32.7603C29.1493 32.8265 29.0135 32.9012 28.8826 32.9838C28.7834 33.2678 28.5866 33.5073 28.3274 33.6598C28.0682 33.8123 27.7633 33.8678 27.4669 33.8166C27.1705 33.7654 26.9019 33.6105 26.7089 33.3799C26.5159 33.1492 26.411 32.8575 26.4128 32.5568C26.4128 31.3981 27.4292 30.8899 28.1102 30.524C29.0655 30.026 29.4619 29.7415 29.4619 29.0198C29.4619 28.2982 28.6488 27.7494 27.6833 27.7494C26.7177 27.7494 25.9046 28.3389 25.9046 29.0198C25.9046 29.3568 25.7708 29.6801 25.5325 29.9183C25.2942 30.1566 24.9711 30.2903 24.6341 30.2903C24.2972 30.2903 23.9741 30.1566 23.7358 29.9183C23.4975 29.6801 23.3637 29.3568 23.3637 29.0198C23.4895 27.9626 23.9987 26.9883 24.7948 26.2814C25.5909 25.5744 26.6186 25.1841 27.6833 25.1841C28.7479 25.1841 29.7757 25.5744 30.5718 26.2814C31.3678 26.9883 31.877 27.9626 32.0029 29.0198C31.97 29.8415 31.6948 30.6352 31.2119 31.3007C30.7291 31.9663 30.06 32.4741 29.2892 32.7603Z" fill="#5581AE"/>
</svg>
