<svg width="64" height="64" viewBox="0 0 64 64" fill="none" xmlns="http://www.w3.org/2000/svg">
<path d="M15.2919 3.41421L6.9909 53.4864C6.6227 55.7074 8.1233 57.8066 10.3426 58.1751L45.1417 63.9529C47.361 64.3214 49.4585 62.8197 49.8267 60.5987L58.1277 10.5265C58.4959 8.30547 56.9953 6.20629 54.776 5.83781L19.9769 0.0599441C17.7576 -0.308535 15.6601 1.19322 15.2919 3.41421Z" fill="#8396A8"/>
<path d="M44.366 2.43561H10.5831C8.33344 2.43561 6.50977 4.26069 6.50977 6.51204V55.2407C6.50977 57.492 8.33344 59.3171 10.5831 59.3171H44.366C46.6156 59.3171 48.4393 57.492 48.4393 55.2407V6.51204C48.4393 4.26069 46.6156 2.43561 44.366 2.43561Z" fill="#2F3235"/>
<path d="M44.3654 59.8266H10.5825C9.36712 59.8266 8.20155 59.3435 7.34217 58.4834C6.48279 57.6234 6 56.4569 6 55.2406V6.51201C6 5.29573 6.48279 4.12927 7.34217 3.26923C8.20155 2.40919 9.36712 1.92603 10.5825 1.92603H44.3654C45.5807 1.92603 46.7463 2.40919 47.6057 3.26923C48.4651 4.12927 48.9478 5.29573 48.9478 6.51201V55.2406C48.9478 56.4569 48.4651 57.6234 47.6057 58.4834C46.7463 59.3435 45.5807 59.8266 44.3654 59.8266ZM10.5825 2.94513C9.63719 2.94513 8.73064 3.32092 8.06223 3.98984C7.39383 4.65876 7.01832 5.56601 7.01832 6.51201V55.2406C7.01832 56.1866 7.39383 57.0939 8.06223 57.7628C8.73064 58.4317 9.63719 58.8075 10.5825 58.8075H44.3654C45.3107 58.8075 46.2172 58.4317 46.8856 57.7628C47.554 57.0939 47.9295 56.1866 47.9295 55.2406V6.51201C47.9295 5.56601 47.554 4.65876 46.8856 3.98984C46.2172 3.32092 45.3107 2.94513 44.3654 2.94513H10.5825Z" fill="#8396A8"/>
<path d="M37.847 31.8464C37.847 37.4597 33.2965 42.0102 27.6833 42.0102C22.07 42.0102 17.5195 37.4597 17.5195 31.8464C17.5195 26.2331 22.07 21.6827 27.6833 21.6827C33.2965 21.6827 37.847 26.2331 37.847 31.8464Z" fill="#EAECEE"/>
<path d="M27.6833 21.6827C25.6731 21.6827 23.708 22.2788 22.0366 23.3956C20.3652 24.5124 19.0625 26.0999 18.2932 27.9571C17.5239 29.8143 17.3227 31.8577 17.7148 33.8293C18.107 35.8009 19.075 37.6118 20.4964 39.0332C21.9179 40.4547 23.7289 41.4227 25.7004 41.8149C27.672 42.207 29.7156 42.0057 31.5728 41.2365C33.43 40.4672 35.0173 39.1645 36.1341 37.493C37.2509 35.8216 37.847 33.8566 37.847 31.8464C37.847 29.1508 36.7762 26.5657 34.8701 24.6596C32.9641 22.7535 30.3789 21.6827 27.6833 21.6827ZM27.6833 37.9447C27.3817 37.9447 27.087 37.8554 26.8363 37.6878C26.5856 37.5203 26.3902 37.282 26.2748 37.0035C26.1594 36.7249 26.1292 36.4186 26.188 36.1228C26.2468 35.8271 26.392 35.5554 26.6053 35.3422C26.8185 35.129 27.0901 34.9836 27.3858 34.9248C27.6816 34.866 27.9881 34.8963 28.2667 35.0117C28.5453 35.1271 28.7834 35.3225 28.9509 35.5732C29.1184 35.8239 29.2078 36.1186 29.2078 36.4201C29.2078 36.8244 29.0472 37.2123 28.7613 37.4983C28.4754 37.7842 28.0876 37.9447 27.6833 37.9447ZM29.2892 32.7613C29.1493 32.8276 29.0135 32.9022 28.8826 32.9849C28.7834 33.2688 28.5866 33.5083 28.3274 33.6608C28.0682 33.8133 27.7633 33.8689 27.4669 33.8176C27.1705 33.7664 26.9019 33.6116 26.7089 33.3809C26.5159 33.1502 26.411 32.8586 26.4128 32.5578C26.4128 31.3992 27.4292 30.891 28.1102 30.5251C29.0655 30.0271 29.4619 29.7425 29.4619 29.0209C29.4619 28.2992 28.6488 27.7504 27.6833 27.7504C26.7177 27.7504 25.9046 28.3399 25.9046 29.0209C25.9046 29.3578 25.7708 29.6811 25.5325 29.9194C25.2942 30.1576 24.9711 30.2913 24.6341 30.2913C24.2972 30.2913 23.9741 30.1576 23.7358 29.9194C23.4975 29.6811 23.3637 29.3578 23.3637 29.0209C23.4895 27.9637 23.9987 26.9894 24.7948 26.2824C25.5909 25.5755 26.6186 25.1851 27.6833 25.1851C28.7479 25.1851 29.7757 25.5755 30.5718 26.2824C31.3678 26.9894 31.877 27.9637 32.0029 29.0209C31.97 29.8425 31.6948 30.6362 31.2119 31.3018C30.7291 31.9673 30.06 32.4752 29.2892 32.7613Z" fill="#5581AE"/>
</svg>
