<svg width="320" height="240" viewBox="0 0 320 240" fill="none" xmlns="http://www.w3.org/2000/svg">
<path fill-rule="evenodd" clip-rule="evenodd" d="M257.28 49.8267C257.28 28.9356 240.344 12 219.453 12H37.8267C16.9356 12 0 28.9356 0 49.8267V49.84C0 70.7311 16.9356 87.6667 37.8267 87.6667H166.73C166.443 89.2901 166.293 90.9608 166.293 92.6665C166.293 108.432 179.074 121.213 194.84 121.213H291.453C307.219 121.213 320 108.432 320 92.6665C320 76.9006 307.219 64.1198 291.453 64.1198H254.492C256.289 59.7136 257.28 54.8925 257.28 49.84V49.8267ZM5.41341 143.28C5.41341 127.514 18.1942 114.733 33.9601 114.733H130.573C146.268 114.733 159.005 127.399 159.119 143.067H165.747C181.512 143.067 194.293 155.848 194.293 171.613C194.293 187.379 181.512 200.16 165.747 200.16H69.1333C53.4385 200.16 40.702 187.494 40.5874 171.827H33.9601C18.1942 171.827 5.41341 159.046 5.41341 143.28Z" fill="#8396A8" fill-opacity="0.2"/>
<g clip-path="url(#clip0_18011_40603)">
<path opacity="0.5" d="M143.849 135.126C176.841 135.126 203.59 107.969 203.59 74.4118C203.59 40.8549 176.841 13.6802 143.849 13.6802C110.856 13.6802 84.1074 40.838 84.1074 74.4118C84.1074 107.986 110.856 135.126 143.849 135.126Z" fill="#223548"/>
<path d="M167.449 20.7582L145.124 13.6802L107.69 124.637L130.032 131.715L167.449 20.7582Z" fill="#CEDBE8"/>
<path d="M138.743 135.126L176.892 23.9662L169.95 21.7596L131.784 132.92L138.743 135.126Z" fill="#CEDBE8"/>
<path d="M173.592 128.541L157.24 135.126L167.688 160.926L184.023 154.341L173.592 128.541Z" fill="#B9C1C6"/>
<path d="M168.284 158.873C167.453 159.215 166.792 159.871 166.444 160.698C166.097 161.525 166.091 162.455 166.429 163.286L190.829 223.219C191.845 225.646 193.783 227.573 196.219 228.578C198.655 229.583 201.391 229.585 203.829 228.583L205.769 227.785C206.995 227.297 208.111 226.57 209.052 225.646C209.993 224.722 210.739 223.62 211.248 222.405C212.252 219.969 212.252 217.236 211.248 214.801L186.848 154.935C186.679 154.519 186.43 154.14 186.115 153.821C185.799 153.501 185.423 153.248 185.009 153.074C184.594 152.9 184.149 152.81 183.7 152.809C183.25 152.808 182.805 152.896 182.389 153.068L168.284 158.873Z" fill="#F58B00"/>
<path d="M156.66 133.769L158.362 137.825C158.362 137.825 166.869 141.61 175.854 133.701L173.131 127.2L165.627 130.832L156.66 133.769Z" fill="#5581AE"/>
<path d="M144.257 137.231C129.729 137.267 115.638 132.274 104.388 123.104C93.1372 113.935 85.4237 101.156 82.5625 86.9474C79.7012 72.7388 81.8695 57.9799 88.6974 45.1877C95.5253 32.3955 106.59 22.362 120.005 16.7982C133.42 11.2344 148.354 10.4848 162.261 14.6772C176.168 18.8697 188.187 27.7446 196.268 39.7885C204.348 51.8324 207.991 66.2995 206.574 80.723C205.157 95.1464 198.768 108.633 188.497 118.883C176.77 130.604 160.858 137.204 144.257 137.231ZM144.257 17.2107C130.92 17.1874 117.988 21.7788 107.666 30.2024C97.3428 38.6259 90.2683 50.3601 87.6479 63.4046C85.0275 76.4492 87.0235 89.9965 93.2956 101.737C99.5677 113.478 109.728 122.685 122.044 127.79C134.36 132.894 148.069 133.58 160.835 129.73C173.601 125.879 184.633 117.732 192.051 106.675C199.468 95.6191 202.812 82.3388 201.513 69.0982C200.213 55.8577 194.35 43.4766 184.924 34.0655C179.59 28.7259 173.252 24.4886 166.274 21.5964C159.295 18.7041 151.814 17.2138 144.257 17.2107Z" fill="#8396A8"/>
</g>
<defs>
<clipPath id="clip0_18011_40603">
<rect width="130.667" height="217.333" fill="white" transform="translate(81.333 12)"/>
</clipPath>
</defs>
</svg>
