<svg width="112" height="112" viewBox="0 0 112 112" fill="none" xmlns="http://www.w3.org/2000/svg">
<g clip-path="url(#clip0_14807_160878)">
<path opacity="0.5" d="M54.0915 63.4518C71.094 63.4518 84.8784 49.4564 84.8784 32.1632C84.8784 14.8701 71.094 0.865967 54.0915 0.865967C37.0891 0.865967 23.3047 14.8614 23.3047 32.1632C23.3047 49.4651 37.0891 63.4518 54.0915 63.4518Z" fill="#EBF8FF"/>
<path d="M66.2536 4.51352L54.7491 0.865967L35.458 58.046L46.9713 61.6936L66.2536 4.51352Z" fill="white"/>
<path d="M51.4614 63.4517L71.1208 6.16667L67.5432 5.02954L47.875 62.3146L51.4614 63.4517Z" fill="white"/>
<path d="M69.4199 60.0577L60.9932 63.4516L66.3771 76.7473L74.7951 73.3534L69.4199 60.0577Z" fill="#D5DADD"/>
<path d="M66.6839 75.6889C66.2558 75.8653 65.9151 76.2034 65.736 76.6295C65.5569 77.0556 65.5541 77.535 65.7281 77.9632L78.3024 108.849C78.8259 110.1 79.8246 111.093 81.0801 111.611C82.3355 112.129 83.7455 112.13 85.0017 111.613L86.0013 111.202C86.6332 110.951 87.2085 110.576 87.6933 110.1C88.1781 109.624 88.5628 109.056 88.8248 108.429C89.3423 107.174 89.3423 105.766 88.8248 104.511L76.2505 73.6596C76.1639 73.4453 76.0355 73.2501 75.8729 73.0856C75.7102 72.921 75.5165 72.7902 75.3029 72.7007C75.0893 72.6113 74.86 72.5649 74.6284 72.5643C74.3967 72.5638 74.1672 72.609 73.9531 72.6974L66.6839 75.6889Z" fill="#F58B00"/>
<path d="M60.6943 62.7518L61.5712 64.8424C61.5712 64.8424 65.9555 66.793 70.5854 62.7169L69.1824 59.3667L65.3154 61.2386L60.6943 62.7518Z" fill="#00144A"/>
<path d="M54.3021 64.5363C46.8151 64.5547 39.5537 61.9817 33.7559 57.2563C27.9581 52.5308 23.9831 45.9455 22.5086 38.6232C21.0341 31.301 22.1515 23.6952 25.6701 17.1029C29.1888 10.5106 34.8909 5.33993 41.8042 2.47269C48.7174 -0.394547 56.4136 -0.780838 63.5804 1.37969C70.7472 3.54021 76.9408 8.11376 81.1051 14.3204C85.2694 20.5271 87.1464 27.9826 86.4162 35.4155C85.6859 42.8484 82.3936 49.7985 77.1006 55.0807C71.0571 61.1212 62.8573 64.5221 54.3021 64.5363ZM54.3021 2.68529C47.4292 2.67325 40.7649 5.03938 35.4452 9.38035C30.1255 13.7213 26.4797 19.7684 25.1293 26.4907C23.7789 33.2131 24.8075 40.1945 28.0398 46.245C31.272 52.2955 36.5079 57.0404 42.8547 59.6709C49.2016 62.3014 56.2665 62.6547 62.8453 60.6705C69.424 58.6863 75.1093 54.4875 78.9319 48.7898C82.7545 43.0921 84.4778 36.2482 83.8081 29.4249C83.1384 22.6015 80.1171 16.2211 75.2592 11.3712C72.5104 8.6195 69.2443 6.43585 65.6481 4.94537C62.0519 3.45489 58.1963 2.68687 54.3021 2.68529Z" fill="#00144A"/>
</g>
<defs>
<clipPath id="clip0_14807_160878">
<rect width="67.3374" height="112" fill="white" transform="translate(21.875)"/>
</clipPath>
</defs>
</svg>
