<svg width="92" height="93" viewBox="0 0 92 93" fill="none" xmlns="http://www.w3.org/2000/svg">
<path d="M49.3302 3.59375C47.7145 3.59375 46.165 4.23562 45.0226 5.37816C43.8801 6.52069 43.2383 8.0703 43.2383 9.68608V18.1341H55.4222V9.69286C55.4231 8.89223 55.2662 8.09927 54.9604 7.35934C54.6547 6.6194 54.206 5.947 53.6403 5.38056C53.0745 4.81411 52.4026 4.36474 51.6631 4.05815C50.9235 3.75155 50.1308 3.59375 49.3302 3.59375Z" fill="#CC7400"/>
<path d="M81.1171 43.8708V71.3946H17.1113V43.8708C17.1113 35.3825 20.483 27.2419 26.4847 21.2398C32.4864 15.2377 40.6265 11.8657 49.1142 11.8657C57.6019 11.8657 65.742 15.2377 71.7437 21.2398C77.7454 27.2419 81.1171 35.3825 81.1171 43.8708Z" fill="#F58B00"/>
<path d="M49.3305 90.2402C53.6594 90.2402 57.1687 86.7307 57.1687 82.4014C57.1687 78.0722 53.6594 74.5627 49.3305 74.5627C45.0015 74.5627 41.4922 78.0722 41.4922 82.4014C41.4922 86.7307 45.0015 90.2402 49.3305 90.2402Z" fill="#F58B00"/>
<path d="M88.2983 74.5625C86.3759 74.1632 81.1166 71.3945 81.1166 71.3945H17.1108C17.1108 71.3945 11.8514 74.1632 9.92908 74.5625C8.00674 74.9619 6.22656 76.221 6.22656 78.2653C6.22656 79.2474 6.61664 80.1892 7.311 80.8836C8.00536 81.578 8.9471 81.9681 9.92908 81.9681H88.2983C89.2803 81.9681 90.222 81.578 90.9164 80.8836C91.6107 80.1892 92.0008 79.2474 92.0008 78.2653C92.0211 76.221 90.2951 74.989 88.2983 74.5625Z" fill="#CC7400"/>
<path opacity="0.5" d="M45.9746 11.8251C38.0596 12.6147 30.7185 16.3315 25.3755 22.2546C20.0325 28.1776 17.0685 35.8845 17.0586 43.8801V71.6112H76.8447V44.037C76.8435 35.6965 73.6268 27.681 67.8704 21.6743C62.1139 15.6677 54.2658 12.1374 45.9746 11.8251Z" fill="#CC7400"/>
<rect y="7.74414" width="34.5865" height="20.7519" rx="6" fill="#5B738B"/>
<path d="M24.7952 31.086C23.2131 29.2605 24.5098 26.4208 26.9254 26.4208C28.4823 26.4208 29.7444 27.6829 29.7444 29.2398C29.7444 31.8493 26.5042 33.058 24.7952 31.086Z" fill="#5B738B"/>
<ellipse cx="10.376" cy="18.12" rx="2.07519" ry="2.07519" fill="#A9B4BE"/>
<ellipse cx="24.21" cy="18.12" rx="2.07519" ry="2.07519" fill="#A9B4BE"/>
<ellipse cx="17.2939" cy="18.12" rx="2.07519" ry="2.07519" fill="#A9B4BE"/>
</svg>
