<svg width="92" height="93" viewBox="0 0 92 93" fill="none" xmlns="http://www.w3.org/2000/svg">
<path d="M49.3292 3.59375C47.7136 3.59375 46.1641 4.23562 45.0216 5.37816C43.8791 6.52069 43.2373 8.0703 43.2373 9.68608V18.1341H55.4212V9.69286C55.4221 8.89223 55.2652 8.09927 54.9594 7.35934C54.6537 6.6194 54.2051 5.947 53.6393 5.38056C53.0735 4.81411 52.4017 4.36474 51.6621 4.05815C50.9226 3.75155 50.1298 3.59375 49.3292 3.59375Z" fill="#CC7400"/>
<path d="M81.1161 43.8708V71.3946H17.1104V43.8708C17.1104 35.3825 20.4821 27.2419 26.4838 21.2398C32.4855 15.2377 40.6255 11.8657 49.1132 11.8657C57.6009 11.8657 65.741 15.2377 71.7427 21.2398C77.7444 27.2419 81.1161 35.3825 81.1161 43.8708Z" fill="#F58B00"/>
<path d="M49.3295 90.2402C53.6584 90.2402 57.1678 86.7307 57.1678 82.4014C57.1678 78.0722 53.6584 74.5627 49.3295 74.5627C45.0005 74.5627 41.4912 78.0722 41.4912 82.4014C41.4912 86.7307 45.0005 90.2402 49.3295 90.2402Z" fill="#F58B00"/>
<path d="M88.2973 74.5625C86.375 74.1632 81.1156 71.3945 81.1156 71.3945H17.1098C17.1098 71.3945 11.8504 74.1632 9.9281 74.5625C8.00576 74.9619 6.22559 76.221 6.22559 78.2653C6.22559 79.2474 6.61566 80.1892 7.31002 80.8836C8.00438 81.578 8.94613 81.9681 9.9281 81.9681H88.2973C89.2793 81.9681 90.221 81.578 90.9154 80.8836C91.6097 80.1892 91.9998 79.2474 91.9998 78.2653C92.0201 76.221 90.2941 74.989 88.2973 74.5625Z" fill="#CC7400"/>
<path opacity="0.5" d="M45.9727 11.8251C38.0577 12.6147 30.7165 16.3315 25.3735 22.2546C20.0305 28.1776 17.0665 35.8845 17.0566 43.8801V71.6112H76.8427V44.037C76.8415 35.6965 73.6248 27.681 67.8684 21.6743C62.112 15.6677 54.2639 12.1374 45.9727 11.8251Z" fill="#CC7400"/>
<rect y="7.74414" width="34.5865" height="20.7519" rx="3.9688" fill="#D1EFFF"/>
<path d="M21.7007 27.5155C21.3294 27.0871 21.6337 26.4208 22.2005 26.4208H29.083C29.4483 26.4208 29.7444 26.7169 29.7444 27.0822V35.0235C29.7444 35.6358 28.9841 35.9194 28.5831 35.4567L21.7007 27.5155Z" fill="#D1EFFF"/>
<ellipse cx="10.376" cy="18.12" rx="2.07519" ry="2.07519" fill="#9EDDFF"/>
<ellipse cx="24.21" cy="18.12" rx="2.07519" ry="2.07519" fill="#9EDDFF"/>
<ellipse cx="17.293" cy="18.12" rx="2.07519" ry="2.07519" fill="#9EDDFF"/>
</svg>
