<svg width="49" height="49" viewBox="0 0 49 49" fill="none" xmlns="http://www.w3.org/2000/svg">
<g clip-path="url(#clip0_14807_161060)">
<path d="M25.675 8.0916L21.3609 6.72034L14.127 28.2166L18.4443 29.5879L25.675 8.0916Z" fill="white"/>
<path d="M20.1281 30.2487L27.5002 8.71302L26.1586 8.28552L18.7832 29.8212L20.1281 30.2487Z" fill="white"/>
<path d="M26.8621 28.9729L23.7021 30.2488L25.7211 35.2472L28.8777 33.9713L26.8621 28.9729Z" fill="#D5DADD"/>
<path d="M25.8353 34.8492C25.6748 34.9155 25.547 35.0426 25.4799 35.2028C25.4127 35.363 25.4116 35.5432 25.4769 35.7042L30.1921 47.3155C30.3885 47.7857 30.763 48.159 31.2337 48.3537C31.7045 48.5484 32.2333 48.5488 32.7043 48.3547L33.0792 48.2001C33.3161 48.1056 33.5318 47.9647 33.7136 47.7857C33.8955 47.6067 34.0397 47.3932 34.138 47.1577C34.332 46.6858 34.332 46.1564 34.138 45.6845L29.4227 34.0863C29.3902 34.0057 29.3421 33.9324 29.2811 33.8705C29.2201 33.8086 29.1475 33.7595 29.0674 33.7258C28.9873 33.6922 28.9013 33.6748 28.8144 33.6746C28.7275 33.6743 28.6415 33.6914 28.5612 33.7246L25.8353 34.8492Z" fill="#F58B00"/>
<path d="M23.5908 29.9857L23.9196 30.7717C23.9196 30.7717 25.5637 31.505 27.2999 29.9726L26.7738 28.7131L25.3237 29.4168L23.5908 29.9857Z" fill="#00144A"/>
<path d="M21.1931 30.6566C18.3855 30.6634 15.6625 29.6962 13.4884 27.9197C11.3143 26.1432 9.82371 23.6675 9.27079 20.9148C8.71787 18.1621 9.13687 15.3027 10.4563 12.8244C11.7758 10.3461 13.9141 8.40227 16.5065 7.32436C19.0988 6.24645 21.9849 6.10123 24.6723 6.91345C27.3598 7.72568 29.6824 9.44506 31.244 11.7784C32.8055 14.1117 33.5094 16.9145 33.2356 19.7089C32.9617 22.5032 31.7271 25.116 29.7423 27.1018C27.4761 29.3727 24.4012 30.6512 21.1931 30.6566ZM21.1931 7.40428C18.6158 7.39976 16.1167 8.28928 14.1219 9.92122C12.1271 11.5532 10.7599 13.8265 10.2535 16.3537C9.74715 18.8809 10.1329 21.5055 11.3449 23.7801C12.557 26.0547 14.5204 27.8385 16.9004 28.8274C19.2804 29.8164 21.9297 29.9492 24.3967 29.2032C26.8637 28.4573 28.9956 26.8788 30.429 24.7368C31.8625 22.5948 32.5087 20.0219 32.2576 17.4568C32.0064 14.8916 30.8735 12.4929 29.0518 10.6697C28.021 9.63519 26.7963 8.81427 25.4477 8.25394C24.0992 7.69361 22.6534 7.40488 21.1931 7.40428Z" fill="#00144A"/>
</g>
<path d="M39.3486 8.5C39.3486 12.9183 35.7669 16.5 31.3486 16.5C26.9304 16.5 23.3486 12.9183 23.3486 8.5C23.3486 4.08172 26.9304 0.5 31.3486 0.5C35.7669 0.5 39.3486 4.08172 39.3486 8.5Z" fill="white"/>
<path d="M31.3486 0.5C29.7664 0.5 28.2197 0.969191 26.9041 1.84824C25.5885 2.72729 24.5631 3.97686 23.9576 5.43867C23.3521 6.90048 23.1937 8.5089 23.5024 10.0607C23.811 11.6126 24.573 13.038 25.6918 14.1568C26.8106 15.2757 28.2361 16.0376 29.7879 16.3463C31.3398 16.655 32.9483 16.4965 34.4101 15.891C35.8719 15.2855 37.1213 14.2601 38.0004 12.9445C38.8794 11.6289 39.3486 10.0823 39.3486 8.5C39.3486 6.37827 38.5058 4.34346 37.0055 2.84316C35.5052 1.34287 33.4704 0.5 31.3486 0.5ZM31.3486 13.3C31.1113 13.3 30.8793 13.2297 30.682 13.0979C30.4846 12.966 30.3308 12.7785 30.24 12.5592C30.1492 12.3399 30.1254 12.0988 30.1717 11.866C30.218 11.6332 30.3323 11.4194 30.5001 11.2516C30.6679 11.0837 30.8818 10.9694 31.1145 10.9231C31.3473 10.8767 31.5886 10.9006 31.8079 10.9914C32.0271 11.0822 32.2146 11.2361 32.3464 11.4334C32.4783 11.6307 32.5486 11.8627 32.5486 12.1C32.5486 12.4183 32.4222 12.7236 32.1972 12.9486C31.9721 13.1737 31.6669 13.3 31.3486 13.3ZM32.6126 9.22012C32.5025 9.27229 32.3957 9.33104 32.2927 9.3961C32.2146 9.61958 32.0597 9.8081 31.8556 9.92813C31.6516 10.0482 31.4116 10.0919 31.1783 10.0516C30.945 10.0112 30.7336 9.88937 30.5817 9.70782C30.4298 9.52626 30.3472 9.29669 30.3486 9.05996C30.3486 8.14796 31.1486 7.74796 31.6846 7.45996C32.4366 7.06796 32.7486 6.84398 32.7486 6.27598C32.7486 5.70798 32.1086 5.27598 31.3486 5.27598C30.5886 5.27598 29.9486 5.73998 29.9486 6.27598C29.9486 6.5412 29.8433 6.79567 29.6557 6.98321C29.4682 7.17074 29.2138 7.27598 28.9486 7.27598C28.6834 7.27598 28.4291 7.17074 28.2415 6.98321C28.054 6.79567 27.9486 6.5412 27.9486 6.27598C28.0477 5.44383 28.4485 4.67696 29.0751 4.12051C29.7017 3.56406 30.5106 3.25684 31.3486 3.25684C32.1867 3.25684 32.9956 3.56406 33.6222 4.12051C34.2488 4.67696 34.6496 5.44383 34.7486 6.27598C34.7228 6.92269 34.5062 7.54742 34.1261 8.07129C33.746 8.59516 33.2194 8.99489 32.6126 9.22012Z" fill="#004DA5"/>
<defs>
<clipPath id="clip0_14807_161060">
<rect width="25.2509" height="42.1053" fill="white" transform="translate(9.0332 6.39478)"/>
</clipPath>
</defs>
</svg>
