<svg width="49" height="49" viewBox="0 0 49 49" fill="none" xmlns="http://www.w3.org/2000/svg">
<g clip-path="url(#clip0_18011_39894)">
<path opacity="0.5" d="M21.1151 30.2488C27.4909 30.2488 32.6599 24.9874 32.6599 18.4862C32.6599 11.9851 27.4909 6.72034 21.1151 6.72034C14.7393 6.72034 9.57031 11.9818 9.57031 18.4862C9.57031 24.9907 14.7393 30.2488 21.1151 30.2488Z" fill="#223548"/>
<path d="M25.675 8.0916L21.3609 6.72034L14.127 28.2166L18.4443 29.5879L25.675 8.0916Z" fill="#CEDBE8"/>
<path d="M20.1281 30.2487L27.5002 8.71302L26.1586 8.28552L18.7832 29.8212L20.1281 30.2487Z" fill="#CEDBE8"/>
<path d="M26.8611 28.9729L23.7012 30.2488L25.7201 35.2472L28.8768 33.9713L26.8611 28.9729Z" fill="#B9C1C6"/>
<path d="M25.8363 34.8492C25.6758 34.9155 25.548 35.0426 25.4808 35.2028C25.4137 35.363 25.4126 35.5432 25.4779 35.7042L30.1931 47.3155C30.3894 47.7857 30.7639 48.159 31.2347 48.3537C31.7055 48.5484 32.2342 48.5488 32.7053 48.3547L33.0801 48.2001C33.3171 48.1056 33.5328 47.9647 33.7146 47.7857C33.8964 47.6067 34.0407 47.3932 34.1389 47.1577C34.333 46.6858 34.333 46.1564 34.1389 45.6845L29.4237 34.0863C29.3912 34.0057 29.3431 33.9324 29.2821 33.8705C29.2211 33.8086 29.1484 33.7595 29.0683 33.7258C28.9882 33.6922 28.9023 33.6748 28.8154 33.6746C28.7285 33.6743 28.6424 33.6914 28.5622 33.7246L25.8363 34.8492Z" fill="#F58B00"/>
<path d="M23.5898 29.9857L23.9187 30.7717C23.9187 30.7717 25.5628 31.505 27.2989 29.9726L26.7728 28.7131L25.3227 29.4168L23.5898 29.9857Z" fill="#5581AE"/>
<path d="M21.1931 30.6566C18.3855 30.6634 15.6625 29.6962 13.4884 27.9197C11.3143 26.1432 9.82371 23.6675 9.27079 20.9148C8.71787 18.1621 9.13687 15.3027 10.4563 12.8244C11.7758 10.3461 13.9141 8.40227 16.5065 7.32436C19.0988 6.24645 21.9849 6.10123 24.6723 6.91345C27.3598 7.72568 29.6824 9.44506 31.244 11.7784C32.8055 14.1117 33.5094 16.9145 33.2356 19.7089C32.9617 22.5032 31.7271 25.116 29.7423 27.1018C27.4761 29.3727 24.4012 30.6512 21.1931 30.6566ZM21.1931 7.40428C18.6158 7.39976 16.1167 8.28928 14.1219 9.92122C12.1271 11.5532 10.7599 13.8265 10.2535 16.3537C9.74715 18.8809 10.1329 21.5055 11.3449 23.7801C12.557 26.0547 14.5204 27.8385 16.9004 28.8274C19.2804 29.8164 21.9297 29.9492 24.3967 29.2032C26.8637 28.4573 28.9956 26.8788 30.429 24.7368C31.8625 22.5948 32.5087 20.0219 32.2576 17.4568C32.0064 14.8916 30.8735 12.4929 29.0518 10.6697C28.021 9.63519 26.7963 8.81427 25.4477 8.25394C24.0992 7.69361 22.6534 7.40488 21.1931 7.40428Z" fill="#8396A8"/>
</g>
<path d="M39.3496 8.5C39.3496 12.9183 35.7679 16.5 31.3496 16.5C26.9313 16.5 23.3496 12.9183 23.3496 8.5C23.3496 4.08172 26.9313 0.5 31.3496 0.5C35.7679 0.5 39.3496 4.08172 39.3496 8.5Z" fill="#EAECEE"/>
<path d="M31.3496 0.5C29.7674 0.5 28.2206 0.969191 26.9051 1.84824C25.5895 2.72729 24.5641 3.97686 23.9586 5.43867C23.3531 6.90048 23.1946 8.5089 23.5033 10.0607C23.812 11.6126 24.5739 13.038 25.6928 14.1568C26.8116 15.2757 28.237 16.0376 29.7889 16.3463C31.3407 16.655 32.9493 16.4965 34.4111 15.891C35.8729 15.2855 37.1223 14.2601 38.0014 12.9445C38.8804 11.6289 39.3496 10.0823 39.3496 8.5C39.3496 6.37827 38.5068 4.34346 37.0065 2.84316C35.5062 1.34287 33.4713 0.5 31.3496 0.5ZM31.3496 13.3C31.1123 13.3 30.8803 13.2297 30.6829 13.0979C30.4856 12.966 30.3318 12.7785 30.241 12.5592C30.1501 12.3399 30.1264 12.0988 30.1727 11.866C30.219 11.6332 30.3333 11.4194 30.5011 11.2516C30.6689 11.0837 30.8827 10.9694 31.1155 10.9231C31.3483 10.8767 31.5896 10.9006 31.8088 10.9914C32.0281 11.0822 32.2155 11.2361 32.3474 11.4334C32.4792 11.6307 32.5496 11.8627 32.5496 12.1C32.5496 12.4183 32.4232 12.7236 32.1981 12.9486C31.9731 13.1737 31.6679 13.3 31.3496 13.3ZM32.6136 9.22012C32.5035 9.27229 32.3967 9.33104 32.2936 9.3961C32.2155 9.61958 32.0607 9.8081 31.8566 9.92813C31.6526 10.0482 31.4126 10.0919 31.1793 10.0516C30.946 10.0112 30.7346 9.88937 30.5827 9.70782C30.4308 9.52626 30.3482 9.29669 30.3496 9.05996C30.3496 8.14796 31.1496 7.74796 31.6856 7.45996C32.4376 7.06796 32.7496 6.84398 32.7496 6.27598C32.7496 5.70798 32.1096 5.27598 31.3496 5.27598C30.5896 5.27598 29.9496 5.73998 29.9496 6.27598C29.9496 6.5412 29.8443 6.79567 29.6567 6.98321C29.4692 7.17074 29.2148 7.27598 28.9496 7.27598C28.6844 7.27598 28.43 7.17074 28.2425 6.98321C28.055 6.79567 27.9496 6.5412 27.9496 6.27598C28.0487 5.44383 28.4495 4.67696 29.0761 4.12051C29.7027 3.56406 30.5116 3.25684 31.3496 3.25684C32.1876 3.25684 32.9966 3.56406 33.6232 4.12051C34.2498 4.67696 34.6506 5.44383 34.7496 6.27598C34.7238 6.92269 34.5072 7.54742 34.1271 8.07129C33.747 8.59516 33.2204 8.99489 32.6136 9.22012Z" fill="#5581AE"/>
<defs>
<clipPath id="clip0_18011_39894">
<rect width="25.2509" height="42.1053" fill="white" transform="translate(9.0332 6.39478)"/>
</clipPath>
</defs>
</svg>
