<svg width="160" height="160" viewBox="0 0 160 160" fill="none" xmlns="http://www.w3.org/2000/svg">
<path d="M85.576 0C83.1334 0 80.7909 0.970382 79.0637 2.69766C77.3365 4.42493 76.3662 6.76761 76.3662 9.21035V21.982H94.7857V9.22059C94.7871 8.01021 94.5499 6.81142 94.0876 5.69279C93.6254 4.57416 92.9472 3.55762 92.0919 2.70128C91.2365 1.84494 90.2208 1.16557 89.1028 0.702069C87.9847 0.238566 86.7863 -7.47148e-07 85.576 0Z" fill="#CC7400"/>
<path d="M133.631 60.8906V102.501H36.8672V60.8906C36.8672 48.0581 41.9645 35.7512 51.0378 26.6772C60.1112 17.6032 72.4173 12.5056 85.2489 12.5056C98.0806 12.5056 110.387 17.6032 119.46 26.6772C128.533 35.7512 133.631 48.0581 133.631 60.8906Z" fill="#F58B00"/>
<path d="M85.5764 130.992C92.1209 130.992 97.4263 125.686 97.4263 119.141C97.4263 112.596 92.1209 107.29 85.5764 107.29C79.0319 107.29 73.7266 112.596 73.7266 119.141C73.7266 125.686 79.0319 130.992 85.5764 130.992Z" fill="#F58B00"/>
<path d="M144.488 107.29C141.581 106.686 133.63 102.501 133.63 102.501H36.8668C36.8668 102.501 28.9157 106.686 26.0095 107.29C23.1034 107.894 20.4121 109.797 20.4121 112.888C20.4121 114.373 21.0018 115.796 22.0516 116.846C23.1013 117.896 24.525 118.486 26.0095 118.486H144.488C145.972 118.486 147.396 117.896 148.446 116.846C149.495 115.796 150.085 114.373 150.085 112.888C150.116 109.797 147.506 107.935 144.488 107.29Z" fill="#CC7400"/>
<path opacity="0.5" d="M80.5012 12.4442C68.5353 13.6379 57.4371 19.257 49.3595 28.2114C41.282 37.1658 36.8011 48.817 36.7861 60.9048V102.828H127.17V61.142C127.168 48.5328 122.306 36.415 113.603 27.3342C104.901 18.2534 93.0358 12.9164 80.5012 12.4442Z" fill="#CC7400"/>
<rect x="11" y="6.27454" width="52.2876" height="31.3725" rx="6" fill="#D1EFFF"/>
<path d="M43.8063 36.1647C43.2451 35.5171 43.7051 34.5098 44.562 34.5098H54.9668C55.5191 34.5098 55.9668 34.9575 55.9668 35.5098V47.5153C55.9668 48.441 54.8174 48.8698 54.2112 48.1702L43.8063 36.1647Z" fill="#D1EFFF"/>
<ellipse cx="26.6861" cy="21.9608" rx="3.13726" ry="3.13726" fill="#9EDDFF"/>
<ellipse cx="47.6011" cy="21.9608" rx="3.13725" ry="3.13726" fill="#9EDDFF"/>
<ellipse cx="37.1431" cy="21.9608" rx="3.13725" ry="3.13726" fill="#9EDDFF"/>
<path d="M84.7253 160C118.512 160 145.902 157.191 145.902 153.725C145.902 150.26 118.512 147.451 84.7253 147.451C50.9385 147.451 23.5488 150.26 23.5488 153.725C23.5488 157.191 50.9385 160 84.7253 160Z" fill="#D5DADD"/>
</svg>
