<svg width="160" height="160" viewBox="0 0 160 160" fill="none" xmlns="http://www.w3.org/2000/svg">
<path d="M85.575 0C83.1324 0 80.7899 0.970382 79.0627 2.69766C77.3356 4.42493 76.3652 6.76761 76.3652 9.21035V21.982H94.7848V9.22059C94.7861 8.01021 94.5489 6.81142 94.0867 5.69279C93.6244 4.57416 92.9462 3.55762 92.0909 2.70128C91.2356 1.84494 90.2198 1.16557 89.1018 0.702069C87.9837 0.238566 86.7853 -7.47148e-07 85.575 0Z" fill="#CC7400"/>
<path d="M133.631 60.8906V102.501H36.8672V60.8906C36.8672 48.0581 41.9645 35.7512 51.0378 26.6772C60.1112 17.6032 72.4173 12.5056 85.2489 12.5056C98.0806 12.5056 110.387 17.6032 119.46 26.6772C128.533 35.7512 133.631 48.0581 133.631 60.8906Z" fill="#F58B00"/>
<path d="M85.5764 130.992C92.1209 130.992 97.4263 125.686 97.4263 119.141C97.4263 112.596 92.1209 107.29 85.5764 107.29C79.0319 107.29 73.7266 112.596 73.7266 119.141C73.7266 125.686 79.0319 130.992 85.5764 130.992Z" fill="#F58B00"/>
<path d="M144.488 107.29C141.581 106.686 133.63 102.501 133.63 102.501H36.8668C36.8668 102.501 28.9157 106.686 26.0095 107.29C23.1034 107.894 20.4121 109.797 20.4121 112.888C20.4121 114.373 21.0018 115.796 22.0516 116.846C23.1013 117.896 24.525 118.486 26.0095 118.486H144.488C145.972 118.486 147.396 117.896 148.446 116.846C149.495 115.796 150.085 114.373 150.085 112.888C150.116 109.797 147.506 107.935 144.488 107.29Z" fill="#CC7400"/>
<path opacity="0.5" d="M80.5002 12.4442C68.5344 13.6379 57.4361 19.257 49.3586 28.2114C41.281 37.1658 36.8001 48.817 36.7852 60.9048V102.828H127.169V61.142C127.168 48.5328 122.305 36.415 113.602 27.3342C104.9 18.2534 93.0348 12.9164 80.5002 12.4442Z" fill="#CC7400"/>
<rect x="11" y="6.27454" width="52.2876" height="31.3725" rx="6" fill="#5B738B"/>
<path d="M48.4855 41.5626C46.0937 38.8029 48.0541 34.5098 51.7061 34.5098C54.0598 34.5098 55.9678 36.4178 55.9678 38.7715C55.9678 42.7166 51.0693 44.5439 48.4855 41.5626Z" fill="#5B738B"/>
<ellipse cx="26.6861" cy="21.9608" rx="3.13726" ry="3.13726" fill="#A9B4BE"/>
<ellipse cx="47.6001" cy="21.9608" rx="3.13725" ry="3.13726" fill="#A9B4BE"/>
<ellipse cx="37.1431" cy="21.9608" rx="3.13725" ry="3.13726" fill="#A9B4BE"/>
<path d="M84.7253 160C118.512 160 145.902 157.191 145.902 153.725C145.902 150.26 118.512 147.451 84.7253 147.451C50.9385 147.451 23.5488 150.26 23.5488 153.725C23.5488 157.191 50.9385 160 84.7253 160Z" fill="#8396A8" fill-opacity="0.2"/>
</svg>
