<svg width="49" height="49" viewBox="0 0 49 49" fill="none" xmlns="http://www.w3.org/2000/svg">
<path d="M24.3777 0.5C23.4827 0.5 22.6243 0.855583 21.9914 1.48852C21.3585 2.12145 21.0029 2.9799 21.0029 3.875V8.55501H27.7525V3.87876C27.753 3.43523 27.6661 2.99595 27.4967 2.58604C27.3273 2.17614 27.0788 1.80364 26.7654 1.48985C26.4519 1.17605 26.0798 0.927108 25.6701 0.757263C25.2604 0.587419 24.8212 0.5 24.3777 0.5Z" fill="#CC7400"/>
<path d="M41.9869 22.8125V38.06H6.5293V22.8125C6.5293 18.1102 8.39714 13.6005 11.7219 10.2755C15.0467 6.95044 19.5561 5.08246 24.2581 5.08246C28.9601 5.08246 33.4695 6.95044 36.7943 10.2755C40.1191 13.6005 41.9869 18.1102 41.9869 22.8125Z" fill="#F58B00"/>
<path d="M24.3783 48.5C26.7765 48.5 28.7206 46.5558 28.7206 44.1575C28.7206 41.7592 26.7765 39.8151 24.3783 39.8151C21.9802 39.8151 20.0361 41.7592 20.0361 44.1575C20.0361 46.5558 21.9802 48.5 24.3783 48.5Z" fill="#F58B00"/>
<path d="M45.9657 39.8149C44.9008 39.5937 41.9872 38.0599 41.9872 38.0599H6.5296C6.5296 38.0599 3.61603 39.5937 2.5511 39.8149C1.48617 40.0362 0.5 40.7337 0.5 41.8662C0.5 42.4102 0.716094 42.932 1.10075 43.3166C1.48541 43.7013 2.00711 43.9174 2.5511 43.9174H45.9657C46.5097 43.9174 47.0314 43.7013 47.4161 43.3166C47.8007 42.932 48.0168 42.4102 48.0168 41.8662C48.0281 40.7337 47.0719 40.0512 45.9657 39.8149Z" fill="#CC7400"/>
<path opacity="0.5" d="M22.5188 5.06C18.134 5.49741 14.0672 7.55644 11.1073 10.8376C8.14745 14.1189 6.50548 18.3883 6.5 22.8177V38.18H39.62V22.9046C39.6193 18.2841 37.8374 13.8437 34.6485 10.5162C31.4596 7.18869 27.1119 5.23301 22.5188 5.06Z" fill="#CC7400"/>
</svg>
