<svg width="49" height="49" viewBox="0 0 49 49" fill="none" xmlns="http://www.w3.org/2000/svg">
<path d="M17.3642 17.9329H24.3903C24.8753 17.9329 25.2686 17.5361 25.2686 17.0466C25.2686 16.5572 24.8753 16.1604 24.3903 16.1604H17.3642C16.8791 16.1604 16.4859 16.5572 16.4859 17.0466C16.4859 17.5361 16.8791 17.9329 17.3642 17.9329Z" fill="#F58B00"/>
<path d="M5.36436 44.8116C5.1644 44.8127 4.9703 44.7435 4.81544 44.6158C2.46974 42.7104 1.35728 40.4985 1.5988 38.2128C1.96475 34.6604 4.98743 32.4817 10.5461 31.7432C14.6044 31.2041 18.692 31.3075 22.6442 31.4072C24.0202 31.4404 25.4474 31.4773 26.8453 31.4847C27.9431 31.4847 29.0409 31.5438 30.0948 31.5955C33.6957 31.7654 37.4137 31.9463 40.6706 30.3215C41.7854 29.7558 42.7674 28.956 43.5507 27.9758C44.3339 26.9956 44.9004 25.8577 45.212 24.6385C45.583 23.3331 45.677 21.9635 45.4878 20.619C45.2986 19.2745 44.8306 17.9854 44.1142 16.8359L44.019 16.6882C42.9212 14.9895 41.3842 14.2584 38.8958 14.2436C38.6629 14.2436 38.4395 14.1502 38.2748 13.984C38.1101 13.8178 38.0175 13.5924 38.0175 13.3574C38.0175 13.1223 38.1101 12.8969 38.2748 12.7307C38.4395 12.5645 38.6629 12.4711 38.8958 12.4711C42.0136 12.4896 44.0483 13.4903 45.4828 15.717L45.5816 15.8721C46.4328 17.2305 46.9911 18.7546 47.2199 20.3452C47.4488 21.9358 47.3432 23.5571 46.91 25.1038C46.5326 26.5641 45.8507 27.9263 44.9098 29.0993C43.9688 30.2723 42.7906 31.2291 41.4537 31.9057C37.7943 33.7299 33.8384 33.5415 30.0143 33.3569C28.9677 33.3089 27.8809 33.2572 26.8379 33.2498C25.4217 33.2498 23.9909 33.2055 22.604 33.1723C18.7176 33.0726 14.6996 32.9728 10.7803 33.4935C6.06331 34.1213 3.63344 35.7091 3.348 38.3937C3.16869 40.0739 4.03598 41.7171 5.90961 43.2274C6.05139 43.3425 6.15424 43.4992 6.20395 43.6758C6.25366 43.8524 6.2478 44.0403 6.18713 44.2134C6.12646 44.3865 6.014 44.5363 5.8653 44.6422C5.7166 44.748 5.539 44.8046 5.35703 44.8042L5.36436 44.8116Z" fill="#00144A"/>
<path d="M16.7159 25.9093H8.81152V0.5H16.7159C16.8313 0.5 16.9454 0.522919 17.052 0.567457C17.1586 0.611995 17.2554 0.677278 17.3369 0.759573C17.4185 0.841869 17.4832 0.939571 17.5273 1.04709C17.5715 1.15462 17.5942 1.26987 17.5942 1.38625C17.5942 1.50263 17.5715 1.61786 17.5273 1.72538C17.4832 1.83291 17.4185 1.93061 17.3369 2.01291C17.2554 2.0952 17.1586 2.16048 17.052 2.20502C16.9454 2.24956 16.8313 2.27248 16.7159 2.27248H10.5534V24.1331H16.7013C16.9342 24.1331 17.1576 24.2265 17.3223 24.3927C17.487 24.5589 17.5795 24.7843 17.5795 25.0194C17.5795 25.2544 17.487 25.4798 17.3223 25.646C17.1576 25.8122 16.9342 25.9056 16.7013 25.9056L16.7159 25.9093Z" fill="#A9B4BE"/>
<path d="M17.3642 10.5473L24.3903 10.5473C24.8753 10.5473 25.2686 10.1505 25.2686 9.66105C25.2686 9.17159 24.8753 8.77482 24.3903 8.77482H17.3642C16.8791 8.77482 16.4859 9.17159 16.4859 9.66105C16.4859 10.1505 16.8791 10.5473 17.3642 10.5473Z" fill="#F58B00"/>
<path d="M24.2031 22.6595V3.75667C24.2031 3.26722 23.8099 2.87042 23.3249 2.87042C22.8398 2.87042 22.4466 3.26722 22.4466 3.75667V22.6595C22.4466 23.1489 22.8398 23.5457 23.3249 23.5457C23.8099 23.5457 24.2031 23.1489 24.2031 22.6595Z" fill="#64EDD2"/>
<path d="M32.1445 21.4784H24.0938V5.23065H32.1445C34.2797 5.23065 36.3274 6.08656 37.8373 7.61009C39.3471 9.13361 40.1953 11.1999 40.1953 13.3545C40.1953 15.5091 39.3471 17.5755 37.8373 19.099C36.3274 20.6225 34.2797 21.4784 32.1445 21.4784Z" fill="#64EDD2"/>
<path d="M40.218 13.3172C40.2213 13.6768 40.1968 14.0361 40.1448 14.3918C39.8869 12.4417 38.9365 10.6523 37.47 9.35582C36.0035 8.05937 34.1206 7.34399 32.1709 7.3425H24.1201V5.19336H32.1709C34.3054 5.19434 36.3522 6.05066 37.8612 7.57408C39.3703 9.0975 40.218 11.1633 40.218 13.3172Z" fill="#00A58A"/>
<path fill-rule="evenodd" clip-rule="evenodd" d="M6.8639 45.6086C7.13529 45.2207 7.66973 45.1263 8.05759 45.3977C8.62485 45.7946 8.89402 45.9788 9.16401 46.1636L9.16465 46.1641C9.43787 46.3511 9.71214 46.5389 10.2862 46.9405C10.674 47.2119 10.7684 47.7463 10.4971 48.1342C10.2257 48.5221 9.69123 48.6165 9.30336 48.3451C8.73611 47.9482 8.46693 47.7639 8.19694 47.5791L8.19631 47.5787C7.92308 47.3916 7.64881 47.2039 7.0748 46.8022C6.68694 46.5309 6.59251 45.9964 6.8639 45.6086Z" fill="#00144A"/>
</svg>
