<svg width="48" height="48" viewBox="0 0 48 48" fill="none" xmlns="http://www.w3.org/2000/svg">
<path d="M16.9218 17.4329H23.9479C24.433 17.4329 24.8262 17.0361 24.8262 16.5466C24.8262 16.0572 24.433 15.6604 23.9479 15.6604H16.9218C16.4367 15.6604 16.0435 16.0572 16.0435 16.5466C16.0435 17.0361 16.4367 17.4329 16.9218 17.4329Z" fill="#F58B00"/>
<path d="M4.92295 44.3116C4.723 44.3128 4.5289 44.2436 4.37404 44.1159C2.02834 42.2105 0.915875 39.9986 1.1574 37.7128C1.52334 34.1605 4.54602 31.9818 10.1047 31.2433C14.163 30.7041 18.2506 30.8075 22.2028 30.9072C23.5788 30.9405 25.006 30.9774 26.4039 30.9848C27.5017 30.9848 28.5995 31.0439 29.6535 31.0956C33.2543 31.2654 36.9723 31.4464 40.2292 29.8216C41.344 29.2559 42.326 28.4561 43.1093 27.4759C43.8925 26.4957 44.459 25.3578 44.7706 24.1386C45.1416 22.8332 45.2356 21.4636 45.0464 20.1191C44.8572 18.7746 44.3892 17.4855 43.6728 16.3359L43.5776 16.1882C42.4798 14.4896 40.9428 13.7584 38.4544 13.7437C38.2215 13.7437 37.9981 13.6503 37.8334 13.4841C37.6687 13.3179 37.5761 13.0925 37.5761 12.8574C37.5761 12.6224 37.6687 12.397 37.8334 12.2308C37.9981 12.0646 38.2215 11.9712 38.4544 11.9712C41.5722 11.9897 43.6069 12.9904 45.0414 15.2171L45.1402 15.3722C45.9914 16.7306 46.5497 18.2547 46.7786 19.8453C47.0074 21.4358 46.9018 23.0572 46.4686 24.6038C46.0913 26.0642 45.4093 27.4264 44.4684 28.5994C43.5275 29.7724 42.3492 30.7292 41.0123 31.4057C37.3529 33.2299 33.397 33.0416 29.5729 32.857C28.5263 32.809 27.4395 32.7573 26.3965 32.7499C24.9803 32.7499 23.5495 32.7056 22.1626 32.6723C18.2762 32.5726 14.2582 32.4729 10.3389 32.9936C5.6219 33.6213 3.19203 35.2092 2.9066 37.8938C2.72729 39.5739 3.59457 41.2172 5.46821 42.7275C5.60999 42.8426 5.71283 42.9993 5.76254 43.1759C5.81226 43.3525 5.80639 43.5404 5.74572 43.7135C5.68506 43.8866 5.57259 44.0364 5.42389 44.1422C5.27519 44.2481 5.09759 44.3047 4.91563 44.3042L4.92295 44.3116Z" fill="#5581AE"/>
<path d="M16.2755 25.4093H8.37109V0H16.2755C16.3908 -2.77478e-08 16.505 0.0229193 16.6116 0.0674571C16.7181 0.111995 16.815 0.177278 16.8965 0.259574C16.9781 0.341869 17.0428 0.439571 17.0869 0.547095C17.131 0.654618 17.1537 0.769868 17.1537 0.886251C17.1537 1.00263 17.131 1.11786 17.0869 1.22538C17.0428 1.33291 16.9781 1.43061 16.8965 1.51291C16.815 1.5952 16.7181 1.66048 16.6116 1.70502C16.505 1.74956 16.3908 1.77248 16.2755 1.77248H10.113V23.6331H16.2608C16.4938 23.6331 16.7172 23.7265 16.8819 23.8927C17.0466 24.0589 17.1391 24.2843 17.1391 24.5194C17.1391 24.7544 17.0466 24.9798 16.8819 25.146C16.7172 25.3122 16.4938 25.4056 16.2608 25.4056L16.2755 25.4093Z" fill="#B9C1C6"/>
<path d="M16.9218 10.0474L23.9479 10.0474C24.433 10.0474 24.8262 9.65057 24.8262 9.16111C24.8262 8.67165 24.433 8.27488 23.9479 8.27488H16.9218C16.4367 8.27488 16.0435 8.67165 16.0435 9.16111C16.0435 9.65057 16.4367 10.0474 16.9218 10.0474Z" fill="#F58B00"/>
<path d="M23.7617 22.1595V3.25673C23.7617 2.76728 23.3685 2.37048 22.8835 2.37048C22.3984 2.37048 22.0052 2.76728 22.0052 3.25673V22.1595C22.0052 22.649 22.3984 23.0458 22.8835 23.0458C23.3685 23.0458 23.7617 22.649 23.7617 22.1595Z" fill="#64EDD2"/>
<path d="M31.7031 20.9784H23.6523V4.73065H31.7031C33.8383 4.73065 35.886 5.58656 37.3959 7.11009C38.9057 8.63361 39.7539 10.6999 39.7539 12.8545C39.7539 15.0091 38.9057 17.0755 37.3959 18.599C35.886 20.1225 33.8383 20.9784 31.7031 20.9784Z" fill="#64EDD2"/>
<path d="M39.7756 12.8172C39.7789 13.1768 39.7545 13.5361 39.7024 13.8918C39.4445 11.9417 38.4941 10.1523 37.0276 8.85582C35.5611 7.55937 33.6782 6.84399 31.7285 6.8425H23.6777V4.69336H31.7285C33.8631 4.69434 35.9099 5.55066 37.4189 7.07408C38.9279 8.5975 39.7756 10.6633 39.7756 12.8172Z" fill="#00A58A"/>
<path fill-rule="evenodd" clip-rule="evenodd" d="M6.4225 45.1086C6.69389 44.7207 7.22832 44.6263 7.61619 44.8977C8.18344 45.2946 8.45262 45.4788 8.72261 45.6636L8.72325 45.6641C8.99647 45.8511 9.27074 46.0389 9.84475 46.4405C10.2326 46.7119 10.327 47.2463 10.0557 47.6342C9.78426 48.0221 9.24983 48.1165 8.86196 47.8451C8.2947 47.4482 8.02552 47.2639 7.75553 47.0791L7.7549 47.0787C7.48168 46.8916 7.20741 46.7039 6.6334 46.3022C6.24553 46.0309 6.15111 45.4964 6.4225 45.1086Z" fill="#5581AE"/>
</svg>
