<svg width="92" height="92" viewBox="0 0 92 92" fill="none" xmlns="http://www.w3.org/2000/svg">
<path d="M71.2087 79.9143V8.57682C71.2275 7.25455 70.7249 5.97776 69.8091 5.02134C68.8932 4.06493 67.6374 3.50537 66.3119 3.46313H20.9558C19.5253 3.46313 18.1088 3.74409 16.7871 4.28997C15.4655 4.83585 14.2646 5.63597 13.2531 6.64462C12.2416 7.65327 11.4392 8.8507 10.8917 10.1686C10.3443 11.4864 10.0625 12.8989 10.0625 14.3254V81.1379C10.0656 84.0178 11.2143 86.7788 13.2565 88.8152C15.2987 90.8517 18.0677 91.9971 20.9558 92.0001H81.9052V91.9193C78.9573 91.5716 76.2399 90.1572 74.2682 87.9444C72.2966 85.7316 71.2079 82.8743 71.2087 79.9143Z" fill="#D5DADD"/>
<path d="M71.2087 76.4511V5.11368C71.2275 3.79142 70.7249 2.51463 69.8091 1.55821C68.8932 0.601792 67.6374 0.0422311 66.3119 0H20.9558C19.5253 0 18.1088 0.280959 16.7871 0.826837C15.4655 1.37272 14.2646 2.17283 13.2531 3.18148C12.2416 4.19013 11.4392 5.38756 10.8917 6.70543C10.3443 8.02329 10.0625 9.43578 10.0625 10.8622V77.6747C10.0656 80.5546 11.2143 83.3157 13.2565 85.3521C15.2987 87.3885 18.0677 88.5339 20.9558 88.5369H81.9052V88.4562C78.9573 88.1084 76.2399 86.694 74.2682 84.4812C72.2966 82.2685 71.2079 79.4111 71.2087 76.4511Z" fill="white"/>
<path fill-rule="evenodd" clip-rule="evenodd" d="M69.982 5.10492L69.9821 5.09616C69.9964 4.09656 69.6165 3.13067 68.9231 2.4066C68.2338 1.68679 67.2895 1.2632 66.291 1.22667H20.9558C19.6859 1.22667 18.4285 1.47609 17.2554 1.9606C16.0824 2.44511 15.0167 3.15519 14.1192 4.05011C13.2218 4.94501 12.5101 6.00721 12.0245 7.176C11.539 8.34479 11.2892 9.59737 11.2892 10.8622V77.674C11.292 80.2277 12.3106 82.6767 14.1226 84.4835C15.9349 86.2906 18.3927 87.3076 20.9571 87.3103H75.6042C74.7854 86.7307 74.029 86.0567 73.3524 85.2973C71.1809 82.8601 69.9813 79.7125 69.982 76.4511C69.982 76.451 69.982 76.4512 69.982 76.4511V5.10492ZM71.2087 76.4511C71.2079 79.4111 72.2966 82.2685 74.2682 84.4812C75.3252 85.6675 76.5965 86.6243 78.0027 87.3103C79.2196 87.904 80.5376 88.2948 81.9052 88.4562V88.5369H20.9558C18.0677 88.5339 15.2987 87.3885 13.2565 85.3521C11.2143 83.3157 10.0656 80.5546 10.0625 77.6747V10.8622C10.0625 9.43578 10.3443 8.02329 10.8917 6.70543C11.4392 5.38756 12.2416 4.19013 13.2531 3.18148C14.2646 2.17283 15.4655 1.37272 16.7871 0.826837C18.1088 0.280959 19.5253 0 20.9558 0H66.3119C67.6374 0.0422311 68.8932 0.601792 69.8091 1.55821C70.7249 2.51463 71.2275 3.79142 71.2087 5.11368V76.4511Z" fill="#00144A"/>
<path d="M40.6356 19.2424H21.4305C20.107 19.2424 19.0342 20.3122 19.0342 21.6319V21.6434C19.0342 22.9631 20.107 24.0329 21.4305 24.0329H40.6356C41.959 24.0329 43.0319 22.9631 43.0319 21.6434V21.6319C43.0319 20.3122 41.959 19.2424 40.6356 19.2424Z" fill="#F58B00"/>
</svg>
