<svg width="92" height="92" viewBox="0 0 92 92" fill="none" xmlns="http://www.w3.org/2000/svg">
<path d="M32.4339 33.413H45.9006C46.8303 33.413 47.584 32.6525 47.584 31.7144C47.584 30.7763 46.8303 30.0158 45.9006 30.0158H32.4339C31.5042 30.0158 30.7506 30.7763 30.7506 31.7144C30.7506 32.6525 31.5042 33.413 32.4339 33.413Z" fill="#F58B00"/>
<path d="M9.43566 84.9306C9.05241 84.9328 8.68039 84.8001 8.38357 84.5554C3.88765 80.9034 1.75543 76.6639 2.21835 72.2829C2.91974 65.4742 8.71321 61.2984 19.3674 59.8828C27.1458 58.8495 34.9804 59.0477 42.5554 59.2388C45.1926 59.3025 47.9281 59.3732 50.6074 59.3874C52.7116 59.3874 54.8158 59.5007 56.8358 59.5998C63.7375 59.9253 70.8636 60.2721 77.106 57.158C79.2427 56.0737 81.1248 54.5407 82.6261 52.6621C84.1274 50.7834 85.2131 48.6024 85.8103 46.2655C86.5214 43.7636 86.7015 41.1385 86.3389 38.5615C85.9763 35.9846 85.0792 33.5138 83.7061 31.3105L83.5238 31.0274C81.4196 27.7717 78.4737 26.3703 73.7043 26.342C73.2578 26.342 72.8296 26.163 72.514 25.8444C72.1983 25.5259 72.0209 25.0939 72.0209 24.6433C72.0209 24.1928 72.1983 23.7608 72.514 23.4422C72.8296 23.1237 73.2578 22.9447 73.7043 22.9447C79.6801 22.9801 83.5799 24.8982 86.3293 29.166L86.5187 29.4632C88.1503 32.0669 89.2202 34.9881 89.6589 38.0367C90.0976 41.0853 89.8951 44.1929 89.0647 47.1573C88.3416 49.9562 87.0346 52.5671 85.2311 54.8154C83.4276 57.0637 81.1693 58.8975 78.607 60.1943C71.5931 63.6906 64.011 63.3296 56.6815 62.9758C54.6755 62.8838 52.5923 62.7847 50.5934 62.7705C47.879 62.7705 45.1365 62.6856 42.4783 62.6219C35.0295 62.4308 27.3282 62.2397 19.8163 63.2376C10.7753 64.4408 6.11807 67.4842 5.57098 72.6297C5.2273 75.85 6.8896 78.9995 10.4807 81.8943C10.7525 82.1149 10.9496 82.4152 11.0449 82.7537C11.1402 83.0923 11.1289 83.4523 11.0126 83.7841C10.8964 84.1159 10.6808 84.4031 10.3958 84.6059C10.1108 84.8087 9.77038 84.9172 9.42162 84.9164L9.43566 84.9306Z" fill="#5581AE"/>
<path d="M31.1931 48.7011H16.043V0H31.1931C31.4141 -5.31834e-08 31.633 0.0439287 31.8372 0.129293C32.0415 0.214657 32.227 0.339784 32.3834 0.497516C32.5397 0.655248 32.6637 0.842511 32.7483 1.0486C32.8329 1.25469 32.8764 1.47558 32.8764 1.69865C32.8764 1.92172 32.8329 2.14257 32.7483 2.34865C32.6637 2.55474 32.5397 2.742 32.3834 2.89974C32.227 3.05747 32.0415 3.1826 31.8372 3.26796C31.633 3.35332 31.4141 3.39725 31.1931 3.39725H19.3816V45.2968H31.165C31.6114 45.2968 32.0396 45.4758 32.3553 45.7943C32.671 46.1129 32.8484 46.545 32.8484 46.9955C32.8484 47.446 32.671 47.878 32.3553 48.1965C32.0396 48.5151 31.6114 48.6941 31.165 48.6941L31.1931 48.7011Z" fill="#B9C1C6"/>
<path d="M32.4339 19.2574L45.9006 19.2574C46.8303 19.2574 47.584 18.4969 47.584 17.5587C47.584 16.6206 46.8303 15.8601 45.9006 15.8601L32.4339 15.8601C31.5042 15.8601 30.7506 16.6206 30.7506 17.5587C30.7506 18.4969 31.5042 19.2574 32.4339 19.2574Z" fill="#F58B00"/>
<path d="M45.543 42.4725V6.2421C45.543 5.30398 44.7893 4.54346 43.8597 4.54346C42.93 4.54346 42.1763 5.30398 42.1763 6.2421V42.4725C42.1763 43.4106 42.93 44.1711 43.8597 44.1711C44.7893 44.1711 45.543 43.4106 45.543 42.4725Z" fill="#64EDD2"/>
<path d="M60.7646 40.2087H45.334V9.06714H60.7646C64.8571 9.06714 68.7819 10.7076 71.6757 13.6277C74.5695 16.5478 76.1953 20.5083 76.1953 24.6379C76.1953 28.7675 74.5695 32.728 71.6757 35.6481C68.7819 38.5682 64.8571 40.2087 60.7646 40.2087Z" fill="#64EDD2"/>
<path d="M76.237 24.5663C76.2434 25.2555 76.1965 25.9441 76.0968 26.6259C75.6025 22.8882 73.7808 19.4585 70.97 16.9736C68.1592 14.4887 64.5503 13.1176 60.8134 13.1147H45.3828V8.99554H60.8134C64.9047 8.99742 68.8277 10.6387 71.72 13.5586C74.6123 16.4785 76.237 20.4379 76.237 24.5663Z" fill="#00A58A"/>
<path fill-rule="evenodd" clip-rule="evenodd" d="M12.3106 86.458C12.8308 85.7146 13.8551 85.5337 14.5985 86.0538C15.6857 86.8146 16.2017 87.1677 16.7192 87.522L16.7204 87.5228C17.244 87.8813 17.7697 88.2412 18.8699 89.011C19.6133 89.5311 19.7943 90.5555 19.2741 91.2989C18.754 92.0423 17.7297 92.2233 16.9862 91.7031C15.899 90.9424 15.3831 90.5892 14.8656 90.2349L14.8644 90.2341C14.3407 89.8756 13.815 89.5158 12.7148 88.746C11.9714 88.2258 11.7904 87.2015 12.3106 86.458Z" fill="#5581AE"/>
</svg>
