<svg width="160" height="160" viewBox="0 0 160 160" fill="none" xmlns="http://www.w3.org/2000/svg">
<path d="M32.285 20.0518L15.9505 118.583C15.226 122.953 18.1789 127.084 22.5459 127.809L91.0229 139.179C95.39 139.904 99.5175 136.949 100.242 132.578L116.577 34.0471C117.301 29.6767 114.348 25.546 109.981 24.8209L41.5042 13.4513C37.1371 12.7262 33.0096 15.6814 32.285 20.0518Z" fill="#F58B00"/>
<path d="M89.4947 18.1262H23.0173C18.5905 18.1262 15.002 21.7175 15.002 26.1477V122.035C15.002 126.465 18.5905 130.056 23.0173 130.056H89.4947C93.9214 130.056 97.51 126.465 97.51 122.035V26.1477C97.51 21.7175 93.9214 18.1262 89.4947 18.1262Z" fill="white"/>
<path d="M89.4946 131.059H23.0173C20.6257 131.059 18.3322 130.108 16.6411 128.416C14.95 126.724 14 124.428 14 122.035V26.1476C14 23.7543 14.95 21.4589 16.6411 19.7665C18.3322 18.0742 20.6257 17.1234 23.0173 17.1234H89.4946C91.8862 17.1234 94.1797 18.0742 95.8708 19.7665C97.5619 21.4589 98.5119 23.7543 98.5119 26.1476V122.035C98.5119 124.428 97.5619 126.724 95.8708 128.416C94.1797 130.108 91.8862 131.059 89.4946 131.059ZM23.0173 19.1288C21.1572 19.1288 19.3733 19.8683 18.058 21.1846C16.7427 22.5008 16.0038 24.2861 16.0038 26.1476V122.035C16.0038 123.896 16.7427 125.682 18.058 126.998C19.3733 128.314 21.1572 129.054 23.0173 129.054H89.4946C91.3547 129.054 93.1386 128.314 94.4539 126.998C95.7691 125.682 96.5081 123.896 96.5081 122.035V26.1476C96.5081 24.2861 95.7691 22.5008 94.4539 21.1846C93.1386 19.8683 91.3547 19.1288 89.4946 19.1288H23.0173Z" fill="#00144A"/>
<path d="M76.667 76C76.667 87.0457 67.7127 96 56.667 96C45.6213 96 36.667 87.0457 36.667 76C36.667 64.9543 45.6213 56 56.667 56C67.7127 56 76.667 64.9543 76.667 76Z" fill="white"/>
<path d="M56.667 56C52.7114 56 48.8446 57.173 45.5556 59.3706C42.2666 61.5682 39.7032 64.6922 38.1894 68.3467C36.6757 72.0012 36.2796 76.0222 37.0513 79.9019C37.823 83.7815 39.7278 87.345 42.5249 90.1421C45.3219 92.9391 48.8856 94.844 52.7652 95.6157C56.6448 96.3874 60.6661 95.9913 64.3207 94.4775C67.9752 92.9638 71.0987 90.4003 73.2964 87.1113C75.494 83.8223 76.667 79.9556 76.667 76C76.667 70.6957 74.5599 65.6086 70.8091 61.8579C67.0584 58.1072 61.9713 56 56.667 56ZM56.667 88C56.0736 88 55.4936 87.8243 55.0003 87.4946C54.5069 87.165 54.1224 86.6961 53.8954 86.1479C53.6683 85.5998 53.6089 84.997 53.7247 84.415C53.8404 83.8331 54.1261 83.2985 54.5457 82.8789C54.9653 82.4593 55.4998 82.1734 56.0817 82.0576C56.6637 81.9419 57.2669 82.0014 57.8151 82.2285C58.3632 82.4556 58.8318 82.8401 59.1614 83.3335C59.4911 83.8268 59.667 84.4067 59.667 85C59.667 85.7956 59.3509 86.559 58.7883 87.1216C58.2257 87.6842 57.4626 88 56.667 88ZM59.827 77.8003C59.5517 77.9307 59.2846 78.0776 59.027 78.2402C58.8318 78.7989 58.4446 79.2702 57.9345 79.5703C57.4244 79.8704 56.8244 79.9797 56.2412 79.8789C55.658 79.7781 55.1295 79.4734 54.7497 79.0195C54.3699 78.5656 54.1634 77.9917 54.167 77.3999C54.167 75.1199 56.167 74.1199 57.507 73.3999C59.387 72.4199 60.167 71.8599 60.167 70.4399C60.167 69.0199 58.567 67.9399 56.667 67.9399C54.767 67.9399 53.167 69.0999 53.167 70.4399C53.167 71.103 52.9036 71.7392 52.4347 72.208C51.9659 72.6768 51.33 72.9399 50.667 72.9399C50.0039 72.9399 49.3681 72.6768 48.8992 72.208C48.4304 71.7392 48.167 71.103 48.167 70.4399C48.4146 68.3596 49.4166 66.4424 50.9831 65.0513C52.5497 63.6601 54.5719 62.8921 56.667 62.8921C58.762 62.8921 60.7844 63.6601 62.3509 65.0513C63.9174 66.4424 64.9194 68.3596 65.167 70.4399C65.1024 72.0567 64.5609 73.6185 63.6106 74.9282C62.6604 76.2379 61.344 77.2372 59.827 77.8003Z" fill="#004DA5"/>
<path d="M144.85 28.8837C144.652 28.6477 144.395 28.4692 144.105 28.367C143.815 28.2649 143.503 28.2427 143.201 28.303L135.991 29.5502C134.799 29.7559 134.327 30.852 134.489 31.7868C134.541 32.1717 134.717 32.5293 134.989 32.8059C135.262 33.0824 135.617 33.2629 136.002 33.3203C136.188 33.3425 136.377 33.3363 136.561 33.3021L143.772 32.0549C144.089 32.0067 144.388 31.8736 144.636 31.6696C144.884 31.4657 145.072 31.1985 145.18 30.8963C145.301 30.5604 145.334 30.1993 145.276 29.847C145.218 29.4948 145.072 29.1632 144.85 28.8837Z" fill="#A9B4BE"/>
<path d="M117.444 0.0844665C117.235 0.013539 117.014 -0.0131697 116.795 0.00604575C116.576 0.0252612 116.363 0.0899774 116.17 0.196065C115.977 0.302152 115.809 0.44728 115.675 0.62218C115.542 0.797081 115.446 0.997914 115.394 1.21186L113.408 8.0569C113.337 8.30325 113.316 8.56121 113.346 8.81569C113.377 9.07018 113.457 9.3161 113.584 9.53909C113.71 9.76209 113.879 9.9577 114.082 10.1145C114.285 10.2713 114.517 10.3861 114.764 10.4523C114.866 10.4824 114.969 10.5042 115.074 10.5174C115.461 10.5717 115.854 10.4791 116.176 10.2579C116.498 10.0367 116.726 9.70286 116.814 9.32228L118.798 2.47984C118.869 2.23366 118.89 1.97579 118.86 1.72131C118.83 1.46684 118.75 1.22089 118.624 0.997832C118.498 0.774779 118.328 0.579112 118.126 0.422281C117.923 0.265449 117.691 0.150604 117.444 0.0844665Z" fill="#A9B4BE"/>
<path d="M135.161 9.35357C134.921 9.33799 134.68 9.37152 134.454 9.4521C134.227 9.53268 134.02 9.65862 133.843 9.82222L125.865 17.0813C125.509 17.4088 125.293 17.8613 125.263 18.3441C125.233 18.8269 125.391 19.3027 125.704 19.6719C125.995 20.0132 126.404 20.2325 126.849 20.2864C127.106 20.317 127.367 20.2919 127.613 20.2129C127.859 20.1338 128.085 20.0026 128.276 19.8281L136.255 12.5691C136.613 12.24 136.829 11.7848 136.859 11.2993C136.889 10.8138 136.729 10.3356 136.413 9.96543C136.257 9.78436 136.065 9.63682 135.85 9.53168C135.634 9.42654 135.4 9.36596 135.161 9.35357Z" fill="#A9B4BE"/>
<path d="M56.6667 160C75.8125 160 91.3333 158.209 91.3333 156C91.3333 153.791 75.8125 152 56.6667 152C37.5208 152 22 153.791 22 156C22 158.209 37.5208 160 56.6667 160Z" fill="#D5DADD"/>
</svg>
