<svg width="160" height="160" viewBox="0 0 160 160" fill="none" xmlns="http://www.w3.org/2000/svg">
<path d="M32.285 20.0518L15.9505 118.583C15.226 122.953 18.1789 127.084 22.5459 127.809L91.0229 139.179C95.39 139.904 99.5175 136.949 100.242 132.578L116.577 34.0471C117.301 29.6767 114.348 25.546 109.981 24.8209L41.5042 13.4513C37.1371 12.7262 33.0096 15.6814 32.285 20.0518Z" fill="#8396A8"/>
<path d="M89.4947 18.1262H23.0173C18.5905 18.1262 15.002 21.7175 15.002 26.1477V122.035C15.002 126.465 18.5905 130.056 23.0173 130.056H89.4947C93.9214 130.056 97.51 126.465 97.51 122.035V26.1477C97.51 21.7175 93.9214 18.1262 89.4947 18.1262Z" fill="#2F3235"/>
<path d="M89.4946 131.059H23.0173C20.6257 131.059 18.3322 130.108 16.6411 128.416C14.95 126.724 14 124.428 14 122.035V26.1476C14 23.7543 14.95 21.4589 16.6411 19.7665C18.3322 18.0742 20.6257 17.1234 23.0173 17.1234H89.4946C91.8862 17.1234 94.1797 18.0742 95.8708 19.7665C97.5619 21.4589 98.5119 23.7543 98.5119 26.1476V122.035C98.5119 124.428 97.5619 126.724 95.8708 128.416C94.1797 130.108 91.8862 131.059 89.4946 131.059ZM23.0173 19.1288C21.1572 19.1288 19.3733 19.8683 18.058 21.1846C16.7427 22.5008 16.0038 24.2861 16.0038 26.1476V122.035C16.0038 123.896 16.7427 125.682 18.058 126.998C19.3733 128.314 21.1572 129.054 23.0173 129.054H89.4946C91.3547 129.054 93.1386 128.314 94.4539 126.998C95.7691 125.682 96.5081 123.896 96.5081 122.035V26.1476C96.5081 24.2861 95.7691 22.5008 94.4539 21.1846C93.1386 19.8683 91.3547 19.1288 89.4946 19.1288H23.0173Z" fill="#8396A8"/>
<path d="M76.666 76C76.666 87.0457 67.7117 96 56.666 96C45.6203 96 36.666 87.0457 36.666 76C36.666 64.9543 45.6203 56 56.666 56C67.7117 56 76.666 64.9543 76.666 76Z" fill="white"/>
<path d="M56.666 56C52.7104 56 48.8436 57.173 45.5546 59.3706C42.2656 61.5682 39.7022 64.6922 38.1884 68.3467C36.6747 72.0012 36.2786 76.0222 37.0503 79.9019C37.822 83.7815 39.7268 87.345 42.5239 90.1421C45.3209 92.9391 48.8846 94.844 52.7642 95.6157C56.6438 96.3874 60.6652 95.9913 64.3197 94.4775C67.9742 92.9638 71.0978 90.4003 73.2954 87.1113C75.493 83.8223 76.666 79.9556 76.666 76C76.666 70.6957 74.5589 65.6086 70.8082 61.8579C67.0574 58.1072 61.9703 56 56.666 56ZM56.666 88C56.0727 88 55.4927 87.8243 54.9993 87.4946C54.506 87.165 54.1215 86.6961 53.8944 86.1479C53.6673 85.5998 53.6079 84.997 53.7237 84.415C53.8394 83.8331 54.1252 83.2985 54.5447 82.8789C54.9643 82.4593 55.4988 82.1734 56.0807 82.0576C56.6627 81.9419 57.2659 82.0014 57.8141 82.2285C58.3623 82.4556 58.8308 82.8401 59.1605 83.3335C59.4901 83.8268 59.666 84.4067 59.666 85C59.666 85.7956 59.35 86.559 58.7873 87.1216C58.2247 87.6842 57.4617 88 56.666 88ZM59.826 77.8003C59.5508 77.9307 59.2836 78.0776 59.0261 78.2402C58.8308 78.7989 58.4436 79.2702 57.9335 79.5703C57.4234 79.8704 56.8234 79.9797 56.2402 79.8789C55.657 79.7781 55.1285 79.4734 54.7487 79.0195C54.3689 78.5656 54.1624 77.9917 54.166 77.3999C54.166 75.1199 56.166 74.1199 57.506 73.3999C59.386 72.4199 60.166 71.8599 60.166 70.4399C60.166 69.0199 58.566 67.9399 56.666 67.9399C54.766 67.9399 53.166 69.0999 53.166 70.4399C53.166 71.103 52.9026 71.7392 52.4338 72.208C51.9649 72.6768 51.329 72.9399 50.666 72.9399C50.003 72.9399 49.3671 72.6768 48.8982 72.208C48.4294 71.7392 48.166 71.103 48.166 70.4399C48.4136 68.3596 49.4156 66.4424 50.9822 65.0513C52.5487 63.6601 54.571 62.8921 56.666 62.8921C58.7611 62.8921 60.7834 63.6601 62.3499 65.0513C63.9164 66.4424 64.9184 68.3596 65.166 70.4399C65.1014 72.0567 64.5599 73.6185 63.6097 74.9282C62.6594 76.2379 61.343 77.2372 59.826 77.8003Z" fill="#5581AE"/>
<path d="M144.851 28.8837C144.653 28.6477 144.396 28.4692 144.106 28.367C143.816 28.2649 143.504 28.2427 143.202 28.303L135.992 29.5502C134.8 29.7559 134.328 30.852 134.49 31.7868C134.542 32.1717 134.717 32.5293 134.99 32.8059C135.263 33.0824 135.618 33.2629 136.003 33.3203C136.189 33.3425 136.378 33.3363 136.562 33.3021L143.773 32.0549C144.09 32.0067 144.389 31.8736 144.637 31.6696C144.885 31.4657 145.073 31.1985 145.181 30.8963C145.302 30.5604 145.335 30.1993 145.277 29.847C145.219 29.4948 145.073 29.1632 144.851 28.8837Z" fill="#A9B4BE"/>
<path d="M117.445 0.0844665C117.236 0.013539 117.015 -0.0131697 116.796 0.00604575C116.577 0.0252612 116.364 0.0899774 116.171 0.196065C115.978 0.302152 115.81 0.44728 115.676 0.62218C115.543 0.797081 115.447 0.997914 115.395 1.21186L113.409 8.0569C113.338 8.30325 113.317 8.56121 113.347 8.81569C113.378 9.07018 113.458 9.3161 113.585 9.53909C113.711 9.76209 113.88 9.9577 114.083 10.1145C114.286 10.2713 114.518 10.3861 114.765 10.4523C114.867 10.4824 114.97 10.5042 115.075 10.5174C115.462 10.5717 115.855 10.4791 116.177 10.2579C116.499 10.0367 116.727 9.70286 116.815 9.32228L118.799 2.47984C118.87 2.23366 118.891 1.97579 118.861 1.72131C118.831 1.46684 118.751 1.22089 118.625 0.997832C118.499 0.774779 118.329 0.579112 118.127 0.422281C117.924 0.265449 117.692 0.150604 117.445 0.0844665Z" fill="#A9B4BE"/>
<path d="M135.161 9.35357C134.921 9.33799 134.68 9.37152 134.454 9.4521C134.227 9.53268 134.02 9.65862 133.843 9.82222L125.865 17.0813C125.509 17.4088 125.293 17.8613 125.263 18.3441C125.233 18.8269 125.391 19.3027 125.704 19.6719C125.995 20.0132 126.404 20.2325 126.849 20.2864C127.106 20.317 127.367 20.2919 127.613 20.2129C127.859 20.1338 128.085 20.0026 128.276 19.8281L136.255 12.5691C136.613 12.24 136.829 11.7848 136.859 11.2993C136.889 10.8138 136.729 10.3356 136.413 9.96543C136.257 9.78436 136.065 9.63682 135.85 9.53168C135.634 9.42654 135.4 9.36596 135.161 9.35357Z" fill="#A9B4BE"/>
<path d="M56.6667 160C75.8125 160 91.3333 158.209 91.3333 156C91.3333 153.791 75.8125 152 56.6667 152C37.5208 152 22 153.791 22 156C22 158.209 37.5208 160 56.6667 160Z" fill="#8396A8" fill-opacity="0.2"/>
</svg>
