<svg width="64" height="64" viewBox="0 0 64 64" fill="none" xmlns="http://www.w3.org/2000/svg">
<path d="M49.5365 55.5926V5.96652C49.5496 5.04669 49.2 4.15849 48.5628 3.49315C47.9257 2.82782 47.0521 2.43856 46.13 2.40918H14.578C13.5828 2.40918 12.5974 2.60463 11.678 2.98437C10.7586 3.36411 9.92322 3.92071 9.21954 4.62239C8.51586 5.32406 7.95768 6.15705 7.57685 7.07383C7.19602 7.9906 7 8.9732 7 9.96552V56.4438C7.00213 58.4472 7.80122 60.3679 9.2219 61.7846C10.6426 63.2012 12.5688 63.998 14.578 64.0001H56.9775V63.9439C54.9268 63.702 53.0364 62.7181 51.6649 61.1788C50.2933 59.6394 49.536 57.6517 49.5365 55.5926Z" fill="#8396A8"/>
<path d="M49.5365 53.1834V3.55734C49.5496 2.63751 49.2 1.74931 48.5628 1.08397C47.9257 0.418638 47.0521 0.0293781 46.13 0H14.578C13.5828 0 12.5974 0.19545 11.678 0.575191C10.7586 0.954932 9.92322 1.51154 9.21954 2.21321C8.51586 2.91488 7.95768 3.74787 7.57685 4.66465C7.19602 5.58142 7 6.56402 7 7.55633V54.0346C7.00213 56.038 7.80122 57.9587 9.2219 59.3754C10.6426 60.792 12.5688 61.5888 14.578 61.5909H56.9775V61.5347C54.9268 61.2928 53.0364 60.3089 51.6649 58.7696C50.2933 57.2302 49.536 55.2425 49.5365 53.1834Z" fill="#2F3235"/>
<path fill-rule="evenodd" clip-rule="evenodd" d="M48.6831 3.55125L48.6832 3.54516C48.6931 2.84978 48.4289 2.17786 47.9465 1.67416C47.467 1.17342 46.8101 0.878747 46.1155 0.853333H14.578C13.6945 0.853333 12.8198 1.02684 12.0038 1.3639C11.1877 1.70095 10.4464 2.19492 9.82208 2.81746C9.19775 3.44001 8.70264 4.17893 8.3649 4.992C8.02715 5.80507 7.85333 6.67643 7.85333 7.55633V54.0341C7.85533 55.8106 8.56393 57.5142 9.82443 58.7711C11.0851 60.0282 12.7949 60.7357 14.5789 60.7376H52.5942C52.0246 60.3344 51.4985 59.8655 51.0277 59.3372C49.5171 57.6418 48.6826 55.4521 48.6831 53.1834C48.6831 53.1833 48.6831 53.1835 48.6831 53.1834V3.55125ZM49.5365 53.1834C49.536 55.2425 50.2933 57.2302 51.6649 58.7696C52.4001 59.5948 53.2845 60.2604 54.2627 60.7376C55.1093 61.1506 56.0261 61.4225 56.9775 61.5347V61.5909H14.578C12.5688 61.5888 10.6426 60.792 9.2219 59.3754C7.80122 57.9587 7.00213 56.038 7 54.0346V7.55633C7 6.56402 7.19602 5.58142 7.57685 4.66465C7.95768 3.74787 8.51586 2.91488 9.21954 2.21321C9.92322 1.51154 10.7586 0.954932 11.678 0.575191C12.5974 0.19545 13.5828 0 14.578 0H46.13C47.0521 0.0293781 47.9257 0.418638 48.5628 1.08397C49.2 1.74931 49.5496 2.63751 49.5365 3.55734V53.1834Z" fill="#8396A8"/>
<path d="M28.2693 13.3862H14.9092C13.9885 13.3862 13.2422 14.1304 13.2422 15.0485V15.0565C13.2422 15.9745 13.9885 16.7187 14.9092 16.7187H28.2693C29.1899 16.7187 29.9363 15.9745 29.9363 15.0565V15.0485C29.9363 14.1304 29.1899 13.3862 28.2693 13.3862Z" fill="#F58B00"/>
</svg>
