<svg width="112" height="112" viewBox="0 0 112 112" fill="none" xmlns="http://www.w3.org/2000/svg">
<path d="M39.4841 40.6767H55.8784C57.0102 40.6767 57.9277 39.7508 57.9277 38.6088C57.9277 37.4667 57.0102 36.5409 55.8784 36.5409H39.4841C38.3523 36.5409 37.4349 37.4667 37.4349 38.6088C37.4349 39.7508 38.3523 40.6767 39.4841 40.6767Z" fill="#F58B00"/>
<path d="M11.4869 103.394C11.0203 103.396 10.5674 103.235 10.2061 102.937C4.73279 98.4911 2.13704 93.33 2.7006 87.9965C3.55447 79.7077 10.6074 74.6241 23.5777 72.9008C33.0471 71.6429 42.5848 71.8841 51.8066 72.1168C55.0171 72.1943 58.3472 72.2805 61.609 72.2977C64.1706 72.2977 66.7322 72.4356 69.1914 72.5562C77.5935 72.9526 86.2687 73.3748 93.8682 69.5836C96.4693 68.2636 98.7607 66.3974 100.588 64.1103C102.416 61.8232 103.738 59.1681 104.465 56.3232C105.33 53.2774 105.55 50.0816 105.108 46.9445C104.667 43.8073 103.575 40.7994 101.903 38.1171L101.681 37.7725C99.1195 33.809 95.5332 32.1029 89.7269 32.0685C89.1834 32.0685 88.6622 31.8506 88.2778 31.4628C87.8935 31.075 87.6776 30.549 87.6776 30.0006C87.6776 29.4522 87.8935 28.9262 88.2778 28.5383C88.6622 28.1505 89.1834 27.9327 89.7269 27.9327C97.0019 27.9758 101.749 30.3108 105.097 35.5064L105.327 35.8683C107.313 39.038 108.616 42.5942 109.15 46.3055C109.684 50.0168 109.438 53.8 108.427 57.4089C107.546 60.8163 105.955 63.9948 103.76 66.7318C101.564 69.4688 98.8147 71.7013 95.6955 73.28C87.1568 77.5364 77.9264 77.0969 69.0035 76.6661C66.5614 76.5541 64.0255 76.4335 61.5919 76.4163C58.2875 76.4163 54.9488 76.3129 51.7127 76.2353C42.6446 76.0027 33.2691 75.77 24.1241 76.9849C13.1178 78.4497 7.44808 82.1547 6.78206 88.4187C6.36367 92.3391 8.38734 96.1733 12.7591 99.6974C13.09 99.9659 13.3299 100.332 13.4459 100.744C13.5619 101.156 13.5482 101.594 13.4067 101.998C13.2651 102.402 13.0027 102.752 12.6557 102.998C12.3088 103.245 11.8944 103.377 11.4698 103.376L11.4869 103.394Z" fill="#5581AE"/>
<path d="M37.9729 59.2883H19.5293V0H37.9729C38.242 -6.4745e-08 38.5085 0.0534784 38.7571 0.1574C39.0057 0.261322 39.2316 0.41365 39.4219 0.605672C39.6122 0.797694 39.7632 1.02567 39.8662 1.27655C39.9692 1.52744 40.0222 1.79636 40.0222 2.06792C40.0222 2.33948 39.9692 2.60834 39.8662 2.85923C39.7632 3.11012 39.6122 3.33809 39.4219 3.53011C39.2316 3.72214 39.0057 3.87446 38.7571 3.97838C38.5085 4.08231 38.242 4.13578 37.9729 4.13578H23.5937V55.1439H37.9387C38.4822 55.1439 39.0035 55.3618 39.3878 55.7496C39.7721 56.1374 39.988 56.6634 39.988 57.2119C39.988 57.7603 39.7721 58.2862 39.3878 58.674C39.0035 59.0619 38.4822 59.2797 37.9387 59.2797L37.9729 59.2883Z" fill="#B9C1C6"/>
<path d="M39.4841 23.4438L55.8784 23.4438C57.0102 23.4438 57.9277 22.5179 57.9277 21.3759C57.9277 20.2338 57.0102 19.308 55.8784 19.308L39.4841 19.308C38.3523 19.308 37.4349 20.2338 37.4349 21.3759C37.4349 22.5179 38.3523 23.4438 39.4841 23.4438Z" fill="#F58B00"/>
<path d="M55.4453 51.7056V7.59905C55.4453 6.45698 54.5278 5.53113 53.3961 5.53113C52.2643 5.53113 51.3468 6.45698 51.3468 7.59905V51.7056C51.3468 52.8477 52.2643 53.7735 53.3961 53.7735C54.5278 53.7735 55.4453 52.8477 55.4453 51.7056Z" fill="#64EDD2"/>
<path d="M73.9726 48.9497H55.1875V11.0382H73.9726C78.9548 11.0382 83.7328 13.0353 87.2557 16.5902C90.7786 20.1451 92.7578 24.9666 92.7578 29.9939C92.7578 35.0213 90.7786 39.8428 87.2557 43.3977C83.7328 46.9525 78.9548 48.9497 73.9726 48.9497Z" fill="#64EDD2"/>
<path d="M92.8097 29.9068C92.8175 30.7458 92.7604 31.5841 92.6389 32.4141C92.0372 27.8639 89.8195 23.6886 86.3977 20.6635C82.9759 17.6385 78.5824 15.9693 74.0332 15.9658H55.248V10.9511H74.0332C79.0138 10.9534 83.7897 12.9515 87.3107 16.5061C90.8317 20.0608 92.8097 24.881 92.8097 29.9068Z" fill="#00A58A"/>
<path fill-rule="evenodd" clip-rule="evenodd" d="M14.9865 105.253C15.6197 104.348 16.8667 104.128 17.7718 104.761C19.0953 105.687 19.7234 106.117 20.3534 106.549L20.3549 106.55C20.9924 106.986 21.6324 107.424 22.9717 108.361C23.8768 108.994 24.0971 110.241 23.4638 111.146C22.8306 112.051 21.5836 112.272 20.6786 111.639C19.355 110.712 18.7269 110.282 18.0969 109.851L18.0954 109.85C17.4579 109.414 16.8179 108.976 15.4786 108.039C14.5736 107.405 14.3532 106.158 14.9865 105.253Z" fill="#5581AE"/>
</svg>
