<svg width="112" height="112" viewBox="0 0 112 112" fill="none" xmlns="http://www.w3.org/2000/svg">
<path d="M39.4851 40.6767H55.8794C57.0112 40.6767 57.9287 39.7508 57.9287 38.6088C57.9287 37.4667 57.0112 36.5409 55.8794 36.5409H39.4851C38.3533 36.5409 37.4359 37.4667 37.4359 38.6088C37.4359 39.7508 38.3533 40.6767 39.4851 40.6767Z" fill="#F58B00"/>
<path d="M11.4869 103.394C11.0203 103.396 10.5674 103.235 10.2061 102.937C4.73279 98.4911 2.13704 93.33 2.7006 87.9966C3.55447 79.7078 10.6074 74.6242 23.5777 72.9009C33.0471 71.6429 42.5848 71.8842 51.8066 72.1169C55.0171 72.1944 58.3472 72.2805 61.609 72.2978C64.1706 72.2978 66.7323 72.4357 69.1914 72.5563C77.5935 72.9526 86.2687 73.3748 93.8682 69.5837C96.4694 68.2637 98.7607 66.3975 100.588 64.1104C102.416 61.8233 103.738 59.1682 104.465 56.3233C105.33 53.2775 105.55 50.0817 105.108 46.9445C104.667 43.8074 103.575 40.7994 101.903 38.1171L101.681 37.7725C99.1195 33.8091 95.5332 32.103 89.7269 32.0685C89.1834 32.0685 88.6622 31.8507 88.2779 31.4629C87.8935 31.075 87.6776 30.5491 87.6776 30.0007C87.6776 29.4522 87.8935 28.9262 88.2779 28.5384C88.6622 28.1506 89.1834 27.9327 89.7269 27.9327C97.0019 27.9758 101.749 30.3109 105.097 35.5064L105.327 35.8683C107.313 39.038 108.616 42.5943 109.15 46.3056C109.684 50.0169 109.438 53.8001 108.427 57.4089C107.546 60.8163 105.955 63.9948 103.76 66.7319C101.564 69.4689 98.8148 71.7013 95.6955 73.28C87.1568 77.5364 77.9265 77.097 69.0035 76.6662C66.5614 76.5542 64.0255 76.4336 61.5919 76.4163C58.2875 76.4163 54.9488 76.3129 51.7127 76.2354C42.6446 76.0028 33.2691 75.7701 24.1241 76.985C13.1178 78.4498 7.44808 82.1548 6.78206 88.4188C6.36367 92.3392 8.38734 96.1734 12.7591 99.6974C13.09 99.966 13.3299 100.332 13.4459 100.744C13.5619 101.156 13.5482 101.594 13.4067 101.998C13.2651 102.402 13.0027 102.752 12.6558 102.999C12.3088 103.245 11.8944 103.378 11.4698 103.377L11.4869 103.394Z" fill="#00144A"/>
<path d="M37.9739 59.2884H19.5303V0H37.9739C38.243 -6.4745e-08 38.5094 0.0534784 38.7581 0.1574C39.0067 0.261322 39.2326 0.41365 39.4229 0.605672C39.6132 0.797694 39.7642 1.02567 39.8672 1.27655C39.9701 1.52744 40.0231 1.79636 40.0231 2.06792C40.0231 2.33948 39.9701 2.60834 39.8672 2.85923C39.7642 3.11012 39.6132 3.33809 39.4229 3.53011C39.2326 3.72214 39.0067 3.87446 38.7581 3.97839C38.5094 4.08231 38.243 4.13579 37.9739 4.13579H23.5947V55.1439H37.9397C38.4832 55.1439 39.0045 55.3618 39.3888 55.7496C39.7731 56.1374 39.989 56.6634 39.989 57.2119C39.989 57.7603 39.7731 58.2863 39.3888 58.6741C39.0045 59.0619 38.4832 59.2797 37.9397 59.2797L37.9739 59.2884Z" fill="#A9B4BE"/>
<path d="M39.4851 23.4438L55.8794 23.4438C57.0112 23.4438 57.9287 22.5179 57.9287 21.3759C57.9287 20.2338 57.0112 19.308 55.8794 19.308L39.4851 19.308C38.3533 19.308 37.4359 20.2338 37.4359 21.3759C37.4359 22.5179 38.3533 23.4438 39.4851 23.4438Z" fill="#F58B00"/>
<path d="M55.4443 51.7056V7.59905C55.4443 6.45698 54.5269 5.53113 53.3951 5.53113C52.2633 5.53113 51.3458 6.45698 51.3458 7.59905V51.7056C51.3458 52.8477 52.2633 53.7735 53.3951 53.7735C54.5269 53.7735 55.4443 52.8477 55.4443 51.7056Z" fill="#64EDD2"/>
<path d="M73.9736 48.9497H55.1885V11.0382H73.9736C78.9557 11.0382 83.7338 13.0353 87.2567 16.5902C90.7796 20.1451 92.7587 24.9666 92.7587 29.9939C92.7587 35.0213 90.7796 39.8428 87.2567 43.3977C83.7338 46.9525 78.9557 48.9497 73.9736 48.9497Z" fill="#64EDD2"/>
<path d="M92.8097 29.9068C92.8175 30.7458 92.7604 31.5841 92.6389 32.4141C92.0372 27.8639 89.8195 23.6886 86.3977 20.6635C82.9759 17.6385 78.5824 15.9693 74.0332 15.9658H55.248V10.9511H74.0332C79.0138 10.9534 83.7897 12.9515 87.3107 16.5061C90.8318 20.0608 92.8097 24.881 92.8097 29.9068Z" fill="#00A58A"/>
<path fill-rule="evenodd" clip-rule="evenodd" d="M14.9865 105.253C15.6197 104.348 16.8667 104.128 17.7718 104.761C19.0953 105.687 19.7234 106.117 20.3534 106.549L20.3549 106.55C20.9924 106.986 21.6324 107.424 22.9717 108.361C23.8768 108.994 24.0971 110.241 23.4638 111.146C22.8306 112.051 21.5836 112.272 20.6786 111.639C19.355 110.712 18.7269 110.282 18.0969 109.851L18.0954 109.85C17.4579 109.414 16.8179 108.976 15.4786 108.039C14.5736 107.405 14.3532 106.158 14.9865 105.253Z" fill="#00144A"/>
</svg>
