<svg width="48" height="50" viewBox="0 0 48 50" fill="none" xmlns="http://www.w3.org/2000/svg">
<path d="M10.3101 10.6015L4.91205 43.1629C4.67262 44.6072 5.64844 45.9723 7.09162 46.2119L29.7211 49.9692C31.1643 50.2088 32.5283 49.2322 32.7677 47.7879L38.1658 15.2265C38.4052 13.7822 37.4294 12.4171 35.9862 12.1775L13.3567 8.42023C11.9135 8.18061 10.5495 9.15718 10.3101 10.6015Z" fill="#8396A8"/>
<path d="M29.2171 9.96511H7.24843C5.78553 9.96511 4.59961 11.1519 4.59961 12.616V44.3037C4.59961 45.7677 5.78553 46.9546 7.24843 46.9546H29.2171C30.68 46.9546 31.8659 45.7677 31.8659 44.3037V12.616C31.8659 11.1519 30.68 9.96511 29.2171 9.96511Z" fill="#2F3235"/>
<path d="M29.2162 47.2859H7.24751C6.45718 47.2859 5.69922 46.9717 5.14038 46.4124C4.58153 45.8531 4.26758 45.0946 4.26758 44.3037V12.616C4.26758 11.825 4.58153 11.0665 5.14038 10.5072C5.69922 9.94793 6.45718 9.63374 7.24751 9.63374H29.2162C30.0065 9.63374 30.7645 9.94793 31.3233 10.5072C31.8822 11.0665 32.1961 11.825 32.1961 12.616V44.3037C32.1961 45.0946 31.8822 45.8531 31.3233 46.4124C30.7645 46.9717 30.0065 47.2859 29.2162 47.2859ZM7.24751 10.2965C6.63281 10.2965 6.04328 10.5408 5.60863 10.9758C5.17397 11.4108 4.92978 12.0008 4.92978 12.616V44.3037C4.92978 44.9188 5.17397 45.5088 5.60863 45.9438C6.04328 46.3788 6.63281 46.6232 7.24751 46.6232H29.2162C29.8309 46.6232 30.4204 46.3788 30.8551 45.9438C31.2897 45.5088 31.5339 44.9188 31.5339 44.3037V12.616C31.5339 12.0008 31.2897 11.4108 30.8551 10.9758C30.4204 10.5408 29.8309 10.2965 29.2162 10.2965H7.24751Z" fill="#8396A8"/>
<path d="M34.5093 18.6474C39.1063 18.6474 42.8329 14.9207 42.8329 10.3237C42.8329 5.72664 39.1063 2 34.5093 2C29.9122 2 26.1855 5.72664 26.1855 10.3237C26.1855 14.9207 29.9122 18.6474 34.5093 18.6474Z" fill="#5581AE"/>
<path fill-rule="evenodd" clip-rule="evenodd" d="M43.9432 10.3237C43.9432 15.5337 39.7197 19.7572 34.5097 19.7572C29.2997 19.7572 25.0762 15.5337 25.0762 10.3237C25.0762 5.1137 29.2997 0.890167 34.5097 0.890167C39.7197 0.890167 43.9432 5.1137 43.9432 10.3237ZM42.8334 10.3237C42.8334 14.9207 39.1068 18.6474 34.5097 18.6474C29.9126 18.6474 26.186 14.9207 26.186 10.3237C26.186 5.72664 29.9126 1.99999 34.5097 1.99999C39.1068 1.99999 42.8334 5.72664 42.8334 10.3237Z" fill="#D5DADD"/>
<path d="M35.2604 9.14435C35.2568 9.22315 35.2698 9.30183 35.2986 9.37537C35.3273 9.44892 35.3712 9.51572 35.4275 9.5715C35.4837 9.62728 35.5511 9.67082 35.6253 9.69934C35.6994 9.72786 35.7788 9.74072 35.8583 9.73714H38.572C38.6513 9.74077 38.7305 9.7279 38.8044 9.69934C38.8784 9.67078 38.9455 9.62717 39.0014 9.57132C39.0574 9.51547 39.1009 9.44861 39.1292 9.37507C39.1575 9.30153 39.1699 9.22295 39.1656 9.14435V6.41162C39.1699 6.33303 39.1575 6.25442 39.1292 6.18088C39.1009 6.10734 39.0574 6.04048 39.0014 5.98463C38.9455 5.92878 38.8784 5.88517 38.8044 5.85661C38.7305 5.82805 38.6513 5.81518 38.572 5.81882C38.4926 5.81523 38.4132 5.82812 38.339 5.85664C38.2648 5.88516 38.1975 5.9287 38.1412 5.98448C38.085 6.04026 38.0411 6.10703 38.0123 6.18058C37.9835 6.25412 37.9705 6.33282 37.9741 6.41162V7.3996C37.5293 6.90407 36.984 6.50716 36.3739 6.23477C35.7638 5.96238 35.1027 5.82064 34.4336 5.81882C33.1778 5.81993 31.9737 6.31505 31.0857 7.1955C30.1977 8.07594 29.6984 9.26976 29.6973 10.5149C29.6984 11.76 30.1977 12.9539 31.0857 13.8343C31.9737 14.7148 33.1778 15.2099 34.4336 15.211C35.5099 15.2059 36.553 14.8414 37.3947 14.1762C38.2363 13.5111 38.8274 12.5841 39.0723 11.5449C39.0883 11.4646 39.0879 11.382 39.0712 11.3019C39.0544 11.2217 39.0216 11.1457 38.9748 11.0783C38.9318 11.0149 38.8761 10.9609 38.8112 10.9197C38.7463 10.8785 38.6735 10.8509 38.5974 10.8386C38.5165 10.8228 38.4331 10.8232 38.3523 10.8398C38.2714 10.8564 38.1948 10.8889 38.1268 10.9353C38.0633 10.9775 38.0092 11.0321 37.9676 11.0957C37.9261 11.1593 37.898 11.2306 37.8851 11.3053C37.7105 12.0818 37.2726 12.7755 36.6444 13.2705C36.0163 13.7655 35.236 14.032 34.4336 14.0254C33.4945 14.0243 32.5942 13.6542 31.9297 12.9962C31.2653 12.3383 30.891 11.446 30.8887 10.5149C30.8899 9.58308 31.2637 8.68977 31.9282 8.03087C32.5928 7.37198 33.4938 7.00131 34.4336 7.0002C35.013 6.99931 35.5835 7.14095 36.0941 7.41243C36.6047 7.68391 37.0394 8.07676 37.3593 8.55576H35.8117C35.7359 8.55675 35.6612 8.57298 35.5919 8.60346C35.5227 8.63393 35.4604 8.67802 35.4089 8.73304C35.3574 8.78807 35.3177 8.8529 35.2921 8.9236C35.2666 8.9943 35.2558 9.0694 35.2604 9.14435Z" fill="#EAECEE"/>
</svg>
