<svg width="49" height="50" viewBox="0 0 49 50" fill="none" xmlns="http://www.w3.org/2000/svg">
<path d="M10.8101 10.1015L5.41205 42.6629C5.17262 44.1072 6.14844 45.4723 7.59162 45.7119L30.2211 49.4692C31.6643 49.7088 33.0283 48.7322 33.2677 47.2879L38.6658 14.7265C38.9052 13.2822 37.9294 11.9171 36.4862 11.6775L13.8567 7.92023C12.4135 7.68061 11.0495 8.65718 10.8101 10.1015Z" fill="#F58B00"/>
<path d="M29.7152 9.46511H7.74648C6.28358 9.46511 5.09766 10.6519 5.09766 12.116V43.8037C5.09766 45.2677 6.28358 46.4546 7.74648 46.4546H29.7152C31.1781 46.4546 32.364 45.2677 32.364 43.8037V12.116C32.364 10.6519 31.1781 9.46511 29.7152 9.46511Z" fill="white"/>
<path d="M29.7152 46.7859H7.74653C6.9562 46.7859 6.19824 46.4717 5.6394 45.9124C5.08056 45.3531 4.7666 44.5946 4.7666 43.8037V12.116C4.7666 11.325 5.08056 10.5665 5.6394 10.0072C6.19824 9.44793 6.9562 9.13374 7.74653 9.13374H29.7152C30.5055 9.13374 31.2635 9.44793 31.8223 10.0072C32.3812 10.5665 32.6951 11.325 32.6951 12.116V43.8037C32.6951 44.5946 32.3812 45.3531 31.8223 45.9124C31.2635 46.4717 30.5055 46.7859 29.7152 46.7859ZM7.74653 9.79645C7.13183 9.79645 6.54231 10.0408 6.10765 10.4758C5.67299 10.9108 5.42881 11.5008 5.42881 12.116V43.8037C5.42881 44.4188 5.67299 45.0088 6.10765 45.4438C6.54231 45.8788 7.13183 46.1232 7.74653 46.1232H29.7152C30.3299 46.1232 30.9194 45.8788 31.3541 45.4438C31.7887 45.0088 32.0329 44.4188 32.0329 43.8037V12.116C32.0329 11.5008 31.7887 10.9108 31.3541 10.4758C30.9194 10.0408 30.3299 9.79645 29.7152 9.79645H7.74653Z" fill="#00144A"/>
<path d="M35.0093 18.1474C39.6063 18.1474 43.3329 14.4207 43.3329 9.8237C43.3329 5.22664 39.6063 1.5 35.0093 1.5C30.4122 1.5 26.6855 5.22664 26.6855 9.8237C26.6855 14.4207 30.4122 18.1474 35.0093 18.1474Z" fill="#004DA5"/>
<path fill-rule="evenodd" clip-rule="evenodd" d="M44.4432 9.82369C44.4432 15.0337 40.2197 19.2572 35.0097 19.2572C29.7997 19.2572 25.5762 15.0337 25.5762 9.82369C25.5762 4.6137 29.7997 0.390167 35.0097 0.390167C40.2197 0.390167 44.4432 4.6137 44.4432 9.82369ZM43.3334 9.82369C43.3334 14.4207 39.6068 18.1474 35.0097 18.1474C30.4126 18.1474 26.686 14.4207 26.686 9.82369C26.686 5.22664 30.4126 1.49999 35.0097 1.49999C39.6068 1.49999 43.3334 5.22664 43.3334 9.82369Z" fill="white"/>
<path d="M35.7614 8.64435C35.7578 8.72315 35.7708 8.80183 35.7995 8.87537C35.8283 8.94892 35.8722 9.01572 35.9285 9.0715C35.9847 9.12728 36.0521 9.17082 36.1262 9.19934C36.2004 9.22786 36.2798 9.24072 36.3593 9.23714H39.073C39.1523 9.24077 39.2314 9.2279 39.3054 9.19934C39.3794 9.17078 39.4465 9.12717 39.5024 9.07132C39.5583 9.01547 39.6019 8.94861 39.6302 8.87507C39.6584 8.80153 39.6708 8.72295 39.6666 8.64435V5.91162C39.6708 5.83303 39.6584 5.75442 39.6302 5.68088C39.6019 5.60734 39.5583 5.54048 39.5024 5.48463C39.4465 5.42878 39.3794 5.38517 39.3054 5.35661C39.2314 5.32805 39.1523 5.31518 39.073 5.31882C38.9935 5.31523 38.9142 5.32812 38.84 5.35664C38.7658 5.38516 38.6985 5.4287 38.6422 5.48448C38.586 5.54026 38.542 5.60703 38.5133 5.68058C38.4845 5.75412 38.4715 5.83282 38.4751 5.91162V6.8996C38.0303 6.40407 37.485 6.00716 36.8749 5.73477C36.2648 5.46238 35.6037 5.32064 34.9346 5.31882C33.6788 5.31993 32.4747 5.81505 31.5867 6.6955C30.6987 7.57594 30.1994 8.76976 30.1982 10.0149C30.1994 11.26 30.6987 12.4539 31.5867 13.3343C32.4747 14.2148 33.6788 14.7099 34.9346 14.711C36.0109 14.7059 37.054 14.3414 37.8957 13.6762C38.7373 13.0111 39.3283 12.0841 39.5733 11.0449C39.5893 10.9646 39.5889 10.882 39.5721 10.8019C39.5554 10.7217 39.5226 10.6457 39.4758 10.5783C39.4328 10.5149 39.377 10.4609 39.3121 10.4197C39.2472 10.3785 39.1745 10.3509 39.0984 10.3386C39.0174 10.3228 38.9341 10.3232 38.8532 10.3398C38.7724 10.3564 38.6958 10.3889 38.6278 10.4353C38.5643 10.4775 38.5102 10.5321 38.4686 10.5957C38.4271 10.6593 38.3989 10.7306 38.386 10.8053C38.2114 11.5818 37.7735 12.2755 37.1454 12.7705C36.5173 13.2655 35.7369 13.532 34.9346 13.5254C33.9955 13.5243 33.0951 13.1542 32.4307 12.4962C31.7663 11.8383 31.392 10.946 31.3897 10.0149C31.3908 9.08308 31.7647 8.18977 32.4292 7.53087C33.0938 6.87198 33.9948 6.50131 34.9346 6.5002C35.514 6.49931 36.0845 6.64095 36.5951 6.91243C37.1057 7.18391 37.5404 7.57676 37.8603 8.05576H36.3126C36.2369 8.05675 36.1621 8.07298 36.0929 8.10346C36.0237 8.13393 35.9614 8.17802 35.9099 8.23304C35.8584 8.28807 35.8186 8.3529 35.7931 8.4236C35.7676 8.4943 35.7568 8.5694 35.7614 8.64435Z" fill="white"/>
</svg>
