<svg width="48" height="50" viewBox="0 0 48 50" fill="none" xmlns="http://www.w3.org/2000/svg">
<path d="M10.3091 10.6008L4.91107 43.1622C4.67164 44.6065 5.64747 45.9716 7.09064 46.2112L29.7201 49.9685C31.1633 50.2081 32.5273 49.2315 32.7668 47.7873L38.1648 15.2258C38.4042 13.7815 37.4284 12.4165 35.9852 12.1768L13.3558 8.41955C11.9126 8.17993 10.5485 9.1565 10.3091 10.6008Z" fill="#8396A8"/>
<path d="M29.2152 9.96484H7.24648C5.78358 9.96484 4.59766 11.1517 4.59766 12.6157V44.3034C4.59766 45.7675 5.78358 46.9543 7.24648 46.9543H29.2152C30.6781 46.9543 31.864 45.7675 31.864 44.3034V12.6157C31.864 11.1517 30.6781 9.96484 29.2152 9.96484Z" fill="#2F3235"/>
<path d="M29.2152 47.2859H7.24653C6.4562 47.2859 5.69824 46.9717 5.1394 46.4125C4.58056 45.8532 4.2666 45.0947 4.2666 44.3037V12.616C4.2666 11.8251 4.58056 11.0665 5.1394 10.5073C5.69824 9.94799 6.4562 9.63379 7.24653 9.63379H29.2152C30.0055 9.63379 30.7635 9.94799 31.3223 10.5073C31.8812 11.0665 32.1951 11.8251 32.1951 12.616V44.3037C32.1951 45.0947 31.8812 45.8532 31.3223 46.4125C30.7635 46.9717 30.0055 47.2859 29.2152 47.2859ZM7.24653 10.2965C6.63183 10.2965 6.04231 10.5409 5.60765 10.9759C5.17299 11.4109 4.92881 12.0008 4.92881 12.616V44.3037C4.92881 44.9189 5.17299 45.5089 5.60765 45.9439C6.04231 46.3789 6.63183 46.6232 7.24653 46.6232H29.2152C29.8299 46.6232 30.4194 46.3789 30.8541 45.9439C31.2887 45.5089 31.5329 44.9189 31.5329 44.3037V12.616C31.5329 12.0008 31.2887 11.4109 30.8541 10.9759C30.4194 10.5409 29.8299 10.2965 29.2152 10.2965H7.24653Z" fill="#8396A8"/>
<path d="M34.5093 18.6474C39.1063 18.6474 42.8329 14.9207 42.8329 10.3237C42.8329 5.72664 39.1063 2 34.5093 2C29.9122 2 26.1855 5.72664 26.1855 10.3237C26.1855 14.9207 29.9122 18.6474 34.5093 18.6474Z" fill="#5581AE"/>
<path fill-rule="evenodd" clip-rule="evenodd" d="M43.9432 10.3232C43.9432 15.5332 39.7197 19.7567 34.5097 19.7567C29.2997 19.7567 25.0762 15.5332 25.0762 10.3232C25.0762 5.11318 29.2997 0.889648 34.5097 0.889648C39.7197 0.889648 43.9432 5.11318 43.9432 10.3232ZM42.8334 10.3232C42.8334 14.9202 39.1068 18.6469 34.5097 18.6469C29.9126 18.6469 26.186 14.9202 26.186 10.3232C26.186 5.72612 29.9126 1.99948 34.5097 1.99948C39.1068 1.99948 42.8334 5.72612 42.8334 10.3232Z" fill="#D5DADD"/>
<path d="M35.2614 9.1445C35.2578 9.2233 35.2708 9.30197 35.2995 9.37552C35.3283 9.44906 35.3722 9.51586 35.4285 9.57164C35.4847 9.62742 35.5521 9.67096 35.6262 9.69948C35.7004 9.728 35.7798 9.74087 35.8593 9.73728H38.573C38.6523 9.74092 38.7314 9.72804 38.8054 9.69948C38.8794 9.67092 38.9465 9.62731 39.0024 9.57146C39.0583 9.51561 39.1019 9.44875 39.1302 9.37521C39.1584 9.30167 39.1708 9.22309 39.1666 9.1445V6.41177C39.1708 6.33318 39.1584 6.25457 39.1302 6.18103C39.1019 6.10749 39.0583 6.04063 39.0024 5.98478C38.9465 5.92893 38.8794 5.88532 38.8054 5.85676C38.7314 5.8282 38.6523 5.81533 38.573 5.81896C38.4935 5.81537 38.4142 5.82826 38.34 5.85678C38.2658 5.88531 38.1985 5.92885 38.1422 5.98462C38.086 6.0404 38.042 6.10718 38.0133 6.18072C37.9845 6.25427 37.9715 6.33297 37.9751 6.41177V7.39974C37.5303 6.90421 36.985 6.50731 36.3749 6.23492C35.7648 5.96253 35.1037 5.82078 34.4346 5.81896C33.1788 5.82007 31.9747 6.3152 31.0867 7.19564C30.1987 8.07609 29.6994 9.26991 29.6982 10.515C29.6994 11.7602 30.1987 12.954 31.0867 13.8345C31.9747 14.7149 33.1788 15.21 34.4346 15.2112C35.5109 15.2061 36.554 14.8415 37.3957 14.1764C38.2373 13.5112 38.8283 12.5842 39.0733 11.5451C39.0893 11.4648 39.0889 11.3821 39.0721 11.302C39.0554 11.2219 39.0226 11.1458 38.9758 11.0784C38.9328 11.015 38.877 10.9611 38.8121 10.9198C38.7472 10.8786 38.6745 10.851 38.5984 10.8388C38.5174 10.823 38.4341 10.8234 38.3532 10.84C38.2724 10.8566 38.1958 10.8891 38.1278 10.9355C38.0643 10.9777 38.0102 11.0322 37.9686 11.0958C37.9271 11.1594 37.8989 11.2308 37.886 11.3054C37.7114 12.0819 37.2735 12.7756 36.6454 13.2706C36.0173 13.7657 35.2369 14.0321 34.4346 14.0256C33.4955 14.0245 32.5951 13.6544 31.9307 12.9964C31.2663 12.3384 30.892 11.4461 30.8897 10.515C30.8908 9.58323 31.2647 8.68991 31.9292 8.03102C32.5938 7.37212 33.4948 7.00145 34.4346 7.00034C35.014 6.99945 35.5845 7.14109 36.0951 7.41258C36.6057 7.68406 37.0404 8.0769 37.3603 8.5559H35.8126C35.7369 8.5569 35.6621 8.57313 35.5929 8.6036C35.5237 8.63408 35.4614 8.67816 35.4099 8.73319C35.3584 8.78822 35.3186 8.85304 35.2931 8.92374C35.2676 8.99444 35.2568 9.06954 35.2614 9.1445Z" fill="#EAECEE"/>
</svg>
