<svg width="112" height="112" viewBox="0 0 112 112" fill="none" xmlns="http://www.w3.org/2000/svg">
<path fill-rule="evenodd" clip-rule="evenodd" d="M96.7068 11.0241L103.623 69.5361C103.819 71.2915 103.373 73.0585 102.367 74.5106L83.8823 101.63C83.2928 102.493 82.5255 103.22 81.6318 103.762C80.7382 104.303 79.7389 104.647 78.7013 104.771L17.9417 111.951C17.6674 111.983 17.3915 111.999 17.1154 112.001C15.3295 111.997 13.6069 111.339 12.2731 110.152C10.9394 108.964 10.0869 107.329 9.87678 105.556L0.0518383 22.4522C-0.0622944 21.5003 0.0124652 20.5353 0.271885 19.6124C0.531305 18.6894 0.970271 17.8268 1.56362 17.0738C2.15697 16.3208 2.89304 15.6922 3.72969 15.2241C4.56634 14.7561 5.48714 14.4576 6.4393 14.346L88.6006 4.63667C89.5523 4.52365 90.5169 4.59922 91.4394 4.85908C92.3619 5.11894 93.2241 5.55801 93.9769 6.15117C94.7297 6.74433 95.3582 7.47997 95.8266 8.31608C96.2951 9.1522 96.5941 10.0724 96.7068 11.0241ZM1.64903 21.713C1.63685 21.156 1.70728 20.5994 1.85892 20.0612C2.06045 19.346 2.40142 18.6778 2.86221 18.0949C3.32301 17.512 3.89451 17.0259 4.54386 16.6648C5.19321 16.3036 5.90761 16.0744 6.64588 15.9903L88.8072 6.27277C89.0321 6.24666 89.2583 6.23288 89.4848 6.23146C90.8615 6.23335 92.19 6.73843 93.2203 7.65156C94.2506 8.56468 94.9117 9.82289 95.079 11.1894L101.995 69.7013C102.066 70.329 102.03 70.9632 101.888 71.5765C102.023 70.9736 102.057 70.3512 101.988 69.735L95.0713 11.223C94.904 9.85653 94.243 8.59828 93.2127 7.68515C92.1824 6.77202 90.8538 6.267 89.4771 6.26511C89.2507 6.26653 89.0245 6.28031 88.7995 6.30642L6.64651 16.024C5.90824 16.108 5.19385 16.3372 4.5445 16.6984C3.89514 17.0596 3.32364 17.5456 2.86285 18.1285C2.40205 18.7114 2.06108 19.3797 1.85955 20.0949C1.71097 20.6222 1.64035 21.1673 1.64903 21.713ZM80.8412 75.6826C80.8165 75.7854 80.8028 75.8913 80.8007 75.9985L80.338 100.788C80.335 101.064 80.4113 101.336 80.5577 101.57C80.6996 101.797 80.9015 101.98 81.1408 102.099C81.1512 102.092 81.1616 102.084 81.172 102.077C80.9223 101.958 80.7118 101.771 80.5653 101.537C80.4189 101.302 80.3427 101.031 80.3456 100.755L80.8084 75.9649C80.8102 75.8693 80.8213 75.7748 80.8412 75.6826ZM51.1788 16.9626C50.2302 16.2541 49.0949 15.8388 47.9131 15.7678C46.2575 15.7189 44.6502 16.3294 43.4446 17.4653C42.2391 18.6011 41.5339 20.1691 41.4843 21.8247C41.4848 23.0087 41.8319 24.1667 42.4826 25.1558C43.1334 26.1449 44.0594 26.9219 45.1465 27.391C46.2336 27.8601 47.4342 28.0007 48.6003 27.7956C49.7664 27.5905 50.8469 27.0485 51.7087 26.2366C52.5704 25.4247 53.1757 24.3783 53.4499 23.2265C53.724 22.0747 53.6551 20.8679 53.2515 19.7548C52.8479 18.6417 52.1274 17.671 51.1788 16.9626Z" fill="#D5DADD"/>
<path d="M83.42 98.5481C84.3614 98.4318 85.2589 98.0825 86.0312 97.5317C85.7822 97.4125 85.5722 97.2249 85.4259 96.9908C85.2796 96.7566 85.2029 96.4857 85.2049 96.2096L85.6676 71.4199C85.674 71.0681 85.8057 70.73 86.0389 70.4665C86.2721 70.2029 86.5917 70.0312 86.9402 69.9821L105.805 67.3379C106.086 67.2929 106.374 67.3332 106.631 67.4536C106.864 66.7115 106.937 65.9287 106.846 65.1564L99.93 6.64446C99.7627 5.27794 99.1016 4.01974 98.0713 3.10661C97.041 2.19348 95.7125 1.68841 94.3358 1.68652C94.1101 1.6742 93.8839 1.6742 93.6582 1.68652L11.5051 11.3958C10.7669 11.4819 10.053 11.7128 9.40408 12.0751C8.75521 12.4375 8.18416 12.9242 7.72364 13.5076C7.26313 14.0909 6.92217 14.7593 6.72029 15.4746C6.51842 16.1898 6.45962 16.9379 6.5472 17.6759L16.3804 100.787C16.4665 101.525 16.6971 102.238 17.059 102.886C17.4208 103.535 17.9068 104.105 18.4892 104.566C19.0717 105.026 19.7391 105.367 20.4534 105.57C21.1677 105.772 21.9149 105.832 22.6522 105.745L83.42 98.5481ZM52.78 11.1892C53.9618 11.2602 55.0971 11.6756 56.0457 12.384C56.9943 13.0925 57.7149 14.0631 58.1184 15.1762C58.522 16.2893 58.5909 17.4962 58.3168 18.648C58.0426 19.7998 57.4373 20.8462 56.5756 21.6581C55.7138 22.47 54.6332 23.0119 53.4672 23.2171C52.3011 23.4222 51.1005 23.2815 50.0134 22.8124C48.9263 22.3433 48.0002 21.5663 47.3495 20.5772C46.6987 19.5881 46.3517 18.4302 46.3512 17.2462C46.403 15.5913 47.1088 14.0246 48.3138 12.8892C49.5189 11.7538 51.125 11.1425 52.78 11.1892Z" fill="white"/>
<path d="M108.49 64.9583L101.574 6.44637C101.346 4.52368 100.365 2.77006 98.8447 1.5708C97.3247 0.371535 95.3908 -0.175243 93.4679 0.0506417L11.3065 9.80952C10.3544 9.92118 9.43357 10.2196 8.59692 10.6877C7.76027 11.1558 7.0242 11.7843 6.43085 12.5373C5.8375 13.2903 5.39853 14.153 5.13911 15.0759C4.87969 15.9988 4.80488 16.9639 4.91901 17.9157L14.744 101.019C14.9543 102.794 15.808 104.43 17.1434 105.618C18.4789 106.806 20.2036 107.463 21.9909 107.464C22.267 107.463 22.5429 107.446 22.8172 107.415L83.5767 100.234C84.6144 100.111 85.6137 99.7667 86.5073 99.2251C87.401 98.6835 88.1683 97.9569 88.7578 97.094L107.243 69.9741C108.255 68.5098 108.699 66.7264 108.49 64.9583ZM16.3801 100.788L6.55517 17.6844C6.46759 16.9464 6.52639 16.1983 6.72826 15.4831C6.93014 14.7678 7.27109 14.0994 7.73161 13.5161C8.19213 12.9327 8.76317 12.446 9.41205 12.0836C10.0609 11.7213 10.7749 11.4904 11.5131 11.4043L93.6662 1.69502C93.8919 1.68269 94.1181 1.68269 94.3438 1.69502C95.7205 1.69691 97.049 2.20193 98.0793 3.11506C99.1096 4.02819 99.7706 5.28644 99.9379 6.65296L106.846 65.1732C106.937 65.9455 106.863 66.7282 106.631 67.4704C106.374 67.35 106.086 67.3097 105.805 67.3547L86.9399 69.9989C86.5914 70.048 86.2719 70.2197 86.0386 70.4832C85.8054 70.7468 85.6738 71.0849 85.6674 71.4367L85.2046 96.2264C85.2027 96.5025 85.2793 96.7734 85.4256 97.0075C85.572 97.2417 85.7819 97.4293 86.031 97.5485C85.2587 98.0992 84.3611 98.4485 83.4197 98.5649L22.6519 105.746C21.9146 105.832 21.1674 105.772 20.4531 105.57C19.7388 105.368 19.0714 105.026 18.4889 104.566C17.9065 104.106 17.4205 103.535 17.0587 102.887C16.6968 102.238 16.4662 101.525 16.3801 100.788ZM105.623 69.0321L86.8573 95.6562L87.3117 71.602L105.623 69.0321Z" fill="#00144A"/>
<path d="M86.8818 95.6563L105.639 69.0239L87.3363 71.602L86.8818 95.6563Z" fill="white"/>
<path d="M52.7794 23.2951C56.3299 23.2951 59.2082 20.5833 59.2082 17.2382C59.2082 13.893 56.3299 11.1812 52.7794 11.1812C49.2289 11.1812 46.3506 13.893 46.3506 17.2382C46.3506 20.5833 49.2289 23.2951 52.7794 23.2951Z" fill="#F58B00"/>
<path d="M81.4423 36.7131L31.8771 41.8964C29.8663 42.1066 28.4068 43.9071 28.6171 45.9179L28.8216 47.8738C29.0319 49.8846 30.8324 51.3441 32.8431 51.1339L82.4083 45.9506C84.4191 45.7403 85.8787 43.9398 85.6684 41.9291L85.4639 39.9731C85.2536 37.9624 83.4531 36.5028 81.4423 36.7131Z" fill="#D5DADD"/>
<path d="M64.8489 54.9759L33.3395 58.271C31.7055 58.4418 30.5194 59.905 30.6903 61.539L31.0375 64.8592C31.2083 66.4932 32.6715 67.6793 34.3055 67.5084L65.8149 64.2134C67.4489 64.0425 68.635 62.5794 68.4641 60.9453L68.1169 57.6251C67.946 55.9911 66.4829 54.805 64.8489 54.9759Z" fill="#D5DADD"/>
<path d="M76.9165 41.2105C76.6085 40.8931 76.2398 40.6409 75.8325 40.4686C75.4251 40.2963 74.9873 40.2076 74.545 40.2076C74.1027 40.2076 73.6649 40.2963 73.2576 40.4686C72.8502 40.6409 72.4815 40.8931 72.1735 41.2105L49.0364 64.3475L41.1863 56.4975C40.8744 56.186 40.5041 55.9391 40.0967 55.7708C39.6893 55.6024 39.2527 55.516 38.8119 55.5164C38.371 55.5167 37.9346 55.6039 37.5275 55.773C37.1204 55.942 36.7506 56.1896 36.4391 56.5016C36.1277 56.8136 35.8807 57.1838 35.7124 57.5912C35.5441 57.9987 35.4576 58.4353 35.458 58.8761C35.4584 59.3169 35.5456 59.7533 35.7146 60.1604C35.8837 60.5676 36.1313 60.9374 36.4433 61.2488L46.6649 71.487C46.973 71.8043 47.3416 72.0566 47.749 72.2289C48.1563 72.4012 48.5941 72.4899 49.0364 72.4899C49.4787 72.4899 49.9165 72.4012 50.3239 72.2289C50.7312 72.0566 51.0999 71.8043 51.408 71.487L76.9496 45.9453C77.267 45.6372 77.5192 45.2686 77.6915 44.8612C77.8638 44.4539 77.9526 44.0161 77.9526 43.5738C77.9526 43.1315 77.8638 42.6937 77.6915 42.2863C77.5192 41.879 77.267 41.5103 76.9496 41.2022L76.9165 41.2105Z" fill="#F58B00"/>
<path d="M57.4489 14.9841C57.6675 14.6636 57.0928 13.891 56.1652 13.2585C55.2377 12.6261 54.3086 12.3732 54.09 12.6936C53.8715 13.0141 54.4463 13.7867 55.3738 14.4192C56.3013 15.0516 57.2304 15.3046 57.4489 14.9841Z" fill="white"/>
</svg>
