<svg width="48" height="48" viewBox="0 0 48 48" fill="none" xmlns="http://www.w3.org/2000/svg">
<path d="M37.1523 41.6944V4.47489C37.1622 3.78502 36.9 3.11886 36.4221 2.61986C35.9443 2.12086 35.2891 1.82892 34.5975 1.80688H10.9335C10.1871 1.80688 9.44806 1.95347 8.75851 2.23828C8.06896 2.52308 7.44241 2.94054 6.91466 3.46679C6.3869 3.99304 5.96826 4.61779 5.68264 5.30537C5.39702 5.99295 5.25 6.7299 5.25 7.47414V42.3328C5.2516 43.8354 5.85091 45.276 6.91643 46.3384C7.98194 47.4009 9.42661 47.9985 10.9335 48.0001H42.7331V47.9579C41.1951 47.7765 39.7773 47.0386 38.7486 45.8841C37.72 44.7296 37.152 43.2388 37.1523 41.6944Z" fill="#8396A8"/>
<path d="M37.1523 39.8876V2.66801C37.1622 1.97813 36.9 1.31198 36.4221 0.812979C35.9443 0.313978 35.2891 0.0220336 34.5975 0H10.9335C10.1871 0 9.44806 0.146588 8.75851 0.431393C8.06896 0.716199 7.44241 1.13365 6.91466 1.6599C6.3869 2.18616 5.96826 2.8109 5.68264 3.49848C5.39702 4.18607 5.25 4.92302 5.25 5.66725V40.5259C5.2516 42.0285 5.85091 43.4691 6.91643 44.5315C7.98194 45.594 9.42661 46.1916 10.9335 46.1932H42.7331V46.151C41.1951 45.9696 39.7773 45.2317 38.7486 44.0772C37.72 42.9227 37.152 41.4319 37.1523 39.8876Z" fill="#2F3235"/>
<path fill-rule="evenodd" clip-rule="evenodd" d="M36.5123 2.66344L36.5124 2.65887C36.5199 2.13733 36.3216 1.63339 35.9599 1.25562C35.6003 0.880063 35.1075 0.65906 34.5866 0.64H10.9335C10.2709 0.64 9.61487 0.770132 9.00283 1.02292C8.3908 1.27571 7.83481 1.64619 7.36656 2.1131C6.89831 2.58001 6.52698 3.1342 6.27367 3.744C6.02036 4.3538 5.89 5.00732 5.89 5.66725V40.5256C5.8915 41.8579 6.42294 43.1357 7.36833 44.0783C8.31384 45.0212 9.59621 45.5518 10.9342 45.5532H39.4457C39.0185 45.2508 38.6238 44.8991 38.2708 44.5029C37.1378 43.2314 36.512 41.5891 36.5123 39.8876C36.5123 39.8875 36.5123 39.8876 36.5123 39.8876V2.66344ZM37.1523 39.8876C37.152 41.4319 37.72 42.9227 38.7486 44.0772C39.3001 44.6961 39.9634 45.1953 40.697 45.5532C41.332 45.8629 42.0196 46.0669 42.7331 46.151V46.1932H10.9335C9.42661 46.1916 7.98194 45.594 6.91643 44.5315C5.85091 43.4691 5.2516 42.0285 5.25 40.5259V5.66725C5.25 4.92302 5.39702 4.18607 5.68264 3.49848C5.96826 2.8109 6.3869 2.18616 6.91466 1.6599C7.44241 1.13365 8.06896 0.716199 8.75851 0.431393C9.44806 0.146588 10.1871 0 10.9335 0H34.5975C35.2891 0.0220336 35.9443 0.313978 36.4221 0.812979C36.9 1.31198 37.1622 1.97813 37.1523 2.66801V39.8876Z" fill="#8396A8"/>
<path d="M21.202 10.0396H11.1819C10.4914 10.0396 9.93164 10.5977 9.93164 11.2862V11.2922C9.93164 11.9808 10.4914 12.5389 11.1819 12.5389H21.202C21.8924 12.5389 22.4522 11.9808 22.4522 11.2922V11.2862C22.4522 10.5977 21.8924 10.0396 21.202 10.0396Z" fill="#F58B00"/>
</svg>
