<svg width="49" height="49" viewBox="0 0 49 49" fill="none" xmlns="http://www.w3.org/2000/svg">
<path d="M37.7354 42.1945V4.9749C37.7452 4.28502 37.483 3.61886 37.0052 3.11986C36.5273 2.62086 35.8721 2.32892 35.1805 2.30688H11.5165C10.7701 2.30688 10.0311 2.45347 9.34152 2.73828C8.65197 3.02308 8.02542 3.44054 7.49766 3.96679C6.96991 4.49304 6.55127 5.11779 6.26565 5.80537C5.98002 6.49295 5.83301 7.22991 5.83301 7.97414V42.8329C5.83461 44.3354 6.43392 45.776 7.49943 46.8385C8.56495 47.9009 10.0096 48.4985 11.5165 48.5001H43.3162V48.458C41.7781 48.2765 40.3604 47.5386 39.3317 46.3841C38.303 45.2296 37.735 43.7388 37.7354 42.1945Z" fill="#D5DADD"/>
<path d="M37.7354 40.3876V3.16801C37.7452 2.47813 37.483 1.81198 37.0052 1.31298C36.5273 0.813979 35.8721 0.522034 35.1805 0.5H11.5165C10.7701 0.5 10.0311 0.646588 9.34152 0.931394C8.65197 1.2162 8.02542 1.63365 7.49767 2.15991C6.96991 2.68616 6.55127 3.3109 6.26565 3.99849C5.98002 4.68607 5.83301 5.42302 5.83301 6.16726V41.026C5.83461 42.5285 6.43392 43.9691 7.49943 45.0316C8.56495 46.094 10.0096 46.6916 11.5165 46.6932H43.3162V46.6511C41.7781 46.4697 40.3604 45.7317 39.3317 44.5772C38.303 43.4227 37.735 41.9319 37.7354 40.3876Z" fill="white"/>
<path fill-rule="evenodd" clip-rule="evenodd" d="M37.0954 3.16344L37.0954 3.15887C37.1029 2.63734 36.9047 2.13339 36.5429 1.75562C36.1833 1.38006 35.6906 1.15906 35.1696 1.14H11.5165C10.8539 1.14 10.1979 1.27013 9.58584 1.52292C8.97381 1.77571 8.41782 2.14619 7.94957 2.6131C7.48132 3.08001 7.10999 3.6342 6.85668 4.244C6.60337 4.85381 6.47301 5.50733 6.47301 6.16726V41.0256C6.47451 42.358 7.00595 43.6357 7.95134 44.5784C8.89685 45.5212 10.1792 46.0518 11.5172 46.0532H40.0287C39.6015 45.7508 39.2069 45.3992 38.8539 45.003C37.7209 43.7314 37.095 42.0891 37.0954 40.3876C37.0954 40.3875 37.0954 40.3876 37.0954 40.3876V3.16344ZM37.7354 40.3876C37.735 41.9319 38.303 43.4227 39.3317 44.5772C39.8831 45.1961 40.5464 45.6953 41.2801 46.0532C41.915 46.363 42.6026 46.5669 43.3162 46.6511V46.6932H11.5165C10.0096 46.6916 8.56495 46.094 7.49943 45.0316C6.43392 43.9691 5.83461 42.5285 5.83301 41.026V6.16726C5.83301 5.42302 5.98002 4.68607 6.26565 3.99849C6.55127 3.3109 6.96991 2.68616 7.49767 2.15991C8.02542 1.63365 8.65197 1.2162 9.34152 0.931394C10.0311 0.646588 10.7701 0.5 11.5165 0.5H35.1805C35.8721 0.522034 36.5273 0.813979 37.0052 1.31298C37.483 1.81198 37.7452 2.47813 37.7354 3.16801V40.3876Z" fill="#00144A"/>
<path d="M21.785 10.5396H11.7649C11.0744 10.5396 10.5146 11.0977 10.5146 11.7862V11.7922C10.5146 12.4808 11.0744 13.0389 11.7649 13.0389H21.785C22.4755 13.0389 23.0352 12.4808 23.0352 11.7922V11.7862C23.0352 11.0977 22.4755 10.5396 21.785 10.5396Z" fill="#F58B00"/>
</svg>
