<svg width="320" height="240" viewBox="0 0 320 240" fill="none" xmlns="http://www.w3.org/2000/svg">
<path fill-rule="evenodd" clip-rule="evenodd" d="M257.28 67.8267C257.28 46.9356 240.344 30 219.453 30H37.8267C16.9356 30 0 46.9356 0 67.8267V67.84C0 88.7311 16.9356 105.667 37.8267 105.667H166.73C166.443 107.29 166.293 108.961 166.293 110.666C166.293 126.432 179.074 139.213 194.84 139.213H291.453C307.219 139.213 320 126.432 320 110.666C320 94.9006 307.219 82.1198 291.453 82.1198H254.492C256.289 77.7136 257.28 72.8925 257.28 67.84V67.8267ZM5.41341 161.28C5.41341 145.514 18.1942 132.733 33.9601 132.733H130.573C146.268 132.733 159.005 145.399 159.119 161.067H165.747C181.512 161.067 194.293 173.848 194.293 189.613C194.293 205.379 181.512 218.16 165.747 218.16H69.1333C53.4385 218.16 40.7021 205.494 40.5874 189.827H33.9601C18.1942 189.827 5.41341 177.046 5.41341 161.28Z" fill="#EBF8FF"/>
<path d="M143.428 45.0776L118.926 192.874C117.839 199.43 122.268 205.626 128.819 206.714L231.534 223.768C238.085 224.856 244.276 220.423 245.363 213.867L269.865 66.0706C270.952 59.515 266.522 53.3189 259.972 52.2313L157.256 35.1769C150.706 34.0893 144.514 38.522 143.428 45.0776Z" fill="#F58B00"/>
<path d="M229.242 42.1891H129.526C122.886 42.1891 117.503 47.5762 117.503 54.2214V198.052C117.503 204.697 122.886 210.084 129.526 210.084H229.242C235.882 210.084 241.265 204.697 241.265 198.052V54.2214C241.265 47.5762 235.882 42.1891 229.242 42.1891Z" fill="white"/>
<path d="M229.242 211.588H129.526C125.939 211.588 122.498 210.162 119.962 207.624C117.425 205.085 116 201.642 116 198.052V54.2214C116 50.6313 117.425 47.1883 119.962 44.6498C122.498 42.1112 125.939 40.6851 129.526 40.6851H229.242C232.829 40.6851 236.27 42.1112 238.806 44.6498C241.343 47.1883 242.768 50.6313 242.768 54.2214V198.052C242.768 201.642 241.343 205.085 238.806 207.624C236.27 210.162 232.829 211.588 229.242 211.588ZM129.526 43.6931C126.736 43.6931 124.06 44.8023 122.087 46.7768C120.114 48.7512 119.006 51.4291 119.006 54.2214V198.052C119.006 200.844 120.114 203.522 122.087 205.497C124.06 207.471 126.736 208.58 129.526 208.58H229.242C232.032 208.58 234.708 207.471 236.681 205.497C238.654 203.522 239.762 200.844 239.762 198.052V54.2214C239.762 51.4291 238.654 48.7512 236.681 46.7768C234.708 44.8023 232.032 43.6931 229.242 43.6931H129.526Z" fill="#00144A"/>
<path d="M210 129C210 145.569 196.569 159 180 159C163.431 159 150 145.569 150 129C150 112.431 163.431 99 180 99C196.569 99 210 112.431 210 129Z" fill="white"/>
<path d="M180 99C174.067 99 168.266 100.759 163.333 104.056C158.399 107.352 154.554 112.038 152.284 117.52C150.013 123.002 149.419 129.033 150.576 134.853C151.734 140.672 154.591 146.018 158.787 150.213C162.982 154.409 168.328 157.266 174.147 158.424C179.967 159.581 185.999 158.987 191.481 156.716C196.962 154.446 201.648 150.6 204.944 145.667C208.241 140.734 210 134.933 210 129C210 121.044 206.839 113.413 201.213 107.787C195.587 102.161 187.956 99 180 99ZM180 147C179.11 147 178.24 146.736 177.5 146.242C176.76 145.747 176.183 145.044 175.843 144.222C175.502 143.4 175.413 142.495 175.587 141.623C175.76 140.75 176.189 139.948 176.818 139.318C177.447 138.689 178.249 138.26 179.122 138.086C179.995 137.913 180.9 138.002 181.722 138.343C182.544 138.683 183.247 139.26 183.742 140C184.236 140.74 184.5 141.61 184.5 142.5C184.5 143.693 184.026 144.838 183.182 145.682C182.338 146.526 181.193 147 180 147ZM184.74 131.7C184.327 131.896 183.926 132.116 183.54 132.36C183.247 133.198 182.666 133.905 181.901 134.355C181.136 134.806 180.236 134.97 179.361 134.818C178.487 134.667 177.694 134.21 177.124 133.529C176.554 132.848 176.245 131.988 176.25 131.1C176.25 127.68 179.25 126.18 181.26 125.1C184.08 123.63 185.25 122.79 185.25 120.66C185.25 118.53 182.85 116.91 180 116.91C177.15 116.91 174.75 118.65 174.75 120.66C174.75 121.654 174.355 122.609 173.652 123.312C172.948 124.015 171.995 124.41 171 124.41C170.005 124.41 169.052 124.015 168.348 123.312C167.645 122.609 167.25 121.654 167.25 120.66C167.621 117.539 169.124 114.664 171.474 112.577C173.824 110.49 176.857 109.338 180 109.338C183.143 109.338 186.176 110.49 188.526 112.577C190.876 114.664 192.379 117.539 192.75 120.66C192.653 123.085 191.841 125.428 190.415 127.392C188.99 129.357 187.015 130.856 184.74 131.7Z" fill="#004DA5"/>
<path d="M312.275 58.3254C311.979 57.9715 311.593 57.7038 311.158 57.5505C310.723 57.3972 310.255 57.3641 309.803 57.4545L298.987 59.3253C297.198 59.6338 296.491 61.278 296.734 62.6801C296.812 63.2575 297.075 63.7939 297.484 64.2087C297.894 64.6236 298.427 64.8944 299.003 64.9804C299.283 65.0137 299.566 65.0045 299.843 64.9531L310.658 63.0824C311.134 63.01 311.582 62.8103 311.954 62.5044C312.326 62.1985 312.608 61.7976 312.771 61.3444C312.952 60.8406 313.002 60.2989 312.915 59.7705C312.828 59.2422 312.608 58.7448 312.275 58.3254Z" fill="#A9B4BE"/>
<path d="M271.166 15.1267C270.853 15.0203 270.522 14.9802 270.193 15.0091C269.864 15.0379 269.545 15.135 269.256 15.2941C268.967 15.4532 268.714 15.6709 268.513 15.9333C268.313 16.1956 268.17 16.4969 268.092 16.8178L265.112 27.0853C265.006 27.4549 264.975 27.8418 265.02 28.2235C265.065 28.6053 265.186 28.9741 265.376 29.3086C265.565 29.6431 265.819 29.9365 266.124 30.1717C266.428 30.4069 266.776 30.5792 267.147 30.6784C267.299 30.7236 267.454 30.7563 267.612 30.7761C268.192 30.8575 268.782 30.7186 269.265 30.3868C269.748 30.055 270.089 29.5543 270.221 28.9834L273.197 18.7198C273.304 18.3505 273.335 17.9637 273.291 17.582C273.246 17.2003 273.125 16.8313 272.936 16.4967C272.747 16.1622 272.493 15.8687 272.189 15.6334C271.885 15.3982 271.537 15.2259 271.166 15.1267Z" fill="#A9B4BE"/>
<path d="M297.741 29.0303C297.381 29.0069 297.021 29.0572 296.681 29.1781C296.341 29.299 296.029 29.4879 295.765 29.7333L283.798 40.6218C283.264 41.1132 282.94 41.7919 282.895 42.5161C282.85 43.2403 283.087 43.954 283.555 44.5078C283.992 45.0197 284.606 45.3486 285.274 45.4295C285.659 45.4755 286.05 45.4379 286.419 45.3192C286.789 45.2006 287.128 45.0038 287.414 44.7421L299.382 33.8536C299.919 33.3599 300.244 32.6772 300.289 31.9489C300.333 31.2206 300.093 30.5034 299.62 29.9481C299.385 29.6765 299.097 29.4552 298.774 29.2975C298.452 29.1397 298.1 29.0489 297.741 29.0303Z" fill="#A9B4BE"/>
</svg>
