<svg width="320" height="241" viewBox="0 0 320 241" fill="none" xmlns="http://www.w3.org/2000/svg">
<path fill-rule="evenodd" clip-rule="evenodd" d="M257.28 68.3267C257.28 47.4356 240.344 30.5 219.453 30.5H37.8267C16.9356 30.5 0 47.4356 0 68.3267V68.34C0 89.2311 16.9356 106.167 37.8267 106.167H166.73C166.443 107.79 166.293 109.461 166.293 111.166C166.293 126.932 179.074 139.713 194.84 139.713H291.453C307.219 139.713 320 126.932 320 111.166C320 95.4006 307.219 82.6198 291.453 82.6198H254.492C256.289 78.2136 257.28 73.3925 257.28 68.34V68.3267ZM5.41341 161.78C5.41341 146.014 18.1942 133.233 33.9601 133.233H130.573C146.268 133.233 159.005 145.899 159.119 161.567H165.747C181.512 161.567 194.293 174.348 194.293 190.113C194.293 205.879 181.512 218.66 165.747 218.66H69.1333C53.4385 218.66 40.7021 205.994 40.5874 190.327H33.9601C18.1942 190.327 5.41341 177.546 5.41341 161.78Z" fill="#D6D6D6" fill-opacity="0.45" style="mix-blend-mode:color-burn"/>
<path fill-rule="evenodd" clip-rule="evenodd" d="M257.28 68.3267C257.28 47.4356 240.344 30.5 219.453 30.5H37.8267C16.9356 30.5 0 47.4356 0 68.3267V68.34C0 89.2311 16.9356 106.167 37.8267 106.167H166.73C166.443 107.79 166.293 109.461 166.293 111.166C166.293 126.932 179.074 139.713 194.84 139.713H291.453C307.219 139.713 320 126.932 320 111.166C320 95.4006 307.219 82.6198 291.453 82.6198H254.492C256.289 78.2136 257.28 73.3925 257.28 68.34V68.3267ZM5.41341 161.78C5.41341 146.014 18.1942 133.233 33.9601 133.233H130.573C146.268 133.233 159.005 145.899 159.119 161.567H165.747C181.512 161.567 194.293 174.348 194.293 190.113C194.293 205.879 181.512 218.66 165.747 218.66H69.1333C53.4385 218.66 40.7021 205.994 40.5874 190.327H33.9601C18.1942 190.327 5.41341 177.546 5.41341 161.78Z" fill="black" fill-opacity="0.08" style="mix-blend-mode:luminosity"/>
<path d="M143.428 45.5776L118.926 193.374C117.839 199.93 122.268 206.126 128.819 207.213L231.534 224.268C238.085 225.355 244.276 220.923 245.363 214.367L269.865 66.5706C270.952 60.0149 266.522 53.8189 259.972 52.7312L157.256 35.6769C150.706 34.5892 144.514 39.0219 143.428 45.5776Z" fill="#8396A8"/>
<path d="M229.242 42.6895H129.526C122.886 42.6895 117.503 48.0765 117.503 54.7217V198.553C117.503 205.198 122.886 210.585 129.526 210.585H229.242C235.882 210.585 241.265 205.198 241.265 198.553V54.7217C241.265 48.0765 235.882 42.6895 229.242 42.6895Z" fill="#2F3235"/>
<path d="M229.242 212.088H129.526C125.939 212.088 122.498 210.662 119.962 208.123C117.425 205.585 116 202.142 116 198.552V54.7209C116 51.1308 117.425 47.6878 119.962 45.1493C122.498 42.6107 125.939 41.1846 129.526 41.1846H229.242C232.829 41.1846 236.27 42.6107 238.806 45.1493C241.343 47.6878 242.768 51.1308 242.768 54.7209V198.552C242.768 202.142 241.343 205.585 238.806 208.123C236.27 210.662 232.829 212.088 229.242 212.088ZM129.526 44.1926C126.736 44.1926 124.06 45.3019 122.087 47.2763C120.114 49.2507 119.006 51.9286 119.006 54.7209V198.552C119.006 201.344 120.114 204.022 122.087 205.996C124.06 207.971 126.736 209.08 129.526 209.08H229.242C232.032 209.08 234.708 207.971 236.681 205.996C238.654 204.022 239.762 201.344 239.762 198.552V54.7209C239.762 51.9286 238.654 49.2507 236.681 47.2763C234.708 45.3019 232.032 44.1926 229.242 44.1926H129.526Z" fill="#8396A8"/>
<path d="M210 129.5C210 146.069 196.569 159.5 180 159.5C163.431 159.5 150 146.069 150 129.5C150 112.931 163.431 99.5 180 99.5C196.569 99.5 210 112.931 210 129.5Z" fill="#EAECEE"/>
<path d="M180 99.5C174.067 99.5 168.266 101.259 163.333 104.556C158.399 107.852 154.554 112.538 152.284 118.02C150.013 123.502 149.419 129.533 150.576 135.353C151.734 141.172 154.591 146.518 158.787 150.713C162.982 154.909 168.328 157.766 174.147 158.924C179.967 160.081 185.999 159.487 191.481 157.216C196.962 154.946 201.648 151.1 204.944 146.167C208.241 141.234 210 135.433 210 129.5C210 121.544 206.839 113.913 201.213 108.287C195.587 102.661 187.956 99.5 180 99.5ZM180 147.5C179.11 147.5 178.24 147.236 177.5 146.742C176.76 146.247 176.183 145.544 175.843 144.722C175.502 143.9 175.413 142.995 175.587 142.123C175.76 141.25 176.189 140.448 176.818 139.818C177.447 139.189 178.249 138.76 179.122 138.586C179.995 138.413 180.9 138.502 181.722 138.843C182.544 139.183 183.247 139.76 183.742 140.5C184.236 141.24 184.5 142.11 184.5 143C184.5 144.193 184.026 145.338 183.182 146.182C182.338 147.026 181.193 147.5 180 147.5ZM184.74 132.2C184.327 132.396 183.926 132.616 183.54 132.86C183.247 133.698 182.666 134.405 181.901 134.855C181.136 135.306 180.236 135.47 179.361 135.318C178.487 135.167 177.694 134.71 177.124 134.029C176.554 133.348 176.245 132.488 176.25 131.6C176.25 128.18 179.25 126.68 181.26 125.6C184.08 124.13 185.25 123.29 185.25 121.16C185.25 119.03 182.85 117.41 180 117.41C177.15 117.41 174.75 119.15 174.75 121.16C174.75 122.154 174.355 123.109 173.652 123.812C172.948 124.515 171.995 124.91 171 124.91C170.005 124.91 169.052 124.515 168.348 123.812C167.645 123.109 167.25 122.154 167.25 121.16C167.621 118.039 169.124 115.164 171.474 113.077C173.824 110.99 176.857 109.838 180 109.838C183.143 109.838 186.176 110.99 188.526 113.077C190.876 115.164 192.379 118.039 192.75 121.16C192.653 123.585 191.841 125.928 190.415 127.892C188.99 129.857 187.015 131.356 184.74 132.2Z" fill="#5581AE"/>
<path d="M312.275 58.825C311.979 58.471 311.593 58.2033 311.158 58.0501C310.723 57.8968 310.255 57.8637 309.803 57.9541L298.987 59.8248C297.198 60.1334 296.491 61.7776 296.734 63.1797C296.812 63.7571 297.075 64.2935 297.484 64.7083C297.894 65.1231 298.427 65.3939 299.003 65.48C299.283 65.5133 299.566 65.5041 299.843 65.4527L310.658 63.5819C311.134 63.5096 311.582 63.3099 311.954 63.004C312.326 62.698 312.608 62.2972 312.771 61.844C312.952 61.3402 313.002 60.7984 312.915 60.2701C312.828 59.7418 312.608 59.2444 312.275 58.825Z" fill="#A9B4BE"/>
<path d="M271.166 15.6267C270.853 15.5203 270.522 15.4802 270.193 15.5091C269.864 15.5379 269.545 15.635 269.256 15.7941C268.967 15.9532 268.714 16.1709 268.513 16.4333C268.313 16.6956 268.17 16.9969 268.092 17.3178L265.112 27.5853C265.006 27.9549 264.975 28.3418 265.02 28.7235C265.065 29.1053 265.186 29.4741 265.376 29.8086C265.565 30.1431 265.819 30.4365 266.124 30.6717C266.428 30.9069 266.776 31.0792 267.147 31.1784C267.299 31.2236 267.454 31.2563 267.612 31.2761C268.192 31.3575 268.782 31.2186 269.265 30.8868C269.748 30.555 270.089 30.0543 270.221 29.4834L273.197 19.2198C273.304 18.8505 273.335 18.4637 273.291 18.082C273.246 17.7003 273.125 17.3313 272.936 16.9967C272.747 16.6622 272.493 16.3687 272.189 16.1334C271.885 15.8982 271.537 15.7259 271.166 15.6267Z" fill="#A9B4BE"/>
<path d="M297.741 29.53C297.381 29.5066 297.021 29.5569 296.681 29.6778C296.341 29.7987 296.029 29.9876 295.765 30.233L283.798 41.1215C283.264 41.6129 282.94 42.2916 282.895 43.0158C282.85 43.74 283.087 44.4537 283.555 45.0075C283.992 45.5194 284.606 45.8483 285.274 45.9292C285.659 45.9752 286.05 45.9376 286.419 45.8189C286.789 45.7003 287.128 45.5035 287.414 45.2418L299.382 34.3533C299.919 33.8596 300.244 33.1769 300.289 32.4486C300.333 31.7203 300.093 31.0031 299.62 30.4478C299.385 30.1762 299.097 29.9549 298.774 29.7972C298.452 29.6394 298.1 29.5486 297.741 29.53Z" fill="#A9B4BE"/>
</svg>
