<svg width="92" height="93" viewBox="0 0 92 93" fill="none" xmlns="http://www.w3.org/2000/svg">
<path d="M21.9828 4.90794L10.0501 76.8867C9.52086 80.0794 11.678 83.097 14.8682 83.6267L64.8919 91.9323C68.0821 92.462 71.0974 90.3033 71.6267 87.1106L83.5593 15.1318C84.0886 11.9391 81.9315 8.92156 78.7413 8.39187L28.7176 0.0861807C25.5273 -0.443508 22.5121 1.71527 21.9828 4.90794Z" fill="#8396A8"/>
<path d="M63.7757 3.50116H15.2128C11.979 3.50116 9.35742 6.12471 9.35742 9.36103V79.4084C9.35742 82.6447 11.979 85.2683 15.2128 85.2683H63.7757C67.0096 85.2683 69.6311 82.6447 69.6311 79.4084V9.36103C69.6311 6.12471 67.0096 3.50116 63.7757 3.50116Z" fill="#2F3235"/>
<path d="M63.7752 86.0008H15.2123C13.4652 86.0008 11.7897 85.3062 10.5544 84.0699C9.31901 82.8336 8.625 81.1568 8.625 79.4084V9.36103C8.625 7.61263 9.31901 5.93584 10.5544 4.69953C11.7897 3.46323 13.4652 2.76868 15.2123 2.76868H63.7752C65.5223 2.76868 67.1978 3.46323 68.4332 4.69953C69.6685 5.93584 70.3625 7.61263 70.3625 9.36103V79.4084C70.3625 81.1568 69.6685 82.8336 68.4332 84.0699C67.1978 85.3062 65.5223 86.0008 63.7752 86.0008ZM15.2123 4.23364C13.8535 4.23364 12.5503 4.77384 11.5895 5.73542C10.6286 6.69699 10.0888 8.00116 10.0888 9.36103V79.4084C10.0888 80.7683 10.6286 82.0725 11.5895 83.034C12.5503 83.9956 13.8535 84.5358 15.2123 84.5358H63.7752C65.1341 84.5358 66.4372 83.9956 67.3981 83.034C68.3589 82.0725 68.8987 80.7683 68.8987 79.4084V9.36103C68.8987 8.00116 68.3589 6.69699 67.3981 5.73542C66.4372 4.77384 65.1341 4.23364 63.7752 4.23364H15.2123Z" fill="#8396A8"/>
<path d="M54.4043 45.7792C54.4043 53.8483 47.8631 60.3896 39.794 60.3896C31.7249 60.3896 25.1836 53.8483 25.1836 45.7792C25.1836 37.7101 31.7249 31.1689 39.794 31.1689C47.8631 31.1689 54.4043 37.7101 54.4043 45.7792Z" fill="#EAECEE"/>
<path d="M39.794 31.1689C36.9043 31.1689 34.0795 32.0257 31.6769 33.6311C29.2742 35.2366 27.4016 37.5186 26.2958 40.1883C25.1899 42.858 24.9006 45.7955 25.4643 48.6296C26.0281 51.4637 27.4196 54.067 29.4629 56.1103C31.5062 58.1536 34.1095 59.5451 36.9436 60.1089C39.7778 60.6726 42.7154 60.3832 45.3851 59.2774C48.0548 58.1716 50.3366 56.2989 51.942 53.8963C53.5475 51.4936 54.4043 48.6689 54.4043 45.7792C54.4043 41.9043 52.865 38.1881 50.1251 35.4482C47.3851 32.7082 43.6689 31.1689 39.794 31.1689ZM39.794 54.5455C39.3605 54.5455 38.9368 54.4171 38.5764 54.1763C38.216 53.9355 37.9351 53.5929 37.7693 53.1925C37.6034 52.792 37.56 52.3517 37.6445 51.9266C37.7291 51.5015 37.9378 51.1109 38.2443 50.8044C38.5508 50.4979 38.9413 50.289 39.3664 50.2044C39.7915 50.1199 40.2322 50.1634 40.6327 50.3293C41.0331 50.4951 41.3754 50.7761 41.6162 51.1365C41.857 51.4969 41.9855 51.9204 41.9855 52.3539C41.9855 52.9351 41.7546 53.4928 41.3436 53.9038C40.9326 54.3147 40.3752 54.5455 39.794 54.5455ZM42.1024 47.0944C41.9013 47.1896 41.7062 47.2969 41.518 47.4158C41.3754 47.8239 41.0926 48.1682 40.7199 48.3874C40.3473 48.6066 39.909 48.6865 39.4829 48.6128C39.0569 48.5392 38.6708 48.3166 38.3933 47.9851C38.1159 47.6535 37.965 47.2342 37.9677 46.8019C37.9677 45.1363 39.4287 44.4058 40.4076 43.8798C41.781 43.1639 42.3508 42.7548 42.3508 41.7175C42.3508 40.6802 41.1819 39.8912 39.794 39.8912C38.406 39.8912 37.2371 40.7386 37.2371 41.7175C37.2371 42.2019 37.0447 42.6666 36.7022 43.0091C36.3597 43.3516 35.8952 43.5438 35.4109 43.5438C34.9265 43.5438 34.462 43.3516 34.1195 43.0091C33.777 42.6666 33.5846 42.2019 33.5846 41.7175C33.7654 40.1978 34.4974 38.7972 35.6418 37.781C36.7862 36.7647 38.2635 36.2037 39.794 36.2037C41.3244 36.2037 42.8018 36.7647 43.9462 37.781C45.0905 38.7972 45.8225 40.1978 46.0034 41.7175C45.9562 42.8986 45.5606 44.0395 44.8664 44.9963C44.1723 45.953 43.2106 46.683 42.1024 47.0944Z" fill="#5581AE"/>
</svg>
