<svg width="160" height="160" viewBox="0 0 160 160" fill="none" xmlns="http://www.w3.org/2000/svg">
<path d="M104.423 124.652V36.6585C104.446 35.0275 103.826 33.4526 102.696 32.2729C101.567 31.0931 100.017 30.4029 98.3825 30.3508H42.4367C40.6722 30.3508 38.9249 30.6974 37.2947 31.3707C35.6645 32.044 34.1832 33.031 32.9355 34.2751C31.6878 35.5193 30.6981 36.9963 30.0228 38.6218C29.3476 40.2474 29 41.9897 29 43.7492V126.161C29.0038 129.713 30.4207 133.119 32.9397 135.631C35.4588 138.143 38.8742 139.556 42.4367 139.56H117.617V139.46C113.98 139.031 110.629 137.286 108.197 134.557C105.765 131.827 104.422 128.303 104.423 124.652Z" fill="#D5DADD"/>
<path d="M104.423 120.38V32.387C104.446 30.756 103.826 29.1811 102.696 28.0014C101.567 26.8216 100.017 26.1314 98.3825 26.0793H42.4367C40.6722 26.0793 38.9249 26.4259 37.2947 27.0992C35.6645 27.7726 34.1832 28.7595 32.9355 30.0036C31.6878 31.2478 30.6981 32.7248 30.0228 34.3504C29.3476 35.9759 29 37.7182 29 39.4777V121.89C29.0038 125.442 30.4207 128.848 32.9397 131.36C35.4588 133.871 38.8742 135.284 42.4367 135.288H117.617V135.188C113.98 134.759 110.629 133.015 108.197 130.285C105.765 127.556 104.422 124.031 104.423 120.38Z" fill="white"/>
<path fill-rule="evenodd" clip-rule="evenodd" d="M102.91 32.3762L102.91 32.3654C102.927 31.1324 102.459 29.941 101.603 29.0478C100.753 28.16 99.5884 27.6375 98.3568 27.5924H42.4367C40.8703 27.5924 39.3193 27.9001 37.8723 28.4977C36.4254 29.0953 35.1109 29.9712 34.0039 31.0751C32.8969 32.1789 32.019 33.4891 31.4201 34.9308C30.8213 36.3725 30.5131 37.9175 30.5131 39.4777V121.889C30.5166 125.039 31.773 128.059 34.0081 130.288C36.2434 132.517 39.2752 133.772 42.4383 133.775H109.844C108.834 133.06 107.901 132.229 107.067 131.292C104.388 128.286 102.909 124.403 102.91 120.38C102.91 120.38 102.91 120.38 102.91 120.38V32.3762ZM104.423 120.38C104.422 124.031 105.765 127.556 108.197 130.285C109.5 131.749 111.068 132.929 112.803 133.775C114.304 134.507 115.93 134.989 117.617 135.188V135.288H42.4367C38.8742 135.284 35.4588 133.871 32.9397 131.36C30.4207 128.848 29.0038 125.442 29 121.89V39.4777C29 37.7182 29.3476 35.9759 30.0228 34.3504C30.6981 32.7248 31.6878 31.2478 32.9355 30.0036C34.1832 28.7595 35.6645 27.7726 37.2947 27.0992C38.9249 26.4259 40.6722 26.0793 42.4367 26.0793H98.3825C100.017 26.1314 101.567 26.8216 102.696 28.0014C103.826 29.1811 104.446 30.756 104.423 32.387V120.38Z" fill="#00144A"/>
<path d="M66.7114 49.8147H43.0222C41.3898 49.8147 40.0664 51.1343 40.0664 52.762V52.7763C40.0664 54.4041 41.3898 55.7236 43.0222 55.7236H66.7114C68.3438 55.7236 69.6671 54.4041 69.6671 52.7763V52.762C69.6671 51.1343 68.3438 49.8147 66.7114 49.8147Z" fill="#F58B00"/>
<path d="M131.397 30.5379C131.188 30.2884 130.917 30.0997 130.61 29.9917C130.303 29.8836 129.973 29.8603 129.654 29.924L122.031 31.2426C120.77 31.4601 120.272 32.619 120.443 33.6072C120.498 34.0142 120.683 34.3923 120.972 34.6847C121.26 34.9771 121.636 35.168 122.042 35.2286C122.239 35.2521 122.439 35.2456 122.634 35.2093L130.257 33.8908C130.593 33.8398 130.908 33.699 131.171 33.4834C131.433 33.2678 131.632 32.9853 131.747 32.6658C131.874 32.3107 131.909 31.9288 131.848 31.5564C131.787 31.1841 131.632 30.8335 131.397 30.5379Z" fill="#A9B4BE"/>
<path d="M102.421 0.0893038C102.201 0.0143144 101.968 -0.0139239 101.736 0.00639198C101.504 0.0267078 101.279 0.0951303 101.075 0.207293C100.871 0.319456 100.693 0.472895 100.552 0.657812C100.41 0.842729 100.309 1.05506 100.255 1.28126L98.1541 8.51831C98.0795 8.77877 98.0575 9.0515 98.0894 9.32056C98.1213 9.58962 98.2065 9.84962 98.3401 10.0854C98.4736 10.3212 98.6528 10.528 98.8671 10.6937C99.0814 10.8595 99.3267 10.9809 99.5884 11.0509C99.6956 11.0827 99.8051 11.1057 99.916 11.1197C100.325 11.1771 100.741 11.0792 101.081 10.8453C101.422 10.6115 101.662 10.2585 101.755 9.85616L103.853 2.62186C103.928 2.36158 103.95 2.08894 103.919 1.81989C103.887 1.55085 103.802 1.2908 103.669 1.05498C103.536 0.819149 103.357 0.612277 103.142 0.446464C102.928 0.280651 102.683 0.159229 102.421 0.0893038Z" fill="#A9B4BE"/>
<path d="M121.153 9.88918C120.899 9.87271 120.645 9.90816 120.405 9.99336C120.166 10.0786 119.946 10.2117 119.76 10.3847L111.325 18.0594C110.948 18.4057 110.72 18.8842 110.688 19.3946C110.657 19.9051 110.823 20.4081 111.154 20.7984C111.462 21.1592 111.894 21.3911 112.365 21.4481C112.637 21.4805 112.912 21.454 113.172 21.3704C113.433 21.2868 113.672 21.148 113.874 20.9636L122.309 13.2889C122.688 12.9409 122.917 12.4597 122.948 11.9463C122.98 11.433 122.811 10.9275 122.477 10.5361C122.311 10.3446 122.108 10.1887 121.881 10.0775C121.653 9.96633 121.406 9.90228 121.153 9.88918Z" fill="#A9B4BE"/>
<path d="M73.053 160C93.8792 160 110.762 158.106 110.762 155.771C110.762 153.435 93.8792 151.542 73.053 151.542C52.2268 151.542 35.3438 153.435 35.3438 155.771C35.3438 158.106 52.2268 160 73.053 160Z" fill="#D5DADD"/>
</svg>
